<svg width="386" height="321" viewBox="0 0 386 321" fill="none" xmlns="http://www.w3.org/2000/svg">
<path d="M53.3672 211.473L211.013 282.622" stroke="#128A57" stroke-width="1.19327"/>
<path d="M192.457 50.5771L350.102 121.726" stroke="#128A57" stroke-width="1.19327"/>
<path d="M218.906 41.3032L61.2599 112.452" stroke="#128A57" stroke-width="1.19327"/>
<path d="M202.714 151.253L45.0681 222.402" stroke="#128A57" stroke-width="1.19327"/>
<path d="M352.873 217.086L195.227 288.235" stroke="#128A57" stroke-width="1.19327"/>
<path d="M371.018 95.5947L213.372 166.744" stroke="#128A57" stroke-width="1.19327"/>
<path d="M173.629 158.746L331.275 229.894" stroke="#128A57" stroke-width="1.19327"/>
<path d="M35.6519 101.74L193.298 172.889" stroke="#128A57" stroke-width="1.19327"/>
<path d="M265.606 73.6465C262.466 73.552 255.487 76.3931 253.159 77.8892C256.102 80.4747 264.98 80.7648 268.632 80.4337C272.284 80.1025 276.635 78.7317 275.55 77.382C274.279 75.7996 270.938 73.807 265.606 73.6465Z" fill="#269767" stroke="black" stroke-width="1.19327"/>
<path d="M243.871 68.5749C244.043 70.9722 248.423 74.832 250.592 76.4622C253.684 73.9804 255.665 69.5948 254.89 66.848C254.116 64.1011 249.482 58.5259 247.826 59.4785C244.492 61.3962 243.656 65.5783 243.871 68.5749Z" fill="#269767" stroke="black" stroke-width="1.19327"/>
<path d="M268.229 85.0039C266.586 82.9575 260.33 81.1532 257.408 80.5069C256.232 83.8137 258.809 88.7718 261.2 90.9067C263.591 93.0416 269.548 95.8824 270.412 94.4427C270.964 93.5241 271.232 88.743 268.229 85.0039Z" fill="#46D297" stroke="black" stroke-width="1.19327"/>
<path d="M286.259 143.644C283.265 144.375 274.998 143.025 272.232 142.057C274.168 138.966 282.623 136.879 286.259 136.455C289.894 136.03 295.912 137 295.336 138.521C294.76 140.042 290.001 142.732 286.259 143.644Z" fill="#46D297" stroke="black" stroke-width="1.19327"/>
<path d="M270.444 129.668C269.584 131.978 272.078 136.717 273.433 138.798C277.415 137.222 279.862 133.212 280.302 130.422C280.741 127.633 278.92 121.423 276.948 121.911C274.975 122.399 271.519 126.782 270.444 129.668Z" fill="#46D297" stroke="black" stroke-width="1.19327"/>
<path d="M108.488 194.29C111.178 194.32 115.462 191.269 117.268 189.74C114.447 187.237 106.84 187.129 103.765 187.531C100.689 187.933 97.1425 189.379 98.2306 190.694C100.421 193.341 105.126 194.252 108.488 194.29Z" fill="#46D297" stroke="black" stroke-width="1.19327"/>
<path d="M121.012 182.053C121.518 184.422 119.227 188.288 117.872 190.369C113.89 188.793 112.603 184.843 112.163 182.053C111.724 179.263 111.757 174.486 113.811 174.7C117.105 175.044 120.458 179.461 121.012 182.053Z" fill="#46D297" stroke="black" stroke-width="1.19327"/>
<path d="M261.821 269.7C257.026 268.507 254.229 264.49 253.984 262.503C256.622 261.635 260.315 261.74 265.09 263.816C269.848 265.886 271.364 268.371 271.113 268.992C270.862 269.614 267 270.988 261.821 269.7Z" fill="#46D297" stroke="black" stroke-width="1.19327"/>
<path d="M263.91 256.947C261.627 260.383 256.001 261.874 253.393 261.752C252.678 259.627 253.383 256.855 256.806 253.572C260.217 250.3 263.665 249.539 264.43 249.825C265.195 250.11 266.375 253.237 263.91 256.947Z" fill="#269767" stroke="black" stroke-width="1.19327"/>
<path d="M282.715 259.739C277.92 258.547 275.123 254.53 274.878 252.542C277.516 251.675 281.209 251.779 285.983 253.856C290.742 255.925 292.257 258.41 292.006 259.032C291.756 259.653 287.894 261.027 282.715 259.739Z" fill="#269767" stroke="black" stroke-width="1.19327"/>
<path d="M288.449 241.892C287.916 245.723 283.353 248.647 280.858 249.242C279.201 247.45 278.569 244.668 280.237 240.669C281.901 236.684 284.769 235.036 285.617 235.094C286.464 235.153 289.024 237.754 288.449 241.892Z" fill="#46D297" stroke="black" stroke-width="1.19327"/>
<path d="M121.292 88.4771C116.979 86.4316 111.709 88.6119 109.447 90.0769C110.586 92.5135 114.849 94.6673 116.992 95.4202C119.134 96.1731 126.121 96.4068 127.069 95.5435C128.669 94.0861 126.433 90.915 121.292 88.4771Z" fill="#269767" stroke="black" stroke-width="1.19327"/>
<path d="M111.168 80.2282C108.092 83.3133 108.766 87.3177 110.007 89.3753C113.385 89.1907 117.244 86.6314 118.769 85.2566C120.293 83.8819 122.463 78.8026 121.629 77.8732C120.22 76.3042 113.517 77.8734 111.168 80.2282Z" fill="#46D297" stroke="black" stroke-width="1.19327"/>
<path d="M140.597 68.7211C142.81 72.2116 148.79 72.5219 151.726 72.2077C152.469 69.6832 150.374 66.1218 149.09 64.6104C147.806 63.0991 142.066 60.0476 140.66 60.3899C138.288 60.9678 137.959 64.5611 140.597 68.7211Z" fill="#269767" stroke="black" stroke-width="1.19327"/>
<path d="M165.248 68.3986C160.032 66.9047 154.973 70.1156 152.95 72.063C154.861 74.4983 160.054 76.117 162.571 76.5758C165.088 77.0346 172.673 76.1401 173.451 75.0556C174.763 73.2248 171.466 70.1789 165.248 68.3986Z" fill="#46D297" stroke="black" stroke-width="1.19327"/>
<path d="M130.455 151.555C130.232 154.326 133.821 156.124 135.797 156.715C137.42 155.339 137.75 152.555 137.643 151.268C137.537 149.981 135.357 146.537 134.323 146.374C132.577 146.098 130.721 148.252 130.455 151.555Z" fill="#46D297" stroke="black" stroke-width="1.19327"/>
<path d="M136.884 139.53C133.543 140.624 133.055 143.881 133.252 145.495C135.591 145.984 138.994 144.957 140.451 144.306C141.908 143.654 144.954 140.618 144.68 139.839C144.217 138.524 140.865 138.226 136.884 139.53Z" fill="#269767" stroke="black" stroke-width="1.19327"/>
<path d="M114.351 194.52C114.128 197.291 117.716 199.088 119.693 199.68C121.316 198.304 121.645 195.52 121.539 194.233C121.432 192.945 119.253 189.502 118.219 189.339C116.473 189.063 114.616 191.216 114.351 194.52Z" fill="#269767" stroke="black" stroke-width="1.19327"/>
<path d="M135.391 174.165C133.399 176.488 135.349 179.408 136.682 180.67C138.984 180.09 141.983 177.858 142.726 176.7C143.469 175.542 142.903 171.664 142.111 171.13C140.774 170.23 137.764 171.397 135.391 174.165Z" fill="#269767" stroke="black" stroke-width="1.19327"/>
<path d="M108.505 142.97C111.477 139.825 108.998 135.656 107.244 133.83C103.983 134.528 100.872 137.627 99.7397 139.207C98.607 140.787 97.8138 146.096 98.8747 146.879C100.666 148.2 104.963 146.717 108.505 142.97Z" fill="#269767" stroke="black" stroke-width="1.19327"/>
<path d="M97.6581 124.617C96.8451 128.534 101.624 131.464 104.328 132.511C106.882 130.725 107.849 126.802 107.928 124.96C108.007 123.119 105.525 117.996 104.084 117.656C101.652 117.081 98.6271 119.949 97.6581 124.617Z" fill="#46D297" stroke="black" stroke-width="1.19327"/>
<path d="M161.837 19.5301L194.471 0.688936L227.105 19.5301V57.2125L194.471 76.0538L161.837 57.2125V19.5301Z" fill="#2DB97D" stroke="black" stroke-width="1.19327"/>
<path d="M194.693 38.2231L194.728 76.2703" stroke="black" stroke-width="1.19327"/>
<path d="M194.473 38.4574L161.506 19.2822" stroke="black" stroke-width="1.19327"/>
<path d="M194.814 38.4573L226.767 20.0752" stroke="black" stroke-width="1.19327" stroke-linecap="round"/>
<path d="M6.29748 90.8192L38.9314 71.978L71.5653 90.8192V128.502L38.9314 147.343L6.29748 128.502V90.8192Z" fill="#2DB97D" stroke="black" stroke-width="1.19327"/>
<path d="M39.1538 109.512L39.1887 147.559" stroke="black" stroke-width="1.19327"/>
<path d="M38.9337 109.746L5.96729 90.5713" stroke="black" stroke-width="1.19327"/>
<path d="M39.2746 109.746L71.2275 91.3643" stroke="black" stroke-width="1.19327" stroke-linecap="round"/>
<path d="M314.6 96.3739L347.234 77.5327L379.868 96.3739V134.056L347.234 152.898L314.6 134.056V96.3739Z" fill="#2DB97D" stroke="black" stroke-width="1.19327"/>
<path d="M347.456 115.067L347.491 153.114" stroke="black" stroke-width="1.19327"/>
<path d="M347.236 115.301L314.27 96.126" stroke="black" stroke-width="1.19327"/>
<path d="M347.577 115.301L379.53 96.9189" stroke="black" stroke-width="1.19327" stroke-linecap="round"/>
<path d="M161.837 139.888L194.471 121.047L227.105 139.888V177.57L194.471 196.412L161.837 177.57V139.888Z" fill="#2DB97D" stroke="black" stroke-width="1.19327"/>
<path d="M194.693 158.581L194.728 196.628" stroke="black" stroke-width="1.19327"/>
<path d="M194.473 158.815L161.507 139.64" stroke="black" stroke-width="1.19327"/>
<path d="M194.814 158.815L226.767 140.433" stroke="black" stroke-width="1.19327" stroke-linecap="round"/>
<path d="M314.6 210.251L347.234 191.41L379.868 210.251V247.934L347.234 266.775L314.6 247.934V210.251Z" fill="#2DB97D" stroke="black" stroke-width="1.19327"/>
<path d="M347.456 228.944L347.491 266.991" stroke="black" stroke-width="1.19327"/>
<path d="M347.236 229.179L314.27 210.003" stroke="black" stroke-width="1.19327"/>
<path d="M347.577 229.178L379.53 210.796" stroke="black" stroke-width="1.19327" stroke-linecap="round"/>
<path d="M161.837 263.024L194.471 244.183L227.105 263.024V300.706L194.471 319.547L161.837 300.706V263.024Z" fill="#2DB97D" stroke="black" stroke-width="1.19327"/>
<path d="M194.693 281.717L194.728 319.764" stroke="black" stroke-width="1.19327"/>
<path d="M194.473 281.951L161.507 262.776" stroke="black" stroke-width="1.19327"/>
<path d="M194.814 281.951L226.767 263.569" stroke="black" stroke-width="1.19327" stroke-linecap="round"/>
<path d="M5.73742 200.068L38.3713 181.227L71.0053 200.068V237.75L38.3713 256.591L5.73742 237.75V200.068Z" fill="#2DB97D" stroke="black" stroke-width="1.19327"/>
<path d="M38.5938 218.761L38.6287 256.808" stroke="black" stroke-width="1.19327"/>
<path d="M38.3737 218.995L5.40723 199.82" stroke="black" stroke-width="1.19327"/>
<path d="M38.7145 218.995L70.6675 200.613" stroke="black" stroke-width="1.19327" stroke-linecap="round"/>
<path d="M246.955 260.912C247.713 260.167 248.928 260.141 249.739 260.853L249.816 260.921C250.376 261.413 251.096 261.681 251.835 261.674L252.783 261.665C253.465 261.658 253.991 262.314 253.828 262.99C253.642 263.763 253.888 264.592 254.48 265.144C255.024 265.652 254.869 266.543 254.19 266.821L253.794 266.983C253.099 267.267 252.575 267.854 252.372 268.578L252.349 268.66C252.125 269.455 251.285 269.897 250.493 269.637L249.785 269.405C249.046 269.162 248.249 269.179 247.529 269.453L246.839 269.715C246.067 270.008 245.196 269.602 244.915 268.817L244.886 268.737C244.63 268.022 244.065 267.458 243.35 267.204L242.944 267.059C242.245 266.81 242.026 265.927 242.532 265.398C243.083 264.821 243.268 263.983 243.026 263.219C242.815 262.551 243.292 261.874 243.974 261.852L244.921 261.821C245.66 261.796 246.359 261.498 246.882 260.984L246.955 260.912Z" fill="#FFDF3E" stroke="black" stroke-width="1.19327"/>
<path d="M250.728 265.133C250.741 265.503 250.56 265.884 250.174 266.195C249.788 266.507 249.22 266.724 248.561 266.738C247.902 266.752 247.32 266.559 246.911 266.264C246.504 265.97 246.295 265.597 246.282 265.227C246.268 264.857 246.449 264.477 246.835 264.165C247.221 263.853 247.789 263.636 248.448 263.622C249.107 263.608 249.69 263.801 250.098 264.096C250.506 264.391 250.714 264.763 250.728 265.133Z" fill="#FFDF3E" stroke="black" stroke-width="1.19327"/>
<path d="M268.934 137.155C269.693 136.409 270.908 136.384 271.719 137.096L271.796 137.164C272.356 137.656 273.076 137.924 273.815 137.917L274.763 137.908C275.445 137.901 275.971 138.556 275.808 139.232C275.622 140.005 275.868 140.835 276.46 141.387C277.004 141.894 276.849 142.786 276.17 143.064L275.774 143.225C275.079 143.51 274.555 144.097 274.352 144.821L274.329 144.902C274.105 145.697 273.265 146.14 272.473 145.88L271.765 145.647C271.026 145.405 270.229 145.422 269.509 145.695L268.819 145.957C268.047 146.251 267.176 145.844 266.895 145.06L266.866 144.979C266.61 144.265 266.045 143.701 265.33 143.447L264.924 143.302C264.225 143.053 264.006 142.17 264.512 141.64C265.063 141.064 265.248 140.225 265.006 139.461C264.795 138.793 265.272 138.116 265.954 138.094L266.901 138.063C267.64 138.039 268.339 137.741 268.862 137.226L268.934 137.155Z" fill="#FFDF3E" stroke="black" stroke-width="1.19327"/>
<path d="M272.708 141.376C272.721 141.746 272.54 142.126 272.154 142.438C271.768 142.75 271.2 142.967 270.541 142.981C269.882 142.995 269.3 142.802 268.891 142.507C268.484 142.212 268.275 141.84 268.262 141.47C268.248 141.1 268.429 140.72 268.815 140.408C269.201 140.096 269.769 139.879 270.428 139.865C271.087 139.851 271.67 140.044 272.078 140.339C272.486 140.634 272.694 141.006 272.708 141.376Z" fill="#FFDF3E" stroke="black" stroke-width="1.19327"/>
<path d="M251.703 74.2517C252.461 73.506 253.676 73.4802 254.487 74.1927L254.565 74.2609C255.125 74.7523 255.844 75.0206 256.583 75.0134L257.531 75.0042C258.214 74.9976 258.739 75.653 258.577 76.3291C258.391 77.1022 258.637 77.9313 259.229 78.4838C259.772 78.9911 259.618 79.8822 258.938 80.1602L258.543 80.3219C257.847 80.6064 257.324 81.1934 257.12 81.9172L257.097 81.9992C256.874 82.7941 256.033 83.2367 255.242 82.9767L254.534 82.7442C253.794 82.5013 252.998 82.5182 252.277 82.792L251.587 83.0541C250.816 83.3473 249.945 82.941 249.664 82.1567L249.635 82.0759C249.379 81.3618 248.814 80.7978 248.098 80.5432L247.692 80.3985C246.993 80.1498 246.775 79.2666 247.28 78.737C247.831 78.1603 248.017 77.322 247.775 76.558C247.564 75.8899 248.041 75.2132 248.723 75.1909L249.67 75.1599C250.408 75.1358 251.107 74.8374 251.63 74.323L251.703 74.2517Z" fill="#FFDF3E" stroke="black" stroke-width="1.19327"/>
<path d="M255.476 78.4725C255.49 78.8424 255.308 79.2229 254.923 79.5345C254.536 79.8464 253.969 80.0635 253.31 80.0774C252.65 80.0914 252.068 79.8987 251.66 79.6036C251.252 79.3089 251.044 78.9366 251.03 78.5667C251.017 78.1968 251.198 77.8163 251.584 77.5047C251.97 77.1928 252.537 76.9758 253.197 76.9618C253.856 76.9478 254.438 77.1405 254.846 77.4356C255.254 77.7303 255.463 78.1026 255.476 78.4725Z" fill="#FFDF3E" stroke="black" stroke-width="1.19327"/>
<path d="M106.46 87.4148C107.219 86.6691 108.433 86.6433 109.245 87.3558L109.322 87.4239C109.882 87.9154 110.601 88.1836 111.341 88.1765L112.289 88.1673C112.971 88.1606 113.497 88.8161 113.334 89.4922C113.148 90.2653 113.394 91.0944 113.986 91.6469C114.53 92.1542 114.375 93.0453 113.696 93.3233L113.3 93.485C112.605 93.7694 112.081 94.3565 111.878 95.0803L111.855 95.1622C111.631 95.9572 110.791 96.3998 109.999 96.1398L109.291 95.9073C108.552 95.6644 107.755 95.6813 107.035 95.9551L106.345 96.2172C105.573 96.5104 104.702 96.104 104.421 95.3198L104.392 95.239C104.136 94.5249 103.571 93.9609 102.856 93.7063L102.449 93.5616C101.751 93.3129 101.532 92.4297 102.038 91.9001C102.589 91.3234 102.774 90.4851 102.532 89.7211C102.321 89.053 102.798 88.3763 103.48 88.354L104.427 88.323C105.166 88.2989 105.865 88.0005 106.388 87.4861L106.46 87.4148Z" fill="#FFDF3E" stroke="black" stroke-width="1.19327"/>
<path d="M110.234 91.6356C110.247 92.0055 110.066 92.386 109.68 92.6975C109.294 93.0095 108.727 93.2265 108.068 93.2405C107.408 93.2545 106.826 93.0618 106.418 92.7667C106.01 92.472 105.801 92.0997 105.788 91.7298C105.775 91.3599 105.956 90.9794 106.341 90.6678C106.728 90.3559 107.295 90.1388 107.954 90.1249C108.614 90.1109 109.196 90.3036 109.604 90.5987C110.012 90.8934 110.22 91.2657 110.234 91.6356Z" fill="#FFDF3E" stroke="black" stroke-width="1.19327"/>
<path d="M107.861 256.733C114.23 250.65 128.001 251.23 134.806 251.543C138.635 251.719 144.675 252.898 142.714 252.13C140.753 251.363 134.702 251.031 125.657 251.256C116.612 251.48 110.914 253.686 107.963 255.908C105.011 258.131 101.77 262.552 107.861 256.733Z" fill="#239061" stroke="black" stroke-width="1.19327" stroke-linecap="round"/>
<path d="M113.586 245.805C113.446 243.675 116.739 240.45 118.659 239.502C118.815 239.453 119.563 239.839 121.311 241.78C123.496 244.205 122.956 247.156 122.191 248.32C121.425 249.485 117.941 252.928 116.667 251.633C115.393 250.338 113.759 248.467 113.586 245.805Z" fill="#2DB97D" stroke="black" stroke-width="1.19327" stroke-linecap="round"/>
<path d="M108.334 259.442C107.829 256.828 111.324 254.846 113.135 254.181C113.651 254.06 115.383 254.318 118.186 256.311C121.69 258.804 120.033 263.123 119.065 263.918C118.097 264.713 116.416 267.279 115.361 266.336C114.306 265.393 108.965 262.709 108.334 259.442Z" fill="#2DB97D" stroke="black" stroke-width="1.19327" stroke-linecap="round"/>
<path d="M126.058 259.325C128.608 261.084 134.028 260.479 136.419 259.957C136.419 256.797 134.296 253.657 131.247 252.418C128.197 251.18 124.209 251.991 123.354 251.964C122.498 251.938 122.871 257.126 126.058 259.325Z" fill="#46D297" stroke="black" stroke-width="1.19327" stroke-linecap="round"/>
<path d="M105.867 257.544C106.025 259.041 105.068 262.391 99.9732 263.811C95.05 265.183 91.2361 263.667 89.7968 262.649C88.2464 261.826 88.916 260.186 92.7745 256.988C95.8613 254.429 102.789 256.292 105.867 257.544Z" fill="#46D297"/>
<path d="M89.6548 262.544C89.6992 262.578 89.7465 262.613 89.7968 262.649M89.7968 262.649C91.2361 263.667 95.05 265.183 99.9732 263.811C105.068 262.391 106.025 259.041 105.867 257.544C102.789 256.292 95.8613 254.429 92.7745 256.988C88.916 260.186 88.2464 261.826 89.7968 262.649Z" stroke="black" stroke-width="1.19327" stroke-linecap="round"/>
<path d="M108.477 249.468C110.931 251.048 110.378 253.619 109.795 254.707C105.749 255.827 102.931 253.119 101.951 251.311C100.97 249.502 102.315 246.84 102.476 246.434C102.637 246.029 105.41 247.493 108.477 249.468Z" fill="#46D297" stroke="black" stroke-width="1.19327" stroke-linecap="round"/>
<path d="M103.705 259.052C101.656 260.9 95.1977 261.039 92.2244 260.877C96.4009 260.752 101.509 259.073 103.542 258.248C104.45 257.746 105.754 257.204 103.705 259.052Z" fill="#269767"/>
<path d="M107.531 253.937C105.539 253.232 104.229 249.962 103.823 248.416C104.701 250.523 107.109 252.821 108.204 253.706C108.81 254.077 109.523 254.642 107.531 253.937Z" fill="#269767"/>
<path d="M116.847 249.969C116.108 248.39 118.239 245.383 119.398 244.077C118.047 246.034 117.593 248.957 117.535 250.173C117.614 250.764 117.587 251.549 116.847 249.969Z" fill="#269767"/>
<path d="M125.81 252.952C128.539 253.805 132.393 258.188 133.979 260.273C131.457 257.449 127.097 254.45 125.233 253.303C124.288 252.831 123.081 252.099 125.81 252.952Z" fill="#269767"/>
<path d="M114.82 255.967C116.743 257.714 115.888 262.322 115.221 264.407C115.73 261.422 114.497 257.529 113.816 255.956C113.349 255.231 112.896 254.22 114.82 255.967Z" fill="#269767"/>
<path d="M124.15 228.781C129.147 231.202 132.427 240.069 133.355 243.962C133.877 246.153 134.207 249.226 134.557 248.028C134.907 246.83 133.822 243.632 132.005 238.529C130.188 233.425 127.472 230.171 124.92 228.747C122.368 227.322 117.904 225.755 124.15 228.781Z" fill="#239061" stroke="black" stroke-width="1.19327" stroke-linecap="round"/>
<path d="M134.367 229.821C136.195 229.335 139.646 230.38 140.846 231.171C140.919 231.241 140.729 231.696 139.38 232.963C137.693 234.547 135.018 234.848 133.855 234.686C132.691 234.524 129.013 233.425 129.892 232.525C130.771 231.624 132.083 230.429 134.367 229.821Z" fill="#46D297" stroke="black" stroke-width="1.19327" stroke-linecap="round"/>
<path d="M121.466 229.813C123.644 229.046 126.052 230.436 126.984 231.227C127.19 231.466 127.304 232.397 126.114 234.21C124.627 236.477 120.543 236.478 119.661 236.141C118.78 235.804 116.217 235.45 116.833 234.73C117.449 234.009 118.744 230.771 121.466 229.813Z" fill="#46D297" stroke="black" stroke-width="1.19327" stroke-linecap="round"/>
<path d="M125.026 238.799C123.992 240.438 125.575 243.076 126.496 244.189C129.249 243.573 131.569 241.881 132.053 240.089C132.537 238.298 131.052 236.429 130.909 235.989C130.765 235.549 126.319 236.75 125.026 238.799Z" fill="#46D297" stroke="black" stroke-width="1.19327" stroke-linecap="round"/>
<path d="M122.636 228.188C121.363 228.561 118.26 228.727 116.029 226.415C113.874 224.18 114.45 221.945 115.056 221.015C115.47 220.066 117.029 220.087 120.567 221.424C123.397 222.494 123.126 226.379 122.636 228.188Z" fill="#46D297"/>
<path d="M115.119 220.922C115.098 220.952 115.077 220.983 115.056 221.015M115.056 221.015C114.45 221.945 113.874 224.18 116.029 226.415C118.26 228.727 121.363 228.561 122.636 228.188C123.126 226.379 123.397 222.494 120.567 221.424C117.029 220.087 115.47 220.066 115.056 221.015Z" stroke="black" stroke-width="1.19327" stroke-linecap="round"/>
<path d="M130.181 227.94C129.284 229.495 126.937 229.716 125.876 229.632C124.111 227.793 125.92 225.833 127.303 224.982C128.687 224.13 131.268 224.295 131.652 224.297C132.037 224.3 131.303 225.995 130.181 227.94Z" fill="#46D297" stroke="black" stroke-width="1.19327" stroke-linecap="round"/>
<path d="M120.581 227.357C118.572 226.677 117.191 223.421 116.752 221.878C117.676 223.976 120.135 226.245 121.249 227.118C121.863 227.481 122.59 228.038 120.581 227.357Z" fill="#269767"/>
<path d="M126.391 228.346C126.616 227.195 129.208 225.892 130.476 225.384C128.812 226.241 127.281 227.913 126.723 228.642C126.519 229.023 126.166 229.496 126.391 228.346Z" fill="#269767"/>
<path d="M131.83 232.35C133.061 231.666 136.096 232.163 137.459 232.497C135.492 232.192 132.858 232.532 131.787 232.739C131.288 232.895 130.599 233.034 131.83 232.35Z" fill="#269767"/>
<path d="M130.576 237.436C130.365 238.99 127.3 241.804 125.794 243.017C127.761 241.184 129.523 238.383 130.157 237.212C130.385 236.639 130.786 235.883 130.576 237.436Z" fill="#269767"/>
<path d="M125.357 232.622C124.211 233.94 120.031 234.405 118.085 234.472C120.784 234.149 123.934 232.762 125.171 232.109C125.711 231.731 126.504 231.303 125.357 232.622Z" fill="#269767"/>
<path d="M118.958 133.393C121.952 134.206 125.051 138.55 126.144 140.504C126.759 141.603 127.411 143.182 127.408 142.523C127.404 141.864 126.457 140.119 124.71 137.612C122.963 135.106 120.914 133.819 119.356 133.305C117.798 132.791 115.216 132.377 118.958 133.393Z" fill="#239061" stroke="black" stroke-width="1.19327" stroke-linecap="round"/>
<path d="M118.822 135.533C121 134.767 123.408 136.156 124.34 136.947C124.546 137.186 124.66 138.117 123.47 139.931C121.983 142.198 117.899 142.198 117.017 141.861C116.136 141.524 113.573 141.17 114.189 140.45C114.805 139.729 116.1 136.491 118.822 135.533Z" fill="#46D297" stroke="black" stroke-width="1.19327" stroke-linecap="round"/>
<path d="M119.992 133.908C118.719 134.281 115.616 134.448 113.385 132.135C111.23 129.9 111.806 127.666 112.412 126.735C112.826 125.787 114.385 125.807 117.923 127.145C120.753 128.215 120.482 132.099 119.992 133.908Z" fill="#46D297"/>
<path d="M112.475 126.643C112.454 126.672 112.433 126.703 112.412 126.735M112.412 126.735C111.806 127.666 111.23 129.9 113.385 132.135C115.616 134.448 118.719 134.281 119.992 133.908C120.482 132.099 120.753 128.215 117.923 127.145C114.385 125.807 112.826 125.787 112.412 126.735Z" stroke="black" stroke-width="1.19327" stroke-linecap="round"/>
<path d="M127.534 133.659C126.637 135.215 124.29 135.435 123.229 135.351C121.464 133.513 123.273 131.552 124.657 130.701C126.04 129.85 128.621 130.015 129.005 130.017C129.39 130.02 128.656 131.715 127.534 133.659Z" fill="#46D297" stroke="black" stroke-width="1.19327" stroke-linecap="round"/>
<path d="M117.687 133.06C115.678 132.379 114.297 129.123 113.858 127.58C114.781 129.678 117.241 131.948 118.355 132.82C118.969 133.183 119.696 133.741 117.687 133.06Z" fill="#269767"/>
<path d="M133 148.263C132.092 149.792 133.894 152.925 134.909 154.301C133.772 152.264 133.635 149.32 133.708 148.102C133.851 147.519 133.909 146.734 133 148.263Z" fill="#269767"/>
<path d="M123.64 134.186C123.866 133.036 126.458 131.732 127.726 131.224C126.061 132.081 124.53 133.754 123.973 134.483C123.768 134.863 123.415 135.336 123.64 134.186Z" fill="#269767"/>
<path d="M122.825 138.2C121.678 139.519 117.499 139.983 115.553 140.05C118.252 139.727 121.402 138.34 122.639 137.688C123.179 137.309 123.971 136.881 122.825 138.2Z" fill="#269767"/>
<path d="M290.248 89.054C287.579 90.3704 281.183 89.5969 278.49 89.0664C276.974 88.7678 274.94 88.1995 275.625 88.5994C276.31 88.9993 278.698 89.4905 282.364 89.9622C286.029 90.4339 288.614 89.9784 290.097 89.3486C291.58 88.7188 293.585 87.4085 290.248 89.054Z" fill="#239061" stroke="black" stroke-width="1.19327" stroke-linecap="round"/>
<path d="M288.114 87.6675C287.581 89.4534 284.67 90.0634 283.281 90.1452C282.908 90.124 281.873 89.6251 280.718 87.7985C279.274 85.5153 281.765 83.0424 282.652 82.7144C283.54 82.3863 285.47 81.0511 285.842 81.8632C286.213 82.6754 288.781 85.4351 288.114 87.6675Z" fill="#46D297" stroke="black" stroke-width="1.19327" stroke-linecap="round"/>
<path d="M289.084 89.3672C289.474 88.3693 291.194 86.3886 294.954 86.4492C298.587 86.5078 300.552 88.2196 301.147 89.1542C301.878 89.9837 300.906 90.9145 297.361 92.2405C294.524 93.3012 290.661 90.7669 289.084 89.3672Z" fill="#46D297"/>
<path d="M301.205 89.2491C301.187 89.2185 301.168 89.1868 301.147 89.1542M301.147 89.1542C300.552 88.2196 298.587 86.5078 294.954 86.4492C291.194 86.3886 289.474 88.3693 289.084 89.3672C290.661 90.7669 294.524 93.3012 297.361 92.2405C300.906 90.9145 301.878 89.9837 301.147 89.1542Z" stroke="black" stroke-width="1.19327" stroke-linecap="round"/>
<path d="M284.741 94.0845C283.676 92.5924 284.879 91.037 285.613 90.4458C288.596 90.4992 289.526 92.7901 289.565 94.147C289.604 95.5039 287.859 96.9658 287.621 97.197C287.384 97.4283 286.074 95.9497 284.741 94.0845Z" fill="#46D297" stroke="black" stroke-width="1.19327" stroke-linecap="round"/>
<path d="M292.093 88.7977C294.024 87.9968 298.244 89.1475 300.112 89.823C297.372 89.1017 293.518 89.2061 291.934 89.3485C291.182 89.4985 290.161 89.5985 292.093 88.7977Z" fill="#269767"/>
<path d="M286.729 91.7222C287.784 92.5604 287.555 94.9248 287.309 96.0022C287.435 94.4716 286.634 92.5247 286.218 91.7425C285.949 91.3865 285.673 90.884 286.729 91.7222Z" fill="#269767"/>
<path d="M282.711 88.26C282.042 86.7615 284.111 83.9483 285.228 82.729C283.917 84.56 283.433 87.3126 283.355 88.46C283.419 89.0177 283.379 89.7584 282.711 88.26Z" fill="#269767"/>
<path d="M262.833 185.126C263.143 184.52 264.248 183.321 266.185 183.372" stroke="black" stroke-width="1.19327" stroke-linecap="round"/>
<path d="M258.905 184.942C260.899 186.464 260.563 187.688 260.146 188.109C263.311 185.733 263.268 187.263 265.994 186.66C270.067 185.758 271.068 183.224 270.376 180.565C269.378 176.73 264.614 175.346 260.614 177.296C257.745 178.695 256.413 183.038 258.905 184.942Z" fill="#269767" stroke="black" stroke-width="1.19327" stroke-linecap="round"/>
<path d="M260.526 187.904C261.739 186.688 264.425 182.826 264.697 179.656" stroke="black" stroke-width="0.795516" stroke-linecap="round"/>
<path d="M262.654 185.213C263.19 184.579 264.695 183.26 266.428 183.059" stroke="black" stroke-width="0.795516" stroke-linecap="round"/>
<path d="M261.926 186.168C262.063 185.421 262.052 183.671 260.912 182.653" stroke="black" stroke-width="0.795516" stroke-linecap="round"/>
<path d="M264.305 181.555C264.611 181.129 265.329 180.329 266.146 180.017" stroke="black" stroke-width="0.795516" stroke-linecap="round"/>
<path d="M261.854 180.119C262.456 180.466 263.639 181.609 263.561 183.405" stroke="black" stroke-width="0.795516" stroke-linecap="round"/>
<path d="M252.283 192.789C266.219 194.817 274.546 190.215 276.816 187.47C279.505 183.726 275.444 189.893 268.469 191.516C262.428 192.921 263.771 192.803 256.683 192.683C255.678 192.666 234.862 190.254 252.283 192.789Z" fill="#4E8B43" stroke="black" stroke-width="1.19327" stroke-linecap="round"/>
<path d="M249.48 191.867C256.881 191.812 260.523 188.806 261.316 187.224C262.189 185.099 260.939 188.571 257.589 189.948C254.687 191.14 255.358 190.974 251.717 191.468C251.2 191.538 240.228 191.934 249.48 191.867Z" fill="#4E8B43" stroke="black" stroke-width="1.19327" stroke-linecap="round"/>
<path d="M269.646 192.488C275.906 192.798 278.443 195.338 278.827 196.635C279.178 198.369 278.753 195.542 276.166 194.318C273.925 193.258 274.464 193.415 271.468 192.888C271.044 192.813 261.821 192.1 269.646 192.488Z" fill="#4E8B43" stroke="black" stroke-width="1.19327" stroke-linecap="round"/>
<path d="M254.26 193.803C257.955 196.094 257.874 198.09 257.265 198.795C256.349 199.683 257.934 198.286 257.123 196.855C256.421 195.616 256.654 195.87 255.133 194.607C254.917 194.428 249.64 190.94 254.26 193.803Z" fill="#4E8B43" stroke="black" stroke-width="1.19327" stroke-linecap="round"/>
<path d="M279.23 197.76C279.86 198.29 280.866 199.708 279.853 201.141" stroke="black" stroke-width="1.19327" stroke-linecap="round"/>
<path d="M281.388 194.893C278.449 195.649 277.035 194.798 276.695 194.278C278.213 197.822 276.261 197.042 275.706 199.389C274.878 202.896 277.657 204.888 281.423 205.667C286.858 206.791 290.972 203.881 290.413 199.917C290.011 197.073 285.061 193.947 281.388 194.893Z" fill="#269767" stroke="black" stroke-width="1.19327" stroke-linecap="round"/>
<path d="M276.773 194.665C277.749 196.173 281.415 200.083 285.371 201.838" stroke="black" stroke-width="0.795516" stroke-linecap="round"/>
<path d="M279.204 197.583C279.76 198.296 280.725 200.074 280.137 201.477" stroke="black" stroke-width="0.795516" stroke-linecap="round"/>
<path d="M278.328 196.568C279.226 197.036 281.488 197.883 283.357 197.523" stroke="black" stroke-width="0.795516" stroke-linecap="round"/>
<path d="M283.113 200.615C283.513 201.054 284.194 201.986 284.197 202.753" stroke="black" stroke-width="0.795516" stroke-linecap="round"/>
<path d="M286.164 199.471C285.422 199.754 283.369 200.086 281.092 199.149" stroke="black" stroke-width="0.795516" stroke-linecap="round"/>
<path d="M258.382 199.462C258.869 200.05 259.519 201.538 258.233 202.781" stroke="black" stroke-width="1.19327" stroke-linecap="round"/>
<path d="M261.082 196.993C258.1 197.338 256.933 196.341 256.723 195.799C257.394 199.39 255.696 198.391 254.647 200.567C253.079 203.82 255.301 206.087 258.737 207.318C263.694 209.095 268.278 206.838 268.617 202.968C268.861 200.193 264.809 196.56 261.082 196.993Z" fill="#46D297" stroke="black" stroke-width="1.19327" stroke-linecap="round"/>
<path d="M256.712 196.179C257.314 197.75 259.963 201.967 263.365 204.158" stroke="black" stroke-width="0.795516" stroke-linecap="round"/>
<path d="M258.398 199.288C258.773 200.043 259.305 201.87 258.432 203.139" stroke="black" stroke-width="0.795516" stroke-linecap="round"/>
<path d="M257.784 198.202C258.54 198.767 260.519 199.87 262.39 199.766" stroke="black" stroke-width="0.795516" stroke-linecap="round"/>
<path d="M261.473 202.697C261.759 203.168 262.205 204.149 262.039 204.884" stroke="black" stroke-width="0.795516" stroke-linecap="round"/>
<path d="M264.647 201.994C263.874 202.169 261.835 202.222 259.86 201.031" stroke="black" stroke-width="0.795516" stroke-linecap="round"/>
<path d="M279.667 186.888C280.542 186.271 282.892 185.277 285.29 186.247" stroke="black" stroke-width="1.19327" stroke-linecap="round"/>
<path d="M274.867 184.823C276.158 187.671 274.756 189.054 273.894 189.39C279.78 187.878 278.501 189.783 282.415 190.298C288.264 191.066 291.553 188.343 292.811 184.674C294.625 179.379 289.735 175.411 283.139 175.997C278.407 176.417 273.254 181.262 274.867 184.823Z" fill="#46D297" stroke="black" stroke-width="1.19327" stroke-linecap="round"/>
<path d="M274.538 189.31C277.04 188.345 283.511 184.739 286.392 180.875" stroke="black" stroke-width="0.795516" stroke-linecap="round"/>
<path d="M279.372 186.916C280.555 186.368 283.505 185.411 285.848 185.967" stroke="black" stroke-width="0.795516" stroke-linecap="round"/>
<path d="M277.689 187.777C278.46 186.9 279.847 184.692 279.228 182.878" stroke="black" stroke-width="0.795516" stroke-linecap="round"/>
<path d="M283.433 183.943C284.159 183.55 285.705 182.878 286.982 182.867" stroke="black" stroke-width="0.795516" stroke-linecap="round"/>
<path d="M282.442 180.13C282.921 180.848 283.495 182.84 281.959 185.064" stroke="black" stroke-width="0.795516" stroke-linecap="round"/>
<path d="M247.921 188.278C248.679 187.532 249.894 187.506 250.705 188.219L250.783 188.287C251.342 188.778 252.062 189.046 252.801 189.039L253.749 189.03C254.432 189.023 254.957 189.679 254.794 190.355C254.609 191.128 254.855 191.957 255.446 192.51C255.99 193.017 255.836 193.908 255.156 194.186L254.761 194.348C254.065 194.632 253.542 195.219 253.338 195.943L253.315 196.025C253.091 196.82 252.251 197.263 251.459 197.003L250.752 196.77C250.012 196.527 249.216 196.544 248.495 196.818L247.805 197.08C247.033 197.373 246.162 196.967 245.881 196.183L245.852 196.102C245.597 195.388 245.031 194.824 244.316 194.569L243.91 194.424C243.211 194.176 242.992 193.292 243.498 192.763C244.049 192.186 244.234 191.348 243.993 190.584C243.781 189.916 244.258 189.239 244.941 189.217L245.888 189.186C246.626 189.162 247.325 188.863 247.848 188.349L247.921 188.278Z" fill="#FFDF3E" stroke="black" stroke-width="1.19327"/>
<path d="M251.694 192.498C251.707 192.868 251.526 193.249 251.14 193.56C250.754 193.872 250.187 194.089 249.527 194.103C248.868 194.117 248.286 193.925 247.878 193.629C247.47 193.335 247.261 192.963 247.248 192.593C247.235 192.223 247.416 191.842 247.801 191.531C248.188 191.219 248.755 191.002 249.414 190.988C250.074 190.974 250.656 191.166 251.064 191.461C251.472 191.756 251.68 192.128 251.694 192.498Z" fill="#FFDF3E" stroke="black" stroke-width="1.19327"/>
<path d="M144.397 256.749L144.812 257.125L144.397 256.749C145.074 256.264 145.96 256.025 146.811 256.099L146.995 256.115L146.861 256.638L146.995 256.115C147.941 256.197 148.81 255.519 148.73 254.761C148.656 254.066 149.013 253.35 149.682 252.84C150.4 252.293 150.361 251.402 149.609 251.016L149.272 250.843C148.577 250.485 148.129 249.892 148.032 249.221C147.905 248.351 146.824 247.813 145.731 248.076C144.888 248.279 143.997 248.206 143.288 247.865L142.945 247.7C142.177 247.33 141.095 247.663 140.73 248.386C140.39 249.06 139.679 249.599 138.816 249.829C137.876 250.079 137.416 250.96 137.897 251.588L137.99 251.71C138.423 252.275 138.496 252.99 138.188 253.66L138.174 253.69C137.817 254.467 138.37 255.251 139.351 255.359L139.676 255.395C140.527 255.489 141.262 255.855 141.719 256.411L141.893 256.623C142.419 257.265 143.582 257.335 144.366 256.772L144.397 256.749Z" fill="#FFDF3E" stroke="black" stroke-width="1.19327"/>
<path d="M141.959 251.366C141.361 252.068 141.571 253.098 142.636 253.628C143.702 254.158 145.019 253.889 145.618 253.186C146.217 252.484 146.006 251.455 144.941 250.925C143.875 250.394 142.558 250.664 141.959 251.366Z" fill="#FFDF3E" stroke="black" stroke-width="1.19327"/>
<path d="M103.339 131.322C101.801 128.99 99.9987 124.826 102.227 122.264C102.262 124.687 102.539 129.313 103.339 131.322Z" fill="#269767"/>
<path d="M111.172 87.4043C111.697 84.8241 113.401 80.6358 117.164 79.542C115.348 81.5284 112.05 85.4148 111.172 87.4043Z" fill="#269767"/>
<path d="M115.324 90.3476C118.721 90.6317 124.274 91.7429 125.875 94.5655C123.195 93.2692 117.965 90.9282 115.324 90.3476Z" fill="#1B8357"/>
<path d="M153.897 71.784C157.265 71.3434 163.005 71.2449 165.559 73.6224C162.517 72.9391 156.645 71.7874 153.897 71.784Z" fill="#269767"/>
<path d="M260.093 78.0093C263.155 76.8504 268.618 75.5009 271.956 77.2203C268.785 77.231 262.727 77.4115 260.093 78.0093Z" fill="#197A51"/>
<path d="M250.198 73.2262C248.78 70.8506 247.188 66.6365 249.544 64.142C249.457 66.5641 249.5 71.1954 250.198 73.2262Z" fill="#197A51"/>
<path d="M259.038 83.2466C262.13 84.3599 266.908 86.7913 267.219 89.858C265.237 87.9662 261.289 84.4522 259.038 83.2466Z" fill="#269767"/>
<path d="M289.202 139.887C286.131 141.033 280.658 142.358 277.333 140.624C280.504 140.628 286.563 140.474 289.202 139.887Z" fill="#269767"/>
<path d="M276.074 127.756C276.668 130.327 276.827 134.711 273.729 136.675C274.607 134.347 276.084 129.855 276.074 127.756Z" fill="#269767"/>
<path d="M284.122 238.232C284.716 240.804 284.875 245.188 281.777 247.152C282.655 244.824 284.132 240.332 284.122 238.232Z" fill="#269767"/>
<path d="M267.698 268.253C264.334 267.789 258.895 266.386 257.556 263.485C260.111 264.921 265.116 267.534 267.698 268.253Z" fill="#269767"/>
<path d="M115.936 179.711C117.383 182.077 119.025 186.28 116.699 188.791C116.757 186.368 116.658 181.737 115.936 179.711Z" fill="#269767"/>
<path d="M101.374 191C104.493 189.933 110.02 188.745 113.269 190.562C110.099 190.479 104.037 190.481 101.374 191Z" fill="#269767"/>
<path d="M118.147 197.004C117.151 195.324 116.036 192.345 117.707 190.586C117.639 192.297 117.659 195.569 118.147 197.004Z" fill="#1B8256"/>
<path d="M287.991 257.284C284.101 257.08 277.702 256.009 275.708 252.847C278.841 254.231 284.945 256.715 287.991 257.284Z" fill="#1B8256"/>
<path d="M262.151 253.55C261.049 256.1 258.397 260.13 254.338 260.755C256.618 258.974 260.821 255.456 262.151 253.55Z" fill="#1B8256"/>
<path d="M150.231 71.8519C147.411 70.3758 143.203 67.393 143.536 64.3276C145.097 66.4369 148.261 70.3873 150.231 71.8519Z" fill="#1C7E55"/>
<path d="M133.536 145.202C134.848 143.629 137.533 141.261 140.406 141.369C138.472 142.271 134.857 144.092 133.536 145.202Z" fill="#1C875A"/>
<path d="M106.767 134.924C106.626 137.665 105.414 142.064 101.267 143.016C103.005 140.99 106.112 137.01 106.767 134.924Z" fill="#1B8256"/>
</svg>
