<svg width="142" height="123" viewBox="0 0 142 123" fill="none" xmlns="http://www.w3.org/2000/svg">
<rect x="25.6283" y="9.50815" width="89.7675" height="104.1" rx="7.9053" fill="#FFDB24" stroke="black" stroke-width="1.67743"/>
<path d="M33.541 8.61899H107.498C111.864 8.61899 115.403 12.1583 115.403 16.5243V95.1684H25.6357V16.5243C25.6357 12.1583 29.175 8.61899 33.541 8.61899Z" fill="#FFDB24" stroke="black" stroke-width="1.67743"/>
<path d="M54.5662 77.2514C51.0145 80.5941 49.8654 90.4829 49.7348 95.0095H91.6493C91.4403 90.2044 87.732 81.1687 85.904 77.2514C97.1334 70.3311 106.447 64.2474 101.965 45.2606C96.4072 21.718 54.5662 14.5758 41.5088 39.1238C31.0629 58.7622 45.8613 72.7249 54.5662 77.2514Z" fill="#B3E9FF" stroke="black" stroke-width="1.67743"/>
<path d="M54.7003 58.9227C55.671 61.1007 58.7745 61.1128 58.8806 57.397C59.7983 60.0394 61.6227 62.0446 63.6579 58.3258" stroke="black" stroke-width="1.67743" stroke-linecap="round" stroke-linejoin="round"/>
<path d="M54.7003 58.9227C55.671 61.1007 58.7745 61.1128 58.8806 57.397C59.7983 60.0394 61.6227 62.0446 63.6579 58.3258" stroke="black" stroke-opacity="0.2" stroke-width="1.67743" stroke-linecap="round" stroke-linejoin="round"/>
<path d="M54.7003 58.9227C55.671 61.1007 58.7745 61.1128 58.8806 57.397C59.7983 60.0394 61.6227 62.0446 63.6579 58.3258" stroke="black" stroke-opacity="0.2" stroke-width="1.67743" stroke-linecap="round" stroke-linejoin="round"/>
<circle cx="81.3779" cy="58.7497" r="4.27242" fill="#FFB6B3" stroke="black" stroke-width="1.04839"/>
<circle cx="45.5185" cy="58.1838" r="4.27242" fill="#FFB6B3" stroke="black" stroke-width="1.04839"/>
<path d="M79.9927 53.3872C79.9927 55.4318 79.4506 57.2442 78.6182 58.5202C77.7809 59.8037 76.7215 60.4556 75.6735 60.4556C74.6254 60.4556 73.566 59.8037 72.7287 58.5202C71.8964 57.2442 71.3542 55.4318 71.3542 53.3872C71.3542 51.3425 71.8964 49.5301 72.7287 48.2542C73.566 46.9706 74.6254 46.3187 75.6735 46.3187C76.7215 46.3187 77.7809 46.9706 78.6182 48.2542C79.4506 49.5301 79.9927 51.3425 79.9927 53.3872Z" fill="black" stroke="black" stroke-width="1.67743"/>
<ellipse cx="75.6741" cy="50.1167" rx="3.35663" ry="3.27052" fill="white"/>
<ellipse cx="48.5198" cy="52.1923" rx="5.15797" ry="7.90718" fill="black"/>
<ellipse cx="48.5193" cy="48.9224" rx="3.35663" ry="3.27052" fill="white"/>
<path d="M60.1712 16.1355C58.4279 15.0315 57.2665 33.6714 58.4279 35.043C59.5893 36.4146 66.3396 33.8361 66.6078 32.0928C66.876 30.3496 61.9145 17.2395 60.1712 16.1355Z" fill="white" stroke="black" stroke-width="1.67743"/>
<path d="M58.4789 21.2251C59.257 22.4742 61.2801 24.223 63.1478 21.2251" stroke="black" stroke-width="1.67743"/>
<path d="M57.9604 26.7554C59.1527 28.0045 62.2526 29.7533 65.1145 26.7554" stroke="black" stroke-width="1.67743"/>
<path d="M59.9501 108.531V107.646L60.7335 107.495V102.213L59.9501 102.062V101.172H60.7335H62.2295L65.4337 106.277L65.4641 106.272V102.213L64.524 102.062V101.172H66.7832H67.5716V102.062L66.7832 102.213V108.531H65.3579L62.0829 103.477L62.0526 103.482V107.495L62.9977 107.646V108.531H59.9501ZM68.0568 108.531V107.646L68.8401 107.495V102.213L68.0568 102.062V101.172H73.9144V103.189H72.7823L72.7166 102.309H70.3159V104.336H72.8935V105.473H70.3159V107.495L71.1043 107.646V108.531H68.0568ZM76.2493 108.531V107.646L77.0377 107.495V102.309H75.6984L75.6176 103.189H74.5006V101.172H81.0658V103.189H79.9438L79.8629 102.309H78.5135V107.495L79.307 107.646V108.531H76.2493Z" fill="black"/>
<circle cx="12.7021" cy="36.4473" r="4.08823" transform="rotate(-29.1986 12.7021 36.4473)" fill="#B3E9FF" stroke="black" stroke-width="1.23947"/>
<circle cx="126.184" cy="92.3369" r="4.08823" transform="rotate(-29.1986 126.184 92.3369)" fill="#B3E9FF" stroke="black" stroke-width="1.23947"/>
</svg>
