<svg width="142" height="123" viewBox="0 0 142 123" fill="none" xmlns="http://www.w3.org/2000/svg">
<g clip-path="url(#clip0_678_18765)">
<circle cx="69.8431" cy="106.807" r="39.662" stroke="#7D888A" stroke-width="1.52546" stroke-dasharray="14.96 14.96"/>
<path d="M74.2024 95.4231C74.6002 95.343 76.0378 94.9657 76.7586 88.5133C77.2472 84.5737 77.375 79.3839 77.5261 74.1832C77.5261 74.1832 78.0898 55.1929 73.6128 43.5963C72.6612 41.187 71.5531 38.8461 70.2958 36.5889V36.5889L61.0684 38.4617C60.479 41.1757 60.0767 43.9258 59.8644 46.6918C59.0975 56.4374 61.3795 65.0381 63.859 75.0163C64.0187 75.6584 64.1118 76.009 64.1626 76.1859C65.3448 80.7009 67.0236 85.0606 69.1677 89.1832C70.7892 92.2632 72.6178 95.7262 74.2024 95.4231Z" fill="#FF3571" stroke="black" stroke-width="1.39875" stroke-miterlimit="10"/>
<path d="M74.6887 47.6781L59.6685 50.1741C59.6752 49.0635 59.722 47.9485 59.8037 46.8173C60.0027 44.1014 60.3904 41.4022 60.9639 38.7392L70.1395 36.9556C71.3972 39.1779 72.5055 41.4827 73.457 43.8545C73.9377 45.1049 74.3489 46.3814 74.6887 47.6781V47.6781Z" fill="#B3E9FF" stroke="black" stroke-width="1.39875" stroke-miterlimit="10"/>
<path d="M68.051 38.3406C72.2396 36.6593 73.4603 32.1104 73.7948 30.9617C75.809 23.4258 69.8417 16.9336 69.2496 16.307C66.8031 14.0603 64.0493 12.1679 61.0709 10.6867C60.5745 10.4534 59.3487 9.91037 58.9908 10.3347C58.6329 10.759 59.5661 12.0387 59.8363 13.8883C59.9679 15.3248 59.7181 16.7679 59.1117 18.0739C57.6851 21.9302 55.6776 22.2513 54.7589 25.8482C54.5113 26.8148 54.4028 27.8121 54.4365 28.8107C54.5186 30.9759 55.256 33.0709 56.5527 34.8226C58.9975 37.9638 63.8656 40.0132 68.051 38.3406Z" fill="#C69C6D" stroke="black" stroke-width="1.39875" stroke-miterlimit="10"/>
<path d="M58.9942 10.3257C59.3798 9.92241 60.5469 10.442 61.0336 10.6708C63.9512 12.1272 66.6504 13.9823 69.052 16.1817C71.2884 18.6222 72.8641 21.5843 73.6303 24.7878C71.6424 26.0608 69.0027 27.2584 66.6665 26.3844C65.3582 25.9004 65.0029 25.0767 63.8652 24.4511C62.2849 23.5838 59.6068 23.3145 54.7734 25.8358C54.8083 25.7414 54.8432 25.6471 54.8781 25.5528C55.776 22.0339 57.764 21.7456 59.1435 17.9369C59.7385 16.6562 59.9836 15.2408 59.8543 13.832C59.558 11.9968 58.5485 10.7848 58.9942 10.3257Z" fill="#B3E9FF" stroke="black" stroke-width="1.39875" stroke-miterlimit="10"/>
<path d="M73.7955 94.688C74.1095 92.5954 75.1248 63.4063 67.8664 38.7539L70.989 37.497C71.8833 39.0116 74.4691 45.3527 76.4051 54.8748C78.341 64.3969 76.4451 91.9797 76.3185 92.8234C76.1919 93.6672 73.403 97.3037 73.7955 94.688Z" fill="#4B17A0" fill-opacity="0.2"/>
<path d="M127.77 72.7484L121.793 81.9898C121.562 81.7195 121.274 81.3929 120.942 81.0377C120.057 80.0909 118.831 78.9116 117.516 78.0609C116.201 77.2103 114.623 76.5755 113.396 76.1566C112.936 75.9994 112.52 75.8708 112.179 75.7713L118.157 66.5299C118.434 66.8128 118.791 67.1688 119.195 67.5559C120.149 68.4688 121.402 69.5872 122.527 70.3144C123.651 71.0416 125.185 71.7266 126.409 72.222C126.928 72.4321 127.399 72.6112 127.77 72.7484Z" fill="#979295" stroke="black" stroke-width="1.39875"/>
<rect x="102.635" y="70.9866" width="9.36046" height="46.1901" transform="rotate(32.8962 102.635 70.9866)" fill="#FFC900" stroke="black" stroke-width="1.39875"/>
<rect x="80.7743" y="101.574" width="12.4379" height="8.62093" rx="1.11886" transform="rotate(32.8962 80.7743 101.574)" fill="#FFC900" stroke="black" stroke-width="1.39875"/>
<path d="M129.834 70.6215C130.703 71.06 132.012 71.7425 132.822 72.2666C133.659 72.8079 134.99 73.8428 135.831 74.5125C135.991 74.6389 136.033 74.8606 135.93 75.0398C134.962 76.7148 132.82 80.4065 132.024 81.637C131.228 82.8674 128.739 86.3355 127.608 87.9047C127.487 88.0726 127.268 88.1243 127.087 88.0311C126.131 87.5378 124.642 86.7488 123.805 86.2075C122.995 85.6834 121.835 84.7696 121.079 84.1562C120.925 84.0316 120.883 83.815 120.986 83.6374C121.932 81.9945 124.032 78.3708 124.9 77.0288C125.768 75.6868 128.212 72.2863 129.322 70.7492C129.442 70.5831 129.657 70.5325 129.834 70.6215Z" fill="#979295" stroke="black" stroke-width="1.39875"/>
<mask id="path-11-inside-1_678_18765" fill="white">
<path fill-rule="evenodd" clip-rule="evenodd" d="M110.286 56.2647C106.643 53.7089 98.4213 50.4472 90.7875 54.7216C89.8481 55.2476 90.2874 56.6026 91.3584 56.7126C95.8039 57.1689 101.44 58.7813 104.238 62.7474L99.4077 70.2146C98.9222 70.9651 99.1371 71.9672 99.8877 72.4526L110.034 79.0158C110.785 79.5013 111.787 79.2865 112.272 78.5359L120.964 65.0983C121.45 64.3477 121.235 63.3457 120.484 62.8602L110.338 56.297C110.321 56.2859 110.303 56.2751 110.286 56.2647Z"/>
</mask>
<path fill-rule="evenodd" clip-rule="evenodd" d="M110.286 56.2647C106.643 53.7089 98.4213 50.4472 90.7875 54.7216C89.8481 55.2476 90.2874 56.6026 91.3584 56.7126C95.8039 57.1689 101.44 58.7813 104.238 62.7474L99.4077 70.2146C98.9222 70.9651 99.1371 71.9672 99.8877 72.4526L110.034 79.0158C110.785 79.5013 111.787 79.2865 112.272 78.5359L120.964 65.0983C121.45 64.3477 121.235 63.3457 120.484 62.8602L110.338 56.297C110.321 56.2859 110.303 56.2751 110.286 56.2647Z" fill="#979295"/>
<path d="M90.7875 54.7216L91.4709 55.9421L91.4709 55.9421L90.7875 54.7216ZM110.286 56.2647L109.482 57.4097L109.525 57.4398L109.57 57.4666L110.286 56.2647ZM91.3584 56.7126L91.5013 55.3211L91.5013 55.3211L91.3584 56.7126ZM104.238 62.7474L105.412 63.5071L105.926 62.7134L105.381 61.9411L104.238 62.7474ZM99.4077 70.2146L100.582 70.9743L99.4077 70.2146ZM99.8877 72.4526L99.128 73.6271L99.8877 72.4526ZM110.034 79.0158L110.794 77.8414L110.034 79.0158ZM120.484 62.8602L121.244 61.6857L120.484 62.8602ZM110.338 56.297L109.578 57.4715L110.338 56.297ZM91.4709 55.9421C98.4263 52.0475 106.041 54.9953 109.482 57.4097L111.089 55.1197C107.245 52.4226 98.4164 48.8468 90.1042 53.5012L91.4709 55.9421ZM91.5013 55.3211C91.5604 55.3272 91.6312 55.3796 91.6581 55.4688C91.6729 55.5176 91.6842 55.6082 91.6434 55.7199C91.5975 55.8453 91.5143 55.9178 91.4709 55.9421L90.1042 53.5012C88.9948 54.1224 88.6872 55.3074 88.98 56.2774C89.2595 57.2032 90.0855 57.988 91.2156 58.104L91.5013 55.3211ZM105.381 61.9411C103.779 59.6709 101.415 58.1391 98.95 57.121C96.4791 56.1005 93.8197 55.5591 91.5013 55.3211L91.2156 58.104C93.3426 58.3224 95.724 58.8154 97.8821 59.7067C100.046 60.6003 101.899 61.8577 103.095 63.5536L105.381 61.9411ZM100.582 70.9743L105.412 63.5071L103.063 61.9877L98.2333 69.4549L100.582 70.9743ZM100.647 71.2782C100.545 71.2122 100.516 71.0762 100.582 70.9743L98.2333 69.4549C97.3282 70.8541 97.7288 72.7221 99.128 73.6271L100.647 71.2782ZM110.794 77.8414L100.647 71.2782L99.128 73.6271L109.275 80.1903L110.794 77.8414ZM111.098 77.7762C111.032 77.8781 110.896 77.9073 110.794 77.8414L109.275 80.1903C110.674 81.0954 112.542 80.6948 113.447 79.2956L111.098 77.7762ZM119.79 64.3386L111.098 77.7762L113.447 79.2956L122.139 65.858L119.79 64.3386ZM119.725 64.0347C119.827 64.1006 119.856 64.2367 119.79 64.3386L122.139 65.858C123.044 64.4588 122.643 62.5908 121.244 61.6857L119.725 64.0347ZM109.578 57.4715L119.725 64.0347L121.244 61.6857L111.097 55.1225L109.578 57.4715ZM109.57 57.4666C109.573 57.4681 109.575 57.4698 109.578 57.4715L111.097 55.1225C111.066 55.102 111.034 55.0821 111.001 55.0628L109.57 57.4666Z" fill="black" mask="url(#path-11-inside-1_678_18765)"/>
<circle cx="32.5615" cy="50.8794" r="4.08823" transform="rotate(-29.1986 32.5615 50.8794)" fill="#FF3571" stroke="black" stroke-width="1.23947"/>
<circle cx="96.5462" cy="25.6995" r="7.01407" transform="rotate(-29.1986 96.5462 25.6995)" fill="#A58EFF" stroke="black" stroke-width="1.23947"/>
<mask id="path-15-inside-2_678_18765" fill="white">
<path fill-rule="evenodd" clip-rule="evenodd" d="M9.63921 77.3366C5.97112 74.612 4.45927 70.129 5.54949 66.2504L16.0899 74.0797L19.9384 68.8986L9.40227 61.0724C12.7997 58.9166 17.5211 59.072 21.1847 61.7933C23.4441 63.4716 24.8855 65.8171 25.4044 68.2775L27.1129 72.2264L54.8218 92.8084L63.1286 93.7702C64.9422 93.9565 66.7307 94.6184 68.3004 95.7844C72.9502 99.2383 73.9198 105.808 70.4659 110.458C67.012 115.107 60.4426 116.077 55.7928 112.623C54.219 111.454 53.0668 109.928 52.365 108.241L49.0516 100.582L21.3394 79.9975L17.0694 79.5031C14.5629 79.7179 11.8997 79.0157 9.63921 77.3366ZM65.935 107.087C67.7948 104.583 67.2727 101.046 64.769 99.186C62.2652 97.3262 58.7278 97.8482 56.8681 100.352C55.0083 102.856 55.5303 106.393 58.0341 108.253C60.5379 110.113 64.0752 109.591 65.935 107.087Z"/>
</mask>
<path fill-rule="evenodd" clip-rule="evenodd" d="M9.63921 77.3366C5.97112 74.612 4.45927 70.129 5.54949 66.2504L16.0899 74.0797L19.9384 68.8986L9.40227 61.0724C12.7997 58.9166 17.5211 59.072 21.1847 61.7933C23.4441 63.4716 24.8855 65.8171 25.4044 68.2775L27.1129 72.2264L54.8218 92.8084L63.1286 93.7702C64.9422 93.9565 66.7307 94.6184 68.3004 95.7844C72.9502 99.2383 73.9198 105.808 70.4659 110.458C67.012 115.107 60.4426 116.077 55.7928 112.623C54.219 111.454 53.0668 109.928 52.365 108.241L49.0516 100.582L21.3394 79.9975L17.0694 79.5031C14.5629 79.7179 11.8997 79.0157 9.63921 77.3366ZM65.935 107.087C67.7948 104.583 67.2727 101.046 64.769 99.186C62.2652 97.3262 58.7278 97.8482 56.8681 100.352C55.0083 102.856 55.5303 106.393 58.0341 108.253C60.5379 110.113 64.0752 109.591 65.935 107.087Z" fill="#D9D9D9"/>
<path d="M5.54949 66.2504L6.38355 65.1275L4.75265 63.9161L4.20292 65.8719L5.54949 66.2504ZM16.0899 74.0797L15.2558 75.2026L16.3787 76.0366L17.2128 74.9138L16.0899 74.0797ZM19.9384 68.8986L21.0613 69.7326L21.8953 68.6098L20.7724 67.7757L19.9384 68.8986ZM9.40227 61.0724L8.65286 59.8914L6.93444 60.9818L8.56821 62.1953L9.40227 61.0724ZM25.4044 68.2775L24.0358 68.5662L24.0648 68.7038L24.1207 68.8329L25.4044 68.2775ZM27.1129 72.2264L25.8291 72.7818L25.978 73.1258L26.2788 73.3493L27.1129 72.2264ZM54.8218 92.8084L53.9878 93.9313L54.2886 94.1547L54.6609 94.1979L54.8218 92.8084ZM63.1286 93.7702L62.9677 95.1597L62.9767 95.1607L62.9856 95.1616L63.1286 93.7702ZM52.365 108.241L53.6566 107.703L53.6527 107.694L53.6488 107.685L52.365 108.241ZM49.0516 100.582L50.3354 100.027L50.1865 99.6825L49.8857 99.459L49.0516 100.582ZM21.3394 79.9975L22.1734 78.8746L21.8726 78.6511L21.5003 78.608L21.3394 79.9975ZM17.0694 79.5031L17.2303 78.1136L17.0903 78.0974L16.9499 78.1094L17.0694 79.5031ZM4.20292 65.8719C2.94584 70.3442 4.70167 75.4115 8.80514 78.4595L10.4733 76.2137C7.24057 73.8125 5.97271 69.9139 6.89606 66.6288L4.20292 65.8719ZM16.9239 72.9568L6.38355 65.1275L4.71542 67.3732L15.2558 75.2026L16.9239 72.9568ZM18.8155 68.0645L14.967 73.2456L17.2128 74.9138L21.0613 69.7326L18.8155 68.0645ZM8.56821 62.1953L19.1043 70.0215L20.7724 67.7757L10.2363 59.9496L8.56821 62.1953ZM22.0187 60.6704C17.9203 57.6261 12.5701 57.4058 8.65286 59.8914L10.1517 62.2535C13.0293 60.4275 17.122 60.5179 20.3506 62.9162L22.0187 60.6704ZM26.7731 67.9888C26.1836 65.194 24.5519 62.552 22.0187 60.6704L20.3506 62.9162C22.3364 64.3912 23.5874 66.4401 24.0358 68.5662L26.7731 67.9888ZM28.3967 71.671L26.6882 67.7221L24.1207 68.8329L25.8291 72.7818L28.3967 71.671ZM55.6559 91.6855L27.947 71.1035L26.2788 73.3493L53.9878 93.9313L55.6559 91.6855ZM63.2895 92.3807L54.9827 91.4189L54.6609 94.1979L62.9677 95.1597L63.2895 92.3807ZM69.1345 94.6615C67.3572 93.3414 65.3285 92.5901 63.2716 92.3788L62.9856 95.1616C64.5558 95.323 66.1041 95.8954 67.4663 96.9073L69.1345 94.6615ZM71.5888 111.292C75.5033 106.022 74.4045 98.576 69.1345 94.6615L67.4663 96.9073C71.496 99.9005 72.3363 105.594 69.343 109.623L71.5888 111.292ZM54.9587 113.746C60.2287 117.66 67.6743 116.562 71.5888 111.292L69.343 109.623C66.3498 113.653 60.6566 114.493 56.6269 111.5L54.9587 113.746ZM51.0735 108.778C51.8694 110.692 53.1769 112.422 54.9587 113.746L56.6269 111.5C55.2611 110.486 54.2642 109.165 53.6566 107.703L51.0735 108.778ZM47.7678 101.137L51.0813 108.796L53.6488 107.685L50.3354 100.027L47.7678 101.137ZM20.5053 81.1203L48.2175 101.705L49.8857 99.459L22.1734 78.8746L20.5053 81.1203ZM16.9085 80.8925L21.1785 81.3869L21.5003 78.608L17.2303 78.1136L16.9085 80.8925ZM8.80514 78.4595C11.3394 80.3419 14.3417 81.1407 17.1888 80.8967L16.9499 78.1094C14.7842 78.295 12.46 77.6894 10.4733 76.2137L8.80514 78.4595ZM63.9349 100.309C65.8185 101.708 66.2113 104.369 64.8121 106.253L67.0579 107.921C69.3783 104.797 68.7269 100.384 65.603 98.0631L63.9349 100.309ZM57.9909 101.186C59.3901 99.3025 62.0513 98.9097 63.9349 100.309L65.603 98.0631C62.4791 95.7427 58.0656 96.394 55.7452 99.518L57.9909 101.186ZM58.8682 107.13C56.9845 105.731 56.5918 103.07 57.9909 101.186L55.7452 99.518C53.4248 102.642 54.0761 107.055 57.2 109.376L58.8682 107.13ZM64.8121 106.253C63.413 108.136 60.7518 108.529 58.8682 107.13L57.2 109.376C60.324 111.696 64.7375 111.045 67.0579 107.921L64.8121 106.253Z" fill="black" mask="url(#path-15-inside-2_678_18765)"/>
</g>
<defs>
<clipPath id="clip0_678_18765">
<rect width="141.031" height="122.227" fill="white"/>
</clipPath>
</defs>
</svg>
