<svg width="100" height="100" viewBox="0 0 100 100" fill="none" xmlns="http://www.w3.org/2000/svg">
<circle cx="49.7682" cy="50.2308" r="49.7687" fill="#FFDB24"/>
<mask id="mask0_300_1562" style="mask-type:alpha" maskUnits="userSpaceOnUse" x="-1" y="0" width="101" height="100">
<circle cx="49.7054" cy="50.1626" r="49.7059" fill="#FFDB24"/>
</mask>
<g mask="url(#mask0_300_1562)">
<path d="M22.5817 93.5866C22.5817 88.1232 25.5589 83.094 30.3488 80.4662L41.618 74.2835C45.926 71.9199 51.1199 71.8218 55.5142 74.021L68.6938 80.6172C73.761 83.1532 76.9614 88.3336 76.9614 94.0001V128.505C76.9614 136.77 70.2611 143.47 61.996 143.47H37.5471C29.282 143.47 22.5817 136.77 22.5817 128.505V93.5866Z" fill="#CBCDCF" stroke="black" stroke-width="2.13054"/>
</g>
<line y1="-1.15648" x2="18.2842" y2="-1.15648" transform="matrix(-0.560957 0.827845 0.827845 0.560957 61.6512 22.9445)" stroke="black" stroke-width="2.31297"/>
<circle r="3.21253" transform="matrix(-0.827737 -0.561116 -0.561116 0.827737 62.9071 20.0772)" fill="#FF3571" stroke="black" stroke-width="2.02643"/>
<line x1="43.2561" y1="21.4572" x2="53.5128" y2="36.5937" stroke="black" stroke-width="2.31297"/>
<circle cx="41.043" cy="19.239" r="3.21253" transform="rotate(-34.133 41.043 19.239)" fill="#FF3571" stroke="black" stroke-width="2.02643"/>
<rect x="71.2445" y="31.0098" width="6.77725" height="15.3229" rx="2.08628" transform="rotate(45.0642 71.2445 31.0098)" fill="#E2E2E2" stroke="black" stroke-width="1.76471"/>
<rect x="0.00139911" y="1.24783" width="6.77725" height="15.3229" rx="2.08628" transform="matrix(-0.706313 0.707899 0.707899 0.706313 30.6859 27.1163)" fill="#E2E2E2" stroke="black" stroke-width="1.76471"/>
<circle cx="49.0431" cy="60.9957" r="27.6501" transform="rotate(30.0952 49.0431 60.9957)" fill="#E2E2E2" stroke="black" stroke-width="1.78118"/>
<path d="M69.9606 74.4399C69.5394 79.277 66.3618 83.5026 61.386 86.3897C56.4128 89.2752 49.7119 90.7726 42.4672 90.1418C35.2224 89.5109 28.8812 86.8779 24.4816 83.1762C20.0797 79.4726 17.6803 74.7613 18.1015 69.9243C18.5227 65.0872 21.7002 60.8616 26.6761 57.9745C31.6492 55.089 38.3501 53.5916 45.5949 54.2224C52.8396 54.8533 59.1808 57.4863 63.5804 61.1879C67.9824 64.8916 70.3817 69.6029 69.9606 74.4399Z" fill="#E2E2E2" stroke="black" stroke-width="1.78118"/>
<path d="M28.9821 47.7633C28.6522 44.7101 34.1216 37.4464 50.632 39.7911C69.3252 42.4458 70.0266 51.3607 69.0543 53.642C68.0821 55.9232 65.7378 56.4418 62.9994 56.0324C57.5787 55.2219 54.7705 51.8296 49.6174 50.8376C43.9863 49.7536 37.4868 52.5415 33.7864 51.7194C31.3713 51.1828 29.229 50.0489 28.9821 47.7633Z" fill="#035A80" stroke="black" stroke-width="1.78118"/>
<path d="M53.444 47.371C53.444 47.371 55.9194 45.9296 58.4136 46.6758C60.9079 47.4219 62.3686 49.9593 62.3686 49.9593" stroke="white" stroke-width="1.78118" stroke-linecap="round"/>
<path d="M35.2424 46.9181C35.2424 46.9181 37.1482 44.7796 39.7508 44.7147C42.3535 44.6498 44.5296 46.6085 44.5296 46.6085" stroke="white" stroke-width="1.78118" stroke-linecap="round"/>
<path d="M28.1465 65.3989C29.9778 64.4854 31.0798 62.9859 30.6046 62.0519C30.1293 61.1178 28.2776 61.1055 26.4464 62.0191C24.6151 62.9327 23.509 64.428 23.9883 65.3621C24.4676 66.2961 26.3153 66.3125 28.1465 65.3989Z" fill="black" stroke="black" stroke-width="1.78118" stroke-miterlimit="10"/>
<path d="M57.7616 66.8323C55.9303 65.9187 54.8283 64.4193 55.3035 63.4852C55.7787 62.5512 57.6305 62.5389 59.4617 63.4525C61.293 64.366 62.3991 65.8614 61.9198 66.7954C61.4404 67.7295 59.5928 67.7459 57.7616 66.8323Z" fill="black" stroke="black" stroke-width="1.78118" stroke-miterlimit="10"/>
<path d="M30.8056 84.3543C22.5029 80.6537 20.9258 76.8429 19.1117 73.0094C19.8689 76.2591 20.5951 78.2403 24.0337 81.5963C28.5797 86.0331 35.3504 88.2802 40.8614 89.0273C46.7922 89.8312 53.7019 89.5326 60.515 85.8599C65.9598 82.9249 68.55 78.7112 69.0201 74.8001C66.3322 82.1212 60.1111 84.6668 55.1667 86.249C48.9862 88.2268 37.6453 87.4028 30.8056 84.3543Z" fill="#CBCDCF"/>
</svg>
