<svg width="244" height="361" viewBox="0 0 244 361" fill="none" xmlns="http://www.w3.org/2000/svg">
<path d="M190.06 170.718C184.168 169.733 172.52 171.408 168.733 173.22C170.913 175.061 173.761 181.267 187.096 185.91C197.955 189.691 209.223 189.375 211.725 188.266C204.073 175.359 198.34 172.103 190.06 170.718Z" fill="#15A769" stroke="black" stroke-width="1.37789"/>
<path d="M160.417 172.634C168.604 172.5 183.021 173.525 196.345 181.752" stroke="black" stroke-width="1.37789" stroke-linecap="round"/>
<path d="M176.35 258.659C178.161 258.849 182.024 260.237 182.986 264.27" stroke="black" stroke-width="1.37789" stroke-linecap="round"/>
<path d="M174.617 250.419C171.637 255.662 168.143 255.878 166.769 255.331C174.979 260.094 170.825 261.141 173.999 266.315C178.744 274.046 186.153 274.229 192.937 270.829C202.725 265.923 203.759 255.069 196.226 248.267C190.822 243.388 178.341 243.866 174.617 250.419Z" fill="#269767" stroke="black" stroke-width="1.37789" stroke-linecap="round"/>
<path d="M167.539 255.961C171.512 257.56 183.459 260.232 192.172 258.439" stroke="black" stroke-width="1.37789" stroke-linecap="round"/>
<path d="M176.009 258.354C178.025 258.989 182.439 261.114 183.965 264.539" stroke="black" stroke-width="1.37789" stroke-linecap="round"/>
<path d="M173.02 257.56C175.116 257.287 179.834 255.966 181.935 252.86" stroke="black" stroke-width="1.37789" stroke-linecap="round"/>
<path d="M186.823 259.048C188.146 259.363 190.715 260.251 192.02 261.702" stroke="black" stroke-width="1.37789" stroke-linecap="round"/>
<path d="M189.307 252.924C188.711 254.422 186.296 257.71 181.404 258.882" stroke="black" stroke-width="1.37789" stroke-linecap="round"/>
<path d="M149.679 242.594C152.11 272.842 169.255 286.6 177.953 289.244C189.585 292.009 169.636 288.104 161.299 274.923C154.078 263.506 156.157 266.299 152.46 251.591C151.936 249.505 146.641 204.783 149.679 242.594Z" fill="#4E8B43" stroke="black" stroke-width="1.37789" stroke-linecap="round"/>
<path d="M150.575 236.126C154.92 251.35 165.101 256.63 169.821 257.09C176.055 257.312 165.971 257.314 160.355 251.426C155.491 246.326 156.319 247.587 152.92 240.443C152.438 239.43 145.144 217.095 150.575 236.126Z" fill="#4E8B43" stroke="black" stroke-width="1.37789" stroke-linecap="round"/>
<path d="M158.722 271.604C162.488 284.483 157.663 292.017 154.534 294.029C150.228 296.398 157.355 292.834 158.68 286.462C159.828 280.942 159.809 282.175 159.003 275.65C158.889 274.725 154.014 255.506 158.722 271.604Z" fill="#4E8B43" stroke="black" stroke-width="1.37789" stroke-linecap="round"/>
<path d="M148.06 247.422C143.972 256.745 138.538 258.06 136.289 257.326C133.372 256.097 138.041 258.329 141.445 255.594C144.393 253.225 143.837 253.894 146.386 249.82C146.747 249.242 153.17 235.769 148.06 247.422Z" fill="#4E8B43" stroke="black" stroke-width="1.37789" stroke-linecap="round"/>
<path d="M152.684 296.786C152.012 298.673 149.526 302.443 144.965 302.424" stroke="black" stroke-width="1.37789" stroke-linecap="round"/>
<path d="M161.944 297.068C157.113 292.524 157.787 288.733 158.729 287.406C151.508 294.946 151.466 290.234 145.113 292.286C135.618 295.352 133.501 303.225 135.376 311.358C138.081 323.093 149.416 327.013 158.639 320.725C165.256 316.214 167.982 302.749 161.944 297.068Z" fill="#269767" stroke="black" stroke-width="1.37789" stroke-linecap="round"/>
<path d="M157.855 288.065C155.115 291.897 149.16 303.974 148.816 313.753" stroke="black" stroke-width="1.37789" stroke-linecap="round"/>
<path d="M153.097 296.503C151.896 298.494 148.48 302.661 144.423 303.404" stroke="black" stroke-width="1.37789" stroke-linecap="round"/>
<path d="M154.724 293.512C154.471 295.823 154.66 301.208 157.435 304.26" stroke="black" stroke-width="1.37789" stroke-linecap="round"/>
<path d="M149.553 307.879C148.873 309.212 147.257 311.728 145.367 312.747" stroke="black" stroke-width="1.37789" stroke-linecap="round"/>
<path d="M155.456 312.125C154.009 311.099 151.12 307.665 151.136 302.131" stroke="black" stroke-width="1.37789" stroke-linecap="round"/>
<path d="M135.368 258.725C133.939 260.051 130.101 262.185 126.176 260.119" stroke="black" stroke-width="1.37789" stroke-linecap="round"/>
<path d="M143.225 263.13C141.1 257.039 143.386 254.073 144.794 253.351C135.177 256.609 137.259 252.527 130.856 251.441C121.289 249.818 115.924 255.657 113.886 263.515C110.946 274.853 118.96 283.329 129.742 282.05C137.477 281.133 145.88 270.744 143.225 263.13Z" fill="#46D297" stroke="black" stroke-width="1.37789" stroke-linecap="round"/>
<path d="M143.743 253.527C139.658 255.601 129.094 263.342 124.402 271.622" stroke="black" stroke-width="1.37789" stroke-linecap="round"/>
<path d="M135.853 258.667C133.922 259.844 129.103 261.903 125.269 260.721" stroke="black" stroke-width="1.37789" stroke-linecap="round"/>
<path d="M138.598 256.817C137.341 258.697 135.084 263.427 136.106 267.307" stroke="black" stroke-width="1.37789" stroke-linecap="round"/>
<path d="M127.682 266.887C126.496 267.731 123.972 269.174 121.884 269.204" stroke="black" stroke-width="1.37789" stroke-linecap="round"/>
<path d="M130.864 273.2C130.077 271.666 129.128 267.405 131.629 262.639" stroke="black" stroke-width="1.37789" stroke-linecap="round"/>
<path d="M181.138 294.693C183.303 296.039 187.317 300.149 186.06 305.815" stroke="black" stroke-width="1.37789" stroke-linecap="round"/>
<path d="M183.993 283.261C177.036 288.038 172.505 286.174 171.11 284.645C178.531 295.662 172.662 294.439 173.494 302.893C174.738 315.527 183.953 320.289 194.572 320.158C209.894 319.968 217.834 306.937 212.511 293.768C208.693 284.321 192.689 277.29 183.993 283.261Z" fill="#46D297" stroke="black" stroke-width="1.37789" stroke-linecap="round"/>
<path d="M171.696 285.909C175.719 290.352 189.124 301.022 201.189 304.095" stroke="black" stroke-width="1.37789" stroke-linecap="round"/>
<path d="M180.9 294.103C183.05 296.135 187.307 301.51 187.134 306.755" stroke="black" stroke-width="1.37789" stroke-linecap="round"/>
<path d="M177.618 291.273C180.423 292.212 187.169 293.433 191.714 290.809" stroke="black" stroke-width="1.37789" stroke-linecap="round"/>
<path d="M194.084 301.588C195.557 302.794 198.247 305.483 199.003 308.109" stroke="black" stroke-width="1.37789" stroke-linecap="round"/>
<path d="M200.958 295.399C199.291 296.92 194.24 299.583 187.365 298.066" stroke="black" stroke-width="1.37789" stroke-linecap="round"/>
<path d="M189.104 185.204C184.047 178.873 174.837 171.028 169.869 168.518C169.699 172.298 172.828 180.576 177.36 198.743C180.985 213.278 185.914 219.372 189.104 221.102C196.467 202.616 193.268 190.417 189.104 185.204Z" fill="#6FDCAE" stroke="black" stroke-width="1.37789"/>
<path d="M167.619 166.219C174.403 174.572 187.913 195.064 187.681 210.2" stroke="black" stroke-width="1.37789" stroke-linecap="round"/>
<path d="M176.665 157.348C171.272 161.997 162.741 170.586 160.846 175.218C164.246 175.1 170.592 176.185 186.549 170.827C199.314 166.541 207.467 157.13 208.791 154.148C191.7 148.87 180 154.474 176.665 157.348Z" fill="#15A769" stroke="black" stroke-width="1.37789"/>
<path d="M158.318 178.822C165.444 172.15 180.66 158.664 197.357 158.121" stroke="black" stroke-width="1.37789" stroke-linecap="round"/>
<path d="M166.786 48.4528C169.003 68.2652 149.702 104.687 140.29 119.447C134.995 127.753 126.835 138.434 130.89 135.423C134.945 132.412 143.419 119.384 154.658 98.5912C165.897 77.7986 168.885 60.918 168.291 50.1942C167.697 39.4704 164.016 23.6874 166.786 48.4528Z" fill="#239061" stroke="black" stroke-width="1.37789" stroke-linecap="round"/>
<path d="M184.108 69.597C188.906 72.1213 192.705 81.7998 192.88 86.2366C192.834 86.5605 191.248 87.3109 185.274 87.721C177.806 88.2336 171.884 83.5117 170.094 80.7247C168.303 77.9377 164.214 67.6568 168.307 67.2034C172.401 66.75 178.111 66.4416 184.108 69.597Z" fill="#1CB977" stroke="black" stroke-width="1.37789" stroke-linecap="round"/>
<path d="M159.466 43.1695C165.684 45.7087 166.565 54.1168 166.229 58.0035C165.983 59.0221 163.706 61.5856 156.572 63.6899C147.655 66.3204 139.843 57.9611 139.06 55.3133C138.278 52.6655 134.326 46.5339 137.433 45.9916C140.541 45.4493 151.694 39.9955 159.466 43.1695Z" fill="#1CB977" stroke="black" stroke-width="1.37789" stroke-linecap="round"/>
<path d="M142.193 72.9468C135.823 74.9322 131.786 84.7749 130.563 89.4481C137.478 93.5384 146.447 94.0543 152.173 90.5599C157.899 87.0655 160.067 79.3493 160.971 77.9537C161.875 76.5581 150.155 70.4652 142.193 72.9468Z" fill="#1CB977" stroke="black" stroke-width="1.37789" stroke-linecap="round"/>
<path d="M166.059 41.501C162.627 39.8279 156.244 33.8929 158.176 23.538C160.042 13.5322 167.129 9.11912 170.781 8.03156C174.115 6.50523 177.04 9.74659 180.222 20.3364C182.768 28.8083 171.841 37.9761 166.059 41.501Z" fill="#1CB977"/>
<path d="M171.151 7.92978C171.032 7.95972 170.909 7.99362 170.781 8.03156M170.781 8.03156C167.129 9.11912 160.042 13.5322 158.176 23.538C156.244 33.8929 162.627 39.8279 166.059 41.501C171.841 37.9761 182.768 28.8083 180.222 20.3364C177.04 9.74659 174.115 6.50523 170.781 8.03156Z" stroke="black" stroke-width="1.37789" stroke-linecap="round"/>
<path d="M181.146 56.3163C175.263 58.3729 170.183 54.1207 168.379 51.7375C169.931 43.5247 178.642 42.3201 183.568 43.0218C188.495 43.7235 192.989 49.4176 193.717 50.2115C194.446 51.0053 188.5 53.7455 181.146 56.3163Z" fill="#1CB977" stroke="black" stroke-width="1.37789" stroke-linecap="round"/>
<path d="M164.11 36.5315C162.092 30.7151 168.176 19.7395 171.47 14.9788C167.614 22.1218 166.237 32.8351 166.03 37.2989C166.231 39.4667 166.128 42.348 164.11 36.5315Z" fill="#239061"/>
<path d="M171.38 50.34C174.892 47.9222 183.342 49.9649 187.127 51.2886C181.647 50.0276 174.239 51.0799 171.221 51.7636C169.81 52.2965 167.867 52.7579 171.38 50.34Z" fill="#239061"/>
<path d="M170.684 68.9238C174.871 69.7318 179.342 77.1869 181.053 80.8134C178.108 76.0231 172.163 71.4811 169.558 69.8089C168.189 69.1772 166.497 68.1157 170.684 68.9238Z" fill="#239061"/>
<path d="M156.615 81.1813C152.05 84.6389 138.649 85.408 132.519 85.3603C141.191 84.8001 152.064 81.3951 156.417 79.7626C158.385 78.7948 161.18 77.7237 156.615 81.1813Z" fill="#239061"/>
<path d="M160.821 59.2218C155.096 60.1751 145.861 52.7823 141.959 48.9668C147.985 53.6828 157.723 56.6598 161.839 57.5588C163.885 57.7159 166.546 58.2684 160.821 59.2218Z" fill="#239061"/>
<path d="M170.352 120.684C154.198 109 113.769 108.692 96.2878 109.617C86.4514 110.137 73.137 111.981 77.7543 109.934C82.3716 107.887 97.8831 106.925 121.515 107.379C145.146 107.833 161.31 113.544 170.352 119.34C179.393 125.137 190.543 135.288 170.352 120.684Z" fill="#239061" stroke="black" stroke-width="1.37789" stroke-linecap="round"/>
<path d="M137.7 130.852C132.836 135.419 122.281 134.088 117.611 132.851C117.456 124.818 121.422 116.758 127.283 113.494C133.144 110.231 140.927 112.142 142.587 112.042C144.247 111.943 143.78 125.144 137.7 130.852Z" fill="#46D297" stroke="black" stroke-width="1.37789" stroke-linecap="round"/>
<path d="M176.82 125.563C176.586 129.374 178.61 137.851 188.574 141.269C198.202 144.571 205.532 140.574 208.277 137.931C211.247 135.78 209.866 131.639 202.215 123.655C196.094 117.268 182.735 122.266 176.82 125.563Z" fill="#46D297"/>
<path d="M208.547 137.659C208.463 137.748 208.373 137.838 208.277 137.931M208.277 137.931C205.532 140.574 198.202 144.571 188.574 141.269C178.61 137.851 176.586 129.374 176.82 125.563C182.735 122.266 196.094 117.268 202.215 123.655C209.866 131.639 211.247 135.78 208.277 137.931Z" stroke="black" stroke-width="1.37789" stroke-linecap="round"/>
<path d="M171.352 105.135C166.665 109.243 167.866 115.758 169.052 118.501C176.964 121.194 182.301 114.205 184.116 109.572C185.931 104.938 183.187 98.2232 182.855 97.1983C182.522 96.1734 177.21 99.9993 171.352 105.135Z" fill="#46D297" stroke="black" stroke-width="1.37789" stroke-linecap="round"/>
<path d="M180.462 130.062C184.531 134.682 197.079 134.79 202.845 134.266C194.729 134.107 184.726 130.031 180.739 128.013C178.951 126.771 176.392 125.442 180.462 130.062Z" fill="#269767"/>
<path d="M172.276 116.667C176.11 114.8 178.492 106.44 179.203 102.493C177.603 107.884 173.04 113.813 170.959 116.105C169.8 117.07 168.442 118.534 172.276 116.667Z" fill="#269767"/>
<path d="M138.618 113.47C133.361 115.741 126.094 127.027 123.118 132.386C127.875 125.114 136.192 117.326 139.756 114.341C141.567 113.104 143.876 111.199 138.618 113.47Z" fill="#269767"/>
<path d="M176.933 184.263C176.824 280.818 98.0168 359.241 1.19234 359.132C-95.5321 359.022 -173.8 280.129 -173.622 182.896C-173.444 86.6418 -94.5051 8.12331 1.91853 8.30104C98.7643 8.47876 177.036 87.1693 176.933 184.263Z" fill="#00A2E6" stroke="black" stroke-width="2.75577"/>
<mask id="path-60-inside-1_6596_252472" fill="white">
<path d="M74.5123 134.558C74.5123 134.555 74.5147 134.553 74.5172 134.553C79.7014 135.463 83.9145 136.212 88.1345 136.941C90.2452 137.302 92.3767 137.538 94.4665 137.996C100.736 139.364 104.68 134.997 102.805 128.762C101.979 126.02 100.146 125.395 97.8617 126.596C94.0153 128.63 90.9742 127.339 88.1623 124.693C87.6557 124.217 87.1462 123.737 86.6998 123.252C84.6006 120.973 83.3764 115.469 80.9646 117.414C80.7978 117.549 80.6363 117.696 80.4801 117.856C78.4344 119.956 74.1671 121.567 73.0404 118.861C71.3949 114.939 69.2981 111.974 64.8477 110.953C63.4799 110.641 62.4731 108.968 61.14 108.218C59.6186 107.37 57.2575 109.186 57.8817 110.811C57.9281 110.932 57.9858 111.045 58.0574 111.148C59.0641 112.592 60.7304 113.592 62.1399 114.744C64.4539 116.628 63.5977 120.923 61.0871 119.31C60.5645 118.974 60.0746 118.498 59.5987 117.875C58.1268 115.959 56.4466 114.203 54.9052 112.335C52.5377 109.474 50.6769 108.315 46.8235 111.238C44.1991 113.231 39.6445 112.967 38.0059 116.751C35.5481 122.409 31.1671 124.173 25.3766 124.367C20.3915 124.541 18.982 124.013 18.6071 120.208C18.1142 115.188 20.3221 111.766 24.467 111.321C26.0223 111.155 27.6886 111.557 29.1605 111.162C30.7158 110.738 33.1805 109.815 33.3055 108.863C33.5068 107.301 32.2849 105.44 31.3545 103.899C30.5127 102.513 30.359 100.837 31.8786 100.272C38.7865 97.7016 43.8195 93.1174 48.5987 88.3054C50.7771 86.112 54.407 86.6713 57.1158 88.1609C62.1021 90.9031 68.5868 89.0716 73.1931 82.8479C74.2536 81.416 75.3958 80.5685 76.6195 80.3056C79.2712 79.7357 82.8899 80.0192 83.4402 77.3634C83.7607 75.8171 83.1895 74.5955 80.4764 74.7523C79.3378 74.8287 78.1783 74.9814 77.0604 74.8426C73.1584 74.3496 72.1656 72.2945 73.8874 68.698C74.6579 67.0848 72.8268 65.416 71.316 66.372C68.7127 68.0194 67.4107 70.5069 66.264 73.1207C64.313 77.4462 62.737 86.9026 56.3425 81.4524C55.1552 80.4942 53.1695 80.3901 51.5101 80.1887C49.33 79.9249 46.8722 80.7025 46.164 77.3699C45.5183 74.3427 47.011 73.211 49.3439 71.7599C52.7876 69.6145 55.9953 66.9692 58.9253 64.1434C70.7614 52.7038 83.197 56.9682 96.6629 61.8619C97.0205 61.9918 97.2312 62.3635 97.1556 62.7364C97.0836 63.0917 96.7699 63.3449 96.4074 63.3449H94.3389C91.9336 63.3449 90.1277 66.0663 91.9861 67.5932C93.741 69.0349 95.756 68.4817 98.7226 66.6568C101.5 64.9488 103.444 61.512 108.464 62.6229C112.727 63.5671 117.795 61.2134 122.419 59.9914C125.703 59.1236 128.071 59.7207 130.404 62.3104C154.003 88.1107 169.076 119.25 174.839 153.778C175.019 154.771 174.825 156.645 174.395 156.777C173.325 157.11 171.881 156.951 170.833 156.458C169.722 155.93 169.042 154.535 167.938 153.979C165.515 152.757 162.987 151.049 160.425 150.91C151.83 150.438 143.929 147.939 136.361 144.065C134.465 143.092 132.577 142.044 130.584 141.336C129.515 140.954 127.356 140.864 127.175 141.273C126.675 142.447 126.391 144.314 127.015 145.252C128.487 147.48 130.695 149.209 132.299 151.369C134.576 154.417 137.055 152.75 139.61 152.111C143.498 151.146 149.879 154.66 150.83 158.36C151.017 159.082 150.476 160.374 149.851 160.853C143.991 165.345 138.138 169.872 132.077 174.079C127.258 177.419 123.829 175.426 121.058 170.281C117.365 163.415 114.962 155.562 107.832 150.813C105.943 149.556 105.325 146.481 103.916 144.391C103.863 144.313 103.809 144.235 103.754 144.159C102.773 142.798 99.8954 143.848 100.646 145.349C103.826 151.702 107.415 157.846 110.637 164.178C113.206 169.233 115.525 174.419 117.788 179.62C118.975 182.348 119.934 184.265 123.745 183.022C125.212 182.542 126.791 182.405 128.424 182.364C131.179 182.294 133.582 184.595 133.188 187.322C132.365 193.023 129.778 197.41 124.467 200.622C122.211 201.983 120.468 204.469 118.975 206.76C116.65 210.336 114.476 214.078 112.768 217.98C112.032 219.66 112.4 221.951 112.65 223.916C113.171 227.929 114.289 231.887 114.442 235.9C114.49 237.191 112.56 239.024 111.109 239.83C106.089 242.628 103.715 246.55 101.819 252.216C98.8199 261.165 93.6196 269.393 89.1413 277.815C88.6206 278.787 86.8014 279.412 85.517 279.571C81.976 279.995 78.3518 280.488 74.8595 280.113C73.214 279.933 71.263 278.107 70.3604 276.51C68.3539 272.976 66.9097 269.115 65.2434 265.387C64.8338 264.477 64.0908 263.554 64.1047 262.644C64.1742 256.708 61.2372 251.751 59.0571 246.55C57.4811 242.787 57.0506 238.941 59.2377 235.407C62.7994 229.644 59.9112 224.361 58.231 219.105C57.252 216.036 54.8289 213.446 53.7388 210.398C53.0168 208.392 52.8501 205.705 53.586 203.761C55.294 199.255 53.7041 195.922 48.7676 195.075C47.7886 194.908 46.4903 194.95 45.914 194.346C42.269 190.541 38.2628 191.728 33.9928 192.895C29.5979 194.096 25.0641 194.832 20.572 195.644C16.434 196.394 10.5879 192.075 9.08823 187.729C8.44947 185.875 7.28998 183.897 5.78334 182.709C1.31898 179.189 -0.0348752 175.148 1.86751 169.754C2.22161 168.754 2.38126 167.442 2.048 166.477C0.0692347 160.818 1.88138 155.895 5.36678 151.688C9.53259 146.668 13.9067 141.989 16.6769 135.851C18.0378 132.845 21.5787 130.783 24.2796 128.47C24.8281 128.005 26.0848 128.234 26.9874 128.352C28.7717 128.595 30.6116 129.484 32.2918 129.227C38.0198 128.346 43.727 127.221 49.3717 125.895C52.1419 125.242 53.6833 124.943 54.3984 128.637C55.3218 133.428 64.8754 139.482 69.5689 138.316C71.7341 137.774 73.4484 135.416 74.5108 134.561C74.5118 134.56 74.5123 134.559 74.5123 134.558Z"/>
</mask>
<path d="M74.5123 134.558C74.5123 134.555 74.5147 134.553 74.5172 134.553C79.7014 135.463 83.9145 136.212 88.1345 136.941C90.2452 137.302 92.3767 137.538 94.4665 137.996C100.736 139.364 104.68 134.997 102.805 128.762C101.979 126.02 100.146 125.395 97.8617 126.596C94.0153 128.63 90.9742 127.339 88.1623 124.693C87.6557 124.217 87.1462 123.737 86.6998 123.252C84.6006 120.973 83.3764 115.469 80.9646 117.414C80.7978 117.549 80.6363 117.696 80.4801 117.856C78.4344 119.956 74.1671 121.567 73.0404 118.861C71.3949 114.939 69.2981 111.974 64.8477 110.953C63.4799 110.641 62.4731 108.968 61.14 108.218C59.6186 107.37 57.2575 109.186 57.8817 110.811C57.9281 110.932 57.9858 111.045 58.0574 111.148C59.0641 112.592 60.7304 113.592 62.1399 114.744C64.4539 116.628 63.5977 120.923 61.0871 119.31C60.5645 118.974 60.0746 118.498 59.5987 117.875C58.1268 115.959 56.4466 114.203 54.9052 112.335C52.5377 109.474 50.6769 108.315 46.8235 111.238C44.1991 113.231 39.6445 112.967 38.0059 116.751C35.5481 122.409 31.1671 124.173 25.3766 124.367C20.3915 124.541 18.982 124.013 18.6071 120.208C18.1142 115.188 20.3221 111.766 24.467 111.321C26.0223 111.155 27.6886 111.557 29.1605 111.162C30.7158 110.738 33.1805 109.815 33.3055 108.863C33.5068 107.301 32.2849 105.44 31.3545 103.899C30.5127 102.513 30.359 100.837 31.8786 100.272C38.7865 97.7016 43.8195 93.1174 48.5987 88.3054C50.7771 86.112 54.407 86.6713 57.1158 88.1609C62.1021 90.9031 68.5868 89.0716 73.1931 82.8479C74.2536 81.416 75.3958 80.5685 76.6195 80.3056C79.2712 79.7357 82.8899 80.0192 83.4402 77.3634C83.7607 75.8171 83.1895 74.5955 80.4764 74.7523C79.3378 74.8287 78.1783 74.9814 77.0604 74.8426C73.1584 74.3496 72.1656 72.2945 73.8874 68.698C74.6579 67.0848 72.8268 65.416 71.316 66.372C68.7127 68.0194 67.4107 70.5069 66.264 73.1207C64.313 77.4462 62.737 86.9026 56.3425 81.4524C55.1552 80.4942 53.1695 80.3901 51.5101 80.1887C49.33 79.9249 46.8722 80.7025 46.164 77.3699C45.5183 74.3427 47.011 73.211 49.3439 71.7599C52.7876 69.6145 55.9953 66.9692 58.9253 64.1434C70.7614 52.7038 83.197 56.9682 96.6629 61.8619C97.0205 61.9918 97.2312 62.3635 97.1556 62.7364C97.0836 63.0917 96.7699 63.3449 96.4074 63.3449H94.3389C91.9336 63.3449 90.1277 66.0663 91.9861 67.5932C93.741 69.0349 95.756 68.4817 98.7226 66.6568C101.5 64.9488 103.444 61.512 108.464 62.6229C112.727 63.5671 117.795 61.2134 122.419 59.9914C125.703 59.1236 128.071 59.7207 130.404 62.3104C154.003 88.1107 169.076 119.25 174.839 153.778C175.019 154.771 174.825 156.645 174.395 156.777C173.325 157.11 171.881 156.951 170.833 156.458C169.722 155.93 169.042 154.535 167.938 153.979C165.515 152.757 162.987 151.049 160.425 150.91C151.83 150.438 143.929 147.939 136.361 144.065C134.465 143.092 132.577 142.044 130.584 141.336C129.515 140.954 127.356 140.864 127.175 141.273C126.675 142.447 126.391 144.314 127.015 145.252C128.487 147.48 130.695 149.209 132.299 151.369C134.576 154.417 137.055 152.75 139.61 152.111C143.498 151.146 149.879 154.66 150.83 158.36C151.017 159.082 150.476 160.374 149.851 160.853C143.991 165.345 138.138 169.872 132.077 174.079C127.258 177.419 123.829 175.426 121.058 170.281C117.365 163.415 114.962 155.562 107.832 150.813C105.943 149.556 105.325 146.481 103.916 144.391C103.863 144.313 103.809 144.235 103.754 144.159C102.773 142.798 99.8954 143.848 100.646 145.349C103.826 151.702 107.415 157.846 110.637 164.178C113.206 169.233 115.525 174.419 117.788 179.62C118.975 182.348 119.934 184.265 123.745 183.022C125.212 182.542 126.791 182.405 128.424 182.364C131.179 182.294 133.582 184.595 133.188 187.322C132.365 193.023 129.778 197.41 124.467 200.622C122.211 201.983 120.468 204.469 118.975 206.76C116.65 210.336 114.476 214.078 112.768 217.98C112.032 219.66 112.4 221.951 112.65 223.916C113.171 227.929 114.289 231.887 114.442 235.9C114.49 237.191 112.56 239.024 111.109 239.83C106.089 242.628 103.715 246.55 101.819 252.216C98.8199 261.165 93.6196 269.393 89.1413 277.815C88.6206 278.787 86.8014 279.412 85.517 279.571C81.976 279.995 78.3518 280.488 74.8595 280.113C73.214 279.933 71.263 278.107 70.3604 276.51C68.3539 272.976 66.9097 269.115 65.2434 265.387C64.8338 264.477 64.0908 263.554 64.1047 262.644C64.1742 256.708 61.2372 251.751 59.0571 246.55C57.4811 242.787 57.0506 238.941 59.2377 235.407C62.7994 229.644 59.9112 224.361 58.231 219.105C57.252 216.036 54.8289 213.446 53.7388 210.398C53.0168 208.392 52.8501 205.705 53.586 203.761C55.294 199.255 53.7041 195.922 48.7676 195.075C47.7886 194.908 46.4903 194.95 45.914 194.346C42.269 190.541 38.2628 191.728 33.9928 192.895C29.5979 194.096 25.0641 194.832 20.572 195.644C16.434 196.394 10.5879 192.075 9.08823 187.729C8.44947 185.875 7.28998 183.897 5.78334 182.709C1.31898 179.189 -0.0348752 175.148 1.86751 169.754C2.22161 168.754 2.38126 167.442 2.048 166.477C0.0692347 160.818 1.88138 155.895 5.36678 151.688C9.53259 146.668 13.9067 141.989 16.6769 135.851C18.0378 132.845 21.5787 130.783 24.2796 128.47C24.8281 128.005 26.0848 128.234 26.9874 128.352C28.7717 128.595 30.6116 129.484 32.2918 129.227C38.0198 128.346 43.727 127.221 49.3717 125.895C52.1419 125.242 53.6833 124.943 54.3984 128.637C55.3218 133.428 64.8754 139.482 69.5689 138.316C71.7341 137.774 73.4484 135.416 74.5108 134.561C74.5118 134.56 74.5123 134.559 74.5123 134.558Z" fill="#6FDCAE" stroke="black" stroke-width="4.13366" mask="url(#path-60-inside-1_6596_252472)"/>
<mask id="path-61-inside-2_6596_252472" fill="white">
<path d="M-48.9987 44.5025C-49.0003 44.504 -48.9987 44.5067 -48.9966 44.5061C-41.1748 42.285 -33.776 40.0225 -26.2732 38.1763C-24.3291 37.6973 -21.9963 38.2735 -19.9481 38.7873C-11.9845 40.7939 -4.54848 37.4612 3.14439 36.8363C5.91299 36.6124 8.70437 36.6524 11.4689 36.7763C15.3703 36.9512 17.6775 41.6873 15.2196 44.7222C14.7484 45.304 14.2678 45.8666 13.7672 46.4107C12.2744 48.0285 10.2471 49.4448 8.18502 50.1739C4.89196 51.3317 3.06377 57.2992 -0.245789 58.409C-2.42228 59.1388 -4.52179 59.8685 -6.59665 60.6648C-9.88765 61.9284 -12.9287 63.8239 -16.2197 65.0875C-21.913 67.2676 -27.4813 69.2811 -31.4249 74.5439C-33.0149 76.6684 -36.2017 76.849 -38.5485 74.2037C-40.7077 71.7667 -41.3118 66.6705 -39.5066 63.7614C-38.9859 62.9212 -38.243 62.22 -37.6042 61.4494C-33.7161 56.7836 -34.459 51.6874 -39.7774 48.6117C-42.6306 46.9595 -45.8238 45.8903 -48.9963 44.502C-48.9971 44.5017 -48.9981 44.5018 -48.9987 44.5025Z"/>
</mask>
<path d="M-48.9987 44.5025C-49.0003 44.504 -48.9987 44.5067 -48.9966 44.5061C-41.1748 42.285 -33.776 40.0225 -26.2732 38.1763C-24.3291 37.6973 -21.9963 38.2735 -19.9481 38.7873C-11.9845 40.7939 -4.54848 37.4612 3.14439 36.8363C5.91299 36.6124 8.70437 36.6524 11.4689 36.7763C15.3703 36.9512 17.6775 41.6873 15.2196 44.7222C14.7484 45.304 14.2678 45.8666 13.7672 46.4107C12.2744 48.0285 10.2471 49.4448 8.18502 50.1739C4.89196 51.3317 3.06377 57.2992 -0.245789 58.409C-2.42228 59.1388 -4.52179 59.8685 -6.59665 60.6648C-9.88765 61.9284 -12.9287 63.8239 -16.2197 65.0875C-21.913 67.2676 -27.4813 69.2811 -31.4249 74.5439C-33.0149 76.6684 -36.2017 76.849 -38.5485 74.2037C-40.7077 71.7667 -41.3118 66.6705 -39.5066 63.7614C-38.9859 62.9212 -38.243 62.22 -37.6042 61.4494C-33.7161 56.7836 -34.459 51.6874 -39.7774 48.6117C-42.6306 46.9595 -45.8238 45.8903 -48.9963 44.502C-48.9971 44.5017 -48.9981 44.5018 -48.9987 44.5025Z" fill="#6FDCAE"/>
<path d="M-26.2732 38.1763L-25.7793 40.1833L-25.7787 40.1831L-26.2732 38.1763ZM-19.9481 38.7873L-19.4431 36.7831L-19.4452 36.7826L-19.9481 38.7873ZM3.14439 36.8363L2.97774 34.7762L2.97705 34.7763L3.14439 36.8363ZM13.7672 46.4107L15.2862 47.8124L15.2882 47.8101L13.7672 46.4107ZM-6.59665 60.6648L-7.33722 58.7352L-7.33751 58.7353L-6.59665 60.6648ZM-16.2197 65.0875L-15.4806 67.0177L-15.4789 67.017L-16.2197 65.0875ZM-31.4249 74.5439L-33.0789 73.3045L-33.0797 73.3055L-31.4249 74.5439ZM-38.5485 74.2037L-40.0954 75.5743L-40.0946 75.5753L-38.5485 74.2037ZM-39.5066 63.7614L-37.7504 64.8511L-37.7499 64.8502L-39.5066 63.7614ZM-37.6042 61.4494L-39.192 60.1262L-39.1955 60.1304L-37.6042 61.4494ZM-39.7774 48.6117L-40.8131 50.4003L-40.8121 50.4008L-39.7774 48.6117ZM11.4689 36.7763L11.3763 38.8411L11.4689 36.7763ZM15.2196 44.7222L13.6134 43.4214L15.2196 44.7222ZM-48.9963 44.502L-49.8249 46.3955L-48.9963 44.502ZM-48.9966 44.5061L-49.5612 42.5179L-48.9966 44.5061ZM-48.432 46.4943C-40.5568 44.2581 -33.2349 42.0179 -25.7793 40.1833L-26.767 36.1694C-34.3171 38.0272 -41.7927 40.312 -49.5612 42.5179L-48.432 46.4943ZM-25.7787 40.1831C-24.4315 39.8511 -22.64 40.2429 -20.451 40.792L-19.4452 36.7826C-21.3526 36.3041 -24.2268 35.5434 -26.7677 36.1695L-25.7787 40.1831ZM-20.4531 40.7915C-16.0534 41.9001 -11.8646 41.513 -7.94785 40.8352C-3.88784 40.1325 -0.422878 39.1997 3.31172 38.8964L2.97705 34.7763C-0.98122 35.0978 -5.08068 36.1438 -8.65279 36.7621C-12.3682 37.4051 -15.8792 37.6811 -19.4431 36.7831L-20.4531 40.7915ZM3.31103 38.8964C5.95465 38.6826 8.6479 38.7188 11.3763 38.8411L11.5614 34.7116C8.76084 34.5861 5.87134 34.5422 2.97774 34.7762L3.31103 38.8964ZM13.6134 43.4214C13.1646 43.9756 12.7124 44.5045 12.2462 45.0114L15.2882 47.8101C15.8232 47.2287 16.3322 46.6323 16.8257 46.023L13.6134 43.4214ZM12.2482 45.0091C10.9539 46.4118 9.20235 47.622 7.49611 48.2252L8.87394 52.1225C11.2919 51.2677 13.595 49.6451 15.2862 47.8124L12.2482 45.0091ZM-0.902912 56.4494C-3.09153 57.1833 -5.22261 57.9236 -7.33722 58.7352L-5.85609 62.5944C-3.82096 61.8133 -1.75302 61.0944 0.411331 60.3686L-0.902912 56.4494ZM-7.33751 58.7353C-9.09141 59.4087 -10.763 60.2445 -12.3309 61.0267C-13.9291 61.824 -15.4235 62.5678 -16.9606 63.158L-15.4789 67.017C-13.725 66.3435 -12.0533 65.5078 -10.4855 64.7256C-8.88731 63.9282 -7.39288 63.1845 -5.85579 62.5943L-7.33751 58.7353ZM-16.9588 63.1573C-22.5427 65.2956 -28.7179 67.4847 -33.0789 73.3045L-29.7709 75.7833C-26.2446 71.0774 -21.2833 69.2396 -15.4806 67.0177L-16.9588 63.1573ZM-33.0797 73.3055C-33.4773 73.8369 -34.044 74.1056 -34.6709 74.0959C-35.3003 74.0862 -36.1576 73.7842 -37.0023 72.8321L-40.0946 75.5753C-38.5925 77.2684 -36.6831 78.1989 -34.7349 78.2291C-32.7841 78.2593 -30.9625 77.3755 -29.7701 75.7823L-33.0797 73.3055ZM-37.0015 72.833C-37.7106 72.0327 -38.2915 70.6067 -38.4577 68.9528C-38.6239 67.2998 -38.3382 65.7984 -37.7504 64.8511L-41.2628 62.6716C-42.4802 64.6335 -42.795 67.1347 -42.5707 69.3663C-42.3464 71.5971 -41.5456 73.9376 -40.0954 75.5743L-37.0015 72.833ZM-37.7499 64.8502C-37.5804 64.5769 -37.354 64.2932 -37.0464 63.9429C-36.7827 63.6424 -36.3515 63.1768 -36.0129 62.7683L-39.1955 60.1304C-39.4957 60.4926 -39.7553 60.7629 -40.1529 61.2158C-40.5067 61.6188 -40.912 62.1057 -41.2633 62.6725L-37.7499 64.8502ZM-36.0164 62.7725C-33.802 60.1152 -32.7126 57.0898 -33.1983 54.1026C-33.6865 51.1005 -35.692 48.5868 -38.7427 46.8225L-40.8121 50.4008C-38.5444 51.7123 -37.5193 53.2846 -37.2784 54.766C-37.0351 56.2622 -37.5183 58.1178 -39.192 60.1262L-36.0164 62.7725ZM-38.7416 46.8231C-41.7227 45.0968 -45.2309 43.8937 -48.1677 42.6085L-49.8249 46.3955C-46.4168 47.8869 -43.5384 48.8221 -40.8131 50.4003L-38.7416 46.8231ZM7.49945 48.224C6.22132 48.6734 5.21664 49.538 4.42869 50.3873C3.63979 51.2376 2.92302 52.2372 2.30036 53.0992C1.64274 54.0096 1.07862 54.7831 0.497337 55.4027C-0.0846748 56.0231 -0.539608 56.3276 -0.902912 56.4494L0.411331 60.3686C1.70281 59.9355 2.71749 59.0778 3.51198 58.231C4.30721 57.3834 5.02649 56.3846 5.65125 55.5197C6.31097 54.6064 6.87554 53.8276 7.45902 53.1987C8.04346 52.5688 8.5022 52.2532 8.87059 52.1237L7.49945 48.224ZM11.3763 38.8411C13.7248 38.9464 14.9159 41.8131 13.6134 43.4214L16.8257 46.023C20.439 41.5615 17.0158 34.956 11.5614 34.7116L11.3763 38.8411ZM-48.1677 42.6085C-48.9468 42.2676 -49.857 42.4377 -50.4602 43.041L-47.5373 45.9639C-48.1393 46.5659 -49.0475 46.7357 -49.8249 46.3955L-48.1677 42.6085ZM-49.5612 42.5179C-47.5483 41.9463 -46.0065 44.4331 -47.5373 45.9639L-50.4602 43.041C-51.9942 44.5749 -50.4492 47.0671 -48.432 46.4943L-49.5612 42.5179Z" fill="black" mask="url(#path-61-inside-2_6596_252472)"/>
<path d="M126.156 257.732L126.156 257.731C126.263 257.435 126.37 257.14 126.477 256.844C128.442 251.413 130.394 246.019 131.937 240.516C132.084 239.989 132.232 239.597 132.362 239.27C132.38 239.224 132.397 239.18 132.414 239.139C132.518 238.875 132.593 238.687 132.656 238.471C132.787 238.019 132.88 237.385 132.785 235.867C132.778 235.752 132.744 235.631 132.684 235.519C132.41 235.001 131.723 234.871 131.276 235.255C130.89 235.587 130.512 235.91 130.144 236.226C127.373 238.603 125.082 240.568 122.854 242.605L122.853 242.606C122.783 242.67 122.678 242.829 122.561 243.201C122.506 243.375 122.458 243.564 122.405 243.779C122.397 243.809 122.39 243.841 122.382 243.873C122.337 244.053 122.288 244.253 122.234 244.443C121.96 245.416 121.727 246.386 121.488 247.377C121.358 247.917 121.226 248.463 121.086 249.019C120.695 250.568 120.247 252.142 119.609 253.653L119.609 253.653C118.978 255.142 119.196 256.054 119.655 256.756C120.19 257.576 121.117 258.224 122.227 258.999L126.156 257.732ZM126.156 257.732C125.734 258.898 125.119 259.421 124.551 259.592M126.156 257.732L124.551 259.592M124.551 259.592C123.974 259.766 123.176 259.659 122.227 258.999L124.551 259.592Z" fill="#6FDCAE" stroke="black" stroke-width="2.06683"/>
<path d="M30.9532 88.9108L30.9518 88.9377C30.8858 90.202 30.8077 92.1505 30.9849 93.8371C31.074 94.6858 31.2216 95.399 31.4305 95.905C31.6469 96.429 31.8372 96.5212 31.8883 96.5363L31.8885 96.5363L31.8907 96.5367C31.8927 96.537 31.8965 96.5374 31.9022 96.5375C31.9135 96.5377 31.934 96.5368 31.965 96.5307C32.0294 96.5181 32.1276 96.4855 32.2595 96.4133C32.529 96.2657 32.8576 95.9977 33.2093 95.6092C33.9122 94.8329 34.5668 93.7322 34.9281 92.6886L34.9281 92.6884C35.7944 90.187 35.2113 87.2611 34.0331 84.9324C33.4494 83.7786 32.7484 82.8319 32.0814 82.2068C31.3628 81.5332 30.884 81.4124 30.7144 81.4313L30.7139 81.4313C30.7128 81.4315 30.7116 81.4315 30.7103 81.4317C30.6837 81.4338 30.6039 81.4403 30.4256 81.6967C30.2601 81.9348 30.1149 82.2292 29.9117 82.641C29.8467 82.7727 29.7758 82.9164 29.6964 83.0741C29.0803 84.2981 28.1536 85.9093 26.1076 87.0369L30.9532 88.9108ZM30.9532 88.9108V88.8838M30.9532 88.9108V88.8838M30.9532 88.8838C30.9532 87.9935 30.4948 86.7718 29.2409 86.452C28.8115 86.3426 28.3813 86.3161 27.9575 86.3813L27.9575 86.3813M30.9532 88.8838L27.9575 86.3813M27.9575 86.3813L27.9504 86.3824M27.9575 86.3813L27.9504 86.3824M27.9504 86.3824C26.9873 86.5374 26.327 87.1219 25.8321 87.7356C25.4869 88.1638 25.151 88.7033 24.8312 89.2171C24.7196 89.3963 24.61 89.5723 24.5027 89.7394L24.5018 89.7407M27.9504 86.3824L24.5018 89.7407M24.5018 89.7407C23.9336 90.6282 23.1763 91.8081 22.4351 92.7355C22.0615 93.2029 21.7276 93.5603 21.4558 93.7787C21.4308 93.7989 21.4074 93.8169 21.3857 93.833C21.3544 93.7781 21.3203 93.711 21.2848 93.6302C21.1168 93.2478 20.9747 92.6904 20.9193 92.0475C20.8049 90.7183 21.0828 89.3767 21.8013 88.6086L21.8014 88.6085M24.5018 89.7407L21.8014 88.6085M21.8014 88.6085C22.1665 88.2181 22.4922 88.1195 23.165 87.9943M21.8014 88.6085L23.165 87.9943M23.165 87.9943C23.2188 87.9843 23.2744 87.9742 23.3315 87.9638M23.165 87.9943L23.3315 87.9638M23.3315 87.9638C24.0279 87.8373 24.9666 87.6667 26.1075 87.037L23.3315 87.9638ZM21.5156 94.0162C21.5184 94.0184 21.5198 94.0197 21.5198 94.0198C21.5198 94.0199 21.5184 94.0188 21.5156 94.0162Z" fill="#6FDCAE" stroke="black" stroke-width="2.06683"/>
<path d="M14.775 67.0739L14.7729 67.0766C13.7569 68.3552 12.3163 69.0228 10.6448 68.9777C9.42942 68.9448 8.05328 68.5314 6.62036 67.6389C6.81779 67.5927 7.01311 67.5469 7.20648 67.5016C9.96638 66.8547 12.3265 66.3015 14.6993 65.8439C14.7525 65.8681 14.8255 65.909 14.9076 65.968C15.0049 66.0379 15.0888 66.1144 15.1468 66.1804C15.1552 66.1899 15.1625 66.1985 15.1687 66.2063C15.1687 66.2071 15.1686 66.208 15.1685 66.2088C15.162 66.2696 15.1428 66.3582 15.104 66.4689C15.0242 66.6965 14.8944 66.9247 14.775 67.0739ZM15.2005 66.2504C15.2005 66.2504 15.2002 66.2499 15.1997 66.249L15.2005 66.2504Z" fill="#6FDCAE" stroke="black" stroke-width="2.06683"/>
<path fill-rule="evenodd" clip-rule="evenodd" d="M-27.4713 354.299C68.6792 354.407 146.942 276.531 147.051 180.638C147.139 96.9356 88.5696 27.0008 10.1932 9.89844C102.606 14.2929 176.012 90.7394 175.914 184.439C175.805 280.331 97.5418 358.208 1.39124 358.099C-11.289 358.085 -23.6496 356.707 -35.5537 354.104C-32.8751 354.23 -30.1805 354.296 -27.4713 354.299Z" fill="#075677" fill-opacity="0.2"/>
</svg>
