<svg width="89" height="89" viewBox="0 0 89 89" fill="none" xmlns="http://www.w3.org/2000/svg">
<path d="M44.4681 82.2486C65.4459 82.2486 82.4518 65.2427 82.4518 44.2649C82.4518 23.2871 65.4459 6.28125 44.4681 6.28125C23.4903 6.28125 6.48438 23.2871 6.48438 44.2649C6.48438 65.2427 23.4903 82.2486 44.4681 82.2486Z" fill="#69D4FF"/>
<path d="M44.4681 82.2486C65.4459 82.2486 82.4518 65.2427 82.4518 44.2649C82.4518 23.2871 65.4459 6.28125 44.4681 6.28125C23.4903 6.28125 6.48438 23.2871 6.48438 44.2649C6.48438 65.2427 23.4903 82.2486 44.4681 82.2486Z" stroke="black" stroke-width="0.599238" stroke-miterlimit="10"/>
<path d="M25.8985 11.5945C25.9704 11.6904 24.3005 12.6652 23.8291 14.5987C23.7652 14.8384 23.4696 15.973 23.933 16.3005C24.3964 16.6281 25.531 15.941 26.0583 15.5575C26.7374 15.0302 26.6735 14.7585 27.2328 14.4948C27.8374 14.249 28.4981 14.1744 29.1424 14.2791C29.7632 14.2492 30.3829 14.3584 30.9561 14.5987C31.501 14.9327 31.9207 15.4369 32.1503 16.0334C32.3799 16.6298 32.4067 17.2853 32.2264 17.8985C31.9549 18.5411 31.4655 19.0673 30.8442 19.3846C29.9653 19.912 29.3741 19.7521 28.5032 20.4473C28.3833 20.5431 27.7042 21.0944 27.832 21.3741C28.0158 21.7976 29.8375 21.1823 30.0133 21.5818C30.1251 21.8295 29.5658 22.3249 29.2143 22.5885C28.3674 23.1798 27.7761 23.0599 26.0183 23.6991C25.7067 23.819 25.5549 23.8749 25.3951 23.9468C24.724 24.2504 24.1247 24.6899 22.7585 26.2399C22.198 26.7989 21.6973 27.4148 21.2644 28.0776C20.7131 29.2441 20.9847 29.9472 20.3935 30.3707C19.8022 30.7941 18.9553 30.1389 18.412 30.5784C17.6929 31.1616 18.7236 32.6637 17.9246 34.4694C17.645 35.1086 17.1656 35.7238 16.9179 35.6519C16.6702 35.58 16.838 34.8529 16.6463 33.5266C16.4705 32.4001 16.3666 31.681 15.9112 31.4493C15.1122 31.0258 13.5143 32.2483 12.7153 33.4228C12.0335 34.4146 11.6711 35.591 11.6766 36.7945C11.5523 37.7484 11.7888 38.7144 12.3397 39.503C13.2186 40.5177 14.2813 39.9904 14.8006 40.8933C15.3199 41.7961 14.6168 42.3714 15.1841 43.9134C15.4078 44.5127 15.5916 44.6485 15.7035 44.7124C16.3347 45.056 17.0617 44.3209 17.613 44.7124C17.9166 44.9042 17.8048 45.1838 18.1404 45.6472C18.4892 46.0705 18.9611 46.3749 19.4906 46.5181C21.5121 47.2372 21.7677 46.9576 22.6866 47.421C24.1727 48.164 24.2846 49.3146 25.499 49.3625C26.1142 49.3625 26.1462 49.0908 26.7534 49.0828C27.9599 49.0828 28.4872 50.2893 29.9493 51.4798C31.0325 52.3404 32.2687 52.9883 33.5927 53.3894C35.0389 53.8608 35.686 53.7489 37.5876 54.46C39.0817 55.0353 39.3933 55.3868 39.5611 55.6825C39.7993 56.1799 39.8998 56.7321 39.852 57.2816C39.8042 57.831 39.6099 58.3576 39.2895 58.8065C38.7222 59.6055 38.1469 59.5176 37.5876 60.5403C37.3373 60.9626 37.1946 61.4401 37.1722 61.9305C37.1322 62.7295 37.4598 62.8493 37.4438 63.3926C37.4278 63.936 37.0363 64.3754 35.1907 65.9973C33.5927 67.4195 33.5208 67.4036 33.4169 67.5953C32.7378 69.0335 34.0401 70.1201 33.345 71.3106C32.7697 72.3013 31.5233 72.1096 31.3316 73.0444C31.317 73.3233 31.359 73.6023 31.4551 73.8646C31.5513 74.1269 31.6995 74.367 31.8909 74.5704C32.7538 75.7929 33.9762 76.0086 33.9043 76.4161C33.8564 76.6798 33.2891 76.8396 32.8257 76.8635C31.5393 76.9514 30.3328 76.0645 28.8308 74.3627C27.1139 72.6048 25.7569 70.5285 24.8358 68.2505C23.7332 65.3901 23.933 63.6643 22.3031 62.6576C21.544 62.1782 21.3603 62.4578 20.2177 62.0024C19.0238 61.5194 17.9644 60.7549 17.1297 59.7742C16.295 58.7934 15.7097 57.6254 15.4238 56.3696C15.1515 54.9793 15.2591 53.5412 15.7354 52.2069C15.9274 51.8252 16.0568 51.4151 16.1189 50.9924C16.2787 49.6901 15.5596 49.3146 15.8073 48.4197C16.055 47.5248 16.83 47.5168 16.9499 46.5421C16.9978 46.1825 16.9499 45.6792 16.7102 45.5753C16.4705 45.4715 16.1269 46.0947 15.6316 46.0947C15.1362 46.0947 14.8326 45.1758 13.6581 43.5219C13.2998 42.9249 12.8525 42.3861 12.3317 41.924C11.381 41.1729 10.7338 41.3167 10.1106 40.8533C9.10385 40.1262 8.96002 38.5762 8.99997 36.9942C9.06246 33.481 9.80595 30.0133 11.1892 26.7832C12.3002 24.7242 13.5945 22.7694 15.0563 20.9426C16.3819 19.3117 17.8296 17.7839 19.3868 16.3724C22.8783 13.1206 25.8026 11.4667 25.8985 11.5945Z" fill="#69B36C" stroke="black" stroke-width="0.599238" stroke-miterlimit="10"/>
<path d="M71.3455 28.9245C70.4107 30.0191 76.2353 36.2671 76.8026 37.905C76.8515 38.075 76.9555 38.224 77.0982 38.3285C77.6255 38.688 78.3047 37.937 78.8 38.1208C79.599 38.4244 79.599 41.1649 78.8 43.7616C78.4005 45.0639 78.2407 44.8962 77.6814 46.4542C76.9531 48.3497 76.5453 50.3532 76.475 52.3826C76.419 55.267 77.226 55.9221 76.475 56.9848C75.7239 58.0474 74.6453 58.0155 73.7824 59.5495C73.5582 59.9532 73.3915 60.3861 73.287 60.8359C72.2709 64.0043 70.0928 66.6705 67.1908 68.2984C66.7114 68.5461 64.7379 69.5608 63.915 68.8417C63.783 68.6967 63.6823 68.5261 63.6191 68.3406C63.5559 68.155 63.5315 67.9584 63.5474 67.7631C63.4995 63.121 65.9444 54.6357 63.2917 50.9285C62.5956 50.2224 62.0851 49.355 61.8056 48.4037C61.4461 46.7178 62.333 45.7431 61.8056 44.7923C61.2783 43.8415 59.904 43.7616 58.362 43.6737C52.2178 43.3461 51.6745 44.0732 49.5732 43.5539C48.0771 43.1308 46.7013 42.3624 45.5564 41.3105C44.4115 40.2586 43.5295 38.9525 42.9816 37.4975C42.646 36.5707 41.7032 34.038 42.7818 31.7369C43.8605 29.4358 46.2974 29.1082 46.7767 26.5195C47.0084 25.321 46.6409 24.6499 47.2322 24.0267C47.9752 23.2277 48.918 23.9308 50.8755 23.4914C52.833 23.0519 52.9609 22.0772 55.1102 21.7096C55.5975 21.6218 57.587 21.2862 58.2182 22.205C58.6257 22.8042 58.0744 23.3875 58.5058 23.9468C59.137 24.7458 60.5832 23.8829 61.534 24.8177C62.0054 25.2811 62.0134 25.8724 62.6526 26.1041C62.7644 26.144 63.1799 26.2958 63.4516 26.1041C64.0188 25.6726 62.9722 24.1545 63.5394 23.4914C64.1067 22.8282 65.7127 23.1398 66.7354 23.9468C67.6462 24.6339 67.7741 25.4888 68.1895 25.4409C68.605 25.3929 69.2442 24.1785 68.9885 23.1558C68.3413 20.7589 62.9722 19.7601 62.9722 19.7601C62.9722 19.7601 63.1719 21.5498 62.6446 21.7895C62.3969 21.9014 62.0613 21.6617 61.8456 21.5019C60.3115 20.3114 60.0719 19.033 59.153 18.266C57.8027 17.1315 55.198 17.2673 53.8078 18.3459C52.6812 19.2248 53.0727 20.1596 51.5706 21.462C50.8361 22.1235 49.9311 22.5663 48.958 22.7403C48.2868 22.8522 46.7448 23.0999 45.8899 22.0772C45.1628 21.2063 45.1708 19.6802 45.802 19.1769C46.3053 18.7694 46.9046 19.2168 48.127 18.7214C48.4866 18.5776 49.1497 18.3139 49.1657 17.9224C49.1657 17.3791 47.8234 17.3312 47.5678 16.4683C47.5149 16.022 47.6028 15.5704 47.8191 15.1765C48.0354 14.7826 48.3693 14.4661 48.7742 14.2711C49.2856 14.0234 49.5732 14.2152 49.8129 13.9435C50.3482 13.3842 49.5093 12.3455 49.9966 11.7383C50.484 11.1311 51.7784 11.3069 52.4655 11.3708C53.1527 11.4347 53.3764 11.5546 53.5841 11.3708C53.9996 10.9953 53.3284 10.0844 53.7039 9.54911C53.9996 9.13364 54.7426 9.17357 56.1888 9.3813C57.4711 9.5103 58.7405 9.74548 59.9839 10.0844C61.947 10.784 63.7843 11.7958 65.425 13.0806C67.9759 14.7959 70.3122 16.8103 72.3842 19.081C74.5869 21.5356 76.4345 24.2869 77.8732 27.2546C76.0515 26.8072 75.6361 26.943 75.5482 27.1188C75.2845 27.686 78.3047 28.8525 78.7042 31.3534C78.7427 32.2136 78.6729 33.0753 78.4964 33.9181C78.2647 35.5161 78.1528 36.3151 77.8332 36.4029C76.9624 36.5867 74.861 31.8008 74.7252 31.4732C74.4475 30.4884 73.8232 29.6372 72.9674 29.0763C72.5919 28.8685 71.6491 28.5649 71.3455 28.9245Z" fill="#69B36C" stroke="black" stroke-width="0.599238" stroke-miterlimit="10"/>
</svg>
