<svg width="124" height="53" viewBox="0 0 124 53" fill="none" xmlns="http://www.w3.org/2000/svg">
<g clip-path="url(#clip0_6673_245616)">
<path d="M0 26.252C0 11.9203 11.6174 0.303062 25.9468 0.303062C40.2786 0.303062 51.8964 11.9203 51.8964 26.252C51.8964 40.5818 40.2786 52.1992 25.9468 52.1992C11.6174 52.1992 0 40.5818 0 26.252Z" fill="#2A5EA7"/>
<path d="M0.193848 23.0738C1.51894 25.7345 2.99175 28.314 4.36756 30.9646C5.13314 32.439 6.97655 35.1605 6.58327 36.9369C6.38127 37.8478 5.06832 38.2668 5.14578 39.2489C5.22122 40.2022 6.79924 41.0811 7.44266 41.5667C8.61026 42.4469 9.70245 43.4267 10.7856 44.4072C12.2093 45.6957 12.8634 47.1979 13.2104 48.8623C15.2244 49.9996 17.4053 50.8737 19.7074 51.4424C21.2285 49.8597 22.7021 48.3083 24.5482 47.0354C25.5521 46.3427 26.7085 45.6157 27.2737 44.4971C28.0262 43.0049 27.1849 42.0999 26.7412 40.8177C26.3426 39.6678 25.9459 39.2281 24.6967 38.5272C22.5873 37.343 20.0998 36.9131 17.7894 36.2843C15.6958 35.7139 13.5594 35.1674 11.4412 34.6976C10.2124 34.4247 8.49999 34.3186 7.62955 33.3034C6.34183 31.8018 5.39589 29.1609 4.88247 27.2985C4.64426 26.4343 3.741 23.2638 4.87056 22.5542C5.4293 22.2033 6.8068 22.8226 7.17963 22.5453C7.53405 22.281 7.3562 21.4771 7.35684 21.0685C7.36402 18.4519 9.10377 16.9823 11.3277 15.8228C13.1735 14.8607 15.2059 14.3037 17.1698 13.6391C17.8981 13.3931 19.1707 13.1805 19.7577 12.6256C21.1049 11.3513 20.2269 7.67447 20.2187 5.88597C20.2057 3.25204 17.3597 3.44147 15.2992 2.5823C7.20067 6.23155 1.31209 13.9155 0.193848 23.0738Z" fill="#448ED3"/>
<path d="M35.9305 6.2713C37.9733 7.72691 41.78 10.9095 39.8078 13.6611C39.2471 14.4439 38.0756 15.6547 38.3196 16.7607C38.802 18.9532 41.3194 17.8785 42.4843 17.3302C43.3345 16.9299 44.3466 16.6311 45.3034 16.7506C45.8006 16.813 47.3728 17.181 47.6208 17.6729C48.1701 18.7664 45.5542 19.8508 44.9495 20.2824C43.2589 21.4886 41.7548 22.8397 40.8247 24.7183C40.3077 25.7627 38.7441 28.7004 39.4077 29.9686C39.7997 30.7183 41.5584 30.8602 42.243 31.0727C43.4544 31.4486 44.686 31.8744 45.8612 32.352C46.7334 32.7069 49.2096 33.4514 49.6824 34.3699C50.3539 35.6728 47.5202 36.7717 46.7726 37.472C45.455 38.7065 43.0946 42.607 44.1173 44.7734C48.9172 40.0648 51.8963 33.5065 51.8963 26.2517C51.8963 14.3017 43.8181 4.24043 32.8252 1.22613C33.0146 3.27177 34.2365 5.06458 35.9305 6.2713Z" fill="#448ED3"/>
<path d="M21.0532 46.4453V15.0947L17.2798 15.0592L17.3111 9.98219L22.1984 5.62922H31.1816V46.4453H21.0532Z" fill="white"/>
<path d="M43.9788 19.233H46.0922L37.0159 31.666H34.9023L43.9788 19.233Z" fill="white"/>
<path d="M35.3495 22.2077C35.3495 21.4972 35.9277 20.919 36.6381 20.919C37.3487 20.919 37.9267 21.4972 37.9267 22.2077C37.9267 22.9174 37.3487 23.4956 36.6381 23.4956C35.9277 23.4956 35.3495 22.9174 35.3495 22.2077ZM33.7192 22.2077C33.7192 23.8167 35.0289 25.126 36.6381 25.126C38.2474 25.126 39.5571 23.8167 39.5571 22.2077C39.5571 20.598 38.2474 19.2889 36.6381 19.2889C35.0289 19.2889 33.7192 20.598 33.7192 22.2077Z" fill="white"/>
<path d="M42.9574 28.7422C42.9574 28.0317 43.5352 27.4537 44.2457 27.4537C44.9565 27.4537 45.5341 28.0317 45.5341 28.7422C45.5341 29.4525 44.9565 30.0303 44.2457 30.0303C43.5352 30.0303 42.9574 29.4525 42.9574 28.7422ZM41.3271 28.7422C41.3271 30.3517 42.6363 31.6611 44.2457 31.6611C45.8547 31.6611 47.1641 30.3517 47.1641 28.7422C47.1641 27.1328 45.8547 25.8235 44.2457 25.8235C42.6363 25.8235 41.3271 27.1328 41.3271 28.7422Z" fill="white"/>
<path d="M56.8057 14.2206H65.3601V16.8175H59.7689V18.6351H64.8249V21.0944H59.7689V24.9131H56.8057V14.2206Z" fill="#448ED3"/>
<path d="M74.906 19.5968V19.5662C74.906 18.0229 73.7913 16.6789 72.1572 16.6789C70.5377 16.6789 69.4538 17.9926 69.4538 19.5352V19.5662C69.4538 21.1087 70.5685 22.4528 72.1875 22.4528C73.8217 22.4528 74.906 21.1391 74.906 19.5968ZM66.4136 19.5968V19.5662C66.4136 16.496 68.8883 14.0058 72.1875 14.0058C75.486 14.0058 77.9311 16.4646 77.9311 19.5352V19.5662C77.9311 22.6362 75.4564 25.126 72.1572 25.126C68.8574 25.126 66.4136 22.6666 66.4136 19.5968Z" fill="#448ED3"/>
<path d="M84.469 19.353C85.477 19.353 86.0572 18.8642 86.0572 18.0851V18.0544C86.0572 17.2143 85.4461 16.7865 84.4534 16.7865H82.5133V19.353H84.469ZM79.5498 14.2206H84.606C86.2408 14.2206 87.3706 14.6482 88.0889 15.3814C88.715 15.9923 89.0361 16.8175 89.0361 17.871V17.9019C89.0361 19.5361 88.1652 20.6207 86.8366 21.186L89.3872 24.9131H85.9651L83.8114 21.6748H83.7811H82.5133V24.9131H79.5498V14.2206Z" fill="#448ED3"/>
<path d="M96.0774 16.8175H92.8691V14.2206H102.248V16.8175H99.0408V24.9131H96.0774V16.8175Z" fill="#448ED3"/>
<path d="M103.623 14.2206H106.586V18.2221H110.389V14.2206H113.353V24.9131H110.389V20.8496H106.586V24.9131H103.623V14.2206Z" fill="#448ED3"/>
<path d="M115.323 14.2206H123.923V16.7406H118.257V18.3599H123.389V20.6968H118.257V22.3925H124V24.9131H115.323V14.2206Z" fill="#448ED3"/>
<path d="M61.4114 32.7362C62.5404 32.7362 63.2276 32.1474 63.2276 31.247V31.215C63.2276 30.2328 62.5404 29.7089 61.3951 29.7089H59.9062V32.7362H61.4114ZM56.7314 27.0418H61.6405C64.5367 27.0418 66.4026 28.5306 66.4026 31.067V31.0996C66.4026 33.8002 64.3243 35.2234 61.4767 35.2234H59.9062V38.4961H56.7314V27.0418Z" fill="#2A5EA7"/>
<path d="M67.7432 27.0418H70.9183V35.7142H76.4652V38.4961H67.7432V27.0418Z" fill="#2A5EA7"/>
<path d="M84.5649 33.9795L83.2886 30.7237L81.9953 33.9795H84.5649ZM81.783 26.9601H84.8435L89.719 38.4961H86.3158L85.4809 36.451H81.0631L80.245 38.4961H76.9067L81.783 26.9601Z" fill="#2A5EA7"/>
<path d="M90.8315 27.0418H93.7933L98.5065 33.0965V27.0418H101.647V38.4961H98.8656L93.9731 32.2129V38.4961H90.8315V27.0418Z" fill="#2A5EA7"/>
<path d="M103.676 27.0418H112.889V29.742H106.818V31.476H112.315V33.9795H106.818V35.796H112.971V38.4961H103.676V27.0418Z" fill="#2A5EA7"/>
<path d="M117.389 29.8232H113.953V27.0418H124V29.8232H120.564V38.4961H117.389V29.8232Z" fill="#2A5EA7"/>
<path d="M122.331 37.4476C122.428 37.4476 122.482 37.3989 122.482 37.3286C122.482 37.2531 122.428 37.2097 122.331 37.2097H122.153V37.4476H122.331ZM121.871 36.972H122.347C122.59 36.972 122.763 37.0747 122.763 37.3071C122.763 37.4637 122.682 37.5719 122.557 37.6206L122.795 37.9666H122.471L122.271 37.6693H122.153V37.9666H121.871V36.972ZM123.115 37.4856V37.48C123.115 37.0207 122.758 36.6424 122.282 36.6424C121.812 36.6424 121.45 37.0259 121.45 37.4856V37.4908C121.45 37.9502 121.807 38.3284 122.282 38.3284C122.752 38.3284 123.115 37.9449 123.115 37.4856ZM121.282 37.4911V37.4856C121.282 36.9395 121.724 36.4797 122.282 36.4797C122.845 36.4797 123.282 36.9338 123.282 37.4797V37.4856C123.282 38.0314 122.839 38.4912 122.282 38.4912C121.719 38.4912 121.282 38.0373 121.282 37.4911Z" fill="#2A5EA7"/>
<path d="M74.7246 44.6337H78.6053V45.4023H74.7246V44.6337Z" fill="#448ED3"/>
<path d="M80.0239 43.1903H80.9963L81.7886 44.4683L82.581 43.1903H83.5534V46.4912H82.6378V44.5955L81.7886 45.8877H81.7697L80.9252 44.605V46.4912H80.0239V43.1903Z" fill="#448ED3"/>
<path d="M84.1416 43.1903H86.8124V43.9685H85.0524V44.4683H86.6464V45.1898H85.0524V45.7131H86.8362V46.4912H84.1416V43.1903Z" fill="#448ED3"/>
<path d="M87.3057 43.1903H88.2781L89.0703 44.4683L89.8627 43.1903H90.8352V46.4912H89.9196V44.5955L89.0703 45.8877H89.0515L88.207 44.605V46.4912H87.3057V43.1903Z" fill="#448ED3"/>
<path d="M93.0325 45.7556C93.3123 45.7556 93.4737 45.6473 93.4737 45.4538V45.4443C93.4737 45.2652 93.3313 45.1473 93.0229 45.1473H92.3208V45.7556H93.0325ZM92.8996 44.5059C93.1795 44.5059 93.336 44.4116 93.336 44.2183V44.2089C93.336 44.0297 93.1937 43.926 92.9186 43.926H92.3208V44.5059H92.8996ZM91.4243 43.1903H93.1273C93.5448 43.1903 93.8389 43.2941 94.0334 43.4874C94.1662 43.6194 94.2469 43.7939 94.2469 44.0203V44.0297C94.2469 44.4116 94.0286 44.638 93.7346 44.7653C94.1377 44.8974 94.3939 45.1238 94.3939 45.5718V45.581C94.3939 46.1469 93.9291 46.4912 93.1367 46.4912H91.4243V43.1903Z" fill="#448ED3"/>
<path d="M94.8159 43.1903H97.4867V43.9685H95.7267V44.4683H97.3207V45.1898H95.7267V45.7131H97.5105V46.4912H94.8159V43.1903Z" fill="#448ED3"/>
<path d="M99.5075 44.7747C99.8206 44.7747 100.001 44.6239 100.001 44.3834V44.3739C100.001 44.1147 99.8112 43.9826 99.5027 43.9826H98.9002V44.7747H99.5075ZM97.98 43.1903H99.5502C100.058 43.1903 100.409 43.3224 100.632 43.5487C100.826 43.7373 100.926 43.992 100.926 44.3173V44.3269C100.926 44.8314 100.655 45.1661 100.243 45.3407L101.035 46.4912H99.9723L99.3035 45.4916H99.294H98.9002V46.4912H97.98V43.1903Z" fill="#448ED3"/>
<path d="M102.126 44.6337H106.007V45.4023H102.126V44.6337Z" fill="#448ED3"/>
</g>
<defs>
<clipPath id="clip0_6673_245616">
<rect width="124" height="51.8957" fill="white" transform="translate(0 0.303711)"/>
</clipPath>
</defs>
</svg>
