<svg width="489" height="353" viewBox="0 0 489 353" fill="none" xmlns="http://www.w3.org/2000/svg">
<path d="M287.089 122.993C288.214 121.569 289.726 117.709 286.779 113.661C283.931 109.749 279.997 109.312 278.212 109.596C276.474 109.626 275.888 111.619 276.697 116.819C277.344 120.979 283.895 122.668 287.089 122.993Z" fill="#1CB977"/>
<path d="M278.034 109.628C278.09 109.617 278.15 109.606 278.212 109.596M278.212 109.596C279.997 109.312 283.931 109.749 286.779 113.661C289.726 117.709 288.214 121.569 287.089 122.993C283.895 122.668 277.344 120.979 276.697 116.819C275.888 111.619 276.474 109.626 278.212 109.596Z" stroke="black" stroke-width="1.34702" stroke-linecap="round"/>
<path d="M287.037 120.968C286.708 118.056 281.858 114.595 279.474 113.229C282.587 115.502 285.37 119.818 286.373 121.692C286.732 122.664 287.366 123.88 287.037 120.968Z" fill="#239061"/>
<path d="M278.367 155.883C279.2 154.829 280.32 151.97 278.137 148.973C276.028 146.076 273.115 145.752 271.794 145.962C270.507 145.985 270.072 147.46 270.672 151.311C271.151 154.392 276.001 155.643 278.367 155.883Z" fill="#1CB977"/>
<path d="M271.661 145.986C271.703 145.978 271.748 145.97 271.794 145.962M271.794 145.962C273.115 145.752 276.028 146.076 278.137 148.973C280.32 151.97 279.2 154.829 278.367 155.883C276.001 155.643 271.151 154.392 270.672 151.311C270.072 147.46 270.507 145.985 271.794 145.962Z" stroke="black" stroke-width="1.34702" stroke-linecap="round"/>
<path d="M278.328 154.383C278.084 152.227 274.493 149.664 272.727 148.652C275.032 150.335 277.094 153.531 277.836 154.919C278.102 155.639 278.572 156.539 278.328 154.383Z" fill="#239061"/>
<path d="M287.603 121.265C288.969 122.459 292.741 124.153 296.903 121.382C300.924 118.705 301.537 114.779 301.335 112.977C301.384 111.232 299.428 110.553 294.217 111.126C290.048 111.585 288.07 118.077 287.603 121.265Z" fill="#1CB977"/>
<path d="M301.311 112.796C301.32 112.854 301.328 112.914 301.335 112.977M301.335 112.977C301.537 114.779 300.924 118.705 296.903 121.382C292.741 124.153 288.969 122.459 287.603 121.265C288.07 118.077 290.048 111.585 294.217 111.126C299.428 110.553 301.384 111.232 301.335 112.977Z" stroke="black" stroke-width="1.34702" stroke-linecap="round"/>
<path d="M289.619 121.306C292.531 121.109 296.195 116.404 297.662 114.076C295.259 117.093 290.839 119.687 288.929 120.607C287.945 120.922 286.707 121.503 289.619 121.306Z" fill="#239061"/>
<path d="M286.11 140.321C287.476 141.514 291.248 143.208 295.409 140.438C299.431 137.761 300.044 133.835 299.842 132.032C299.891 130.288 297.935 129.609 292.723 130.182C288.555 130.641 286.577 137.133 286.11 140.321Z" fill="#46D297"/>
<path d="M299.818 131.852C299.827 131.909 299.835 131.97 299.842 132.032M299.842 132.032C300.044 133.835 299.431 137.761 295.409 140.438C291.248 143.208 287.476 141.514 286.11 140.321C286.577 137.133 288.555 130.641 292.723 130.182C297.935 129.609 299.891 130.288 299.842 132.032Z" stroke="black" stroke-width="1.34702" stroke-linecap="round"/>
<path d="M288.126 140.361C291.038 140.164 294.701 135.458 296.169 133.13C293.766 136.148 289.345 138.742 287.435 139.662C286.452 139.977 285.214 140.557 288.126 140.361Z" fill="#239061"/>
<path d="M300.515 185.072C301.995 184.026 304.533 180.753 302.846 176.034C301.216 171.473 297.565 169.937 295.774 169.703C294.098 169.238 292.974 170.983 292.286 176.201C291.735 180.375 297.542 183.854 300.515 185.072Z" fill="#1CB977"/>
<path d="M295.593 169.683C295.651 169.688 295.711 169.695 295.774 169.703M295.774 169.703C297.565 169.937 301.216 171.473 302.846 176.034C304.533 180.753 301.995 184.026 300.515 185.072C297.542 183.854 291.735 180.375 292.286 176.201C292.974 170.983 294.098 169.238 295.774 169.703Z" stroke="black" stroke-width="1.34702" stroke-linecap="round"/>
<path d="M301.037 183.114C301.541 180.228 297.864 175.532 295.962 173.544C298.307 176.608 299.762 181.538 300.196 183.62C300.266 184.654 300.532 186 301.037 183.114Z" fill="#239061"/>
<path d="M316.621 175.959C315.66 177.499 314.583 181.503 317.959 185.199C321.221 188.77 325.179 188.767 326.921 188.286C328.645 188.063 329.008 186.017 327.63 180.939C326.527 176.876 319.831 175.926 316.621 175.959Z" fill="#1CB977"/>
<path d="M327.095 188.234C327.04 188.252 326.982 188.27 326.921 188.286M326.921 188.286C325.179 188.767 321.221 188.77 317.959 185.199C314.583 181.503 315.66 177.499 316.621 175.959C319.831 175.926 326.527 176.876 327.63 180.939C329.008 186.017 328.645 188.063 326.921 188.286Z" stroke="black" stroke-width="1.34702" stroke-linecap="round"/>
<path d="M317.281 178.597C317.93 181.454 323.132 184.354 325.651 185.447C322.307 183.534 319.064 179.554 317.861 177.803C317.398 176.877 316.633 175.739 317.281 178.597Z" fill="#239061"/>
<path d="M316.209 177.433C314.73 177.809 311.748 179.617 311.659 183.844C311.573 187.928 313.987 190.243 315.327 190.97C316.507 191.843 317.917 190.809 320.026 186.91C321.713 183.79 318.185 179.292 316.209 177.433Z" fill="#46D297"/>
<path d="M315.463 191.04C315.419 191.019 315.374 190.995 315.327 190.97M315.327 190.97C313.987 190.243 311.573 187.928 311.659 183.844C311.748 179.617 314.73 177.809 316.209 177.433C318.185 179.292 321.713 183.79 320.026 186.91C317.917 190.809 316.507 191.843 315.327 190.97Z" stroke="black" stroke-width="1.34702" stroke-linecap="round"/>
<path d="M315.079 179.426C313.815 181.545 315.301 186.356 316.202 188.497C315.275 185.374 315.61 181.052 315.893 179.282C316.149 178.446 316.343 177.306 315.079 179.426Z" fill="#239061"/>
<path d="M252.775 169.055C253.257 170.328 255.151 172.787 258.877 172.436C262.477 172.098 264.266 169.723 264.768 168.461C265.415 167.327 264.363 166.183 260.719 164.71C257.803 163.531 254.208 167.115 252.775 169.055Z" fill="#1CB977"/>
<path d="M264.816 168.334C264.802 168.375 264.786 168.417 264.768 168.461M264.768 168.461C264.266 169.723 262.477 172.098 258.877 172.436C255.151 172.787 253.257 170.328 252.775 169.055C254.208 167.115 257.803 163.531 260.719 164.71C264.363 166.183 265.415 167.327 264.768 168.461Z" stroke="black" stroke-width="1.34702" stroke-linecap="round"/>
<path d="M254.093 169.799C256.086 170.704 260.164 168.898 261.954 167.883C259.303 169.021 255.469 169.163 253.883 169.092C253.123 168.95 252.1 168.894 254.093 169.799Z" fill="#239061"/>
<path d="M226.725 137.947C231.37 139.404 235.222 135.941 236.567 134.026C235.142 127.633 228.313 126.916 224.487 127.595C220.661 128.273 217.303 132.851 216.755 133.492C216.208 134.133 220.919 136.125 226.725 137.947Z" fill="#1CB977" stroke="black" stroke-width="1.34702" stroke-linecap="round"/>
<path d="M234.774 132.571C231.969 130.768 225.429 132.589 222.51 133.725C226.753 132.594 232.561 133.225 234.935 133.682C236.05 134.062 237.578 134.373 234.774 132.571Z" fill="#239061"/>
<path d="M263.275 122.536C267.245 123.782 270.538 120.821 271.688 119.185C270.469 113.72 264.632 113.108 261.361 113.688C258.091 114.267 255.221 118.181 254.753 118.729C254.285 119.276 258.312 120.979 263.275 122.536Z" fill="#1CB977" stroke="black" stroke-width="1.34702" stroke-linecap="round"/>
<path d="M270.154 117.941C267.756 116.4 262.167 117.957 259.671 118.928C263.298 117.961 268.263 118.5 270.292 118.891C271.245 119.216 272.551 119.482 270.154 117.941Z" fill="#239061"/>
<path d="M270.797 161.733C274.303 163.982 278.254 161.993 279.791 160.717C280.044 155.123 274.571 152.994 271.264 152.691C267.957 152.389 264.164 155.409 263.569 155.814C262.974 156.219 266.415 158.923 270.797 161.733Z" fill="#1CB977" stroke="black" stroke-width="1.34702" stroke-linecap="round"/>
<path d="M278.636 159.113C276.726 156.995 270.925 157.023 268.263 157.303C272.016 157.326 276.665 159.154 278.521 160.066C279.356 160.631 280.547 161.231 278.636 159.113Z" fill="#239061"/>
<path fill-rule="evenodd" clip-rule="evenodd" d="M279.15 278.9L279.15 278.897C279.098 277.364 279.044 275.77 278.989 274.11C278.916 271.926 278.843 269.805 278.772 267.747C277.775 238.624 277.2 221.836 281.822 211.179C284.676 204.598 300.397 190.451 311.841 180.154C320.239 172.597 326.333 167.113 323.346 168.215C320.361 169.316 314.108 174.081 307.362 179.709C308.786 175.957 310.54 170.676 311.244 166.32C311.901 162.255 308.696 169.311 305.238 176.924C304.062 179.514 302.856 182.169 301.763 184.471C294.34 190.894 287.234 197.43 284.04 200.447C277.882 206.266 279.896 187.576 281.33 174.268L281.33 174.267C281.509 172.61 281.678 171.036 281.822 169.603C282.147 166.357 283.126 159.396 284.313 150.945C287.376 129.156 291.829 97.465 290.072 94.0339C288.775 91.5006 284.843 120.593 281.436 146.086C279.346 141.213 276.72 133.214 274.344 125.977L274.344 125.977L274.344 125.977C271.094 116.075 268.312 107.6 268.011 110.506C267.714 113.378 269.675 119.908 272.08 127.915C275.023 137.713 278.631 149.724 279.577 159.949C278.308 169.325 277.228 176.973 276.554 180.465C276.351 181.518 276.137 182.774 275.905 184.14C274.365 193.206 272.002 207.113 266.387 198.428C263.676 194.233 258.826 183.784 253.656 172.167C253.737 169.524 253.873 166.524 254.007 163.596C254.403 154.897 254.771 146.835 253.555 150.664C252.097 155.259 251.245 161.717 250.864 165.855C249.346 162.406 247.828 158.935 246.355 155.567C238.472 137.541 231.874 122.454 233.387 129.405C234.978 136.713 240.954 150.467 247.659 165.896C255.575 184.114 264.507 204.667 268.432 219.705C273.251 238.164 272.367 289.756 272.132 303.465C272.105 305.05 272.087 306.128 272.087 306.591C272.087 311.057 272.087 317.147 276.554 317.147C280.328 313.695 280.07 306.066 279.15 278.9Z" fill="#CE9137"/>
<path d="M279.15 278.897L279.823 278.874L279.823 278.874L279.15 278.897ZM279.15 278.9L278.477 278.923L278.477 278.922L279.15 278.9ZM278.772 267.747L279.446 267.723L279.446 267.723L278.772 267.747ZM281.822 211.179L281.204 210.911L281.204 210.911L281.822 211.179ZM311.841 180.154L312.291 180.655L312.291 180.655L311.841 180.154ZM323.346 168.215L323.579 168.846L323.579 168.846L323.346 168.215ZM307.362 179.709L307.793 180.226L305.82 181.872L306.732 179.47L307.362 179.709ZM311.244 166.32L310.579 166.212L310.579 166.212L311.244 166.32ZM305.238 176.924L304.625 176.646L304.625 176.646L305.238 176.924ZM301.763 184.471L302.372 184.76L302.311 184.888L302.204 184.981L301.763 184.471ZM284.04 200.447L283.578 199.958L283.578 199.958L284.04 200.447ZM281.33 174.268L282 174.338L281.999 174.34L281.33 174.268ZM281.33 174.267L280.66 174.197L280.66 174.195L281.33 174.267ZM281.822 169.603L282.492 169.67L282.492 169.67L281.822 169.603ZM284.313 150.945L284.98 151.039L284.98 151.039L284.313 150.945ZM290.072 94.0339L289.473 94.341L289.473 94.341L290.072 94.0339ZM281.436 146.086L282.103 146.176L281.78 148.597L280.817 146.352L281.436 146.086ZM274.344 125.977L273.704 126.187L273.698 126.166L273.692 126.145L274.344 125.977ZM274.344 125.977L274.985 125.77L274.992 125.789L274.997 125.809L274.344 125.977ZM274.344 125.977L274.984 125.767L274.985 125.77L274.344 125.977ZM268.011 110.506L267.341 110.437L267.341 110.437L268.011 110.506ZM272.08 127.915L271.435 128.109L271.435 128.109L272.08 127.915ZM279.577 159.949L280.248 159.887L280.255 159.963L280.245 160.039L279.577 159.949ZM276.554 180.465L275.892 180.338L275.892 180.338L276.554 180.465ZM275.905 184.14L275.241 184.027L275.241 184.027L275.905 184.14ZM266.387 198.428L265.822 198.794L265.822 198.794L266.387 198.428ZM253.656 172.167L253.041 172.44L252.978 172.3L252.983 172.146L253.656 172.167ZM254.007 163.596L253.334 163.566L253.334 163.566L254.007 163.596ZM253.555 150.664L252.913 150.461L252.913 150.461L253.555 150.664ZM250.864 165.855L251.534 165.917L251.296 168.507L250.247 166.126L250.864 165.855ZM246.355 155.567L245.738 155.837L245.738 155.837L246.355 155.567ZM233.387 129.405L232.729 129.548L232.729 129.548L233.387 129.405ZM247.659 165.896L248.277 165.627L248.277 165.627L247.659 165.896ZM268.432 219.705L267.781 219.875L267.781 219.875L268.432 219.705ZM272.132 303.465L271.459 303.454L271.459 303.454L272.132 303.465ZM272.087 306.591L272.76 306.591L272.76 306.591L272.087 306.591ZM276.554 317.147L277.008 317.644L276.815 317.821L276.554 317.821L276.554 317.147ZM279.823 278.874L279.823 278.877L278.477 278.922L278.477 278.919L279.823 278.874ZM279.662 274.088C279.717 275.747 279.771 277.341 279.823 278.874L278.477 278.919C278.425 277.387 278.371 275.792 278.316 274.133L279.662 274.088ZM279.446 267.723C279.516 269.782 279.589 271.903 279.662 274.088L278.316 274.133C278.242 271.949 278.17 269.828 278.099 267.77L279.446 267.723ZM282.44 211.447C280.18 216.657 279.172 223.415 278.863 232.561C278.555 241.702 278.947 253.153 279.446 267.723L278.099 267.77C277.601 253.217 277.207 241.713 277.517 232.516C277.827 223.323 278.841 216.359 281.204 210.911L282.44 211.447ZM312.291 180.655C306.567 185.805 299.788 191.906 294.083 197.539C291.231 200.356 288.656 203.048 286.62 205.439C284.572 207.845 283.111 209.899 282.44 211.447L281.204 210.911C281.96 209.168 283.534 206.986 285.594 204.566C287.666 202.133 290.272 199.41 293.137 196.581C298.868 190.921 305.671 184.799 311.39 179.653L312.291 180.655ZM323.113 167.583C323.318 167.507 323.517 167.447 323.696 167.419C323.842 167.396 324.127 167.366 324.39 167.518C324.546 167.608 324.671 167.749 324.738 167.928C324.8 168.094 324.796 168.248 324.779 168.359C324.749 168.566 324.652 168.755 324.569 168.896C324.234 169.461 323.422 170.341 322.337 171.416C320.122 173.608 316.484 176.881 312.291 180.655L311.39 179.653C315.595 175.869 319.203 172.622 321.389 170.458C322.504 169.355 323.18 168.598 323.41 168.209C323.468 168.111 323.455 168.105 323.447 168.16C323.442 168.195 323.434 168.286 323.476 168.398C323.523 168.525 323.613 168.625 323.717 168.685C323.878 168.777 323.996 168.735 323.906 168.749C323.851 168.758 323.747 168.785 323.579 168.846L323.113 167.583ZM306.93 179.192C310.308 176.374 313.571 173.765 316.367 171.72C319.14 169.692 321.52 168.17 323.113 167.583L323.579 168.846C322.187 169.36 319.947 170.771 317.162 172.808C314.399 174.828 311.161 177.417 307.793 180.226L306.93 179.192ZM311.909 166.427C311.194 170.853 309.42 176.184 307.991 179.948L306.732 179.47C308.152 175.729 309.886 170.5 310.579 166.212L311.909 166.427ZM304.625 176.646C306.35 172.848 308.025 169.16 309.187 166.932C309.478 166.373 309.743 165.896 309.972 165.527C310.183 165.187 310.415 164.852 310.649 164.665C310.732 164.599 311.065 164.345 311.48 164.511C311.688 164.594 311.809 164.747 311.874 164.866C311.937 164.981 311.965 165.096 311.98 165.181C312.034 165.488 311.99 165.928 311.909 166.427L310.579 166.212C310.618 165.97 310.641 165.781 310.651 165.639C310.656 165.568 310.657 165.513 310.657 165.473C310.656 165.453 310.656 165.437 310.655 165.427C310.654 165.416 310.653 165.411 310.653 165.412C310.653 165.412 310.655 165.421 310.659 165.436C310.664 165.451 310.674 165.478 310.692 165.511C310.728 165.577 310.814 165.696 310.98 165.762C311.149 165.83 311.298 165.803 311.377 165.775C311.45 165.75 311.489 165.718 311.489 165.718C311.489 165.718 311.452 165.751 311.376 165.852C311.305 165.945 311.218 166.073 311.117 166.237C310.913 166.565 310.666 167.009 310.381 167.555C309.241 169.742 307.584 173.388 305.851 177.203L304.625 176.646ZM301.155 184.183C302.245 181.886 303.448 179.237 304.625 176.646L305.851 177.203C304.675 179.791 303.467 182.451 302.372 184.76L301.155 184.183ZM283.578 199.958C286.777 196.934 293.891 190.392 301.322 183.962L302.204 184.981C294.789 191.396 287.69 197.925 284.503 200.937L283.578 199.958ZM281.999 174.34C281.281 181.01 280.425 188.962 280.511 194.52C280.533 195.905 280.613 197.125 280.764 198.13C280.918 199.147 281.136 199.886 281.401 200.348C281.656 200.792 281.88 200.873 282.072 200.866C282.35 200.855 282.839 200.656 283.578 199.958L284.503 200.937C283.702 201.694 282.906 202.183 282.122 202.212C281.251 202.244 280.633 201.716 280.233 201.018C279.843 200.338 279.594 199.403 279.432 198.33C279.269 197.245 279.187 195.959 279.165 194.541C279.077 188.881 279.945 180.834 280.66 174.196L281.999 174.34ZM282 174.337L282 174.338L280.66 174.198L280.66 174.197L282 174.337ZM282.492 169.67C282.348 171.106 282.178 172.683 282 174.339L280.66 174.195C280.839 172.537 281.008 170.966 281.152 169.536L282.492 169.67ZM284.98 151.039C283.791 159.499 282.816 166.442 282.492 169.67L281.152 169.536C281.479 166.273 282.46 159.293 283.646 150.851L284.98 151.039ZM290.671 93.7269C290.832 94.0408 290.93 94.4532 290.997 94.9003C291.065 95.3609 291.107 95.9157 291.128 96.5487C291.169 97.8155 291.126 99.4429 291.017 101.348C290.797 105.162 290.308 110.141 289.669 115.682C288.391 126.767 286.511 140.146 284.98 151.039L283.646 150.851C285.178 139.954 287.055 126.593 288.331 115.528C288.969 109.994 289.455 105.045 289.672 101.271C289.78 99.3824 289.821 97.8009 289.782 96.5927C289.762 95.9883 289.722 95.4891 289.664 95.0979C289.604 94.6932 289.531 94.456 289.473 94.341L290.671 93.7269ZM280.768 145.997C282.472 133.253 284.307 119.599 285.88 109.447C286.665 104.374 287.387 100.161 287.996 97.3699C288.299 95.9846 288.581 94.9087 288.842 94.25C288.908 94.0824 288.979 93.9263 289.055 93.7922C289.126 93.669 289.23 93.5129 289.38 93.3936C289.548 93.2601 289.851 93.124 290.196 93.2638C290.47 93.375 290.609 93.6044 290.671 93.7269L289.473 94.341C289.454 94.3051 289.507 94.438 289.69 94.5122C289.944 94.6151 290.15 94.5017 290.218 94.4483C290.267 94.4092 290.265 94.3906 290.225 94.4604C290.191 94.5192 290.147 94.6114 290.095 94.7452C289.878 95.2923 289.614 96.2727 289.312 97.657C288.713 100.405 287.996 104.583 287.211 109.653C285.641 119.788 283.807 133.427 282.103 146.176L280.768 145.997ZM274.984 125.767C277.364 133.017 279.98 140.982 282.055 145.821L280.817 146.352C278.712 141.445 276.076 133.411 273.704 126.187L274.984 125.767ZM274.997 125.809L274.997 125.809L273.692 126.145L273.692 126.145L274.997 125.809ZM274.985 125.77L274.985 125.77L273.703 126.183L273.703 126.183L274.985 125.77ZM267.341 110.437C267.362 110.232 267.399 110.024 267.47 109.844C267.53 109.693 267.692 109.37 268.077 109.276C268.462 109.182 268.753 109.396 268.871 109.499C269.012 109.621 269.133 109.781 269.234 109.936C269.634 110.548 270.136 111.713 270.701 113.199C271.847 116.21 273.361 120.823 274.984 125.767L273.704 126.187C272.077 121.229 270.575 116.653 269.442 113.678C268.868 112.17 268.414 111.143 268.107 110.674C268.072 110.62 268.043 110.58 268.02 110.552C267.996 110.523 267.985 110.513 267.986 110.514C267.987 110.515 267.995 110.522 268.009 110.53C268.022 110.539 268.045 110.553 268.078 110.566C268.146 110.593 268.26 110.618 268.396 110.585C268.531 110.552 268.62 110.477 268.667 110.423C268.69 110.397 268.704 110.375 268.711 110.362C268.719 110.349 268.722 110.341 268.722 110.34C268.722 110.34 268.72 110.345 268.717 110.356C268.714 110.367 268.71 110.382 268.706 110.403C268.697 110.445 268.689 110.501 268.681 110.576L267.341 110.437ZM271.435 128.109C270.234 124.11 269.138 120.46 268.379 117.45C267.629 114.473 267.178 112.009 267.341 110.437L268.681 110.576C268.546 111.875 268.928 114.112 269.685 117.12C270.435 120.095 271.521 123.713 272.725 127.721L271.435 128.109ZM278.907 160.011C277.968 149.866 274.384 137.925 271.435 128.109L272.725 127.721C275.663 137.502 279.294 149.581 280.248 159.887L278.907 160.011ZM275.892 180.338C276.562 176.869 277.639 169.243 278.91 159.859L280.245 160.039C278.977 169.407 277.893 177.078 277.215 180.593L275.892 180.338ZM275.241 184.027C275.473 182.663 275.688 181.399 275.892 180.338L277.215 180.593C277.014 181.636 276.802 182.884 276.569 184.253L275.241 184.027ZM266.953 198.062C267.633 199.114 268.229 199.768 268.737 200.132C269.232 200.486 269.6 200.538 269.884 200.476C270.191 200.41 270.545 200.18 270.934 199.694C271.32 199.211 271.694 198.531 272.053 197.679C273.501 194.243 274.465 188.592 275.241 184.027L276.569 184.253C275.804 188.753 274.817 194.589 273.295 198.202C272.911 199.112 272.48 199.917 271.986 200.535C271.496 201.148 270.897 201.635 270.169 201.793C269.418 201.955 268.668 201.739 267.953 201.227C267.251 200.724 266.546 199.913 265.822 198.794L266.953 198.062ZM254.271 171.893C259.451 183.533 264.277 193.922 266.953 198.062L265.822 198.794C263.075 194.544 258.201 184.036 253.041 172.44L254.271 171.893ZM254.68 163.627C254.546 166.556 254.41 169.55 254.329 172.187L252.983 172.146C253.064 169.497 253.201 166.492 253.334 163.566L254.68 163.627ZM252.913 150.461C252.993 150.21 253.07 149.994 253.146 149.818C253.217 149.652 253.305 149.477 253.419 149.337C253.495 149.244 253.82 148.887 254.303 149.054C254.504 149.123 254.626 149.259 254.69 149.349C254.756 149.441 254.798 149.537 254.826 149.613C254.929 149.891 254.978 150.299 255.009 150.732C255.041 151.192 255.056 151.767 255.059 152.429C255.07 155.075 254.878 159.286 254.68 163.627L253.334 163.566C253.533 159.208 253.722 155.038 253.712 152.435C253.709 151.785 253.694 151.244 253.665 150.827C253.634 150.384 253.59 150.155 253.562 150.079C253.558 150.066 253.565 150.092 253.594 150.132C253.621 150.17 253.703 150.272 253.862 150.327C254.044 150.39 254.212 150.353 254.322 150.297C254.413 150.25 254.457 150.195 254.461 150.19C254.47 150.18 254.441 150.215 254.384 150.348C254.332 150.47 254.27 150.64 254.197 150.868L252.913 150.461ZM250.193 165.793C250.576 161.647 251.432 155.128 252.913 150.461L254.197 150.868C252.762 155.39 251.915 161.788 251.534 165.917L250.193 165.793ZM246.972 155.297C248.445 158.665 249.962 162.136 251.48 165.584L250.247 166.126C248.729 162.677 247.211 159.205 245.738 155.837L246.972 155.297ZM232.729 129.548C232.632 129.104 232.564 128.733 232.528 128.437C232.495 128.169 232.475 127.877 232.531 127.64C232.556 127.532 232.632 127.276 232.891 127.115C233.197 126.925 233.5 127.017 233.647 127.09C233.789 127.161 233.899 127.264 233.972 127.34C234.053 127.424 234.132 127.522 234.209 127.626C234.784 128.408 235.743 130.273 236.956 132.831C239.407 137.999 243.032 146.289 246.972 155.297L245.738 155.837C241.794 146.819 238.179 138.552 235.739 133.408C234.506 130.81 233.606 129.079 233.124 128.424C233.068 128.348 233.027 128.301 233.001 128.274C232.968 128.239 232.984 128.265 233.046 128.296C233.112 128.329 233.348 128.417 233.601 128.26C233.707 128.194 233.768 128.11 233.798 128.056C233.828 128.002 233.839 127.961 233.842 127.948C233.847 127.928 233.832 128.007 233.865 128.273C233.894 128.511 233.952 128.837 234.045 129.261L232.729 129.548ZM247.041 166.164C243.69 158.452 240.516 151.147 237.98 144.857C235.45 138.577 233.538 133.264 232.729 129.548L234.045 129.261C234.827 132.854 236.698 138.072 239.23 144.353C241.757 150.624 244.923 157.91 248.277 165.627L247.041 166.164ZM267.781 219.875C263.872 204.9 254.966 184.401 247.041 166.164L248.277 165.627C256.185 183.826 265.142 204.435 269.084 219.535L267.781 219.875ZM271.459 303.454C271.576 296.6 271.856 280.286 271.504 263.381C271.152 246.445 270.166 229.014 267.781 219.875L269.084 219.535C271.517 228.855 272.499 246.45 272.851 263.353C273.203 280.286 272.923 296.622 272.806 303.477L271.459 303.454ZM271.413 306.591C271.413 306.121 271.432 305.034 271.459 303.454L272.806 303.477C272.778 305.066 272.76 306.136 272.76 306.591L271.413 306.591ZM276.554 317.821C275.264 317.821 274.251 317.373 273.49 316.597C272.749 315.841 272.289 314.817 271.994 313.718C271.408 311.535 271.413 308.799 271.413 306.591L272.76 306.591C272.76 308.849 272.765 311.391 273.295 313.369C273.559 314.351 273.937 315.129 274.452 315.654C274.948 316.16 275.609 316.474 276.554 316.474L276.554 317.821ZM279.823 278.877C280.283 292.444 280.579 301.18 280.285 306.951C279.992 312.695 279.112 315.72 277.008 317.644L276.099 316.65C277.77 315.122 278.648 312.606 278.94 306.882C279.23 301.184 278.938 292.522 278.477 278.923L279.823 278.877Z" fill="black"/>
<path d="M229.665 125.256C229.444 130.139 233.763 133.001 235.951 133.821C241.75 130.811 240.701 123.994 239.073 120.45C237.445 116.906 232.176 114.808 231.419 114.439C230.662 114.069 229.942 119.153 229.665 125.256Z" fill="#1CB977" stroke="black" stroke-width="1.34702" stroke-linecap="round"/>
<path d="M237.002 131.248C238.025 128.065 234.604 122.175 232.766 119.627C234.936 123.462 235.808 129.265 235.972 131.687C235.889 132.867 235.979 134.43 237.002 131.248Z" fill="#239061"/>
<path d="M244.647 141.918C241.735 145.419 243.336 149.994 244.5 151.844C250.502 152.895 253.557 147.238 254.341 143.682C255.125 140.126 252.39 135.581 252.035 134.878C251.68 134.174 248.286 137.542 244.647 141.918Z" fill="#1CB977" stroke="black" stroke-width="1.34702" stroke-linecap="round"/>
<path d="M246.727 150.528C249.278 148.744 250.049 142.429 250.116 139.495C249.572 143.574 246.955 148.378 245.715 150.27C244.99 151.1 244.177 152.312 246.727 150.528Z" fill="#239061"/>
<path d="M321.553 159.609C319.555 163.16 321.697 166.925 323.018 168.363C328.466 168.316 330.244 162.845 330.362 159.591C330.48 156.336 327.345 152.781 326.92 152.22C326.495 151.659 324.051 155.17 321.553 159.609Z" fill="#1CB977" stroke="black" stroke-width="1.34702" stroke-linecap="round"/>
<path d="M324.766 166.846C326.723 164.864 326.387 159.185 325.974 156.593C326.151 160.269 324.621 164.918 323.834 166.783C323.33 167.63 322.81 168.828 324.766 166.846Z" fill="#239061"/>
<path d="M331.391 165.541C327.361 165.024 324.699 168.436 323.871 170.207C325.973 175.254 331.691 174.842 334.737 173.723C337.783 172.605 339.878 168.349 340.235 167.742C340.592 167.134 336.429 166.188 331.391 165.541Z" fill="#46D297" stroke="black" stroke-width="1.34702" stroke-linecap="round"/>
<path d="M325.931 171.261C328.498 172.331 333.609 169.876 335.844 168.514C332.52 170.066 327.654 170.398 325.636 170.371C324.665 170.221 323.363 170.19 325.931 171.261Z" fill="#239061"/>
<path d="M268.766 114.434C270.246 113.388 272.784 110.115 271.097 105.396C269.467 100.836 265.816 99.2994 264.024 99.0652C262.348 98.6007 261.225 100.346 260.536 105.563C259.985 109.737 265.793 113.216 268.766 114.434Z" fill="#46D297"/>
<path d="M263.843 99.0454C263.901 99.0505 263.962 99.057 264.024 99.0652M264.024 99.0652C265.816 99.2994 269.467 100.836 271.097 105.396C272.784 110.115 270.246 113.388 268.766 114.434C265.793 113.216 259.985 109.737 260.536 105.563C261.225 100.346 262.348 98.6007 264.024 99.0652Z" stroke="black" stroke-width="1.34702" stroke-linecap="round"/>
<path d="M269.272 112.085C269.776 109.198 266.099 104.502 264.197 102.515C266.542 105.579 267.997 110.509 268.431 112.591C268.501 113.625 268.768 114.971 269.272 112.085Z" fill="#239061"/>
<path d="M241.154 152.78C240.655 151.032 238.41 147.55 233.416 147.598C228.591 147.644 225.947 150.601 225.138 152.223C224.151 153.659 225.424 155.298 230.106 157.666C233.852 159.561 239.032 155.198 241.154 152.78Z" fill="#46D297"/>
<path d="M225.06 152.387C225.084 152.334 225.11 152.279 225.138 152.223M225.138 152.223C225.947 150.601 228.591 147.644 233.416 147.598C238.41 147.55 240.655 151.032 241.154 152.78C239.032 155.198 233.852 159.561 230.106 157.666C225.424 155.298 224.151 153.659 225.138 152.223Z" stroke="black" stroke-width="1.34702" stroke-linecap="round"/>
<path d="M239.111 151.527C236.562 150.1 230.936 152.043 228.442 153.193C232.095 151.976 237.211 152.218 239.312 152.491C240.307 152.764 241.661 152.954 239.111 151.527Z" fill="#239061"/>
<path d="M241.339 152.972C239.561 152.629 235.452 153.066 233.239 157.56C231.101 161.902 232.535 165.607 233.611 167.064C234.441 168.598 236.472 168.199 240.691 165.076C244.067 162.578 242.529 155.966 241.339 152.972Z" fill="#1CB977"/>
<path d="M233.722 167.209C233.685 167.163 233.648 167.115 233.611 167.064M233.611 167.064C232.535 165.607 231.101 161.902 233.239 157.56C235.452 153.066 239.561 152.629 241.339 152.972C242.529 155.966 244.067 162.578 240.691 165.076C236.472 168.199 234.441 168.598 233.611 167.064Z" stroke="black" stroke-width="1.34702" stroke-linecap="round"/>
<path d="M239.303 154.237C236.884 155.875 236.07 161.791 235.965 164.545C236.534 160.724 239.059 156.251 240.25 154.493C240.943 153.725 241.723 152.598 239.303 154.237Z" fill="#239061"/>
<path d="M255.863 188.21C254.947 186.823 252.028 184.406 247.684 185.834C243.485 187.213 241.992 190.528 241.733 192.168C241.267 193.695 242.829 194.773 247.567 195.541C251.358 196.155 254.677 190.909 255.863 188.21Z" fill="#1CB977"/>
<path d="M241.71 192.333C241.716 192.28 241.724 192.225 241.733 192.168M241.733 192.168C241.992 190.528 243.485 187.213 247.684 185.834C252.028 184.406 254.947 186.823 255.863 188.21C254.677 190.909 251.358 196.155 247.567 195.541C242.829 194.773 241.267 193.695 241.733 192.168Z" stroke="black" stroke-width="1.34702" stroke-linecap="round"/>
<path d="M253.734 187.684C251.116 187.145 246.742 190.402 244.882 192.098C247.735 190.023 252.266 188.814 254.174 188.469C255.119 188.432 256.352 188.222 253.734 187.684Z" fill="#239061"/>
<path d="M283.881 156.205C284.687 157.313 287.181 159.192 290.704 157.853C294.109 156.559 295.215 153.773 295.367 152.413C295.693 151.138 294.367 150.31 290.437 149.857C287.293 149.494 284.756 153.938 283.881 156.205Z" fill="#1CB977"/>
<path d="M295.379 152.276C295.376 152.32 295.372 152.366 295.367 152.413M295.367 152.413C295.215 153.773 294.109 156.559 290.704 157.853C287.181 159.192 284.687 157.313 283.881 156.205C284.756 153.938 287.293 149.494 290.437 149.857C294.367 150.31 295.693 151.138 295.367 152.413Z" stroke="black" stroke-width="1.34702" stroke-linecap="round"/>
<path d="M285.653 156.558C287.828 156.903 291.308 154.056 292.775 152.589C290.504 154.406 286.819 155.572 285.261 155.928C284.485 155.995 283.477 156.214 285.653 156.558Z" fill="#239061"/>
<path d="M283.625 156.948C282.829 157.818 281.668 160.247 283.388 163.01C285.05 165.68 287.579 166.149 288.749 166.049C289.877 166.112 290.35 164.848 290.07 161.44C289.845 158.713 285.68 157.309 283.625 156.948Z" fill="#1CB977"/>
<path d="M288.866 166.037C288.829 166.042 288.79 166.046 288.749 166.049M288.749 166.049C287.579 166.149 285.05 165.68 283.388 163.01C281.668 160.247 282.829 157.818 283.625 156.948C285.68 157.309 289.845 158.713 290.07 161.44C290.35 164.848 289.877 166.112 288.749 166.049Z" stroke="black" stroke-width="1.34702" stroke-linecap="round"/>
<path d="M283.799 158.917C283.876 160.819 286.856 163.291 288.337 164.29C286.427 162.669 284.825 159.741 284.263 158.479C284.076 157.832 283.722 157.014 283.799 158.917Z" fill="#239061"/>
<path d="M310.519 167.46C311.802 166.991 314.293 165.109 313.99 161.338C313.698 157.695 311.339 155.854 310.08 155.329C308.951 154.659 307.79 155.708 306.265 159.372C305.045 162.303 308.593 165.985 310.519 167.46Z" fill="#1CB977"/>
<path d="M309.953 155.279C309.994 155.294 310.036 155.311 310.08 155.329M310.08 155.329C311.339 155.854 313.698 157.695 313.99 161.338C314.293 165.109 311.802 166.991 310.519 167.46C308.593 165.985 305.045 162.303 306.265 159.372C307.79 155.708 308.951 154.659 310.08 155.329Z" stroke="black" stroke-width="1.34702" stroke-linecap="round"/>
<path d="M311.348 165.849C312.281 163.847 310.524 159.7 309.528 157.876C310.635 160.571 310.728 164.45 310.636 166.052C310.484 166.819 310.414 167.852 311.348 165.849Z" fill="#239061"/>
<path d="M310.137 167.745C310.634 166.748 311.061 164.241 308.787 162.181C306.59 160.19 304.173 160.422 303.137 160.817C302.098 161.054 301.994 162.324 303.129 165.344C304.036 167.76 308.179 167.951 310.137 167.745Z" fill="#1CB977"/>
<path d="M303.034 160.859C303.067 160.845 303.101 160.831 303.137 160.817M303.137 160.817C304.173 160.422 306.59 160.19 308.787 162.181C311.061 164.241 310.634 166.748 310.137 167.745C308.179 167.951 304.036 167.76 303.129 165.344C301.994 162.324 302.098 161.054 303.137 160.817Z" stroke="black" stroke-width="1.34702" stroke-linecap="round"/>
<path d="M309.601 165.929C309.041 164.222 305.698 162.754 304.096 162.233C306.248 163.207 308.458 165.448 309.293 166.447C309.63 166.986 310.162 167.636 309.601 165.929Z" fill="#239061"/>
<path d="M257.034 200.449C258.317 199.979 260.808 198.097 260.505 194.327C260.212 190.683 257.854 188.842 256.595 188.317C255.465 187.648 254.305 188.696 252.779 192.36C251.559 195.291 255.107 198.974 257.034 200.449Z" fill="#1CB977"/>
<path d="M256.467 188.267C256.508 188.282 256.551 188.299 256.595 188.317M256.595 188.317C257.854 188.842 260.212 190.683 260.505 194.327C260.808 198.097 258.317 199.979 257.034 200.449C255.107 198.974 251.559 195.291 252.779 192.36C254.305 188.696 255.465 187.648 256.595 188.317Z" stroke="black" stroke-width="1.34702" stroke-linecap="round"/>
<path d="M257.862 198.838C258.796 196.835 257.038 192.688 256.043 190.864C257.15 193.56 257.243 197.438 257.15 199.04C256.999 199.807 256.929 200.84 257.862 198.838Z" fill="#239061"/>
<path d="M253.521 167.167C254.844 167.508 257.961 167.37 259.845 164.089C261.665 160.92 260.763 158.065 260.023 156.918C259.471 155.725 257.922 155.931 254.592 158.087C251.929 159.811 252.769 164.859 253.521 167.167Z" fill="#1CB977"/>
<path d="M259.946 156.804C259.972 156.84 259.997 156.878 260.023 156.918M260.023 156.918C260.763 158.065 261.665 160.92 259.845 164.089C257.961 167.37 254.844 167.508 253.521 167.167C252.769 164.859 251.929 159.811 254.592 158.087C257.922 155.931 259.471 155.725 260.023 156.918Z" stroke="black" stroke-width="1.34702" stroke-linecap="round"/>
<path d="M255.117 166.31C257.018 165.189 257.917 160.774 258.128 158.706C257.516 161.556 255.398 164.805 254.416 166.074C253.857 166.62 253.215 167.432 255.117 166.31Z" fill="#239061"/>
<path d="M289.215 104.951C291.23 103.881 294.919 100.198 293.56 94.0329C292.246 88.076 287.928 85.5736 285.727 84.995C283.707 84.1471 282.027 86.1473 280.34 92.5549C278.99 97.681 285.695 102.955 289.215 104.951Z" fill="#1CB977"/>
<path d="M285.504 84.9414C285.576 84.957 285.65 84.9748 285.727 84.995M285.727 84.995C287.928 85.5736 292.246 88.076 293.56 94.0329C294.919 100.198 291.23 103.881 289.215 104.951C285.695 102.955 278.99 97.681 280.34 92.5549C282.027 86.1473 283.707 84.1471 285.727 84.995Z" stroke="black" stroke-width="1.34702" stroke-linecap="round"/>
<path d="M290.323 101.881C291.411 98.3559 287.56 91.9022 285.499 89.1159C287.944 93.3181 288.98 99.7087 289.193 102.379C289.117 103.681 289.236 105.405 290.323 101.881Z" fill="#239061"/>
<path d="M282.98 134.427C283.986 132.919 285.18 128.953 281.911 125.154C278.753 121.483 274.794 121.359 273.038 121.784C271.307 121.952 270.884 123.984 272.114 129.1C273.098 133.194 279.768 134.357 282.98 134.427Z" fill="#1CB977"/>
<path d="M272.862 121.83C272.918 121.814 272.976 121.799 273.038 121.784M273.038 121.784C274.794 121.359 278.753 121.483 281.911 125.154C285.18 128.953 283.986 132.919 282.98 134.427C279.768 134.357 273.098 133.194 272.114 129.1C270.884 123.984 271.307 121.952 273.038 121.784Z" stroke="black" stroke-width="1.34702" stroke-linecap="round"/>
<path d="M282.461 131.8C281.895 128.925 276.777 125.862 274.289 124.69C277.578 126.708 280.705 130.787 281.858 132.574C282.294 133.514 283.026 134.675 282.461 131.8Z" fill="#239061"/>
<path d="M353.124 80.8775C357.537 81.0803 360.101 84.6304 360.831 86.38C360.671 86.6436 360.142 87.1123 359.306 86.8791C358.261 86.5875 353.866 89.6091 350.761 89.1471C347.674 88.6879 346.899 83.978 346.784 83.2815L346.782 83.2692C346.675 82.618 347.606 80.6239 353.124 80.8775Z" fill="#BCDEFC" stroke="black" stroke-width="0.898011"/>
<path d="M363.862 95.7176C365.009 91.4479 362.406 87.9264 360.961 86.6994C360.662 86.7721 360.055 87.1343 360.023 88.0021C359.984 89.0869 355.773 92.3597 355.27 95.4608C354.771 98.5431 359.021 100.711 359.649 101.032L359.66 101.038C360.248 101.337 362.429 101.055 363.862 95.7176Z" fill="#BCDEFC" stroke="black" stroke-width="0.898011"/>
<path d="M361.671 77.0492C362.92 81.1737 362.295 85.0341 361.827 86.4488C361.389 86.9406 360.467 87.517 360.287 85.8878C360.062 83.8514 353.666 80.0152 352.763 77.8416C352.04 76.1027 353.306 74.0875 354.028 73.2973C354.38 71.2817 355.544 67.5417 357.384 68.7067C359.684 70.163 360.11 71.8937 361.671 77.0492Z" fill="#2E7CF6" stroke="black" stroke-width="0.898011"/>
<path d="M370.437 89.238C366.923 86.7454 363.066 86.1148 361.576 86.111C360.971 86.3709 360.133 87.0626 361.62 87.75C363.479 88.6093 365.088 95.8952 366.862 97.4409C368.281 98.6775 370.592 98.1157 371.571 97.6802C373.593 97.9853 377.506 98.0665 376.985 95.9511C376.334 93.3068 374.829 92.3538 370.437 89.238Z" fill="#2E7CF6" stroke="black" stroke-width="0.898011"/>
<ellipse rx="0.903852" ry="1.52609" transform="matrix(-0.53555 -0.844503 -0.844213 0.536008 363.461 84.8193)" fill="#F2FCF8"/>
<path d="M360.278 88.4265C361.292 87.4102 362.41 86.0404 362.842 85.4825C363.622 84.5183 359.053 86.4739 358.379 86.7424C357.706 87.0108 353.194 91.5432 353.43 91.8693C353.666 92.1953 359.011 89.6968 360.278 88.4265Z" fill="#F2FCF8" stroke="#F2FCF8" stroke-width="0.898011"/>
<path d="M363.463 84.6443C364.866 83.4534 367.685 79.864 367.731 75.0329" stroke="#F2FCF8" stroke-width="0.898011"/>
<ellipse rx="0.8722" ry="0.679618" transform="matrix(0.0843206 -0.996439 -0.996484 -0.0837808 367.873 74.6511)" fill="#F2FCF8"/>
<path d="M363.442 85.1048C365.094 84.2938 369.508 83.1445 373.953 85.0351" stroke="#F2FCF8" stroke-width="0.898011"/>
<ellipse rx="0.852421" ry="0.664206" transform="matrix(0.860851 0.508857 -0.508391 0.861126 374.44 85.3348)" fill="#F2FCF8"/>
<path d="M372.526 96.156C371.74 96.1052 371.143 95.4259 371.194 94.6383C371.244 93.8507 371.924 93.2539 372.71 93.3047C373.497 93.3555 374.094 94.0347 374.043 94.8223C373.992 95.6099 373.313 96.2067 372.526 96.156Z" fill="#BCDEFC" stroke="black" stroke-width="0.898011"/>
<path d="M357.144 73.8923C356.358 73.8415 355.761 73.1622 355.812 72.3747C355.863 71.5871 356.542 70.9902 357.328 71.041C358.115 71.0918 358.712 71.771 358.661 72.5586C358.61 73.3462 357.931 73.9431 357.144 73.8923Z" fill="#BCDEFC" stroke="black" stroke-width="0.898011"/>
<path d="M350.766 87.5076C349.578 87.4309 348.676 86.4051 348.753 85.2159C348.83 84.0268 349.856 83.1254 351.044 83.2021C352.231 83.2788 353.133 84.3046 353.056 85.4938C352.979 86.683 351.953 87.5843 350.766 87.5076Z" fill="#BCDEFC" stroke="black" stroke-width="0.898011"/>
<path d="M358.5 98.1336C357.313 98.0569 356.411 97.0311 356.488 95.8419C356.565 94.6527 357.591 93.7514 358.778 93.8281C359.966 93.9048 360.868 94.9306 360.791 96.1198C360.714 97.3089 359.688 98.2103 358.5 98.1336Z" fill="#BCDEFC" stroke="black" stroke-width="0.898011"/>
<path d="M218.757 37.0678C225.164 37.3886 228.866 42.5528 229.917 45.0948C229.683 45.476 228.912 46.1527 227.699 45.8094C226.184 45.3802 219.787 49.7359 215.28 49.047C210.801 48.3624 209.702 41.5269 209.54 40.516L209.537 40.4982C209.385 39.5531 210.748 36.6667 218.757 37.0678Z" fill="#FFDF3E" stroke="black" stroke-width="0.898011"/>
<path d="M239.39 24.7431C238.559 29.7949 234.644 41.1504 231.481 45.8074C229.762 43.6464 226.084 38.45 225.118 34.9524C223.912 30.5803 226.122 28.8278 227.191 27.85C228.158 26.9645 240.207 19.7764 239.39 24.7431Z" fill="#FFE666" stroke="black" stroke-width="0.898011"/>
<path d="M226.634 24.2852C229.147 28.075 232.745 38.7924 233.504 44.3707C230.781 43.9119 224.572 42.5052 221.516 40.5486C217.697 38.1029 218.17 35.322 218.311 33.8804C218.439 32.5749 223.442 19.4716 226.634 24.2852Z" fill="#FFE666" stroke="black" stroke-width="0.898011"/>
<ellipse rx="1.91106" ry="1.63231" transform="matrix(-0.881351 0.472462 0.472462 0.881351 236.032 41.3865)" fill="#F2FCF8"/>
<path d="M220.014 49.4372C224.871 46.6477 230.721 42.871 233.758 41.864C237.716 41.0884 233.906 45.9539 231.64 46.3979C226.977 47.3117 220.747 51.1947 219.709 51.525C218.67 51.8553 213.801 53.0056 220.014 49.4372Z" fill="#F2FCF8"/>
<path d="M236.28 40.9068C238.035 38.7917 242.995 34.3294 248.79 33.4004" stroke="#F2FCF8" stroke-width="0.898011"/>
<ellipse rx="1.07214" ry="0.551804" transform="matrix(-0.996291 0.0860537 0.0860537 0.996291 249.357 33.31)" fill="#F2FCF8"/>
<path d="M235.686 41.5624C237.894 39.9257 243.773 36.7715 249.622 37.248" stroke="#F2FCF8" stroke-width="0.898011"/>
<ellipse rx="1.07214" ry="0.551804" transform="matrix(-0.988152 -0.153476 -0.153476 0.988152 250.196 37.2938)" fill="#F2FCF8"/>
<circle r="2.48634" transform="matrix(-0.996291 0.0860537 0.0860537 0.996291 224.554 29.5999)" fill="#FFDF3E" stroke="black" stroke-width="0.898011"/>
<circle r="1.64036" transform="matrix(-0.996291 0.0860537 0.0860537 0.996291 215.683 45.6491)" fill="#FFDF3E" stroke="black" stroke-width="0.898011"/>
<mask id="path-102-inside-1_6824_246661" fill="white">
<path d="M338.663 322.281C339.655 322.291 340.469 321.493 340.402 320.503C339.941 313.616 336.672 307.071 331.17 302.113C325.192 296.726 317.066 293.654 308.58 293.573C300.094 293.492 291.943 296.409 285.921 301.681C280.378 306.534 277.056 313.016 276.538 319.894C276.463 320.882 277.271 321.695 278.263 321.705L308.463 321.993L338.663 322.281Z"/>
</mask>
<path d="M338.663 322.281C339.655 322.291 340.469 321.493 340.402 320.503C339.941 313.616 336.672 307.071 331.17 302.113C325.192 296.726 317.066 293.654 308.58 293.573C300.094 293.492 291.943 296.409 285.921 301.681C280.378 306.534 277.056 313.016 276.538 319.894C276.463 320.882 277.271 321.695 278.263 321.705L308.463 321.993L338.663 322.281Z" fill="#98E6C5" stroke="black" stroke-width="2.69403" mask="url(#path-102-inside-1_6824_246661)"/>
<mask id="path-103-inside-2_6824_246661" fill="white">
<path d="M276.433 321.937C277.424 321.945 278.238 321.146 278.143 320.158C277.651 315.018 275.04 310.152 270.738 306.446C265.938 302.31 259.427 299.955 252.635 299.899C245.844 299.844 239.329 302.092 234.524 306.148C230.218 309.785 227.601 314.607 227.102 319.739C227.006 320.726 227.819 321.539 228.811 321.547L252.622 321.742L276.433 321.937Z"/>
</mask>
<path d="M276.433 321.937C277.424 321.945 278.238 321.146 278.143 320.158C277.651 315.018 275.04 310.152 270.738 306.446C265.938 302.31 259.427 299.955 252.635 299.899C245.844 299.844 239.329 302.092 234.524 306.148C230.218 309.785 227.601 314.607 227.102 319.739C227.006 320.726 227.819 321.539 228.811 321.547L252.622 321.742L276.433 321.937Z" fill="#46D297" stroke="black" stroke-width="2.69403" mask="url(#path-103-inside-2_6824_246661)"/>
<mask id="path-104-inside-3_6824_246661" fill="white">
<path d="M363.066 322.668C364.057 322.683 364.88 321.888 364.754 320.903C364.31 317.414 362.5 314.121 359.585 311.574C356.176 308.594 351.533 306.878 346.679 306.804C341.825 306.73 337.158 308.304 333.703 311.18C330.75 313.638 328.89 316.874 328.392 320.349C328.252 321.33 329.062 322.15 330.054 322.165L346.56 322.416L363.066 322.668Z"/>
</mask>
<path d="M363.066 322.668C364.057 322.683 364.88 321.888 364.754 320.903C364.31 317.414 362.5 314.121 359.585 311.574C356.176 308.594 351.533 306.878 346.679 306.804C341.825 306.73 337.158 308.304 333.703 311.18C330.75 313.638 328.89 316.874 328.392 320.349C328.252 321.33 329.062 322.15 330.054 322.165L346.56 322.416L363.066 322.668Z" fill="#46D297" stroke="black" stroke-width="2.69403" mask="url(#path-104-inside-3_6824_246661)"/>
<mask id="path-105-inside-4_6824_246661" fill="white">
<path d="M448.307 327.504C449.299 327.5 450.104 326.691 450.003 325.704C449.48 320.632 446.954 315.857 442.837 312.245C438.237 308.209 432.027 305.956 425.575 305.98C419.122 306.005 412.955 308.305 408.43 312.374C404.379 316.017 401.941 320.811 401.512 325.887C401.428 326.875 402.248 327.678 403.24 327.674L425.774 327.589L448.307 327.504Z"/>
</mask>
<path d="M448.307 327.504C449.299 327.5 450.104 326.691 450.003 325.704C449.48 320.632 446.954 315.857 442.837 312.245C438.237 308.209 432.027 305.956 425.575 305.98C419.122 306.005 412.955 308.305 408.43 312.374C404.379 316.017 401.941 320.811 401.512 325.887C401.428 326.875 402.248 327.678 403.24 327.674L425.774 327.589L448.307 327.504Z" fill="#98E6C5" stroke="black" stroke-width="2.69403" mask="url(#path-105-inside-4_6824_246661)"/>
<mask id="path-106-inside-5_6824_246661" fill="white">
<path d="M469.848 327.597C470.839 327.599 471.654 326.791 471.486 325.812C471.019 323.088 469.529 320.542 467.211 318.571C464.393 316.173 460.581 314.821 456.614 314.814C452.647 314.806 448.85 316.143 446.058 318.53C443.763 320.493 442.302 323.034 441.866 325.756C441.709 326.734 442.533 327.545 443.525 327.547L456.686 327.572L469.848 327.597Z"/>
</mask>
<path d="M469.848 327.597C470.839 327.599 471.654 326.791 471.486 325.812C471.019 323.088 469.529 320.542 467.211 318.571C464.393 316.173 460.581 314.821 456.614 314.814C452.647 314.806 448.85 316.143 446.058 318.53C443.763 320.493 442.302 323.034 441.866 325.756C441.709 326.734 442.533 327.545 443.525 327.547L456.686 327.572L469.848 327.597Z" fill="#46D297" stroke="black" stroke-width="2.69403" mask="url(#path-106-inside-5_6824_246661)"/>
<mask id="path-107-inside-6_6824_246661" fill="white">
<path d="M98.3839 323C99.3758 322.996 100.178 322.187 100.108 321.198C99.6254 314.317 96.7617 307.816 92.0204 302.931C86.8686 297.623 79.922 294.658 72.7089 294.688C65.4957 294.719 58.6069 297.742 53.5578 303.093C48.911 308.018 46.1728 314.543 45.8225 321.426C45.7721 322.417 46.5896 323.218 47.5816 323.214L72.9827 323.107L98.3839 323Z"/>
</mask>
<path d="M98.3839 323C99.3758 322.996 100.178 322.187 100.108 321.198C99.6254 314.317 96.7617 307.816 92.0204 302.931C86.8686 297.623 79.922 294.658 72.7089 294.688C65.4957 294.719 58.6069 297.742 53.5578 303.093C48.911 308.018 46.1728 314.543 45.8225 321.426C45.7721 322.417 46.5896 323.218 47.5816 323.214L72.9827 323.107L98.3839 323Z" fill="#98E6C5" stroke="black" stroke-width="2.69403" mask="url(#path-107-inside-6_6824_246661)"/>
<mask id="path-108-inside-7_6824_246661" fill="white">
<path d="M124.153 323.068C125.145 323.069 125.956 322.263 125.817 321.28C125.325 317.797 123.47 314.53 120.52 312.023C117.07 309.09 112.404 307.438 107.549 307.431C102.695 307.424 98.0494 309.062 94.6346 311.985C91.7158 314.483 89.9007 317.745 89.4508 321.226C89.3238 322.209 90.1452 323.018 91.1371 323.019L107.645 323.043L124.153 323.068Z"/>
</mask>
<path d="M124.153 323.068C125.145 323.069 125.956 322.263 125.817 321.28C125.325 317.797 123.47 314.53 120.52 312.023C117.07 309.09 112.404 307.438 107.549 307.431C102.695 307.424 98.0494 309.062 94.6346 311.985C91.7158 314.483 89.9007 317.745 89.4508 321.226C89.3238 322.209 90.1452 323.018 91.1371 323.019L107.645 323.043L124.153 323.068Z" fill="#46D297" stroke="black" stroke-width="2.69403" mask="url(#path-108-inside-7_6824_246661)"/>
<mask id="path-109-inside-8_6824_246661" fill="white">
<path d="M227.028 321.451C228.02 321.448 228.826 320.639 228.697 319.654C228.175 315.666 226.065 311.924 222.688 309.073C218.809 305.799 213.575 303.968 208.138 303.985C202.702 304.002 197.508 305.865 193.699 309.163C190.382 312.035 188.352 315.79 187.916 319.781C187.808 320.766 188.631 321.57 189.623 321.567L208.326 321.509L227.028 321.451Z"/>
</mask>
<path d="M227.028 321.451C228.02 321.448 228.826 320.639 228.697 319.654C228.175 315.666 226.065 311.924 222.688 309.073C218.809 305.799 213.575 303.968 208.138 303.985C202.702 304.002 197.508 305.865 193.699 309.163C190.382 312.035 188.352 315.79 187.916 319.781C187.808 320.766 188.631 321.57 189.623 321.567L208.326 321.509L227.028 321.451Z" fill="#46D297" stroke="black" stroke-width="2.69403" mask="url(#path-109-inside-8_6824_246661)"/>
<path d="M177.346 269.704C178.481 275.106 177.906 288.858 178.634 295.498C179.502 301.377 180.878 304.888 181.555 305.815C182.042 306.481 181.423 305.721 182.433 306.964C183.928 309.224 183.327 311.106 182.9 312.564C180.187 321.548 151.48 322.038 149.113 315.01C148.896 314.031 148.748 313.035 148.671 312.031C148.329 309.245 148.148 306.438 148.128 303.627C148.12 296.495 146.709 286.004 146.661 283.778" fill="#B3B3B3"/>
<path d="M177.346 269.704C178.481 275.106 177.906 288.858 178.634 295.498C179.502 301.377 180.878 304.888 181.555 305.815C182.042 306.481 181.423 305.721 182.433 306.964C183.928 309.224 183.327 311.106 182.9 312.564C180.187 321.548 151.48 322.038 149.113 315.01C148.896 314.031 148.748 313.035 148.671 312.031C148.329 309.245 148.148 306.438 148.128 303.627C148.12 296.495 146.709 286.004 146.661 283.778" stroke="black" stroke-width="1.34702" stroke-miterlimit="10"/>
<path d="M179.922 309.633C180.255 309.057 182.045 309.279 182.451 310.149C182.521 310.513 182.542 310.886 182.513 311.257C182.48 312.319 182.464 312.838 182.365 312.913C181.831 313.211 179.453 310.454 179.922 309.633Z" fill="white" stroke="black" stroke-width="1.34702" stroke-miterlimit="10"/>
<path d="M175.868 313.074C176.201 312.498 177.986 312.72 178.397 313.59C178.467 313.954 178.491 314.327 178.469 314.699C178.437 315.749 178.42 316.274 178.311 316.354C177.772 316.652 175.399 313.901 175.868 313.074Z" fill="white" stroke="black" stroke-width="1.34702" stroke-miterlimit="10"/>
<path d="M171.131 314.716C171.454 314.139 173.244 314.361 173.66 315.231C173.75 315.592 173.773 315.969 173.727 316.34C173.695 317.39 173.678 317.915 173.574 317.995C173.035 318.294 170.656 315.559 171.131 314.716Z" fill="white" stroke="black" stroke-width="1.34702" stroke-miterlimit="10"/>
<path fill-rule="evenodd" clip-rule="evenodd" d="M177.818 294.109C176.285 297.266 172.729 300.808 165.407 303.005C156.299 305.737 150.447 302.6 146.936 299.412C146.958 298.437 146.959 297.408 146.944 296.354C158.595 298.712 169.059 296.934 177.585 290.717C177.606 291.57 177.641 292.361 177.693 293.071C177.733 293.426 177.774 293.772 177.818 294.109Z" fill="#808080"/>
<path d="M163.587 176.55C169.203 174.941 172.528 194.107 188.03 199.39C205.017 205.148 222.077 189.329 227.76 195.907C230.454 199.026 228.468 204.726 227.615 207.255C222.896 220.835 205.668 224.45 204.16 224.736C187.27 228.026 167.653 218.176 161.371 202.349C157.084 191.542 159.048 177.859 163.587 176.55Z" fill="#B3B3B3" stroke="black" stroke-width="1.34702" stroke-miterlimit="10"/>
<path fill-rule="evenodd" clip-rule="evenodd" d="M226.072 209.674C220.471 215.909 212.878 218.986 211.921 219.353C195.886 225.598 174.828 219.397 165.829 204.942C161.091 197.326 159.708 187.364 161.268 182.246C161.086 182.287 160.906 182.35 160.728 182.438C156.491 184.529 156.975 198.343 163.104 208.223C172.084 222.691 194.385 228.738 210.428 222.515C211.543 222.088 220.911 218.108 226.072 209.674Z" fill="#707070"/>
<path d="M118.834 256.437C118.705 256.105 108.132 257.839 102.198 266.035C97.9383 271.924 97.7662 278.805 98.2589 278.963C98.7516 279.121 99.9014 270.963 106.532 264.108C112.356 258.085 118.952 256.697 118.834 256.437Z" fill="#B3B3B3" stroke="black" stroke-width="1.34702" stroke-miterlimit="10"/>
<path d="M101.555 273.885C103.192 275.186 102.008 278.989 101.967 279.152C100.116 284.89 92.4399 287.108 91.9971 286.461C91.7612 286.121 93.7093 285.249 94.2751 282.844C94.841 280.44 93.3123 279.304 93.8079 277.435C94.5997 274.517 99.69 272.389 101.555 273.885Z" fill="#808080" stroke="black" stroke-width="1.34702" stroke-miterlimit="10"/>
<path fill-rule="evenodd" clip-rule="evenodd" d="M165.745 202.242C165.602 203.363 165.526 204.498 165.53 205.629C165.583 219.867 178.12 233.75 192.593 236.608C193.018 236.694 194.914 237.046 197.552 237.158C193.999 236.091 191.539 234.956 190.996 234.695C178.131 228.582 168.524 215.734 165.745 202.242Z" fill="#808080"/>
<path d="M106.242 227.697C103.103 246.551 103.091 261.527 108.236 273.034C113.359 284.492 123.658 292.642 141.478 297.704C155.311 301.634 167.495 300.292 176.989 293.402C186.499 286.5 193.439 273.937 196.566 255.152C199.686 236.413 196.343 214.654 188.652 196.993C180.946 179.294 168.975 165.924 154.99 163.596C147.964 162.427 141.829 163.491 136.47 166.307C131.102 169.128 126.474 173.726 122.511 179.681C114.576 191.602 109.38 208.848 106.242 227.697Z" fill="#B3B3B3" stroke="black" stroke-width="1.34702"/>
<path d="M146.624 111.921C146.881 110.568 149.138 111.037 151.137 109.132C154.342 106.054 151.886 101.601 154.921 98.9207C156.594 97.4454 159.373 96.9844 161.024 98.0097C163.629 99.6578 162.947 104.794 162.036 107.5C160.541 111.958 156.182 116.793 151.749 116.249C149.022 115.878 146.339 113.474 146.624 111.921Z" fill="#808080" stroke="black" stroke-width="1.34702" stroke-miterlimit="10"/>
<path d="M191.938 146.174C192.289 156.945 186.283 165.113 183.891 167.984C172.325 181.83 154.02 180.958 148.837 180.68C143.318 180.409 134.009 179.928 125.539 173.032C117.751 166.692 113.031 156.581 113.088 146.818C113.203 128.688 129.785 111.18 149.695 109.821C171.845 108.299 191.31 127.495 191.938 146.174Z" fill="#B3B3B3" stroke="black" stroke-width="1.34702" stroke-miterlimit="10"/>
<path d="M200.325 127.255C211.216 135.938 213.581 154.783 204.661 166.437C197.978 175.189 184.217 180.916 176.078 175.724C168.846 171.11 169.198 159.886 169.491 150.578C169.774 141.566 170.2 127.748 179.458 123.236C186.478 119.772 195.335 123.279 200.325 127.255Z" fill="white" stroke="black" stroke-width="1.34702" stroke-miterlimit="10"/>
<path d="M155.029 126.519C153.867 125.915 152.549 125.677 151.249 125.836C149.949 125.995 148.727 126.543 147.744 127.408C146.761 128.274 146.063 129.417 145.741 130.687C145.42 131.956 145.49 133.294 145.942 134.523C146.409 132.585 147.414 130.817 148.84 129.424C150.533 127.81 152.706 126.79 155.029 126.519V126.519Z" fill="#1A1A1A" stroke="black" stroke-width="1.34702" stroke-miterlimit="10"/>
<path d="M181.081 161.064C183.306 160.643 184.501 157.041 183.736 153.016C182.971 148.99 180.554 146.063 178.329 146.483C176.104 146.904 174.909 150.511 175.674 154.537C176.44 158.562 178.851 161.485 181.081 161.064Z" fill="#FF7BAC" stroke="black" stroke-width="1.34702" stroke-miterlimit="10"/>
<path d="M186.426 133.332C188.19 131.115 188.705 128.587 187.573 127.69C186.441 126.794 184.097 127.861 182.333 130.077C180.569 132.294 180.059 134.823 181.186 135.719C182.312 136.616 184.683 135.563 186.426 133.332Z" fill="black" stroke="black" stroke-width="1.34702" stroke-miterlimit="10"/>
<path d="M135.682 127.253C135.334 125.921 133.111 126.551 130.981 124.794C127.57 121.953 129.696 117.335 126.476 114.879C124.707 113.527 121.897 113.266 120.35 114.406C117.869 116.236 118.922 121.31 120.024 123.944C121.834 128.283 126.522 132.795 130.911 131.935C133.579 131.371 136.083 128.781 135.682 127.253Z" fill="#808080" stroke="black" stroke-width="1.34702" stroke-miterlimit="10"/>
<path d="M149.704 283.374C150.745 288.795 149.762 294.48 150.374 301.131C151.139 307.025 152.453 310.559 153.114 311.498C153.589 312.172 152.984 311.402 153.972 312.663C155.427 314.948 154.793 316.819 154.34 318.269C151.471 327.204 122.76 327.193 120.516 320.124C120.316 319.142 120.186 318.143 120.126 317.138C119.833 314.347 119.701 311.537 119.73 308.725C119.847 301.594 119.739 289.306 119.73 287.08" fill="#B3B3B3"/>
<path d="M149.704 283.374C150.745 288.795 149.762 294.48 150.374 301.131C151.139 307.025 152.453 310.559 153.114 311.498C153.589 312.172 152.984 311.402 153.972 312.663C155.427 314.948 154.793 316.819 154.34 318.269C151.471 327.204 122.76 327.193 120.516 320.124C120.316 319.142 120.186 318.143 120.126 317.138C119.833 314.347 119.701 311.537 119.73 308.725C119.847 301.594 119.739 289.306 119.73 287.08" stroke="black" stroke-width="1.34702" stroke-miterlimit="10" stroke-linecap="round"/>
<path d="M151.415 315.288C151.759 314.718 153.545 314.971 153.935 315.848C153.999 316.213 154.013 316.587 153.978 316.957C153.927 318.018 153.901 318.537 153.801 318.609C153.262 318.899 150.933 316.1 151.415 315.288Z" fill="white" stroke="black" stroke-width="1.34702" stroke-miterlimit="10"/>
<path d="M147.303 318.659C147.647 318.088 149.428 318.341 149.823 319.218C149.887 319.584 149.905 319.957 149.876 320.328C149.825 321.378 149.8 321.903 149.689 321.98C149.145 322.269 146.82 319.477 147.303 318.659Z" fill="white" stroke="black" stroke-width="1.34702" stroke-miterlimit="10"/>
<path d="M142.534 320.216C142.867 319.645 144.653 319.898 145.054 320.776C145.138 321.138 145.154 321.515 145.102 321.885C145.051 322.935 145.025 323.46 144.92 323.537C144.376 323.827 142.045 321.05 142.534 320.216Z" fill="white" stroke="black" stroke-width="1.34702" stroke-miterlimit="10"/>
<path d="M167.598 212.464C180.098 216.761 195.234 213.043 205.421 204.581C206.601 203.608 220.185 193.479 217.799 179.305C217.317 176.693 216.341 170.73 212.472 169.293C204.324 166.248 197.699 185.634 180.03 188.735C174.165 189.759 168.087 191.068 163.474 189.119" fill="#B3B3B3"/>
<path d="M167.598 212.464C180.098 216.761 195.234 213.043 205.421 204.581C206.601 203.608 220.185 193.479 217.799 179.305C217.317 176.693 216.341 170.73 212.472 169.293C204.324 166.248 197.699 185.634 180.03 188.735C174.165 189.759 168.087 191.068 163.474 189.119" stroke="black" stroke-width="1.34702" stroke-miterlimit="10" stroke-linecap="round"/>
<path d="M223.795 305.678C224.891 305.631 225.911 305.104 226.585 304.238C227.507 303.05 229.285 303.001 230.273 304.135C230.993 304.963 232.041 305.433 233.138 305.419C234.642 305.4 235.789 306.759 235.518 308.238C235.319 309.318 235.606 310.43 236.301 311.279C237.253 312.443 236.906 314.187 235.58 314.897C234.612 315.415 233.922 316.332 233.691 317.405C233.375 318.876 231.795 319.692 230.413 319.098C229.405 318.664 228.257 318.696 227.274 319.185C225.927 319.855 224.304 319.128 223.907 317.677C223.617 316.618 222.877 315.741 221.882 315.277C220.519 314.642 220.075 312.92 220.962 311.704C221.609 310.818 221.833 309.692 221.575 308.625C221.222 307.163 222.292 305.742 223.795 305.678Z" fill="#FFDF3E" stroke="black" stroke-width="1.34702"/>
<circle cx="228.637" cy="311.633" r="2.94325" transform="rotate(-1.58905 228.637 311.633)" fill="#FFDF3E" stroke="black" stroke-width="1.34702"/>
<path d="M442.643 313.206C443.74 313.159 444.76 312.633 445.433 311.766C446.356 310.578 448.134 310.529 449.121 311.664C449.841 312.492 450.889 312.961 451.987 312.947C453.491 312.928 454.638 314.287 454.366 315.767C454.168 316.846 454.454 317.958 455.149 318.807C456.102 319.971 455.755 321.716 454.429 322.425C453.461 322.943 452.77 323.861 452.54 324.934C452.224 326.404 450.643 327.22 449.261 326.626C448.253 326.193 447.105 326.224 446.123 326.713C444.776 327.383 443.153 326.656 442.756 325.205C442.466 324.147 441.725 323.269 440.731 322.805C439.367 322.17 438.924 320.448 439.81 319.233C440.457 318.346 440.682 317.22 440.424 316.153C440.071 314.691 441.14 313.271 442.643 313.206Z" fill="#FFDF3E" stroke="black" stroke-width="1.34702"/>
<circle cx="447.485" cy="319.162" r="2.94325" transform="rotate(-1.58905 447.485 319.162)" fill="#FFDF3E" stroke="black" stroke-width="1.34702"/>
<path d="M388.835 210.637C385.32 208.376 379.088 220.819 367.379 221.24C354.555 221.68 346.132 207.324 340.882 210.658C338.393 212.238 338.578 216.553 338.64 218.461C339.071 228.737 350.127 234.767 351.101 235.275C361.992 241.013 377.463 238.313 385.031 228.767C390.197 222.248 391.674 212.47 388.835 210.637Z" fill="#B3B3B3" stroke="black" stroke-width="1.34702" stroke-miterlimit="10"/>
<path d="M373.13 288.216C372.317 292.08 372.729 301.919 372.208 306.669C371.587 310.875 370.602 313.387 370.118 314.05C369.77 314.526 370.212 313.983 369.49 314.872C368.421 316.489 368.851 317.835 369.156 318.878C371.097 325.305 391.634 325.656 393.328 320.628C393.483 319.928 393.588 319.215 393.644 318.497C393.888 316.504 394.018 314.496 394.032 312.484C394.038 307.382 395.048 299.877 395.082 298.284" fill="#B3B3B3"/>
<path d="M373.13 288.216C372.317 292.08 372.729 301.919 372.208 306.669C371.587 310.875 370.602 313.387 370.118 314.05C369.77 314.526 370.212 313.983 369.49 314.872C368.421 316.489 368.851 317.835 369.156 318.878C371.097 325.305 391.634 325.656 393.328 320.628C393.483 319.928 393.588 319.215 393.644 318.497C393.888 316.504 394.018 314.496 394.032 312.484C394.038 307.382 395.048 299.877 395.082 298.284" stroke="black" stroke-width="1.34702" stroke-miterlimit="10"/>
<path d="M371.287 316.782C371.049 316.369 369.768 316.528 369.478 317.151C369.428 317.411 369.413 317.678 369.433 317.944C369.457 318.703 369.468 319.075 369.539 319.128C369.921 319.341 371.622 317.369 371.287 316.782Z" fill="white" stroke="black" stroke-width="1.34702" stroke-miterlimit="10"/>
<path d="M374.186 319.243C373.947 318.831 372.67 318.99 372.376 319.612C372.326 319.873 372.309 320.14 372.324 320.406C372.348 321.157 372.359 321.533 372.438 321.589C372.823 321.803 374.521 319.835 374.186 319.243Z" fill="white" stroke="black" stroke-width="1.34702" stroke-miterlimit="10"/>
<path d="M377.575 320.417C377.344 320.005 376.063 320.163 375.765 320.786C375.701 321.044 375.684 321.314 375.717 321.579C375.741 322.33 375.752 322.706 375.827 322.763C376.212 322.977 377.914 321.02 377.575 320.417Z" fill="white" stroke="black" stroke-width="1.34702" stroke-miterlimit="10"/>
<path fill-rule="evenodd" clip-rule="evenodd" d="M403.878 305.991C401.732 308.768 397.527 311.508 389.91 312.161C380.436 312.973 375.349 308.706 372.565 304.866C372.786 303.916 372.997 302.908 373.198 301.872C384.12 306.563 394.727 306.963 404.344 302.621C404.19 303.461 404.063 304.243 403.968 304.95C403.935 305.305 403.905 305.652 403.878 305.991Z" fill="#808080"/>
<path fill-rule="evenodd" clip-rule="evenodd" d="M340.97 225.044C346.571 231.28 354.166 234.358 355.123 234.726C371.158 240.97 392.215 234.769 401.215 220.314C405.953 212.698 407.335 202.737 405.776 197.619C405.958 197.659 406.138 197.723 406.316 197.81C410.553 199.901 410.068 213.716 403.94 223.596C394.96 238.063 372.659 244.11 356.616 237.888C355.5 237.461 346.131 233.48 340.97 225.044Z" fill="#707070"/>
<path d="M414.091 282.837C414.048 282.485 421.221 279.377 427.925 284.057C432.74 287.423 435.398 293.469 435.152 293.826C434.906 294.183 431.171 287.432 424.534 284.25C418.704 281.453 414.115 283.12 414.091 282.837Z" fill="#B3B3B3" stroke="black" stroke-width="1.34702" stroke-miterlimit="10"/>
<path d="M431.397 289.707C430.807 291.082 432.842 293.076 432.922 293.166C436.033 296.154 441.621 294.95 441.681 294.392C441.714 294.098 440.191 294.209 439.02 292.885C437.849 291.562 438.427 290.329 437.481 289.319C435.994 287.749 432.065 288.133 431.397 289.707Z" fill="#808080" stroke="black" stroke-width="1.34702" stroke-miterlimit="10"/>
<path fill-rule="evenodd" clip-rule="evenodd" d="M381.428 239.952C381.53 240.754 381.584 241.565 381.581 242.375C381.544 252.561 372.575 262.493 362.221 264.537C361.916 264.599 360.56 264.851 358.673 264.931C361.215 264.168 362.975 263.356 363.363 263.169C372.567 258.796 379.44 249.604 381.428 239.952Z" fill="#808080"/>
<path d="M423.808 258.194C426.052 271.674 426.052 282.34 422.396 290.519C418.761 298.648 411.45 304.45 398.737 308.062C388.88 310.862 380.229 309.899 373.497 305.013C366.749 300.115 361.8 291.183 359.568 277.773C357.343 264.407 359.727 248.878 365.216 236.273C370.721 223.63 379.247 214.142 389.154 212.493C394.142 211.663 398.488 212.419 402.283 214.413C406.087 216.412 409.376 219.676 412.199 223.917C417.853 232.412 421.565 244.718 423.808 258.194Z" fill="#B3B3B3" stroke="black" stroke-width="1.34702"/>
<path d="M395.106 175.335C394.922 174.367 393.307 174.702 391.877 173.34C389.585 171.138 391.342 167.951 389.17 166.034C387.973 164.979 385.985 164.649 384.804 165.382C382.941 166.561 383.428 170.236 384.08 172.172C385.15 175.361 388.268 178.82 391.44 178.431C393.391 178.166 395.31 176.446 395.106 175.335Z" fill="#808080" stroke="black" stroke-width="1.34702" stroke-miterlimit="10"/>
<path d="M362.689 199.839C362.439 207.545 366.735 213.389 368.447 215.443C376.721 225.348 389.817 224.724 393.525 224.525C397.473 224.332 404.133 223.987 410.192 219.054C415.764 214.518 419.141 207.285 419.1 200.301C419.018 187.33 407.154 174.805 392.91 173.832C377.064 172.744 363.139 186.476 362.689 199.839Z" fill="#B3B3B3" stroke="black" stroke-width="1.34702" stroke-miterlimit="10"/>
<path d="M356.688 186.305C348.897 192.517 347.204 205.999 353.586 214.336C358.367 220.598 368.212 224.695 374.034 220.98C379.208 217.68 378.957 209.65 378.747 202.991C378.545 196.544 378.239 186.658 371.616 183.43C366.595 180.952 360.258 183.46 356.688 186.305Z" fill="white" stroke="black" stroke-width="1.34702" stroke-miterlimit="10"/>
<path d="M389.093 185.779C389.925 185.347 390.867 185.176 391.798 185.29C392.728 185.403 393.602 185.796 394.305 186.415C395.008 187.034 395.508 187.852 395.738 188.76C395.968 189.669 395.918 190.625 395.594 191.505C395.26 190.118 394.541 188.854 393.521 187.857C392.31 186.702 390.756 185.973 389.093 185.779V185.779Z" fill="#1A1A1A" stroke="black" stroke-width="1.34702" stroke-miterlimit="10"/>
<path d="M370.456 210.492C368.864 210.191 368.009 207.614 368.557 204.735C369.104 201.855 370.833 199.76 372.425 200.061C374.017 200.362 374.872 202.943 374.324 205.823C373.777 208.703 372.052 210.793 370.456 210.492Z" fill="#FF7BAC" stroke="black" stroke-width="1.34702" stroke-miterlimit="10"/>
<path d="M366.632 190.653C365.37 189.067 365.001 187.258 365.811 186.617C366.621 185.976 368.298 186.739 369.56 188.325C370.822 189.911 371.187 191.72 370.381 192.361C369.575 193.002 367.879 192.25 366.632 190.653Z" fill="black" stroke="black" stroke-width="1.34702" stroke-miterlimit="10"/>
<path d="M402.933 186.303C403.182 185.351 404.772 185.801 406.296 184.544C408.736 182.512 407.216 179.208 409.519 177.451C410.785 176.484 412.795 176.297 413.902 177.113C415.676 178.422 414.923 182.052 414.135 183.936C412.84 187.041 409.486 190.268 406.346 189.653C404.437 189.249 402.646 187.397 402.933 186.303Z" fill="#808080" stroke="black" stroke-width="1.34702" stroke-miterlimit="10"/>
<path d="M392.906 297.995C392.161 301.873 392.865 305.94 392.426 310.698C391.879 314.914 390.939 317.443 390.466 318.114C390.127 318.597 390.56 318.046 389.853 318.948C388.812 320.583 389.265 321.921 389.589 322.959C391.642 329.351 412.182 329.343 413.787 324.286C413.93 323.583 414.023 322.869 414.066 322.149C414.276 320.153 414.37 318.142 414.35 316.131C414.266 311.029 414.343 301.079 414.35 299.487" fill="#B3B3B3"/>
<path d="M392.906 297.995C392.161 301.873 392.865 305.94 392.426 310.698C391.879 314.914 390.939 317.443 390.466 318.114C390.127 318.597 390.56 318.046 389.853 318.948C388.812 320.583 389.265 321.921 389.589 322.959C391.642 329.351 412.182 329.343 413.787 324.286C413.93 323.583 414.023 322.869 414.066 322.149C414.276 320.153 414.37 318.142 414.35 316.131C414.266 311.029 414.343 301.079 414.35 299.487" stroke="black" stroke-width="1.34702" stroke-miterlimit="10" stroke-linecap="round"/>
<path d="M391.683 320.826C391.438 320.418 390.16 320.599 389.881 321.226C389.835 321.487 389.825 321.755 389.85 322.02C389.887 322.778 389.905 323.15 389.977 323.202C390.362 323.409 392.029 321.407 391.683 320.826Z" fill="white" stroke="black" stroke-width="1.34702" stroke-miterlimit="10"/>
<path d="M394.624 323.236C394.378 322.829 393.104 323.009 392.821 323.637C392.776 323.898 392.763 324.165 392.783 324.431C392.82 325.182 392.838 325.557 392.917 325.613C393.306 325.82 394.969 323.822 394.624 323.236Z" fill="white" stroke="black" stroke-width="1.34702" stroke-miterlimit="10"/>
<path d="M398.036 324.35C397.798 323.942 396.52 324.123 396.234 324.751C396.173 325.01 396.162 325.28 396.199 325.545C396.236 326.296 396.254 326.671 396.33 326.727C396.719 326.934 398.386 324.947 398.036 324.35Z" fill="white" stroke="black" stroke-width="1.34702" stroke-miterlimit="10"/>
<path d="M394.239 247.505C387.831 254.459 377.039 257.263 367.75 255.399C366.676 255.187 354.682 253.428 351.366 243.694C350.782 241.886 349.369 237.801 351.317 235.581C355.411 230.895 366.17 240.847 378.347 236.793C382.387 235.444 386.658 234.202 388.9 231.408" fill="#B3B3B3"/>
<path d="M394.239 247.505C387.831 254.459 377.039 257.263 367.75 255.399C366.676 255.187 354.682 253.428 351.366 243.694C350.782 241.886 349.369 237.801 351.317 235.581C355.411 230.895 366.17 240.847 378.347 236.793C382.387 235.444 386.658 234.202 388.9 231.408" stroke="black" stroke-width="1.34702" stroke-miterlimit="10" stroke-linecap="round"/>
<path d="M336.853 214.278C332.985 214.664 333.023 219.189 333.709 221.402L330.571 216.558C332.112 211.916 336.541 210.51 338.91 210.991C342.053 211.629 345.378 215.197 345.378 218.557C345.378 222.484 344.236 224.187 342.885 226.617C341.805 228.561 340.966 231.014 340.682 231.998C340.075 231.727 338.871 230.777 338.909 229.146C338.957 227.108 341.51 223.696 342.053 221.847C342.885 219.011 341.689 213.795 336.853 214.278Z" fill="#FFDF3E" stroke="black" stroke-width="1.34702" stroke-linecap="round"/>
<path d="M342.707 233.474L331.21 215.657C330.946 215.249 330.449 215.057 329.98 215.186C328.232 215.664 323.986 216.847 321.522 217.71C319.046 218.577 315.035 221.184 313.419 222.269C312.999 222.551 312.83 223.081 313.001 223.558L320.091 243.353C320.258 243.818 320.711 244.121 321.204 244.08C330.134 243.322 338.631 238.032 342.491 234.91C342.923 234.56 343.009 233.941 342.707 233.474Z" fill="#FFDF3E" stroke="black" stroke-width="1.34702" stroke-linecap="round"/>
<path fill-rule="evenodd" clip-rule="evenodd" d="M301.433 232.293L296.82 233.279C296.371 233.375 296.004 232.919 296.193 232.501L299.195 225.855C299.379 225.447 299.944 225.41 300.181 225.79L302.463 229.456L315.856 233.138C316.023 233.184 316.16 233.305 316.226 233.467L318.444 238.925C318.634 239.393 318.155 239.854 317.695 239.646L301.433 232.293Z" fill="#FFDF3E"/>
<path d="M301.433 232.293L301.71 231.679L301.509 231.588L301.292 231.634L301.433 232.293ZM296.82 233.279L296.679 232.62L296.679 232.62L296.82 233.279ZM296.193 232.501L295.579 232.223L295.579 232.223L296.193 232.501ZM299.195 225.855L299.809 226.133L299.809 226.133L299.195 225.855ZM300.181 225.79L299.609 226.146L299.609 226.146L300.181 225.79ZM302.463 229.456L301.892 229.812L302.031 230.035L302.285 230.105L302.463 229.456ZM315.856 233.138L315.677 233.787L315.677 233.787L315.856 233.138ZM316.226 233.467L316.85 233.213L316.85 233.213L316.226 233.467ZM318.444 238.925L317.82 239.178L317.82 239.178L318.444 238.925ZM317.695 239.646L317.972 239.032L317.972 239.032L317.695 239.646ZM301.292 231.634L296.679 232.62L296.961 233.937L301.574 232.951L301.292 231.634ZM296.679 232.62C296.77 232.6 296.845 232.693 296.807 232.778L295.579 232.223C295.163 233.145 295.972 234.149 296.961 233.937L296.679 232.62ZM296.807 232.778L299.809 226.133L298.581 225.578L295.579 232.223L296.807 232.778ZM299.809 226.133C299.771 226.215 299.657 226.223 299.609 226.146L300.752 225.434C300.231 224.597 298.987 224.68 298.581 225.578L299.809 226.133ZM299.609 226.146L301.892 229.812L303.035 229.1L300.752 225.434L299.609 226.146ZM302.285 230.105L315.677 233.787L316.034 232.488L302.642 228.806L302.285 230.105ZM315.677 233.787C315.643 233.778 315.615 233.753 315.602 233.72L316.85 233.213C316.705 232.858 316.404 232.59 316.034 232.488L315.677 233.787ZM315.602 233.72L317.82 239.178L319.068 238.671L316.85 233.213L315.602 233.72ZM317.82 239.178C317.814 239.164 317.81 239.137 317.817 239.108C317.823 239.082 317.835 239.065 317.847 239.054C317.858 239.043 317.876 239.031 317.902 239.026C317.931 239.02 317.958 239.026 317.972 239.032L317.417 240.259C318.432 240.718 319.487 239.703 319.068 238.671L317.82 239.178ZM317.972 239.032L301.71 231.679L301.155 232.906L317.417 240.259L317.972 239.032Z" fill="black"/>
<path d="M329.384 215.702C329.638 215.729 329.76 215.776 329.814 215.804C329.797 215.862 329.747 215.983 329.592 216.187C329.324 216.539 328.857 216.977 328.196 217.47C326.882 218.45 324.923 219.557 322.631 220.544C320.34 221.532 318.189 222.195 316.575 222.477C315.762 222.619 315.123 222.657 314.683 222.61C314.429 222.583 314.306 222.536 314.252 222.509C314.269 222.45 314.319 222.329 314.474 222.126C314.742 221.774 315.209 221.336 315.871 220.842C317.185 219.863 319.144 218.755 321.435 217.768C323.727 216.781 325.877 216.118 327.492 215.836C328.304 215.694 328.944 215.655 329.384 215.702Z" fill="#FFDF3E" stroke="black" stroke-width="1.34702"/>
<path d="M295.634 241.155C296.084 240.191 296.456 237.846 296.463 236.721C297.782 239.558 299.804 245.264 297.346 245.385C294.274 245.536 294.929 242.666 295.634 241.155Z" fill="#2E7CF6" stroke="black" stroke-width="0.898011" stroke-linejoin="round"/>
<path d="M292.175 260.145C292.625 259.181 292.997 256.837 293.004 255.711C294.323 258.549 296.345 264.254 293.887 264.375C290.815 264.526 291.47 261.656 292.175 260.145Z" fill="#2E7CF6" stroke="black" stroke-width="0.898011" stroke-linejoin="round"/>
<path d="M61.4126 279.324C56.6259 284.701 49.2241 298.827 49.2241 322.646" stroke="#F2FCF8" stroke-width="1.36" stroke-linecap="round"/>
<mask id="path-174-inside-9_6824_246661" fill="white">
<path fill-rule="evenodd" clip-rule="evenodd" d="M70.0524 275.17C71.1542 274.581 72.11 273.686 72.7797 272.523C74.6896 269.208 73.5504 264.972 70.2353 263.063C66.9203 261.153 62.6847 262.292 60.7748 265.607C60.1116 266.758 59.8161 268.02 59.8517 269.258C59.8427 269.374 59.8478 269.495 59.8688 269.62L59.8744 269.653C59.9067 270.029 59.9695 270.401 60.0619 270.765L61.0678 276.732C61.2192 277.63 62.1519 278.168 63.0049 277.848L68.6401 275.737C69.0255 275.63 69.4017 275.489 69.764 275.316C69.8687 275.276 69.9648 275.227 70.0524 275.17Z"/>
</mask>
<path fill-rule="evenodd" clip-rule="evenodd" d="M70.0524 275.17C71.1542 274.581 72.11 273.686 72.7797 272.523C74.6896 269.208 73.5504 264.972 70.2353 263.063C66.9203 261.153 62.6847 262.292 60.7748 265.607C60.1116 266.758 59.8161 268.02 59.8517 269.258C59.8427 269.374 59.8478 269.495 59.8688 269.62L59.8744 269.653C59.9067 270.029 59.9695 270.401 60.0619 270.765L61.0678 276.732C61.2192 277.63 62.1519 278.168 63.0049 277.848L68.6401 275.737C69.0255 275.63 69.4017 275.489 69.764 275.316C69.8687 275.276 69.9648 275.227 70.0524 275.17Z" fill="#FFDF3E"/>
<path d="M70.0524 275.17L69.4106 273.971L69.3588 273.999L69.3096 274.031L70.0524 275.17ZM59.8517 269.258L61.2077 269.361L61.2132 269.29L61.2111 269.218L59.8517 269.258ZM59.8688 269.62L58.5277 269.846L58.5277 269.846L59.8688 269.62ZM59.8744 269.653L61.2293 269.536L61.2246 269.481L61.2154 269.427L59.8744 269.653ZM60.0619 270.765L61.403 270.539L61.3938 270.485L61.3803 270.431L60.0619 270.765ZM61.0678 276.732L62.4089 276.506L62.4089 276.506L61.0678 276.732ZM63.0049 277.848L62.5277 276.575L62.5277 276.575L63.0049 277.848ZM68.6401 275.737L68.2745 274.427L68.2179 274.443L68.163 274.464L68.6401 275.737ZM69.764 275.316L69.2827 274.044L69.2298 274.064L69.1788 274.088L69.764 275.316ZM71.6013 271.844C71.062 272.78 70.295 273.498 69.4106 273.971L70.6941 276.369C72.0134 275.663 73.1579 274.591 73.9581 273.202L71.6013 271.844ZM69.5564 264.241C72.2207 265.776 73.1362 269.18 71.6013 271.844L73.9581 273.202C76.2429 269.236 74.8801 264.169 70.9142 261.884L69.5564 264.241ZM61.9533 266.286C63.4882 263.622 66.8922 262.706 69.5564 264.241L70.9142 261.884C66.9484 259.599 61.8812 260.962 59.5964 264.928L61.9533 266.286ZM61.2111 269.218C61.1826 268.225 61.4192 267.213 61.9533 266.286L59.5964 264.928C58.8041 266.303 58.4496 267.815 58.4922 269.297L61.2111 269.218ZM58.4957 269.154C58.4782 269.382 58.4886 269.614 58.5277 269.846L61.2099 269.394C61.2071 269.377 61.2073 269.367 61.2077 269.361L58.4957 269.154ZM58.5277 269.846L58.5333 269.879L61.2154 269.427L61.2099 269.394L58.5277 269.846ZM61.3803 270.431C61.3059 270.138 61.2554 269.838 61.2293 269.536L58.5194 269.769C58.558 270.219 58.6332 270.664 58.7435 271.099L61.3803 270.431ZM58.7208 270.991L59.7267 276.958L62.4089 276.506L61.403 270.539L58.7208 270.991ZM59.7267 276.958C60.0202 278.7 61.8285 279.741 63.482 279.122L62.5277 276.575C62.4754 276.594 62.4182 276.561 62.4089 276.506L59.7267 276.958ZM63.482 279.122L69.1172 277.011L68.163 274.464L62.5277 276.575L63.482 279.122ZM69.1788 274.088C68.8874 274.227 68.5847 274.341 68.2745 274.427L69.0058 277.047C69.4663 276.918 69.916 276.75 70.3492 276.544L69.1788 274.088ZM70.2453 276.588C70.4407 276.514 70.6246 276.421 70.7951 276.31L69.3096 274.031C69.305 274.034 69.2967 274.039 69.2827 274.044L70.2453 276.588Z" fill="black" mask="url(#path-174-inside-9_6824_246661)"/>
<mask id="path-176-inside-10_6824_246661" fill="white">
<path d="M59.5383 278.765C59.577 278.698 59.6629 278.675 59.7302 278.714L62.0776 280.066C62.1449 280.105 62.168 280.191 62.1292 280.258L61.7065 280.992C61.2943 281.707 60.3802 281.953 59.6647 281.541V281.541C58.9492 281.129 58.7034 280.215 59.1156 279.499L59.5383 278.765Z"/>
</mask>
<path d="M59.5383 278.765C59.577 278.698 59.6629 278.675 59.7302 278.714L62.0776 280.066C62.1449 280.105 62.168 280.191 62.1292 280.258L61.7065 280.992C61.2943 281.707 60.3802 281.953 59.6647 281.541V281.541C58.9492 281.129 58.7034 280.215 59.1156 279.499L59.5383 278.765Z" fill="black" stroke="#F2FCF8" stroke-width="2.48238" mask="url(#path-176-inside-10_6824_246661)"/>
<path d="M62.0667 275.606L63.7913 272.833C64.0668 272.354 63.7517 272.021 63.3595 272.033C62.8693 272.047 62.8042 273.059 63.881 273.648C65.1211 274.328 65.2212 274.421 65.7876 274.138C66.3945 273.834 65.7959 272.989 65.2084 273.552C64.7445 273.997 63.9642 275.488 63.4309 276.392" stroke="black" stroke-width="1.36"/>
<line x1="70.866" y1="261.015" x2="71.7164" y2="259.539" stroke="#FFDF3E" stroke-width="1.36" stroke-linecap="round"/>
<line x1="65.2895" y1="258.652" x2="65.4026" y2="256.952" stroke="#FFDF3E" stroke-width="1.36" stroke-linecap="round"/>
<line x1="60.5008" y1="257.901" x2="61.317" y2="259.396" stroke="#FFDF3E" stroke-width="1.36" stroke-linecap="round"/>
<line x1="56.6654" y1="262.503" x2="58.0888" y2="263.439" stroke="#FFDF3E" stroke-width="1.36" stroke-linecap="round"/>
<line x1="54.7265" y1="268.116" x2="56.4262" y2="268.231" stroke="#FFDF3E" stroke-width="1.36" stroke-linecap="round"/>
<line x1="0.68" y1="-0.68" x2="2.38362" y2="-0.68" transform="matrix(0.829874 -0.557952 -0.557952 -0.829874 75.2769 264.765)" stroke="#FFDF3E" stroke-width="1.36" stroke-linecap="round"/>
<line x1="0.68" y1="-0.68" x2="2.38362" y2="-0.68" transform="matrix(-0.999667 0.0258195 0.0258195 0.999667 79.9702 269.377)" stroke="#FFDF3E" stroke-width="1.36" stroke-linecap="round"/>
<line x1="0.68" y1="-0.68" x2="2.38362" y2="-0.68" transform="matrix(-0.894483 -0.447102 -0.447102 0.894483 77.5195 275.254)" stroke="#FFDF3E" stroke-width="1.36" stroke-linecap="round"/>
<line x1="0.68" y1="-0.68" x2="2.38362" y2="-0.68" transform="matrix(-0.559057 -0.829129 -0.829129 0.559057 73.1475 279.778)" stroke="#FFDF3E" stroke-width="1.36" stroke-linecap="round"/>
<mask id="path-187-inside-11_6824_246661" fill="white">
<rect x="60.7212" y="275.143" width="4.55669" height="4.67619" rx="0.724462" transform="rotate(29.9467 60.7212 275.143)"/>
</mask>
<rect x="60.7212" y="275.143" width="4.55669" height="4.67619" rx="0.724462" transform="rotate(29.9467 60.7212 275.143)" fill="white" stroke="#F2FCF8" stroke-width="2.72" mask="url(#path-187-inside-11_6824_246661)"/>
<line y1="-0.68" x2="4.37302" y2="-0.68" transform="matrix(-0.927295 -0.37433 0.409783 -0.912183 64.1826 278.133)" stroke="#F2FCF8" stroke-width="1.36"/>
<line y1="-0.68" x2="4.37302" y2="-0.68" transform="matrix(-0.927295 -0.37433 0.409783 -0.912183 63.6348 279.084)" stroke="#F2FCF8" stroke-width="1.36"/>
<line y1="-0.68" x2="4.28793" y2="-0.68" transform="matrix(-0.930557 -0.366147 0.403927 -0.914791 63 279.986)" stroke="#F2FCF8" stroke-width="1.36"/>
<mask id="path-191-inside-12_6824_246661" fill="white">
<path d="M31.483 263.492C31.4403 263.428 31.4583 263.34 31.5231 263.298L33.7863 261.809C33.8512 261.766 33.9383 261.784 33.981 261.849L34.4464 262.556C34.9003 263.246 34.709 264.173 34.0192 264.627V264.627C33.3294 265.081 32.4023 264.89 31.9484 264.2L31.483 263.492Z"/>
</mask>
<path d="M31.483 263.492C31.4403 263.428 31.4583 263.34 31.5231 263.298L33.7863 261.809C33.8512 261.766 33.9383 261.784 33.981 261.849L34.4464 262.556C34.9003 263.246 34.709 264.173 34.0192 264.627V264.627C33.3294 265.081 32.4023 264.89 31.9484 264.2L31.483 263.492Z" fill="black" stroke="#F2FCF8" stroke-width="2.48238" mask="url(#path-191-inside-12_6824_246661)"/>
<mask id="path-192-inside-13_6824_246661" fill="white">
<path fill-rule="evenodd" clip-rule="evenodd" d="M32.9976 252.487C32.9665 251.236 32.5966 249.98 31.8587 248.858C29.7557 245.662 25.46 244.776 22.264 246.879C19.068 248.982 18.1818 253.277 20.2848 256.473C21.0143 257.582 22.0078 258.413 23.1277 258.937C23.2287 258.999 23.3403 259.049 23.4622 259.087L23.4986 259.098C23.846 259.237 24.2037 259.347 24.5677 259.428L30.3546 261.213C31.225 261.481 32.1242 260.889 32.2222 259.984L32.8689 254.002C32.9463 253.608 32.9898 253.208 32.9982 252.806C33.0096 252.696 33.009 252.589 32.9976 252.487Z"/>
</mask>
<path fill-rule="evenodd" clip-rule="evenodd" d="M32.9976 252.487C32.9665 251.236 32.5966 249.98 31.8587 248.858C29.7557 245.662 25.46 244.776 22.264 246.879C19.068 248.982 18.1818 253.277 20.2848 256.473C21.0143 257.582 22.0078 258.413 23.1277 258.937C23.2287 258.999 23.3403 259.049 23.4622 259.087L23.4986 259.098C23.846 259.237 24.2037 259.347 24.5677 259.428L30.3546 261.213C31.225 261.481 32.1242 260.889 32.2222 259.984L32.8689 254.002C32.9463 253.608 32.9898 253.208 32.9982 252.806C33.0096 252.696 33.009 252.589 32.9976 252.487Z" fill="#FFDF3E"/>
<path d="M32.9976 252.487L31.6381 252.52L31.6395 252.578L31.6459 252.636L32.9976 252.487ZM23.1277 258.937L23.833 257.775L23.7705 257.737L23.7044 257.706L23.1277 258.937ZM23.4622 259.087L23.0614 260.386L23.0614 260.386L23.4622 259.087ZM23.4986 259.098L24.0027 257.835L23.9518 257.815L23.8995 257.798L23.4986 259.098ZM24.5677 259.428L24.9685 258.128L24.9162 258.112L24.8628 258.1L24.5677 259.428ZM30.3546 261.213L30.7554 259.913L30.7554 259.913L30.3546 261.213ZM32.2222 259.984L30.87 259.838L30.87 259.838L32.2222 259.984ZM32.8689 254.002L31.5345 253.74L31.5231 253.797L31.5168 253.856L32.8689 254.002ZM32.9982 252.806L31.6455 252.666L31.6397 252.721L31.6385 252.777L32.9982 252.806ZM30.7225 249.606C31.3168 250.509 31.6131 251.517 31.6381 252.52L34.3572 252.453C34.3199 250.956 33.8764 249.45 32.9948 248.11L30.7225 249.606ZM23.0115 248.015C25.5801 246.325 29.0324 247.037 30.7225 249.606L32.9948 248.11C30.479 244.287 25.3399 243.227 21.5164 245.743L23.0115 248.015ZM21.4209 255.726C19.7308 253.157 20.443 249.705 23.0115 248.015L21.5164 245.743C17.6929 248.258 16.6328 253.398 19.1487 257.221L21.4209 255.726ZM23.7044 257.706C22.8056 257.285 22.0084 256.619 21.4209 255.726L19.1487 257.221C20.0203 258.546 21.21 259.541 22.5509 260.169L23.7044 257.706ZM22.4224 260.1C22.6199 260.22 22.8339 260.316 23.0614 260.386L23.863 257.787C23.8467 257.782 23.8375 257.777 23.833 257.775L22.4224 260.1ZM23.0614 260.386L23.0978 260.398L23.8995 257.798L23.863 257.787L23.0614 260.386ZM24.8628 258.1C24.5698 258.035 24.282 257.946 24.0027 257.835L22.9946 260.361C23.41 260.527 23.8375 260.659 24.2725 260.755L24.8628 258.1ZM24.1669 260.727L29.9538 262.512L30.7554 259.913L24.9685 258.128L24.1669 260.727ZM29.9538 262.512C31.6411 263.033 33.3845 261.885 33.5743 260.13L30.87 259.838C30.864 259.893 30.8088 259.929 30.7554 259.913L29.9538 262.512ZM33.5743 260.13L34.221 254.148L31.5168 253.856L30.87 259.838L33.5743 260.13ZM31.6385 252.777C31.6317 253.101 31.5968 253.423 31.5345 253.74L34.2034 254.264C34.2959 253.794 34.3478 253.315 34.3579 252.834L31.6385 252.777ZM34.351 252.946C34.3723 252.741 34.3715 252.537 34.3494 252.337L31.6459 252.636C31.6465 252.641 31.647 252.651 31.6455 252.666L34.351 252.946Z" fill="black" mask="url(#path-192-inside-13_6824_246661)"/>
<path d="M29.7964 259.814L28.0942 257.027C27.7908 256.566 27.3516 256.698 27.1855 257.054C26.9779 257.498 27.8526 258.011 28.8634 257.314C30.0275 256.512 30.1555 256.464 30.1573 255.831C30.1592 255.152 29.1346 255.307 29.3737 256.085C29.5625 256.699 30.5436 258.066 31.1116 258.949" stroke="black" stroke-width="1.36"/>
<line x1="20.7178" y1="245.396" x2="19.7814" y2="243.972" stroke="#FFDF3E" stroke-width="1.36" stroke-linecap="round"/>
<line x1="16.1011" y1="249.315" x2="14.6335" y2="248.45" stroke="#FFDF3E" stroke-width="1.36" stroke-linecap="round"/>
<line x1="13.278" y1="253.256" x2="14.9806" y2="253.199" stroke="#FFDF3E" stroke-width="1.36" stroke-linecap="round"/>
<line x1="15.6642" y1="258.75" x2="17.1402" y2="257.899" stroke="#FFDF3E" stroke-width="1.36" stroke-linecap="round"/>
<line x1="19.8066" y1="263.005" x2="20.6737" y2="261.539" stroke="#FFDF3E" stroke-width="1.36" stroke-linecap="round"/>
<line x1="0.68" y1="-0.68" x2="2.38362" y2="-0.68" transform="matrix(-0.125425 -0.992103 -0.992103 0.125425 26.0503 243.142)" stroke="#FFDF3E" stroke-width="1.36" stroke-linecap="round"/>
<line x1="0.68" y1="-0.68" x2="2.38362" y2="-0.68" transform="matrix(-0.426244 0.904608 0.904608 0.426244 32.2798 241.022)" stroke="#FFDF3E" stroke-width="1.36" stroke-linecap="round"/>
<line x1="0.68" y1="-0.68" x2="2.38362" y2="-0.68" transform="matrix(-0.801429 0.598089 0.598089 0.801429 36.4287 245.852)" stroke="#FFDF3E" stroke-width="1.36" stroke-linecap="round"/>
<line x1="0.68" y1="-0.68" x2="2.38362" y2="-0.68" transform="matrix(-0.991935 0.126747 0.126747 0.991935 38.5054 251.791)" stroke="#FFDF3E" stroke-width="1.36" stroke-linecap="round"/>
<mask id="path-204-inside-14_6824_246661" fill="white">
<rect x="28.7783" y="260.808" width="4.55669" height="4.67619" rx="0.724462" transform="rotate(-33.3444 28.7783 260.808)"/>
</mask>
<rect x="28.7783" y="260.808" width="4.55669" height="4.67619" rx="0.724462" transform="rotate(-33.3444 28.7783 260.808)" fill="white" stroke="#F2FCF8" stroke-width="2.72" mask="url(#path-204-inside-14_6824_246661)"/>
<line y1="-0.68" x2="4.37302" y2="-0.68" transform="matrix(-0.75117 0.660108 -0.630674 -0.776048 33.0044 259.059)" stroke="#F2FCF8" stroke-width="1.36"/>
<line y1="-0.68" x2="4.37302" y2="-0.68" transform="matrix(-0.75117 0.660108 -0.630674 -0.776048 33.6084 259.978)" stroke="#F2FCF8" stroke-width="1.36"/>
<line y1="-0.68" x2="4.28793" y2="-0.68" transform="matrix(-0.745326 0.6667 -0.635636 -0.771989 34.1289 260.949)" stroke="#F2FCF8" stroke-width="1.36"/>
<path d="M34.1838 264.386C39.7843 271.231 48.3418 286.438 48.3418 316.76" stroke="#F2FCF8" stroke-width="1.36" stroke-linecap="round"/>
<path d="M31.8865 315.848C36.7028 315.458 44.3343 319.591 47.1006 321.869C42.3005 328.215 29.6088 327.726 28.2257 327.482C26.8426 327.238 18.1369 324.635 18.7064 322.926C19.2759 321.218 25.866 316.336 31.8865 315.848Z" fill="#6FDCAE" stroke="black" stroke-width="1.36"/>
<path d="M22.0806 322.377C27.0776 321.381 39.0389 319.89 46.9071 321.901" stroke="black" stroke-width="1.36" stroke-linecap="round"/>
<path d="M44.1818 301.365C49.1449 305.62 49.4502 317.24 48.9825 322.518C47.9528 324.459 35.9676 314.414 32.901 310.3C29.8344 306.185 27.8945 296.13 28.2349 294.1C28.5753 292.07 37.9781 296.047 44.1818 301.365Z" fill="#2DB97D" stroke="black" stroke-width="1.36"/>
<path d="M48.5962 322.105C45.8695 316.278 38.8329 303.301 32.4995 298.01" stroke="black" stroke-width="1.36" stroke-linecap="round"/>
<path d="M64.787 320.197C60.241 322.986 51.8223 322.871 48.1812 322.465C49.4485 320.321 54.1527 316.887 63.1907 308.509C70.4211 301.806 76.9897 300.521 79.3702 300.716C76.7712 313.552 70.4694 316.712 64.787 320.197Z" fill="#6FDCAE" stroke="black" stroke-width="1.36"/>
<path d="M49.0691 322.013C55.8145 319.853 70.6359 313.427 75.9575 305.003" stroke="black" stroke-width="1.36" stroke-linecap="round"/>
</svg>
