<svg width="417" height="343" viewBox="0 0 417 343" fill="none" xmlns="http://www.w3.org/2000/svg">
<path d="M253.031 145.97C237.143 163.817 212.576 210.705 212.576 289.762" stroke="white" stroke-width="1.7668" stroke-linecap="round"/>
<path d="M162.655 96.3857C181.244 119.105 209.648 169.583 209.648 270.225" stroke="white" stroke-width="1.7668" stroke-linecap="round"/>
<path d="M194.768 229.116C212.609 244.411 213.706 286.181 212.025 305.154C208.323 312.13 165.24 276.022 154.217 261.232C143.193 246.443 136.22 210.295 137.443 202.998C138.667 195.702 172.467 209.997 194.768 229.116Z" fill="#2DB97D" stroke="black" stroke-width="1.3251"/>
<path fill-rule="evenodd" clip-rule="evenodd" d="M213.85 300.505C200.227 295.395 166.128 266.56 156.089 253.339C147.317 241.788 140.746 217.981 138.268 202.701C138.016 202.977 137.855 203.314 137.792 203.715C136.656 211.026 144.06 247.088 155.259 261.745C166.458 276.402 209.969 311.994 213.587 304.975C213.692 303.598 213.782 302.102 213.85 300.505Z" fill="#269767"/>
<path d="M261.269 295.728C244.927 305.752 214.664 305.34 201.576 303.88C206.131 296.174 234.578 263.596 254.588 250.251C284.073 230.587 305.134 224.996 313.692 225.697C304.349 271.839 281.695 283.198 261.269 295.728Z" fill="#6FDCAE" stroke="black" stroke-width="1.3251"/>
<path d="M202.385 300.304C222.989 293.911 268.297 275.006 284.697 250.531" stroke="black" stroke-width="1.3251" stroke-linecap="round"/>
<path fill-rule="evenodd" clip-rule="evenodd" d="M203.434 299.245C218.291 301.074 241.561 301.649 255.686 294.055C256.864 293.422 258.048 292.793 259.237 292.162C279.382 281.464 300.78 270.101 312.507 226.199C312.719 226.211 312.924 226.227 313.121 226.245C303.87 269.734 283.053 282.084 263.458 293.708C262.305 294.392 261.156 295.074 260.014 295.759C243.575 305.622 213.317 304.913 200.244 303.325C200.985 302.099 202.044 300.757 203.434 299.245Z" fill="#2DB97D"/>
<mask id="path-8-inside-1_6596_249899" fill="white">
<path fill-rule="evenodd" clip-rule="evenodd" d="M282.173 131.922C285.631 129.966 288.627 127.087 290.754 123.395C297.093 112.392 293.312 98.3332 282.308 91.9941C271.305 85.655 257.246 89.436 250.907 100.439C248.793 104.11 247.804 108.12 247.834 112.07C247.771 112.531 247.776 113.016 247.861 113.518L247.917 113.853C248.024 115.111 248.235 116.356 248.545 117.576L251.904 137.505C252.395 140.414 255.416 142.155 258.179 141.12L277.022 134.061C278.295 133.705 279.538 133.24 280.736 132.669L280.959 132.586C281.413 132.416 281.818 132.19 282.173 131.922Z"/>
</mask>
<path fill-rule="evenodd" clip-rule="evenodd" d="M282.173 131.922C285.631 129.966 288.627 127.087 290.754 123.395C297.093 112.392 293.312 98.3332 282.308 91.9941C271.305 85.655 257.246 89.436 250.907 100.439C248.793 104.11 247.804 108.12 247.834 112.07C247.771 112.531 247.776 113.016 247.861 113.518L247.917 113.853C248.024 115.111 248.235 116.356 248.545 117.576L251.904 137.505C252.395 140.414 255.416 142.155 258.179 141.12L277.022 134.061C278.295 133.705 279.538 133.24 280.736 132.669L280.959 132.586C281.413 132.416 281.818 132.19 282.173 131.922Z" fill="#FFDF3E"/>
<path d="M282.173 131.922L281.52 130.769L281.444 130.812L281.374 130.865L282.173 131.922ZM247.834 112.07L249.147 112.25L249.16 112.155L249.159 112.06L247.834 112.07ZM247.861 113.518L249.167 113.297L249.167 113.297L247.861 113.518ZM247.917 113.853L249.237 113.74L249.233 113.686L249.224 113.633L247.917 113.853ZM248.545 117.576L249.851 117.356L249.842 117.302L249.829 117.25L248.545 117.576ZM251.904 137.505L250.598 137.725L251.904 137.505ZM258.179 141.12L257.714 139.879L257.714 139.879L258.179 141.12ZM277.022 134.061L276.665 132.785L276.61 132.8L276.557 132.82L277.022 134.061ZM280.736 132.669L280.271 131.429L280.218 131.449L280.166 131.473L280.736 132.669ZM280.959 132.586L281.424 133.827L281.424 133.827L280.959 132.586ZM289.605 122.734C287.6 126.215 284.778 128.926 281.52 130.769L282.825 133.075C286.484 131.006 289.653 127.959 291.902 124.057L289.605 122.734ZM281.647 93.1423C292.016 99.116 295.579 112.365 289.605 122.734L291.902 124.057C298.606 112.419 294.607 97.5503 282.97 90.8459L281.647 93.1423ZM252.055 101.101C258.029 90.7316 271.278 87.1685 281.647 93.1423L282.97 90.8459C271.333 84.1415 256.464 88.1404 249.759 99.7778L252.055 101.101ZM249.159 112.06C249.131 108.339 250.062 104.561 252.055 101.101L249.759 99.7778C247.524 103.658 246.478 107.901 246.509 112.08L249.159 112.06ZM246.521 111.89C246.44 112.485 246.447 113.105 246.554 113.738L249.167 113.297C249.105 112.927 249.102 112.577 249.147 112.25L246.521 111.89ZM246.554 113.738L246.61 114.073L249.224 113.633L249.167 113.297L246.554 113.738ZM249.829 117.25C249.537 116.1 249.339 114.926 249.237 113.74L246.597 113.966C246.71 115.296 246.933 116.613 247.26 117.902L249.829 117.25ZM247.238 117.796L250.598 137.725L253.211 137.285L249.851 117.356L247.238 117.796ZM250.598 137.725C251.227 141.456 255.101 143.688 258.644 142.361L257.714 139.879C255.731 140.622 253.563 139.373 253.211 137.285L250.598 137.725ZM258.644 142.361L277.487 135.302L276.557 132.82L257.714 139.879L258.644 142.361ZM280.166 131.473C279.037 132.011 277.866 132.449 276.665 132.785L277.378 135.337C278.725 134.961 280.039 134.469 281.306 133.866L280.166 131.473ZM281.201 133.91L281.424 133.827L280.494 131.345L280.271 131.429L281.201 133.91ZM281.424 133.827C281.997 133.612 282.514 133.325 282.972 132.979L281.374 130.865C281.122 131.056 280.83 131.219 280.494 131.345L281.424 133.827Z" fill="black" mask="url(#path-8-inside-1_6596_249899)"/>
<path fill-rule="evenodd" clip-rule="evenodd" d="M287.281 120.107C285.128 124.137 281.805 127.197 277.868 129.142C277.779 129.189 277.688 129.233 277.595 129.275C276.343 129.872 275.032 130.359 273.678 130.729L253.97 137.978C252.927 138.362 251.844 138.357 250.875 138.044C251.907 140.141 254.415 141.199 256.728 140.348L276.436 133.099C277.79 132.729 279.101 132.243 280.352 131.646C280.446 131.603 280.538 131.559 280.627 131.512C284.564 129.567 287.886 126.507 290.039 122.477C295.369 112.502 292.456 100.65 282.8 93.9131C289.767 101.019 291.884 111.492 287.281 120.107Z" fill="#EFCE2B"/>
<path d="M245.975 146.881L247.28 144.615L254.732 148.908L253.427 151.174C252.241 153.231 249.612 153.939 247.554 152.753C245.496 151.568 244.789 148.938 245.975 146.881Z" fill="black" stroke="black" stroke-width="1.3251"/>
<path d="M255.196 133.629L260.92 124.424C261.834 122.836 260.789 121.731 259.487 121.768C257.86 121.816 257.644 125.174 261.218 127.132C265.334 129.386 265.666 129.695 267.546 128.756C269.56 127.749 267.574 124.942 265.624 126.811C264.084 128.287 261.494 133.236 259.724 136.237" stroke="black" stroke-width="1.3251"/>
<line x1="284.986" y1="87.3754" x2="289.401" y2="79.7125" stroke="white" stroke-width="1.3251" stroke-linecap="round"/>
<line x1="267.379" y1="79.0517" x2="267.966" y2="70.2276" stroke="white" stroke-width="1.3251" stroke-linecap="round"/>
<line x1="247.836" y1="74.2251" x2="252.074" y2="81.9876" stroke="white" stroke-width="1.3251" stroke-linecap="round"/>
<line x1="235.061" y1="90.5918" x2="242.45" y2="95.4517" stroke="white" stroke-width="1.3251" stroke-linecap="round"/>
<line x1="229.134" y1="110.249" x2="237.957" y2="110.848" stroke="white" stroke-width="1.3251" stroke-linecap="round"/>
<line x1="0.662551" y1="-0.662551" x2="9.50617" y2="-0.662551" transform="matrix(0.829874 -0.557952 -0.557952 -0.829874 299.044 97.6436)" stroke="white" stroke-width="1.3251" stroke-linecap="round"/>
<line x1="0.662551" y1="-0.662551" x2="9.50617" y2="-0.662551" transform="matrix(-0.999667 0.0258195 0.0258195 0.999667 314.619 112.953)" stroke="white" stroke-width="1.3251" stroke-linecap="round"/>
<line x1="0.662551" y1="-0.662551" x2="9.50617" y2="-0.662551" transform="matrix(-0.894483 -0.447102 -0.447102 0.894483 306.488 132.459)" stroke="white" stroke-width="1.3251" stroke-linecap="round"/>
<line x1="0.662551" y1="-0.662551" x2="9.50617" y2="-0.662551" transform="matrix(-0.559057 -0.829129 -0.829129 0.559057 291.978 147.477)" stroke="white" stroke-width="1.3251" stroke-linecap="round"/>
<rect x="250.975" y="132.995" width="13.7994" height="14.196" rx="1.68429" transform="rotate(29.9467 250.975 132.995)" fill="white" stroke="black" stroke-width="1.3251"/>
<line y1="-0.662551" x2="14.5148" y2="-0.662551" transform="matrix(-0.927295 -0.37433 0.409783 -0.912183 262.221 142.012)" stroke="black" stroke-width="1.3251"/>
<line y1="-0.662551" x2="14.5148" y2="-0.662551" transform="matrix(-0.927295 -0.37433 0.409783 -0.912183 260.4 145.171)" stroke="black" stroke-width="1.3251"/>
<line y1="-0.662551" x2="14.2324" y2="-0.662551" transform="matrix(-0.930557 -0.366147 0.403927 -0.914791 258.292 148.166)" stroke="black" stroke-width="1.3251"/>
<path d="M155.788 95.4021L154.351 93.2181L161.535 88.491L162.972 90.675C164.277 92.6589 163.727 95.3253 161.744 96.6307C159.76 97.936 157.093 97.386 155.788 95.4021Z" fill="black" stroke="black" stroke-width="1.3251"/>
<mask id="path-27-inside-2_6596_249899" fill="white">
<path fill-rule="evenodd" clip-rule="evenodd" d="M158.695 56.3458C158.502 52.3769 157.277 48.4061 154.934 44.8464C147.954 34.2381 133.696 31.2969 123.088 38.277C112.48 45.2571 109.538 59.5152 116.518 70.1234C118.847 73.6619 121.985 76.3473 125.527 78.0961C125.91 78.3594 126.346 78.5732 126.832 78.7231L127.156 78.823C128.328 79.2928 129.536 79.6648 130.766 79.9364L150.077 85.8922C152.897 86.7617 155.81 84.845 156.127 81.9115L158.289 61.9101C158.544 60.6104 158.688 59.2886 158.717 57.9603L158.742 57.7267C158.794 57.2451 158.775 56.7827 158.695 56.3458Z"/>
</mask>
<path fill-rule="evenodd" clip-rule="evenodd" d="M158.695 56.3458C158.502 52.3769 157.277 48.4061 154.934 44.8464C147.954 34.2381 133.696 31.2969 123.088 38.277C112.48 45.2571 109.538 59.5152 116.518 70.1234C118.847 73.6619 121.985 76.3473 125.527 78.0961C125.91 78.3594 126.346 78.5732 126.832 78.7231L127.156 78.823C128.328 79.2928 129.536 79.6648 130.766 79.9364L150.077 85.8922C152.897 86.7617 155.81 84.845 156.127 81.9115L158.289 61.9101C158.544 60.6104 158.688 59.2886 158.717 57.9603L158.742 57.7267C158.794 57.2451 158.775 56.7827 158.695 56.3458Z" fill="#FFDF3E"/>
<path d="M158.695 56.3458L157.371 56.4102L157.375 56.4979L157.391 56.5842L158.695 56.3458ZM125.527 78.0961L126.278 77.0041L126.199 76.9501L126.114 76.9079L125.527 78.0961ZM126.832 78.7231L127.222 77.4568L127.222 77.4568L126.832 78.7231ZM127.156 78.823L127.649 77.593L127.598 77.5728L127.546 77.5568L127.156 78.823ZM130.766 79.9364L131.156 78.6702L131.105 78.6542L131.052 78.6425L130.766 79.9364ZM150.077 85.8922L149.687 87.1584L150.077 85.8922ZM156.127 81.9115L154.809 81.7691L154.809 81.7691L156.127 81.9115ZM158.289 61.9101L156.989 61.655L156.978 61.711L156.972 61.7677L158.289 61.9101ZM158.717 57.9603L157.399 57.8178L157.393 57.8746L157.392 57.9317L158.717 57.9603ZM158.742 57.7267L157.424 57.5843L157.424 57.5843L158.742 57.7267ZM153.827 45.5747C156.036 48.9312 157.189 52.6715 157.371 56.4102L160.018 56.2814C159.814 52.0823 158.517 47.8811 156.041 44.118L153.827 45.5747ZM123.816 39.384C133.813 32.8062 147.249 35.5779 153.827 45.5747L156.041 44.118C148.659 32.8984 133.579 29.7877 122.359 37.17L123.816 39.384ZM117.625 69.3951C111.048 59.3982 113.819 45.9618 123.816 39.384L122.359 37.17C111.14 44.5524 108.029 59.6322 115.411 70.8518L117.625 69.3951ZM126.114 76.9079C122.777 75.2606 119.821 72.7314 117.625 69.3951L115.411 70.8518C117.873 74.5924 121.193 77.4341 124.94 79.2843L126.114 76.9079ZM124.776 79.188C125.271 79.528 125.828 79.8002 126.441 79.9893L127.222 77.4568C126.863 77.3461 126.549 77.1908 126.278 77.0041L124.776 79.188ZM126.441 79.9893L126.765 80.0893L127.546 77.5568L127.222 77.4568L126.441 79.9893ZM131.052 78.6425C129.892 78.3865 128.754 78.0357 127.649 77.593L126.663 80.0531C127.903 80.5498 129.18 80.9432 130.48 81.2303L131.052 78.6425ZM130.375 81.2027L149.687 87.1584L150.468 84.6259L131.156 78.6702L130.375 81.2027ZM149.687 87.1584C153.302 88.2735 157.038 85.8156 157.444 82.054L154.809 81.7691C154.582 83.8744 152.491 85.25 150.468 84.6259L149.687 87.1584ZM157.444 82.054L159.607 62.0526L156.972 61.7677L154.809 81.7691L157.444 82.054ZM157.392 57.9317C157.365 59.1837 157.23 60.4297 156.989 61.655L159.59 62.1652C159.859 60.7911 160.011 59.3935 160.041 57.9889L157.392 57.9317ZM160.034 58.1027L160.059 57.8691L157.424 57.5843L157.399 57.8178L160.034 58.1027ZM160.059 57.8692C160.125 57.2618 160.101 56.671 159.998 56.1074L157.391 56.5842C157.448 56.8943 157.463 57.2284 157.424 57.5843L160.059 57.8692Z" fill="black" mask="url(#path-27-inside-2_6596_249899)"/>
<path d="M148.094 81.2105L142.444 71.9599C141.437 70.4297 139.98 70.8669 139.428 72.0467C138.739 73.5215 141.642 75.224 144.997 72.9112C148.861 70.2476 149.286 70.0893 149.292 67.988C149.299 65.7361 145.897 66.2489 146.691 68.8312C147.318 70.8701 150.574 75.4082 152.46 78.3381" stroke="black" stroke-width="1.3251"/>
<line x1="120.165" y1="33.8092" x2="115.304" y2="26.4214" stroke="#FFDF3E" stroke-width="1.3251" stroke-linecap="round"/>
<line x1="104.816" y1="45.7968" x2="97.1978" y2="41.3062" stroke="#FFDF3E" stroke-width="1.3251" stroke-linecap="round"/>
<line x1="91.7215" y1="61.0842" x2="100.56" y2="60.7882" stroke="#FFDF3E" stroke-width="1.3251" stroke-linecap="round"/>
<line x1="100.599" y1="79.8534" x2="108.261" y2="75.4376" stroke="#FFDF3E" stroke-width="1.3251" stroke-linecap="round"/>
<line x1="115.496" y1="93.9831" x2="119.997" y2="86.3705" stroke="#FFDF3E" stroke-width="1.3251" stroke-linecap="round"/>
<line x1="0.662551" y1="-0.662551" x2="9.50617" y2="-0.662551" transform="matrix(-0.125425 -0.992103 -0.992103 0.125425 135.656 25.8672)" stroke="#FFDF3E" stroke-width="1.3251" stroke-linecap="round"/>
<line x1="0.662551" y1="-0.662551" x2="9.50617" y2="-0.662551" transform="matrix(-0.426244 0.904608 0.904608 0.426244 156.333 18.835)" stroke="#FFDF3E" stroke-width="1.3251" stroke-linecap="round"/>
<line x1="0.662551" y1="-0.662551" x2="9.50617" y2="-0.662551" transform="matrix(-0.801429 0.598089 0.598089 0.801429 170.104 34.8652)" stroke="#FFDF3E" stroke-width="1.3251" stroke-linecap="round"/>
<line x1="0.662551" y1="-0.662551" x2="9.50617" y2="-0.662551" transform="matrix(-0.991935 0.126747 0.126747 0.991935 176.996 54.5767)" stroke="#FFDF3E" stroke-width="1.3251" stroke-linecap="round"/>
<rect x="145.631" y="84.6956" width="13.7994" height="14.196" rx="1.68429" transform="rotate(-33.3444 145.631 84.6956)" fill="white" stroke="black" stroke-width="1.3251"/>
<line y1="-0.662551" x2="14.5148" y2="-0.662551" transform="matrix(-0.75117 0.660108 -0.630674 -0.776048 158.74 78.7031)" stroke="black" stroke-width="1.3251"/>
<line y1="-0.662551" x2="14.5148" y2="-0.662551" transform="matrix(-0.75117 0.660108 -0.630674 -0.776048 160.744 81.7485)" stroke="black" stroke-width="1.3251"/>
<line y1="-0.662551" x2="14.2324" y2="-0.662551" transform="matrix(-0.745326 0.6667 -0.635636 -0.771989 162.472 84.9775)" stroke="black" stroke-width="1.3251"/>
<mask id="path-43-inside-3_6596_249899" fill="white">
<path d="M75.4441 156.127C71.6706 158.119 67.4496 159.112 63.1836 159.01C58.9175 158.908 54.7488 157.715 51.0748 155.545C47.4008 153.374 44.3442 150.298 42.1965 146.611C40.0488 142.924 38.8816 138.747 38.8061 134.481C38.7307 130.214 39.7497 126 41.7657 122.239C43.7818 118.478 46.7278 115.296 50.3228 112.997C53.9177 110.698 58.0418 109.358 62.3015 109.105C66.5613 108.853 70.8148 109.696 74.6563 111.554L63.7802 134.039L75.4441 156.127Z"/>
</mask>
<path d="M75.4441 156.127C71.6706 158.119 67.4496 159.112 63.1836 159.01C58.9175 158.908 54.7488 157.715 51.0748 155.545C47.4008 153.374 44.3442 150.298 42.1965 146.611C40.0488 142.924 38.8816 138.747 38.8061 134.481C38.7307 130.214 39.7497 126 41.7657 122.239C43.7818 118.478 46.7278 115.296 50.3228 112.997C53.9177 110.698 58.0418 109.358 62.3015 109.105C66.5613 108.853 70.8148 109.696 74.6563 111.554L63.7802 134.039L75.4441 156.127Z" stroke="#0A82B4" stroke-width="2.6502" stroke-dasharray="4.38 4.38" mask="url(#path-43-inside-3_6596_249899)"/>
<path d="M348.718 261.989C332.143 280.999 281.681 294.152 259.871 298.001C247.599 300.166 230.663 301.693 236.938 302.899C243.213 304.104 262.606 300.863 291.602 293.56C320.599 286.257 338.892 274.606 348.381 264.881C357.871 255.156 369.437 238.227 348.718 261.989Z" fill="#239061" stroke="black" stroke-width="1.3251" stroke-linecap="round"/>
<path d="M343.821 296.222C345.571 302.854 339.797 314.673 335.81 318.631C335.469 318.865 333.413 318.028 327.921 312.809C321.057 306.285 320.395 296.726 321.462 292.673C322.529 288.62 328.617 276.016 332.54 279.444C336.463 282.873 341.634 287.933 343.821 296.222Z" fill="#46D297" stroke="black" stroke-width="1.3251" stroke-linecap="round"/>
<path d="M347.385 250.647C350.335 258.615 343.25 266.628 339.339 269.638C338.178 270.279 333.842 270.349 325.779 265.498C315.701 259.434 316.814 245.002 318.613 242.008C320.412 239.014 322.749 230.086 325.912 232.519C329.075 234.952 343.697 240.686 347.385 250.647Z" fill="#46D297" stroke="black" stroke-width="1.3251" stroke-linecap="round"/>
<path d="M304.853 260.009C297.555 255.769 284.926 260.422 279.523 263.278C281.624 273.223 288.813 282.026 296.967 284.376C305.122 286.726 314.17 282.149 316.244 281.798C318.319 281.447 313.976 265.31 304.853 260.009Z" fill="#46D297" stroke="black" stroke-width="1.3251" stroke-linecap="round"/>
<path d="M354.578 255.366C353.202 250.735 353.277 239.71 364.582 232.655C375.507 225.837 385.682 228.671 389.819 231.146C394.093 232.949 396.198 240.464 386.421 250.471C377.817 259.277 362.808 257.742 354.578 255.366Z" fill="#46D297"/>
<path d="M390.23 231.403C390.101 231.318 389.964 231.232 389.819 231.146M389.819 231.146C385.682 228.671 375.507 225.837 364.582 232.655C353.277 239.71 353.202 250.735 354.578 255.366C362.808 257.742 377.817 259.277 386.421 250.471C396.198 240.464 394.093 232.949 389.819 231.146Z" stroke="black" stroke-width="1.3251" stroke-linecap="round"/>
<path d="M353.667 282.102C346.719 278.376 346.339 270.005 347.018 266.284C356.002 260.707 364.574 267.798 368.133 272.991C371.692 278.184 370.227 287.244 370.11 288.602C369.993 289.96 362.353 286.76 353.667 282.102Z" fill="#46D297" stroke="black" stroke-width="1.3251" stroke-linecap="round"/>
<path d="M356.575 250.517C360.272 243.662 375.708 239.948 382.963 238.947C373.005 241.46 361.84 249.339 357.502 252.964C355.652 255.004 352.878 257.372 356.575 250.517Z" fill="#269767"/>
<path d="M351.269 267.136C356.528 268.343 361.849 277.967 363.852 282.628C360.341 276.441 353.025 270.435 349.806 268.205C348.103 267.345 346.011 265.928 351.269 267.136Z" fill="#269767"/>
<path d="M333.086 282.715C335.914 287.31 332.786 297.853 330.869 302.55C332.817 295.708 331.966 286.281 331.298 282.422C330.716 280.605 330.259 278.12 333.086 282.715Z" fill="#269767"/>
<path d="M310.609 280.354C303.481 279.055 291.304 267.219 286.106 261.464C294.044 269.069 306.518 276.295 311.762 278.956C314.347 279.964 317.736 281.653 310.609 280.354Z" fill="#269767"/>
<path d="M334.231 266.913C328.446 262.391 327.44 247.459 327.66 240.558C328.418 250.209 333.97 261.834 336.652 266.44C338.255 268.482 340.016 271.435 334.231 266.913Z" fill="#269767"/>
<path d="M228.445 8.62294C229.803 6.02145 231.925 3.89837 234.524 2.53899C239.567 -0.0179571 245.597 0.968929 249.653 3.96324C256.092 8.69583 255.711 17.062 255.61 19.2432C255.324 25.4113 252.343 29.656 249.396 33.7438C246.336 37.9885 240.1 45.2837 228.82 50.9695C221.24 47.5315 214.554 42.3911 209.281 35.9475C205.494 31.2653 201.56 26.2524 201.258 18.9853C201.151 16.4452 200.843 8.99863 206.564 4.35015C208.199 2.97737 210.121 1.98794 212.188 1.45428C214.255 0.920625 216.415 0.856254 218.51 1.26588C220.605 1.6755 222.582 2.54874 224.296 3.8217C226.01 5.09465 227.418 6.73509 228.417 8.62294H228.445Z" fill="#E60044" stroke="black" stroke-width="1.3251" stroke-miterlimit="10"/>
<path d="M234.399 7.84916C236.018 6.06707 238.189 4.882 240.563 4.48477C245.443 3.76142 250.458 6.89592 252.206 11.3594C252.989 13.4474 253.113 15.7258 252.559 17.8863C252.414 17.1685 251.091 11.208 245.275 8.35382C243.589 7.54355 241.757 7.08128 239.888 6.99458C238.02 6.90788 236.153 7.19851 234.399 7.84916Z" fill="#F9DBE6"/>
<path d="M222.505 7.07511C220.884 5.29474 218.714 4.11003 216.341 3.71071C211.455 2.98175 206.44 6.12186 204.692 10.5853C203.908 12.6734 203.785 14.9518 204.339 17.1122C204.484 16.3945 205.807 10.4339 211.623 7.57977C213.311 6.77088 215.143 6.3094 217.013 6.22271C218.882 6.13602 220.749 6.42588 222.505 7.07511Z" fill="#F9DBE6"/>
<mask id="path-59-inside-4_6596_249899" fill="white">
<path fill-rule="evenodd" clip-rule="evenodd" d="M79.4839 153.939C78.443 158.547 71.8775 158.547 70.8366 153.939C70.162 150.953 66.735 149.533 64.1463 151.168C60.1521 153.69 55.5095 149.048 58.0318 145.053C59.6665 142.465 58.247 139.038 55.2606 138.363C50.6527 137.322 50.6527 130.757 55.2606 129.716C58.247 129.041 59.6665 125.614 58.0318 123.026C55.5095 119.031 60.1521 114.389 64.1463 116.911C66.735 118.546 70.162 117.126 70.8366 114.14C71.8775 109.532 78.443 109.532 79.4839 114.14C80.1584 117.126 83.5855 118.546 86.1742 116.911C90.1684 114.389 94.8109 119.031 92.2887 123.026C90.654 125.614 92.0735 129.041 95.0599 129.716C99.6678 130.757 99.6678 137.322 95.0599 138.363C92.0735 139.038 90.654 142.465 92.2887 145.053C94.8109 149.048 90.1684 153.69 86.1742 151.168C83.5855 149.533 80.1584 150.953 79.4839 153.939ZM75.1632 125.152C80.0729 125.152 84.053 129.132 84.053 134.041C84.053 138.951 80.0729 142.931 75.1632 142.931C70.2535 142.931 66.2735 138.951 66.2735 134.041C66.2735 129.132 70.2535 125.152 75.1632 125.152Z"/>
</mask>
<path fill-rule="evenodd" clip-rule="evenodd" d="M79.4839 153.939C78.443 158.547 71.8775 158.547 70.8366 153.939C70.162 150.953 66.735 149.533 64.1463 151.168C60.1521 153.69 55.5095 149.048 58.0318 145.053C59.6665 142.465 58.247 139.038 55.2606 138.363C50.6527 137.322 50.6527 130.757 55.2606 129.716C58.247 129.041 59.6665 125.614 58.0318 123.026C55.5095 119.031 60.1521 114.389 64.1463 116.911C66.735 118.546 70.162 117.126 70.8366 114.14C71.8775 109.532 78.443 109.532 79.4839 114.14C80.1584 117.126 83.5855 118.546 86.1742 116.911C90.1684 114.389 94.8109 119.031 92.2887 123.026C90.654 125.614 92.0735 129.041 95.0599 129.716C99.6678 130.757 99.6678 137.322 95.0599 138.363C92.0735 139.038 90.654 142.465 92.2887 145.053C94.8109 149.048 90.1684 153.69 86.1742 151.168C83.5855 149.533 80.1584 150.953 79.4839 153.939ZM75.1632 125.152C80.0729 125.152 84.053 129.132 84.053 134.041C84.053 138.951 80.0729 142.931 75.1632 142.931C70.2535 142.931 66.2735 138.951 66.2735 134.041C66.2735 129.132 70.2535 125.152 75.1632 125.152Z" fill="#80DAFF"/>
<path d="M70.8366 153.939L72.1292 153.647V153.647L70.8366 153.939ZM79.4839 153.939L80.7764 154.231V154.231L79.4839 153.939ZM64.1463 151.168L63.4388 150.047L64.1463 151.168ZM58.0318 145.053L59.1522 145.761L58.0318 145.053ZM55.2606 138.363L54.9686 139.656H54.9686L55.2606 138.363ZM55.2606 129.716L55.5526 131.008H55.5526L55.2606 129.716ZM58.0318 123.026L56.9114 123.733H56.9114L58.0318 123.026ZM64.1463 116.911L64.8538 115.791L64.1463 116.911ZM70.8366 114.14L69.5441 113.848L70.8366 114.14ZM79.4839 114.14L80.7764 113.848L79.4839 114.14ZM86.1742 116.911L85.4666 115.791L86.1742 116.911ZM92.2887 123.026L93.4091 123.733L92.2887 123.026ZM95.0599 129.716L95.3518 128.423L95.0599 129.716ZM95.0599 138.363L94.7679 137.071L95.0599 138.363ZM92.2887 145.053L91.1683 145.761L92.2887 145.053ZM86.1742 151.168L85.4666 152.288L86.1742 151.168ZM72.1292 153.647C72.8588 156.878 77.4616 156.878 78.1913 153.647L80.7764 154.231C79.4244 160.216 70.8961 160.216 69.5441 154.231L72.1292 153.647ZM63.4388 150.047C66.8014 147.924 71.2529 149.768 72.1292 153.647L69.5441 154.231C69.0712 152.137 66.6686 151.142 64.8538 152.288L63.4388 150.047ZM59.1522 145.761C57.384 148.561 60.6386 151.816 63.4388 150.047L64.8538 152.288C59.6655 155.565 53.6351 149.534 56.9114 144.346L59.1522 145.761ZM55.5526 137.071C59.4317 137.947 61.2756 142.398 59.1522 145.761L56.9114 144.346C58.0574 142.531 57.0622 140.129 54.9686 139.656L55.5526 137.071ZM55.5526 131.008C52.3222 131.738 52.3222 136.341 55.5526 137.071L54.9686 139.656C48.9832 138.304 48.9832 129.775 54.9686 128.423L55.5526 131.008ZM59.1522 122.318C61.2756 125.681 59.4317 130.132 55.5526 131.008L54.9686 128.423C57.0622 127.95 58.0574 125.548 56.9114 123.733L59.1522 122.318ZM63.4388 118.031C60.6386 116.263 57.384 119.518 59.1522 122.318L56.9114 123.733C53.6351 118.545 59.6655 112.514 64.8538 115.791L63.4388 118.031ZM72.1292 114.432C71.2529 118.311 66.8014 120.155 63.4388 118.031L64.8538 115.791C66.6686 116.937 69.0712 115.941 69.5441 113.848L72.1292 114.432ZM78.1913 114.432C77.4616 111.201 72.8588 111.201 72.1292 114.432L69.5441 113.848C70.8961 107.862 79.4244 107.862 80.7764 113.848L78.1913 114.432ZM86.8817 118.031C83.5191 120.155 79.0676 118.311 78.1913 114.432L80.7764 113.848C81.2493 115.941 83.6518 116.937 85.4666 115.791L86.8817 118.031ZM91.1683 122.318C92.9365 119.518 89.6819 116.263 86.8817 118.031L85.4666 115.791C90.655 112.514 96.6854 118.545 93.4091 123.733L91.1683 122.318ZM94.7679 131.008C90.8888 130.132 89.0449 125.681 91.1683 122.318L93.4091 123.733C92.2631 125.548 93.2582 127.95 95.3518 128.423L94.7679 131.008ZM94.7679 137.071C97.9983 136.341 97.9983 131.738 94.7679 131.008L95.3518 128.423C101.337 129.775 101.337 138.304 95.3518 139.656L94.7679 137.071ZM91.1683 145.761C89.0449 142.398 90.8888 137.947 94.7679 137.071L95.3518 139.656C93.2582 140.129 92.2631 142.531 93.4091 144.346L91.1683 145.761ZM86.8817 150.047C89.6819 151.816 92.9365 148.561 91.1683 145.761L93.4091 144.346C96.6854 149.534 90.655 155.565 85.4666 152.288L86.8817 150.047ZM78.1913 153.647C79.0676 149.768 83.5191 147.924 86.8817 150.047L85.4666 152.288C83.6518 151.142 81.2493 152.137 80.7764 154.231L78.1913 153.647ZM82.7279 134.041C82.7279 129.864 79.3411 126.477 75.1632 126.477V123.827C80.8047 123.827 85.3781 128.4 85.3781 134.041H82.7279ZM75.1632 141.606C79.3411 141.606 82.7279 138.219 82.7279 134.041H85.3781C85.3781 139.683 80.8047 144.256 75.1632 144.256V141.606ZM67.5986 134.041C67.5986 138.219 70.9854 141.606 75.1632 141.606V144.256C69.5217 144.256 64.9484 139.683 64.9484 134.041H67.5986ZM75.1632 126.477C70.9854 126.477 67.5986 129.864 67.5986 134.041H64.9484C64.9484 128.4 69.5217 123.827 75.1632 123.827V126.477Z" fill="black" mask="url(#path-59-inside-4_6596_249899)"/>
<path d="M346.275 192.623L332.317 201.144L313.729 170.696L349.148 149.075L364.395 174.052L361.095 176.066" stroke="#A85724" stroke-width="1.3251" stroke-dasharray="3.81 3.81"/>
<mask id="path-62-inside-5_6596_249899" fill="white">
<path fill-rule="evenodd" clip-rule="evenodd" d="M338.041 194.137C333.565 195.649 330.144 190.046 333.535 186.756C335.733 184.624 335.159 180.96 332.414 179.602C328.18 177.507 329.724 171.125 334.448 171.197C337.509 171.244 339.694 168.246 338.714 165.346C337.202 160.871 342.805 157.45 346.095 160.84C348.227 163.038 351.891 162.464 353.249 159.72C355.344 155.486 361.726 157.029 361.654 161.753C361.607 164.814 364.605 167 367.505 166.019C371.98 164.507 375.401 170.111 372.011 173.4C369.813 175.532 370.387 179.197 373.131 180.554C377.365 182.649 375.822 189.031 371.098 188.959C368.037 188.913 365.851 191.91 366.832 194.81C368.344 199.286 362.74 202.707 359.451 199.316C357.319 197.118 353.654 197.692 352.297 200.437C350.202 204.671 343.82 203.127 343.892 198.403C343.938 195.342 340.941 193.157 338.041 194.137ZM360.358 175.447C362.916 179.637 361.593 185.108 357.402 187.666C353.211 190.225 347.741 188.901 345.182 184.711C342.624 180.52 343.948 175.049 348.138 172.491C352.329 169.933 357.8 171.256 360.358 175.447Z"/>
</mask>
<path fill-rule="evenodd" clip-rule="evenodd" d="M338.041 194.137C333.565 195.649 330.144 190.046 333.535 186.756C335.733 184.624 335.159 180.96 332.414 179.602C328.18 177.507 329.724 171.125 334.448 171.197C337.509 171.244 339.694 168.246 338.714 165.346C337.202 160.871 342.805 157.45 346.095 160.84C348.227 163.038 351.891 162.464 353.249 159.72C355.344 155.486 361.726 157.029 361.654 161.753C361.607 164.814 364.605 167 367.505 166.019C371.98 164.507 375.401 170.111 372.011 173.4C369.813 175.532 370.387 179.197 373.131 180.554C377.365 182.649 375.822 189.031 371.098 188.959C368.037 188.913 365.851 191.91 366.832 194.81C368.344 199.286 362.74 202.707 359.451 199.316C357.319 197.118 353.654 197.692 352.297 200.437C350.202 204.671 343.82 203.127 343.892 198.403C343.938 195.342 340.941 193.157 338.041 194.137ZM360.358 175.447C362.916 179.637 361.593 185.108 357.402 187.666C353.211 190.225 347.741 188.901 345.182 184.711C342.624 180.52 343.948 175.049 348.138 172.491C352.329 169.933 357.8 171.256 360.358 175.447Z" fill="#FF924D"/>
<path d="M333.535 186.756L334.458 187.707L334.458 187.707L333.535 186.756ZM338.041 194.137L338.465 195.392L338.465 195.392L338.041 194.137ZM332.414 179.602L333.002 178.414L332.414 179.602ZM334.448 171.197L334.427 172.522L334.448 171.197ZM338.714 165.346L337.459 165.77L337.459 165.77L338.714 165.346ZM346.095 160.84L345.144 161.763L345.144 161.763L346.095 160.84ZM353.249 159.72L352.061 159.132L352.061 159.132L353.249 159.72ZM361.654 161.753L362.979 161.773L361.654 161.753ZM367.505 166.019L367.081 164.764L367.505 166.019ZM372.011 173.4L372.933 174.351L372.011 173.4ZM373.131 180.554L373.719 179.367L373.131 180.554ZM371.098 188.959L371.078 190.284L371.098 188.959ZM366.832 194.81L368.087 194.386L366.832 194.81ZM359.451 199.316L360.402 198.393L359.451 199.316ZM352.297 200.437L351.109 199.849L352.297 200.437ZM343.892 198.403L342.567 198.383L343.892 198.403ZM334.458 187.707C332.081 190.013 334.479 193.942 337.616 192.882L338.465 195.392C332.652 197.357 328.208 190.078 332.612 185.805L334.458 187.707ZM333.002 178.414C336.567 180.178 337.312 184.938 334.458 187.707L332.612 185.805C334.153 184.311 333.751 181.742 331.827 180.79L333.002 178.414ZM334.427 172.522C331.116 172.472 330.034 176.946 333.002 178.414L331.827 180.79C326.327 178.068 328.332 169.779 334.468 169.872L334.427 172.522ZM339.969 164.922C341.243 168.689 338.404 172.582 334.427 172.522L334.468 169.872C336.614 169.905 338.146 167.804 337.459 165.77L339.969 164.922ZM345.144 161.763C342.838 159.386 338.909 161.784 339.969 164.922L337.459 165.77C335.494 159.957 342.773 155.513 347.046 159.918L345.144 161.763ZM354.437 160.308C352.673 163.872 347.913 164.617 345.144 161.763L347.046 159.918C348.54 161.458 351.109 161.056 352.061 159.132L354.437 160.308ZM360.329 161.733C360.379 158.421 355.905 157.339 354.437 160.308L352.061 159.132C354.783 153.632 363.072 155.638 362.979 161.773L360.329 161.733ZM367.929 167.275C364.162 168.548 360.269 165.709 360.329 161.733L362.979 161.773C362.946 163.919 365.047 165.451 367.081 164.764L367.929 167.275ZM371.088 172.449C373.465 170.143 371.067 166.214 367.929 167.275L367.081 164.764C372.894 162.799 377.338 170.079 372.933 174.351L371.088 172.449ZM372.543 181.742C368.979 179.978 368.234 175.218 371.088 172.449L372.933 174.351C371.393 175.846 371.795 178.415 373.719 179.367L372.543 181.742ZM371.118 187.634C374.43 187.685 375.512 183.211 372.543 181.742L373.719 179.367C379.219 182.088 377.213 190.377 371.078 190.284L371.118 187.634ZM365.576 195.235C364.303 191.467 367.142 187.574 371.118 187.634L371.078 190.284C368.932 190.252 367.4 192.353 368.087 194.386L365.576 195.235ZM360.402 198.393C362.708 200.77 366.637 198.372 365.576 195.235L368.087 194.386C370.052 200.199 362.772 204.643 358.5 200.239L360.402 198.393ZM351.109 199.849C352.873 196.284 357.633 195.539 360.402 198.393L358.5 200.239C357.005 198.698 354.436 199.1 353.484 201.024L351.109 199.849ZM345.217 198.424C345.166 201.735 349.64 202.817 351.109 199.849L353.484 201.024C350.763 206.524 342.474 204.519 342.567 198.383L345.217 198.424ZM337.616 192.882C341.384 191.608 345.277 194.447 345.217 198.424L342.567 198.383C342.599 196.237 340.498 194.705 338.465 195.392L337.616 192.882ZM356.712 186.535C360.278 184.359 361.404 179.703 359.227 176.137L361.489 174.756C364.428 179.572 362.908 185.858 358.092 188.797L356.712 186.535ZM346.313 184.02C348.49 187.586 353.146 188.712 356.712 186.535L358.092 188.797C353.277 191.737 346.991 190.216 344.051 185.401L346.313 184.02ZM348.829 173.622C345.263 175.799 344.137 180.454 346.313 184.02L344.051 185.401C341.112 180.586 342.633 174.299 347.448 171.36L348.829 173.622ZM359.227 176.137C357.05 172.571 352.395 171.445 348.829 173.622L347.448 171.36C352.263 168.421 358.549 169.941 361.489 174.756L359.227 176.137Z" fill="black" mask="url(#path-62-inside-5_6596_249899)"/>
<path d="M95.5082 270.672C94.234 272.139 90.6572 274.667 86.5433 273.039" stroke="black" stroke-width="1.3251" stroke-linecap="round"/>
<path d="M103.771 274.196C101.011 268.385 102.959 265.198 104.278 264.332C95.0921 268.594 96.7184 264.322 90.2537 263.932C80.5933 263.349 75.9001 269.714 74.7219 277.724C73.0218 289.281 81.8774 296.826 92.431 294.402C100.002 292.663 107.22 281.461 103.771 274.196Z" fill="#269767" stroke="black" stroke-width="1.3251" stroke-linecap="round"/>
<path d="M103.257 264.618C99.4289 267.113 89.7841 275.921 86.0199 284.634" stroke="black" stroke-width="1.3251" stroke-linecap="round"/>
<path d="M95.9809 270.562C94.1929 271.936 89.635 274.494 85.707 273.733" stroke="black" stroke-width="1.3251" stroke-linecap="round"/>
<path d="M98.5068 268.433C97.4627 270.432 95.7316 275.364 97.1607 279.101" stroke="black" stroke-width="1.3251" stroke-linecap="round"/>
<path d="M88.7632 279.588C87.6781 280.552 85.3302 282.254 83.2629 282.507" stroke="black" stroke-width="1.3251" stroke-linecap="round"/>
<path d="M92.5938 285.507C91.6491 284.07 90.252 279.947 92.2204 274.953" stroke="black" stroke-width="1.3251" stroke-linecap="round"/>
<path d="M125.844 257.796C97.9165 241.415 75.401 247.984 67.7689 253.969C58.2352 262.446 73.6268 247.905 90.2487 248.683C100.218 249.149 102.973 249.113 118.091 254.88C120.235 255.698 160.753 278.272 125.844 257.796Z" fill="#4E8B43" stroke="black" stroke-width="1.3251" stroke-linecap="round"/>
<path d="M130.95 262.538C114.984 257.022 104.14 262.691 100.85 266.535C96.8422 271.848 103.01 263.033 111.593 261.726C119.026 260.595 117.417 260.547 125.741 261.947C126.922 262.145 150.907 269.434 130.95 262.538Z" fill="#4E8B43" stroke="black" stroke-width="1.3251" stroke-linecap="round"/>
<path d="M88.2141 245.341C75.0678 239.673 72.1594 230.582 72.6351 226.642C73.618 221.49 71.6972 229.773 76.0325 235.198C79.7876 239.897 78.7872 239.043 84.698 242.82C85.5361 243.355 104.647 252.427 88.2141 245.341Z" fill="#4E8B43" stroke="black" stroke-width="1.3251" stroke-linecap="round"/>
<path d="M122.612 253.427C116.964 244.15 119.14 238.596 121.157 237.079C124.016 235.281 119.208 237.997 119.516 242.645C119.783 246.672 119.539 245.777 121.541 250.497C121.825 251.166 129.672 265.023 122.612 253.427Z" fill="#4E8B43" stroke="black" stroke-width="1.3251" stroke-linecap="round"/>
<path d="M73.8584 223.253C73.1725 221.229 72.7581 216.429 76.5875 213.426" stroke="black" stroke-width="1.3251" stroke-linecap="round"/>
<path d="M65.9223 229.142C72.9728 229.749 74.9167 233.367 75.0074 235.101C76.0605 224.012 79.2135 227.928 83.173 222.006C89.0898 213.157 85.6519 205.167 78.7003 199.601C68.67 191.57 56.59 195.79 53.0321 207.157C50.4796 215.311 57.1092 228.384 65.9223 229.142Z" fill="#269767" stroke="black" stroke-width="1.3251" stroke-linecap="round"/>
<path d="M74.6822 234.193C74.7687 228.625 71.9599 213.23 64.5379 204.365" stroke="black" stroke-width="1.3251" stroke-linecap="round"/>
<path d="M73.3544 224.36C73.0422 221.899 73.1437 216.151 76.0471 212.844" stroke="black" stroke-width="1.3251" stroke-linecap="round"/>
<path d="M73.9545 226.853C72.6363 224.752 68.9144 220.371 64.5725 219.653" stroke="black" stroke-width="1.3251" stroke-linecap="round"/>
<path d="M69.3453 212.248C69.0326 210.682 68.7197 207.508 69.6272 205.405" stroke="black" stroke-width="1.3251" stroke-linecap="round"/>
<path d="M61.3901 212.249C63.2792 212.15 67.9696 213.112 71.6183 217.754" stroke="black" stroke-width="1.3251" stroke-linecap="round"/>
<path d="M120.639 235.689C120.354 233.629 120.837 228.969 125.044 226.801" stroke="black" stroke-width="1.3251" stroke-linecap="round"/>
<path d="M111.98 239.862C118.603 241.732 119.798 245.544 119.567 247.217C122.603 236.817 124.898 241.134 129.764 236.202C137.036 228.832 135.214 220.57 129.592 213.982C121.48 204.475 109.169 206.295 103.69 216.502C99.7593 223.824 103.7 237.525 111.98 239.862Z" fill="#46D297" stroke="black" stroke-width="1.3251" stroke-linecap="round"/>
<path d="M120.058 246.192C120.693 241.017 120.235 226.056 115.76 216.192" stroke="black" stroke-width="1.3251" stroke-linecap="round"/>
<path d="M120.393 236.147C120.545 233.74 121.694 228.267 125.073 225.64" stroke="black" stroke-width="1.3251" stroke-linecap="round"/>
<path d="M120.332 239.68C119.458 237.432 116.704 232.565 112.688 231.085" stroke="black" stroke-width="1.3251" stroke-linecap="round"/>
<path d="M118.634 224.146C118.622 222.594 118.904 219.504 120.156 217.661" stroke="black" stroke-width="1.3251" stroke-linecap="round"/>
<path d="M110.742 222.896C112.564 223.147 116.869 224.925 119.505 230.026" stroke="black" stroke-width="1.3251" stroke-linecap="round"/>
<path d="M61.0539 253.425C58.5526 254.493 52.5042 255.487 48.321 250.922" stroke="black" stroke-width="1.3251" stroke-linecap="round"/>
<path d="M69.2995 262.914C69.3803 253.911 73.7813 251.091 75.9717 250.807C61.8014 250.554 66.4609 246.171 58.5618 241.726C46.7577 235.084 36.9573 240.226 30.5754 249.588C21.3671 263.097 27.9005 278.01 42.6675 281.414C53.2612 283.856 69.1984 274.169 69.2995 262.914Z" fill="#46D297" stroke="black" stroke-width="1.3251" stroke-linecap="round"/>
<path d="M74.51 250.542C68.1656 251.341 50.6379 256.53 40.5705 265.196" stroke="black" stroke-width="1.3251" stroke-linecap="round"/>
<path d="M61.7188 253.575C58.6277 254.211 51.3256 254.643 46.8465 251.283" stroke="black" stroke-width="1.3251" stroke-linecap="round"/>
<path d="M66.1959 252.439C63.6591 254.317 58.4639 259.466 57.9772 265.045" stroke="black" stroke-width="1.3251" stroke-linecap="round"/>
<path d="M47.1071 260.521C45.1517 261.071 41.1552 261.778 38.3981 260.832" stroke="black" stroke-width="1.3251" stroke-linecap="round"/>
<path d="M48.3125 270.314C48.0024 267.928 48.7651 261.883 54.2969 256.801" stroke="black" stroke-width="1.3251" stroke-linecap="round"/>
<path d="M209.648 310.2C199.87 289.242 186.869 261.474 165.014 234.787" stroke="black" stroke-width="1.3251" stroke-linecap="round"/>
<path d="M174.629 261.278C147.265 256.549 120.873 274.998 113.889 278.438C81.4345 294.429 101.403 324.9 110.134 324.539C118.032 324.213 131.559 313.27 142.091 315.227C161.608 318.854 210.157 327.418 228.147 323.656C246.136 319.895 290.761 299.76 295.137 288.259C299.513 276.758 281.858 288.259 260.921 295C228.147 305.554 180.67 294.984 176.896 293.209C173.121 291.435 160.869 280.491 175.371 279.226C189.872 277.961 223.066 286.263 234.46 280.779C246.545 274.962 208.833 267.189 174.629 261.278Z" fill="#FEE2CD" stroke="black" stroke-width="1.3251" stroke-linecap="round"/>
<path fill-rule="evenodd" clip-rule="evenodd" d="M248.666 315.916C238.545 315.758 225.967 316.022 217.771 316.194C214.275 316.268 211.576 316.324 210.206 316.324C194.639 316.324 174.515 310.177 158.752 305.361C149.941 302.669 142.493 300.394 137.965 299.841C130.451 298.923 112.135 301.803 97.2559 305.454C98.8874 315.6 106.432 323.785 110.948 323.597C114.167 323.463 118.329 321.538 122.84 319.452C129.312 316.458 136.504 313.132 142.664 314.286C162.034 317.912 210.217 326.476 228.071 322.714C233.251 321.623 240.657 319.153 248.666 315.916Z" fill="#EFCFB8"/>
</svg>
