<svg width="1441" height="456" viewBox="0 0 1441 456" fill="none" xmlns="http://www.w3.org/2000/svg">
<g clip-path="url(#clip0_6800_245917)">
<path d="M830.733 70.3375C506.812 131.199 260.048 73.352 89.9968 51.7182V547.485H1528.33V43.2068C1528.33 35.2273 1402.66 -37.1224 830.733 70.3375Z" fill="#004B35"/>
<path d="M697.936 70.3375C1021.86 131.199 1268.62 73.352 1438.67 51.7182V547.485H0.334229V43.2068C0.334229 35.2273 126.009 -37.1224 697.936 70.3375Z" fill="#085A38"/>
<path d="M741.07 583.791C417.149 522.93 170.386 580.777 0.334167 602.411V106.644H1438.67V610.922C1438.67 618.902 1313 691.251 741.07 583.791Z" fill="#085A38"/>
</g>
<path d="M664.596 88.5381C616.553 71.2691 606.203 24.7027 607.033 3.57812C611.995 17.9341 639.252 27.3335 659.005 28.9602C678.758 30.5869 662.491 28.263 718.728 32.446C774.966 36.6289 792.313 72.2832 795.648 76.8317C797.844 79.8261 809.034 110.841 816.53 131.806C819.301 138.479 821.792 145.666 823.302 150.498C824.172 153.28 821.011 144.339 816.53 131.806C815.036 128.21 813.462 124.763 811.915 121.915C807.5 113.781 796.345 106.577 778.684 101.929C761.023 97.2817 730.014 96.522 723.345 96.0964C716.676 95.6707 686.735 96.2871 664.596 88.5381Z" fill="#2DB97D"/>
<path d="M607.033 3.57812C606.203 24.7027 616.553 71.2692 664.596 88.5381C686.735 96.2871 716.676 95.6707 723.345 96.0964C730.014 96.522 761.023 97.2817 778.684 101.929C796.345 106.577 807.5 113.781 811.915 121.915C816.331 130.048 820.978 143.062 823.302 150.498C825.626 157.934 799.157 81.6161 795.648 76.8317C792.313 72.2833 774.966 36.6289 718.728 32.446C662.491 28.263 678.758 30.5869 659.005 28.9602C639.252 27.3335 611.995 17.9341 607.033 3.57812Z" stroke="black" stroke-width="1.5"/>
<path d="M663.093 36.9766C668.445 42.7841 686.87 54.8775 717.752 56.7905C748.635 58.7036 764.556 69.5646 771.045 74.5548C779.2 80.827 793.651 93.4883 795.3 95.3936C797.814 98.2982 808.623 111.108 813.064 124.431" stroke="black" stroke-width="1.5"/>
<path d="M704.863 77.833C708.327 72.5127 718.819 61.2039 733.073 58.5312" stroke="black" stroke-width="1.5"/>
<path d="M748.478 44.1533C752.251 52.3813 761.061 69.1714 766.109 70.5078" stroke="black" stroke-width="1.5"/>
<path d="M669.971 53.5195C679.56 53.7672 698.887 54.2995 699.48 54.4478" stroke="black" stroke-width="1.5"/>
<path d="M637.711 72.4408C691.955 115.232 765.056 76.6011 809.9 117.978C805.489 112.086 809.964 118.115 805.489 112.086C790.989 94.086 756.994 88.3788 730.988 88.3788C697.495 88.3788 662.988 77.3788 654.988 72.4408C633.988 58.8788 621.487 49.0254 607.487 6.02539C608.425 19.3105 607.724 14.2616 608.954 22.5182C612.954 37.5182 619.072 54.9989 637.711 72.4408Z" fill="#2CA671"/>
<defs>
<clipPath id="clip0_6800_245917">
<rect width="1440" height="444" fill="white" transform="translate(0.334167 12)"/>
</clipPath>
</defs>
</svg>
