<svg width="187" height="516" viewBox="0 0 187 516" fill="none" xmlns="http://www.w3.org/2000/svg">
<path d="M89.0737 210.114C110.422 196.925 152.901 203.153 172.332 209.168C178.783 214.598 131.99 252.87 113.5 259.66C92.4567 267.387 56.2818 267.014 48.9386 264.098C41.5953 261.183 59.8013 228.2 89.0737 210.114Z" fill="#2DB97D" stroke="black" stroke-width="1.5"/>
<path d="M170.466 210.284C146.397 215.815 92.0179 231.75 67.051 251.249" stroke="black" stroke-width="1.5" stroke-linecap="round"/>
<path d="M122.739 146.447C146.536 158.219 168.356 194.006 176.291 210.429C163.898 210.766 118.549 204.336 77.1985 188.539C31.3492 171.024 7.47827 147.144 1.9934 136.594C62.9806 113.542 92.9936 131.732 122.739 146.447Z" fill="#6DCBA3" stroke="black" stroke-width="1.5"/>
<path d="M174.613 209.591C147.637 186.883 81.2866 141.439 31.6866 141.325" stroke="black" stroke-width="1.5" stroke-linecap="round"/>
<path fill-rule="evenodd" clip-rule="evenodd" d="M3.2769 136.352C3.21571 136.375 3.1545 136.398 3.09326 136.421C8.57814 146.971 32.449 170.851 78.2984 188.367C117.842 203.473 161.043 210.014 175.581 210.261C138.135 202.237 45.0424 173.752 3.2769 136.352Z" fill="#52B089"/>
<path d="M178.765 237.483C180.971 227.81 176.738 215.132 174.345 210.002C171.183 206.482 153.748 227.579 150.706 231.822C147.665 236.065 142.415 247.388 142.415 254.142C142.415 259.34 145.219 279.533 147.425 280.89C149.632 282.247 160.52 273.11 165.931 265.986C173.074 256.583 176.008 249.574 178.765 237.483Z" fill="#6DCBA3" stroke="black" stroke-width="1.5"/>
<path fill-rule="evenodd" clip-rule="evenodd" d="M154.457 276.396C158.229 273.402 162.558 269.136 165.377 265.425C172.402 256.177 175.287 249.284 177.999 237.393C180.168 227.88 176.005 215.411 173.652 210.366C173.618 210.328 173.582 210.293 173.545 210.261C174.204 224.271 170.759 249.088 154.457 276.396Z" fill="#5ABB92"/>
<path d="M174.112 210.261C169.815 225.791 159.191 259.683 151.068 271.015" stroke="black" stroke-width="1.5" stroke-linecap="round"/>
<path d="M89.0737 210.114C110.422 196.925 152.901 203.153 172.332 209.168C178.783 214.598 131.99 252.87 113.5 259.66C92.4567 267.387 56.2818 267.014 48.9386 264.098C41.5953 261.183 59.8013 228.2 89.0737 210.114Z" fill="#2DB97D" stroke="black" stroke-width="1.5"/>
<path d="M170.466 210.284C146.397 215.815 92.0179 231.75 67.051 251.249" stroke="black" stroke-width="1.5" stroke-linecap="round"/>
<path d="M122.74 146.447C146.537 158.219 168.356 194.006 176.291 210.429C163.898 210.766 118.549 204.336 77.199 188.539C31.3497 171.024 7.47876 147.144 1.99389 136.594C62.9811 113.542 92.9941 131.732 122.74 146.447Z" fill="#6DCBA3" stroke="black" stroke-width="1.5"/>
<path d="M103.087 83.9996C129.568 99.658 156.551 157.26 166.01 182.563C171.333 196.801 176.926 216.775 176.978 208.982C177.03 201.188 168.836 178.648 153.637 145.492C138.438 112.336 120.401 92.9833 106.63 83.7613C92.8589 74.5392 69.9854 64.4265 103.087 83.9996Z" fill="#239061" stroke="black" stroke-width="1.5" stroke-linecap="round"/>
<path d="M145.233 82.2705C152.798 78.6994 168.257 82.9991 173.888 86.9023C174.245 87.2598 173.698 89.9111 168.658 97.6568C162.357 107.339 151.04 110.255 145.942 109.876C140.844 109.496 124.375 104.993 127.615 99.5267C130.856 94.06 135.776 86.7344 145.233 82.2705Z" fill="#46D297" stroke="black" stroke-width="1.5" stroke-linecap="round"/>
<path d="M89.7786 88.1177C98.6806 82.8098 109.864 89.5279 114.343 93.5505C115.37 94.7998 116.417 99.9855 112.389 110.733C107.354 124.168 90.0682 124.545 85.8074 124.545C78.8557 124.546 70.59 122.232 72.8057 117.898C75.0215 113.564 78.6512 94.7527 89.7786 88.1177Z" fill="#46D297" stroke="black" stroke-width="1.5" stroke-linecap="round"/>
<path d="M110.456 137.051C106.99 146.746 115.376 160.861 120.002 166.706C131.463 161.978 140.424 151.401 141.432 141.098C142.439 130.796 134.94 120.96 134.059 118.55C133.178 116.14 114.788 124.932 110.456 137.051Z" fill="#46D297" stroke="black" stroke-width="1.5" stroke-linecap="round"/>
<path d="M93.8413 78.4432C88.5925 81.1215 75.3518 83.4799 64.3793 71.4874C53.7768 59.8991 54.9158 47.0651 56.9651 41.5535C58.1781 36.0271 64.8889 35.4303 80.8975 41.3374C93.7045 46.0631 94.8629 68.0436 93.8413 78.4432Z" fill="#46D297"/>
<path d="M57.1825 41.0038C57.1092 41.1779 57.0366 41.3613 56.9651 41.5535M56.9651 41.5535C54.9158 47.0651 53.7768 59.8991 64.3793 71.4874C75.3518 83.4799 88.5925 81.1215 93.8413 78.4432C94.8629 68.0436 93.7045 46.0631 80.8975 41.3374C64.8889 35.4303 58.1781 36.0271 56.9651 41.5535Z" stroke="black" stroke-width="1.5" stroke-linecap="round"/>
<path d="M126.112 73.5956C121.792 82.1886 113.229 85.0715 108.617 85.0833C99.9325 75.5473 106.534 63.6904 111.972 58.2688C117.41 52.8472 128.601 52.5926 130.256 52.4315C131.91 52.2704 130.256 65.3514 126.112 73.5956Z" fill="#46D297" stroke="black" stroke-width="1.5" stroke-linecap="round"/>
<path d="M87.4391 76.9836C78.396 74.0716 70.5133 56.3835 67.7023 47.9035C72.9276 59.2886 84.8564 70.9307 90.1676 75.3287C93.0261 77.0936 96.4821 79.8956 87.4391 76.9836Z" fill="#269767"/>
<path d="M108.937 80.019C109.217 73.4441 119.578 64.9246 124.724 61.4868C118.082 67.0716 112.503 77.1803 110.544 81.5365C109.891 83.7702 108.656 86.5938 108.937 80.019Z" fill="#269767"/>
<path d="M132.399 98.2274C137.282 93.8156 150.622 95.2253 156.681 96.4816C148.042 95.6651 136.924 98.7786 132.445 100.437C130.395 101.539 127.516 102.639 132.399 98.2274Z" fill="#269767"/>
<path d="M166.84 114.906C174.405 111.335 189.863 115.634 195.495 119.538C195.852 119.895 195.305 122.546 190.264 130.292C183.964 139.974 172.647 142.891 167.549 142.511C162.451 142.131 145.981 137.629 149.222 132.162C152.463 126.695 157.383 119.37 166.84 114.906Z" fill="#46D297" stroke="black" stroke-width="1.5" stroke-linecap="round"/>
<path d="M154.869 130.255C159.752 125.843 173.091 127.253 179.151 128.509C170.512 127.693 159.394 130.806 154.914 132.465C152.865 133.567 149.986 134.667 154.869 130.255Z" fill="#269767"/>
<path d="M134.344 127.521C134.369 136.358 122.878 153.592 117.129 161.104C124.488 149.894 130.384 133.329 132.411 126.448C133.045 123.123 134.319 118.683 134.344 127.521Z" fill="#269767"/>
<path d="M110.996 101.833C106.857 109.776 89.1704 114.298 80.8445 115.567C92.2527 112.515 104.962 103.274 109.89 99.0353C111.983 96.6586 115.135 93.8908 110.996 101.833Z" fill="#269767"/>
<path d="M123.653 360.536C104.642 376.395 88.3429 373.783 82.6337 369.972C75.4528 364.433 85.7442 372.425 97.5002 369.972C107.683 367.847 106.057 368.671 116.5 362.5C117.981 361.625 147.418 340.712 123.653 360.536Z" fill="#4E8B43" stroke="black" stroke-width="1.5" stroke-linecap="round"/>
<path d="M167.36 368.645C168.781 371.691 170.256 379.12 164.789 384.473" stroke="black" stroke-width="1.5" stroke-linecap="round"/>
<path d="M178.743 358.075C167.62 358.342 163.958 353.022 163.518 350.329C163.784 367.84 158.181 362.264 153.014 372.201C145.293 387.05 152.043 398.944 163.866 406.444C180.926 417.265 199.077 408.587 202.678 390.211C205.261 377.028 192.647 357.74 178.743 358.075Z" fill="#269767" stroke="black" stroke-width="1.5" stroke-linecap="round"/>
<path d="M163.6 351.143C164.845 358.946 171.622 381.383 182.736 393.463" stroke="black" stroke-width="1.5" stroke-linecap="round"/>
<path d="M167.519 365.732C168.431 369.523 169.264 378.524 165.296 384.193" stroke="black" stroke-width="1.5" stroke-linecap="round"/>
<path d="M166.407 361.369C168.829 364.426 175.401 370.632 182.31 371.005" stroke="black" stroke-width="1.5" stroke-linecap="round"/>
<path d="M176.695 385.581C177.454 387.973 178.49 392.88 177.434 396.324" stroke="black" stroke-width="1.5" stroke-linecap="round"/>
<path d="M189.084 383.398C186.149 383.878 178.653 383.183 172.151 376.559" stroke="black" stroke-width="1.5" stroke-linecap="round"/>
<path d="M171.052 312.499C123.968 342.8 117.533 382.205 120.784 402.261C126.418 423.591 114.901 386.799 131.322 357.811C134.52 352.165 138.39 342.799 156.424 326.404C159.36 323.735 229.907 274.623 171.052 312.499Z" fill="#4E8B43" stroke="black" stroke-width="1.5" stroke-linecap="round"/>
<path d="M182.356 308.327C161.377 328.654 161.657 349.814 165.019 357.893C170.088 368.226 162.314 352.263 167 337.999C171.059 325.645 169.839 327.251 178.5 315.5C179.728 313.833 208.579 282.917 182.356 308.327Z" fill="#4E8B43" stroke="black" stroke-width="1.5" stroke-linecap="round"/>
<path d="M158 315.5C140.426 316.591 135.5 309.999 135.376 303.525C134.768 297.938 135.341 307.094 142.362 310.245C148.444 312.975 146.961 312.64 155.286 313.362C156.467 313.465 179.968 314.135 158 315.5Z" fill="#4E8B43" stroke="black" stroke-width="1.5" stroke-linecap="round"/>
<path d="M76.9331 368.547C73.2377 368.638 65.1001 366.852 62.1133 358.984" stroke="black" stroke-width="1.5" stroke-linecap="round"/>
<path d="M82.5704 384.677C87.2001 373.348 94.1751 372.001 97.0839 372.744C79.318 365.298 87.4054 362.108 79.6661 352.523C68.1009 338.2 53.1401 339.764 40.3735 348.377C21.9528 360.805 22.7036 382.921 39.6387 394.644C51.7878 403.055 76.7833 398.837 82.5704 384.677Z" fill="#269767" stroke="black" stroke-width="1.5" stroke-linecap="round"/>
<path d="M94.7562 372.298C86.3435 370.116 62.2158 367.232 45.1455 373.113" stroke="black" stroke-width="1.5" stroke-linecap="round"/>
<path d="M77.6993 369.89C73.4761 369.139 64.0381 366.014 60.072 359.518" stroke="black" stroke-width="1.5" stroke-linecap="round"/>
<path d="M83.3654 370.549C79.218 371.645 70.0684 375.534 66.6487 382.334" stroke="black" stroke-width="1.5" stroke-linecap="round"/>
<path d="M55.7506 370.496C53.0051 370.206 47.6031 369.089 44.5973 366.509" stroke="black" stroke-width="1.5" stroke-linecap="round"/>
<path d="M51.8423 383.757C52.651 380.587 56.6535 373.338 66.1943 369.703" stroke="black" stroke-width="1.5" stroke-linecap="round"/>
<path d="M127.266 303.975C123.753 303.208 116.476 299.643 115.47 291.52" stroke="black" stroke-width="1.5" stroke-linecap="round"/>
<path d="M128.871 320.516C135.86 310.881 142.424 310.126 145.001 311.499C129.933 300.365 138.647 300.307 133.547 289.465C125.925 273.264 111.428 271.289 97.3781 276.481C77.1057 283.972 72.7115 305.042 86.0071 320.027C95.5453 330.777 120.135 332.56 128.871 320.516Z" fill="#46D297" stroke="black" stroke-width="1.5" stroke-linecap="round"/>
<path d="M143.966 311.186C136.521 307.182 113.666 299.336 96.1799 300.953" stroke="black" stroke-width="1.5" stroke-linecap="round"/>
<path d="M127.889 305.033C124.072 303.349 115.876 298.218 113.628 291.166" stroke="black" stroke-width="1.5" stroke-linecap="round"/>
<path d="M133.56 306.856C129.389 306.934 119.846 308.498 115.046 314.133" stroke="black" stroke-width="1.5" stroke-linecap="round"/>
<path d="M106.804 300.928C104.277 300.021 99.4307 297.719 97.1862 294.587" stroke="black" stroke-width="1.5" stroke-linecap="round"/>
<path d="M100.595 312.4C102.09 309.592 107.545 303.667 117.398 302.433" stroke="black" stroke-width="1.5" stroke-linecap="round"/>
<path d="M121.574 429.849C122.409 434.477 121.752 445.057 112.443 450.348" stroke="black" stroke-width="1.5" stroke-linecap="round"/>
<path d="M140.753 419.61C125.606 416 121.876 407.424 122.242 403.622C116.349 427.412 111.433 417.936 100.893 429.538C85.1424 446.875 90.0296 465.38 103.351 479.75C122.571 500.484 150.232 495.223 161.666 471.642C169.869 454.725 159.687 424.122 140.753 419.61Z" fill="#46D297" stroke="black" stroke-width="1.5" stroke-linecap="round"/>
<path d="M121.908 406.054C120.807 417.057 122.793 448.607 133.519 468.921" stroke="black" stroke-width="1.5" stroke-linecap="round"/>
<path d="M122.614 429.29C122.494 434.746 120.406 447.223 113.014 453.477" stroke="black" stroke-width="1.5" stroke-linecap="round"/>
<path d="M121.899 420.8C124.086 425.801 130.762 436.545 139.978 439.517" stroke="black" stroke-width="1.5" stroke-linecap="round"/>
<path d="M128.158 456.099C128.33 459.607 127.98 466.617 125.322 470.9" stroke="black" stroke-width="1.5" stroke-linecap="round"/>
<path d="M145.568 459.25C141.425 458.852 131.53 455.235 125.097 443.949" stroke="black" stroke-width="1.5" stroke-linecap="round"/>
<path d="M174.613 209.591C147.638 186.883 81.2871 141.439 31.6871 141.325" stroke="black" stroke-width="1.5" stroke-linecap="round"/>
<path fill-rule="evenodd" clip-rule="evenodd" d="M3.2769 136.352C3.21571 136.375 3.1545 136.398 3.09326 136.421C8.57814 146.971 32.449 170.851 78.2984 188.367C117.842 203.473 161.043 210.014 175.581 210.261C138.135 202.237 45.0424 173.752 3.2769 136.352Z" fill="#52B089"/>
<path d="M178.765 237.483C180.971 227.81 176.738 215.132 174.345 210.002C171.183 206.482 153.748 227.579 150.706 231.822C147.665 236.065 142.415 247.388 142.415 254.142C142.415 259.34 145.219 279.533 147.425 280.89C149.632 282.247 160.52 273.11 165.931 265.986C173.074 256.583 176.008 249.574 178.765 237.483Z" fill="#6DCBA3" stroke="black" stroke-width="1.5"/>
<path fill-rule="evenodd" clip-rule="evenodd" d="M154.457 276.396C158.229 273.402 162.558 269.136 165.377 265.425C172.402 256.177 175.287 249.284 177.999 237.393C180.168 227.88 176.005 215.411 173.652 210.366C173.618 210.328 173.582 210.293 173.545 210.261C174.204 224.271 170.759 249.088 154.457 276.396Z" fill="#5ABB92"/>
<path d="M174.112 210.261C169.815 225.791 159.191 259.683 151.068 271.015" stroke="black" stroke-width="1.5" stroke-linecap="round"/>
</svg>
