<svg width="44" height="44" viewBox="0 0 44 44" fill="none" xmlns="http://www.w3.org/2000/svg">
<path d="M14.2879 20.9781C12.6854 22.2115 11.0347 20.8274 8.63699 21.5813C7.7273 21.9016 6.89739 22.4147 6.2039 23.0856C5.51042 23.7564 4.9697 24.5691 4.61868 25.4683C3.28426 29.087 6.50132 33.2847 8.55868 35.1784C13.6222 39.8375 21.7854 39.7893 27.6201 37.419C29.2015 36.7737 38.4641 33.0072 39.5124 23.7133C40.2383 17.272 36.6899 11.0841 31.5179 8.15293C25.9453 4.99865 17.9117 5.34846 15.3211 8.95207C14.5799 9.96129 14.1457 11.1635 14.0711 12.4139C14.0711 14.8716 15.9627 15.8125 15.6856 18.1978C15.6555 18.4813 15.4687 20.0674 14.2879 20.9781Z" fill="#F1CC83" stroke="#624426" stroke-width="0.383721" stroke-miterlimit="10"/>
<path d="M16.1963 35.9307C17.6798 35.9307 18.8823 34.7281 18.8823 33.2446C18.8823 31.7612 17.6798 30.5586 16.1963 30.5586C14.7128 30.5586 13.5103 31.7612 13.5103 33.2446C13.5103 34.7281 14.7128 35.9307 16.1963 35.9307Z" fill="#3C84C3" stroke="#624426" stroke-width="0.383721" stroke-miterlimit="10"/>
<path d="M26.5595 32.8604C28.2549 32.8604 29.6293 31.6578 29.6293 30.1743C29.6293 28.6908 28.2549 27.4883 26.5595 27.4883C24.8641 27.4883 23.4897 28.6908 23.4897 30.1743C23.4897 31.6578 24.8641 32.8604 26.5595 32.8604Z" fill="#FF3571" stroke="#624426" stroke-width="0.383721" stroke-miterlimit="10"/>
<path d="M31.9306 23.6513C33.626 23.6513 35.0004 22.2769 35.0004 20.5815C35.0004 18.8861 33.626 17.5117 31.9306 17.5117C30.2352 17.5117 28.8608 18.8861 28.8608 20.5815C28.8608 22.2769 30.2352 23.6513 31.9306 23.6513Z" fill="#FF7600" stroke="#624426" stroke-width="0.383721" stroke-miterlimit="10"/>
<path d="M25.0234 15.2098C26.7188 15.2098 28.0931 13.8355 28.0931 12.1401C28.0931 10.4447 26.7188 9.07031 25.0234 9.07031C23.328 9.07031 21.9536 10.4447 21.9536 12.1401C21.9536 13.8355 23.328 15.2098 25.0234 15.2098Z" fill="#5BA477" stroke="#624426" stroke-width="0.383721" stroke-miterlimit="10"/>
<path d="M39.513 23.636C38.5626 32.0785 30.7639 35.9456 28.8783 36.879C25.2966 38.6175 21.3026 39.3085 17.3506 38.8733C19.025 38.6818 20.4429 38.4233 21.5502 38.1832C22.9647 37.9097 24.352 37.5088 25.6954 36.9854C27.2431 36.356 36.309 32.6501 37.3016 23.4262C37.9864 17.0419 34.4898 10.8825 29.4093 7.95787C27.6552 6.96685 25.7378 6.30356 23.7495 6C26.5087 6.0711 29.21 6.81264 31.6237 8.16155C36.6077 11.0375 40.2431 17.1452 39.513 23.636Z" fill="#B48A61" fill-opacity="0.7"/>
<path d="M2.25433 7.58705C2.14144 7.65674 1.74335 7.93552 2.25433 9.99604C2.55141 11.2596 3.10101 12.8656 3.64466 14.4777C3.64466 14.4777 5.62618 20.3653 8.31474 23.4137C8.87989 24.0446 9.48527 24.6368 10.1269 25.1863L12.7442 23.5652C12.617 22.666 12.4284 21.777 12.1797 20.9047C11.3093 17.829 9.63377 15.4504 7.74138 12.6717C7.61957 12.4929 7.55125 12.3959 7.5156 12.3475C6.64086 11.097 5.63142 9.95047 4.50619 8.92943C3.65951 8.16886 2.70589 7.31433 2.25433 7.58705Z" fill="#904DFF" stroke="#624426" stroke-width="0.383721" stroke-miterlimit="10"/>
<path d="M7.37378 22.3434L11.8202 19.8125C11.9476 20.1623 12.063 20.5182 12.1692 20.8833C12.4233 21.76 12.616 22.6535 12.7459 23.5571L10.0598 25.1846C9.40382 24.6323 8.78531 24.0368 8.20843 23.402C7.91089 23.0649 7.63225 22.7115 7.37378 22.3434Z" fill="#6182BB" stroke="#624426" stroke-width="0.383721" stroke-miterlimit="10"/>
<path d="M10.618 24.394C9.52424 25.3848 9.66596 26.9183 9.69369 27.3085C9.93093 29.848 12.4974 31.162 12.7501 31.287C13.7552 31.6984 14.8144 31.9663 15.8958 32.0827C16.0745 32.0979 16.512 32.1254 16.5736 31.9547C16.6353 31.7839 16.2039 31.4974 15.9112 30.9608C15.7079 30.5352 15.6208 30.0643 15.6586 29.595C15.6586 28.2506 16.2378 27.9244 16.1115 26.7171C16.0777 26.3926 15.9979 26.0744 15.8743 25.772C15.6034 25.1173 15.1396 24.5585 14.5432 24.1684C13.4371 23.4825 11.7118 23.4063 10.618 24.394Z" fill="#C69C6D" stroke="#624426" stroke-width="0.383721" stroke-miterlimit="10"/>
<path d="M16.5724 31.9579C16.4999 32.1253 16.0831 32.0984 15.9079 32.0834C14.8479 31.9678 13.8097 31.7051 12.8237 31.3031C11.861 30.8084 11.0417 30.0788 10.4434 29.1833C10.9086 28.5674 11.5822 27.9006 12.3978 27.9036C12.8539 27.9036 13.0563 28.1159 13.4762 28.1787C14.0592 28.2654 14.911 28.0442 16.1072 26.7227C16.1072 26.7555 16.1072 26.7884 16.1072 26.8213C16.2311 28.0023 15.6541 28.3163 15.6632 29.6408C15.626 30.101 15.7114 30.5628 15.9109 30.9802C16.2099 31.5094 16.657 31.7665 16.5724 31.9579Z" fill="#0071BC" stroke="#624426" stroke-width="0.383721" stroke-miterlimit="10"/>
</svg>
