<svg width="289" height="121" viewBox="0 0 289 121" fill="none" xmlns="http://www.w3.org/2000/svg">
<g clip-path="url(#clip0_6458_217238)">
<path d="M103.122 73.0844C102.923 73.0844 102.726 73.0739 102.531 73.0573C101.44 72.9627 100.421 72.6099 99.5376 72.0599C97.6078 70.858 96.32 68.7178 96.32 66.2815C96.32 62.5308 99.371 59.4789 103.122 59.4789C106.872 59.4789 109.924 62.5308 109.924 66.2815C109.924 70.0325 106.872 73.0844 103.122 73.0844ZM86.2707 73.0964H81.3449L102.499 44.1199H107.424L106.294 45.6683L91.632 65.7524L86.2707 73.0964ZM78.5873 51.053C78.5873 47.3017 81.6395 44.2503 85.3896 44.2503C89.1407 44.2503 92.1931 47.3017 92.1931 51.053C92.1931 54.8031 89.1407 57.8545 85.3896 57.8545C81.6395 57.8545 78.5873 54.8031 78.5873 51.053ZM72.6749 107.541H49.069V34.475L40.2745 34.3925L40.2954 30.9916L40.3475 22.5597L47.3557 16.3179L51.738 12.4145H72.6749V107.541ZM120.919 58.5696C120.909 58.2412 120.897 57.9133 120.882 57.5863C120.873 57.4087 120.864 57.2313 120.854 57.0542C120.836 56.7465 120.817 56.4392 120.795 56.133C120.783 55.9559 120.77 55.7789 120.756 55.6023C120.73 55.2799 120.701 54.9583 120.67 54.6369C120.656 54.484 120.642 54.3307 120.627 54.1783C120.579 53.7241 120.528 53.2712 120.471 52.8203C120.469 52.8037 120.468 52.7872 120.466 52.7706C120.406 52.3053 120.341 51.8418 120.271 51.38C120.248 51.2271 120.222 51.0749 120.198 50.9222C120.149 50.6104 120.098 50.2991 120.043 49.9888C120.013 49.8131 119.98 49.6379 119.948 49.463C119.895 49.1728 119.839 48.8835 119.782 48.595C119.747 48.4184 119.712 48.2419 119.675 48.0661C119.612 47.767 119.547 47.4693 119.48 47.1718C119.445 47.0139 119.411 46.8559 119.374 46.6986C119.28 46.2969 119.183 45.8967 119.081 45.4983C119.064 45.43 119.047 45.3616 119.029 45.2933C118.921 44.873 118.807 44.4548 118.689 44.038C118.644 43.8766 118.596 43.7166 118.549 43.5561C118.467 43.2749 118.385 42.9945 118.299 42.7152C118.243 42.534 118.187 42.3537 118.129 42.1731C118.047 41.9133 117.963 41.654 117.877 41.3958C117.816 41.2128 117.755 41.0303 117.693 40.8481C117.602 40.5853 117.509 40.3236 117.416 40.0624C117.355 39.8919 117.295 39.721 117.232 39.551C117.112 39.2245 116.987 38.9001 116.862 38.5764C116.797 38.4109 116.733 38.2458 116.667 38.0812C116.531 37.7406 116.393 37.4013 116.251 37.064C116.177 36.8863 116.099 36.7101 116.023 36.5335C115.92 36.2957 115.817 36.0579 115.711 35.8214C115.626 35.6302 115.539 35.4396 115.451 35.2495C115.35 35.0285 115.247 34.8085 115.143 34.5891C115.051 34.3961 114.959 34.203 114.866 34.011C114.76 33.7943 114.652 33.5784 114.543 33.3629C114.449 33.1738 114.354 32.9846 114.258 32.7969C114.136 32.561 114.011 32.3272 113.886 32.0932C113.728 31.7954 113.567 31.4996 113.404 31.2048C113.276 30.9743 113.149 30.7438 113.018 30.5152C112.904 30.3158 112.787 30.1184 112.671 29.9207C112.562 29.7347 112.453 29.5489 112.342 29.3643C112.219 29.1601 112.095 28.9569 111.97 28.7544C111.862 28.5795 111.753 28.4051 111.643 28.2315C111.514 28.026 111.383 27.8207 111.251 27.6168C111.143 27.4516 111.034 27.2873 110.926 27.1232C110.788 26.9147 110.65 26.7059 110.509 26.4989C110.413 26.3579 110.315 26.2183 110.217 26.0781C109.909 25.6333 109.595 25.1924 109.275 24.7563C109.2 24.6533 109.126 24.5494 109.05 24.4472C108.886 24.2262 108.718 24.0076 108.551 23.7887C108.451 23.6586 108.352 23.5276 108.251 23.398C108.084 23.1824 107.914 22.9684 107.743 22.755C107.642 22.6278 107.54 22.5012 107.437 22.3751C107.261 22.1587 107.085 21.9433 106.906 21.7296C106.812 21.6168 106.717 21.5054 106.622 21.3934C106.431 21.168 106.24 20.9429 106.046 20.7206C105.998 20.6666 105.95 20.6134 105.903 20.5595C105.196 19.7565 104.469 18.9728 103.722 18.2083C103.647 18.1316 103.572 18.0543 103.497 17.9778C103.277 17.756 103.056 17.5363 102.833 17.318C102.749 17.2353 102.665 17.1529 102.58 17.071C102.354 16.8511 102.126 16.6328 101.896 16.4166C101.825 16.3499 101.754 16.284 101.683 16.2178C101.383 15.9391 101.08 15.6638 100.775 15.391C100.765 15.3818 100.755 15.3728 100.744 15.3636C100.446 15.0973 100.145 14.8345 99.8421 14.5742C99.3214 14.127 98.7937 13.6872 98.2576 13.2579C98.2153 13.224 98.1738 13.1901 98.1315 13.1562C97.8589 12.9392 97.5839 12.725 97.3076 12.5124C97.2469 12.4655 97.1861 12.4188 97.1251 12.3722C96.8461 12.1596 96.5657 11.9489 96.2828 11.7406C96.2413 11.71 96.1993 11.6799 96.1575 11.6492C95.7779 11.3715 95.3939 11.0993 95.0077 10.8302C94.9743 10.8069 94.941 10.7844 94.9079 10.7614C94.5329 10.5013 94.1548 10.2456 93.7741 9.99364C93.2648 9.6571 92.7517 9.32572 92.2319 9.0041C92.2248 8.99976 92.218 8.99541 92.211 8.99135C91.8875 8.79149 91.5618 8.59515 91.2345 8.40153C91.197 8.37929 91.1596 8.35732 91.1225 8.33508C90.7957 8.14281 90.467 7.95272 90.1362 7.76642C90.1199 7.75719 90.1036 7.74824 90.0871 7.73902C89.5846 7.45618 89.0761 7.18228 88.5647 6.91354C88.5354 6.89835 88.5058 6.88372 88.4765 6.86853C87.9789 6.60793 87.4769 6.35517 86.9715 6.1084C86.9706 6.10812 86.9701 6.10786 86.9696 6.10759C86.9701 6.10786 86.9706 6.10813 86.9709 6.10813C86.9706 6.10813 86.9701 6.10786 86.9696 6.10759C86.601 5.92752 86.2314 5.7499 85.8588 5.57716C85.4697 5.396 85.0789 5.21865 84.6851 5.04646C84.664 5.03696 84.6431 5.02802 84.6219 5.01879C84.1341 4.80592 83.6416 4.60197 83.1467 4.40211C82.9674 4.32971 82.7871 4.25893 82.607 4.18815C82.2941 4.0653 81.9795 3.9449 81.6641 3.82748C81.4453 3.74531 81.2267 3.6626 81.0065 3.58341C80.5704 3.42612 80.1322 3.27345 79.6918 3.12566C79.5155 3.06681 79.3387 3.00986 79.1619 2.95237C78.686 2.79698 78.2087 2.64512 77.7274 2.5022C77.7105 2.49705 77.6935 2.4919 77.6767 2.48701C77.313 2.37936 76.9477 2.2755 76.5813 2.17435H76.5816C76.5556 2.1673 76.5301 2.15943 76.5043 2.15238C76.5043 2.15292 76.5043 2.15347 76.5043 2.15401C71.3982 0.753075 66.0239 0.000534058 60.4731 0.000534058C51.6311 0.000534058 43.2353 1.90371 35.6647 5.31438C35.6622 5.31357 35.6598 5.31275 35.6576 5.31166C35.5513 5.35966 35.4464 5.40929 35.3403 5.45783C35.0569 5.58773 34.7744 5.71952 34.4929 5.85349C34.353 5.9202 34.213 5.98718 34.0736 6.05499C33.7219 6.22556 33.3718 6.39883 33.0242 6.57619C32.913 6.63314 32.8029 6.69171 32.692 6.7492C32.4227 6.88859 32.1545 7.03016 31.8876 7.17361C31.7512 7.24683 31.6145 7.32032 31.4787 7.39462C31.1386 7.58092 30.8005 7.76913 30.4645 7.96167C30.3481 8.02838 30.2326 8.09672 30.1168 8.16424C29.863 8.31176 29.6102 8.46119 29.3586 8.61251C29.2246 8.69278 29.0909 8.77332 28.9575 8.85495C28.6299 9.05535 28.3039 9.25819 27.9804 9.46484C27.8611 9.54104 27.7429 9.61887 27.6244 9.69588C27.3841 9.85154 27.1446 10.0088 26.9068 10.1683C26.7762 10.2553 26.6454 10.3424 26.5156 10.4308C26.2008 10.6448 25.8875 10.8614 25.577 11.0814C25.455 11.1676 25.3342 11.2557 25.2129 11.343C24.987 11.5052 24.7623 11.6693 24.5387 11.8347C24.4107 11.9294 24.2825 12.0237 24.1552 12.1194C23.854 12.3462 23.5548 12.5753 23.258 12.8074C23.1343 12.9043 23.0118 13.0024 22.8888 13.1003C22.6766 13.2687 22.4656 13.4385 22.2558 13.6101C22.1307 13.7121 22.0054 13.8138 21.8813 13.9169C21.594 14.155 21.3091 14.396 21.0264 14.6396C20.9017 14.7469 20.7783 14.8557 20.6543 14.9644C20.4561 15.138 20.2591 15.3129 20.0632 15.4889C19.9412 15.5987 19.8185 15.7077 19.6973 15.8187C19.4249 16.0676 19.1548 16.3193 18.8869 16.5731C18.7618 16.6916 18.6378 16.8117 18.5137 16.9313C18.3294 17.1089 18.1464 17.2877 17.9643 17.4677C17.845 17.5857 17.7252 17.7031 17.6068 17.8219C17.3492 18.0809 17.0941 18.3426 16.8411 18.6061C16.7171 18.7352 16.5944 18.8657 16.4715 18.9961C16.3006 19.1773 16.1307 19.36 15.962 19.5434C15.846 19.6695 15.7294 19.7947 15.6143 19.9219C15.3722 20.1896 15.1329 20.46 14.8955 20.732C14.7724 20.8732 14.6502 21.0156 14.5283 21.158C14.3722 21.3402 14.2174 21.5235 14.0636 21.7077C13.9345 21.862 13.8052 22.0163 13.6777 22.1719C13.4668 22.4293 13.2581 22.6885 13.0514 22.9497C12.9308 23.1018 12.8112 23.2553 12.692 23.4088C12.5487 23.5932 12.4069 23.7787 12.2656 23.9647C12.1158 24.1624 11.9669 24.3604 11.8196 24.5597C11.6495 24.7897 11.4808 25.0205 11.3142 25.2529C11.1959 25.4175 11.0789 25.5832 10.9624 25.7491C10.8339 25.9319 10.7067 26.116 10.5801 26.3007C10.4173 26.5377 10.2562 26.7758 10.0968 27.0155C9.95888 27.2227 9.82139 27.4305 9.68602 27.6395C9.57171 27.8161 9.45847 27.9934 9.34598 28.1713C9.23113 28.3525 9.11791 28.5347 9.00499 28.7175C8.83824 28.9871 8.67353 29.2582 8.51092 29.5308C8.39705 29.7217 8.28327 29.9129 8.1714 30.1051C8.06166 30.2939 7.95299 30.4834 7.84503 30.6735C7.74399 30.8517 7.64441 31.0307 7.54513 31.2099C7.38001 31.5082 7.2173 31.8076 7.057 32.1089C6.96179 32.2879 6.86677 32.4669 6.77324 32.6467C6.6691 32.8476 6.56592 33.0488 6.46379 33.2511C6.37652 33.4239 6.29091 33.5977 6.20522 33.7715C6.04443 34.0975 5.88658 34.4254 5.73159 34.7548C5.65249 34.923 5.57336 35.0908 5.49569 35.2598C5.39804 35.4727 5.30131 35.6858 5.20618 35.8998C5.13171 36.0666 5.05917 36.2344 4.98627 36.4023C4.83373 36.7532 4.68437 37.106 4.5385 37.4607C4.47241 37.621 4.4064 37.7812 4.34178 37.9421C4.25164 38.1661 4.16277 38.3906 4.07548 38.6157C4.01405 38.7741 3.9545 38.933 3.89444 39.0919C3.75187 39.4688 3.61278 39.8479 3.47749 40.2287C3.42306 40.3819 3.36861 40.5351 3.31543 40.6891C3.23397 40.9243 3.15356 41.1599 3.07497 41.3964C3.02676 41.5415 2.98025 41.6876 2.93301 41.8335C2.80176 42.239 2.67455 42.6463 2.55167 43.0555C2.50739 43.2025 2.46342 43.3492 2.42042 43.4967C2.3487 43.7424 2.27783 43.9884 2.20908 44.2354C2.17264 44.3661 2.13822 44.4974 2.10273 44.6284C1.98557 45.0612 1.87275 45.4959 1.76502 45.9325C1.72953 46.0765 1.69416 46.2202 1.65962 46.3645C1.59871 46.6194 1.53854 46.8743 1.48081 47.1306C1.45676 47.2374 1.4343 47.3451 1.41079 47.4522C1.30804 47.9208 1.21047 48.3913 1.11853 48.8637C1.0913 49.0042 1.06408 49.1446 1.0378 49.2857C0.988547 49.549 0.939927 49.8126 0.89395 50.0772C0.882086 50.1464 0.871282 50.2158 0.859523 50.285C0.771918 50.8016 0.690989 51.3206 0.616413 51.8418C0.596709 51.9801 0.577113 52.1187 0.558255 52.2573C0.521605 52.5276 0.485375 52.7983 0.45222 53.0697C0.452854 53.0711 0.453597 53.0722 0.454232 53.0735C0.157202 55.5004 0 57.9703 0 60.4777C0 83.0865 12.4108 102.795 30.7888 113.171C30.7888 113.172 30.7891 113.172 30.7891 113.173C30.8983 113.234 31.0085 113.294 31.118 113.355C31.48 113.556 31.8442 113.754 32.2109 113.949C32.3584 114.026 32.5054 114.105 32.6535 114.182C32.8734 114.296 33.0944 114.408 33.316 114.52C33.4567 114.591 33.598 114.661 33.7395 114.731C34.1927 114.954 34.6485 115.172 35.1079 115.385C35.1776 115.417 35.247 115.45 35.317 115.482C35.5665 115.597 35.8176 115.708 36.069 115.819C36.1802 115.869 36.2914 115.917 36.4028 115.965C37.2416 116.33 38.0901 116.675 38.9482 117.002C39.0122 117.027 39.0759 117.051 39.1399 117.075C40.0673 117.425 41.0054 117.752 41.9537 118.057C41.9577 118.059 41.9615 118.06 41.9656 118.061C43.2676 118.479 44.5888 118.854 45.9273 119.185C45.9287 119.185 45.93 119.186 45.9314 119.186C50.5898 120.336 55.4594 120.95 60.4731 120.95C76.9651 120.95 91.9121 114.348 102.822 103.644C102.822 103.644 102.822 103.644 102.822 103.645C102.825 103.641 102.829 103.637 102.832 103.634C105.971 100.553 108.776 97.1327 111.187 93.4321C111.19 93.4272 111.193 93.4224 111.197 93.4175C111.459 93.0142 111.717 92.6077 111.97 92.1982C111.976 92.1874 111.983 92.1771 111.989 92.1662C112.238 91.7633 112.481 91.3568 112.721 90.9475C112.731 90.9296 112.742 90.9117 112.753 90.8936C112.988 90.4911 113.218 90.0852 113.443 89.6768C113.457 89.6518 113.471 89.6271 113.485 89.6022C113.706 89.2008 113.922 88.796 114.135 88.3889C114.152 88.3564 114.169 88.3241 114.186 88.2913C114.394 87.8918 114.596 87.4891 114.795 87.0843C114.815 87.0436 114.836 87.0029 114.856 86.9617C115.049 86.5652 115.237 86.1658 115.423 85.7644C115.446 85.7142 115.47 85.6641 115.493 85.6136C115.673 85.2204 115.848 84.8242 116.02 84.4269C116.045 84.3673 116.072 84.3082 116.098 84.2485C116.264 83.8599 116.425 83.4678 116.584 83.0748C116.612 83.0048 116.641 82.936 116.669 82.8663C116.822 82.4831 116.97 82.0969 117.115 81.7099C117.145 81.6286 117.177 81.5483 117.207 81.467C117.348 81.0884 117.482 80.7074 117.615 80.3253C117.647 80.2344 117.68 80.1444 117.711 80.0536C117.838 79.6804 117.96 79.3046 118.081 78.9282C118.114 78.8265 118.148 78.7256 118.18 78.6236C118.295 78.2567 118.405 77.8868 118.514 77.5169C118.547 77.4041 118.582 77.2924 118.614 77.1796C118.718 76.8192 118.815 76.4563 118.912 76.0932C118.945 75.969 118.98 75.8456 119.013 75.7211C119.105 75.367 119.191 75.0106 119.277 74.654C119.309 74.519 119.344 74.3848 119.375 74.2492C119.456 73.9026 119.531 73.5536 119.606 73.2046C119.637 73.0576 119.671 72.9114 119.702 72.7642C119.772 72.4238 119.836 72.0813 119.901 71.7391C119.931 71.5813 119.963 71.4248 119.991 71.2667C120.052 70.9312 120.106 70.5936 120.161 70.2563C120.188 70.0897 120.218 69.9246 120.243 69.7581C120.294 69.4264 120.339 69.0929 120.385 68.7593C120.409 68.5852 120.435 68.4119 120.458 68.237C120.5 67.91 120.536 67.5808 120.572 67.2521C120.592 67.0699 120.616 66.8882 120.635 66.7048C120.668 66.3789 120.695 66.0507 120.723 65.7232C120.739 65.536 120.758 65.3503 120.773 65.1626C120.798 64.8285 120.817 64.4923 120.837 64.1563C120.848 63.9743 120.863 63.7931 120.872 63.6106C120.891 63.2481 120.902 62.8833 120.914 62.5189C120.919 62.3618 120.928 62.2059 120.932 62.0489C120.945 61.5266 120.952 61.0029 120.952 60.4777C120.952 59.9941 120.945 59.5122 120.934 59.0317C120.93 58.8774 120.924 58.7236 120.919 58.5696Z" fill="white"/>
<path d="M103.122 63.2784C101.466 63.2784 100.119 64.6254 100.119 66.2815C100.119 67.9365 101.466 69.2835 103.122 69.2835C104.779 69.2835 106.125 67.9365 106.125 66.2815C106.125 64.6254 104.779 63.2784 103.122 63.2784Z" fill="white"/>
<path d="M139.3 48.4553H151.084V42.7236H139.3V38.4877H152.331V32.4354H132.394V57.3547H139.3V48.4553Z" fill="white"/>
<path d="M161.872 44.8234C161.872 41.2283 164.398 38.1666 168.173 38.1666C171.982 38.1666 174.579 41.2988 174.579 44.8955V44.9668C174.579 48.5614 172.052 51.623 168.243 51.623C164.47 51.623 161.872 48.4906 161.872 44.8955V44.8234ZM168.173 57.8529C175.862 57.8529 181.63 52.0504 181.63 44.8955V44.8234C181.63 37.6671 175.931 31.9365 168.243 31.9365C160.554 31.9365 154.786 37.7403 154.786 44.8955V44.9668C154.786 52.1209 160.482 57.8529 168.173 57.8529Z" fill="white"/>
<path d="M192.308 38.4153H196.83C199.144 38.4153 200.568 39.4122 200.568 41.3701V41.4417C200.568 43.2576 199.216 44.3968 196.867 44.3968H192.308V38.4153ZM192.308 49.8077H195.334L200.354 57.3547H208.329L202.384 48.6685C205.481 47.3513 207.511 44.8234 207.511 41.0149V40.943C207.511 38.4877 206.762 36.5645 205.303 35.1405C203.629 33.4318 200.996 32.4354 197.186 32.4354H185.402V57.3547H192.308V49.8077Z" fill="white"/>
<path d="M216.445 38.4877H223.922V57.3547H230.829V38.4877H238.305V32.4354H216.445V38.4877Z" fill="white"/>
<path d="M257.279 41.7609H248.415V32.4354H241.508V57.3547H248.415V47.8845H257.279V57.3547H264.186V32.4354H257.279V41.7609Z" fill="white"/>
<path d="M275.615 51.4804V47.5287H287.577V42.0822H275.615V38.3085H288.821V32.4354H268.777V57.3547H289V51.4804H275.615Z" fill="white"/>
<path d="M88.3929 51.053C88.3929 49.3974 87.0459 48.0499 85.3896 48.0499C83.734 48.0499 82.3865 49.3974 82.3865 51.053C82.3865 52.7075 83.734 54.0547 85.3896 54.0547C87.0459 54.0547 88.3929 52.7075 88.3929 51.053Z" fill="white"/>
<path d="M147.361 72.1198C147.361 74.2183 145.759 75.5907 143.128 75.5907H139.62V68.5353H143.09C145.759 68.5353 147.361 69.7562 147.361 72.0453V72.1198ZM143.662 62.3195H132.221V89.0143H139.62V81.3873H143.28C149.917 81.3873 154.761 78.0704 154.761 71.7762V71.7006C154.761 65.7891 150.412 62.3195 143.662 62.3195Z" fill="white"/>
<path d="M165.286 62.3195H157.885V89.0143H178.213V82.5311H165.286V62.3195Z" fill="white"/>
<path d="M191.102 78.4883L194.116 70.9003L197.091 78.4883H191.102ZM190.607 62.1292L179.243 89.0143H187.023L188.929 84.2482H199.226L201.172 89.0143H209.103L197.74 62.1292H190.607Z" fill="white"/>
<path d="M229.585 76.4303L218.6 62.3195H211.697V89.0143H219.019V74.3709L230.422 89.0143H236.905V62.3195H229.585V76.4303Z" fill="white"/>
<path d="M248.957 78.4883H261.768V72.6538H248.957V68.6124H263.104V62.3195H241.633V89.0143H263.296V82.7217H248.957V78.4883Z" fill="white"/>
<path d="M265.583 68.8016H273.591V89.0143H280.992V68.8016H289V62.3195H265.583V68.8016Z" fill="white"/>
<path d="M286.937 86.6579C286.937 87.7283 286.091 88.6221 284.995 88.6221C283.889 88.6221 283.056 87.7405 283.056 86.6701V86.6579C283.056 85.5865 283.899 84.6926 284.995 84.6926C286.104 84.6926 286.937 85.5743 286.937 86.6449V86.6579ZM284.995 84.3138C283.696 84.3138 282.666 85.385 282.666 86.6579V86.6709C282.666 87.9436 283.682 89.002 284.995 89.002C286.297 89.002 287.327 87.9298 287.327 86.6579V86.6441C287.327 85.372 286.308 84.3138 284.995 84.3138Z" fill="white"/>
<path d="M285.109 86.5695H284.694V86.015H285.109C285.337 86.015 285.461 86.1161 285.461 86.2921C285.461 86.4559 285.337 86.5695 285.109 86.5695ZM286.118 86.242C286.118 85.7001 285.714 85.4609 285.147 85.4609H284.038V87.7787H284.694V87.0859H284.97L285.437 87.7787H286.194L285.638 86.9725C285.928 86.8592 286.118 86.607 286.118 86.242Z" fill="white"/>
</g>
<defs>
<clipPath id="clip0_6458_217238">
<rect width="289" height="120.95" fill="white"/>
</clipPath>
</defs>
</svg>
