<svg width="34" height="34" viewBox="0 0 34 34" fill="none" xmlns="http://www.w3.org/2000/svg">
<path d="M32.9414 17.0006C32.9414 26.0441 25.6101 33.3753 16.5664 33.3753C7.52274 33.3753 0.191406 26.0441 0.191406 17.0006C0.191406 7.95716 7.52274 0.625977 16.5664 0.625977C25.6101 0.625977 32.9414 7.95716 32.9414 17.0006Z" fill="#00A2E6" stroke="black" stroke-width="0.25"/>
<path d="M10.152 9.08097C10.0545 8.98986 10.5145 8.95056 10.7567 8.9423C11.025 8.92473 10.8297 9.17042 10.6908 9.27639C10.552 9.38237 10.274 9.19487 10.152 9.08097Z" fill="#6FDCAE" stroke="black" stroke-width="0.19"/>
<path d="M5.23755 18.0321C5.35472 17.5523 5.0372 17.2908 4.86379 17.22C4.61224 17.0282 5.35895 17.0534 5.5429 17.0417C5.72684 17.0299 5.77772 16.7949 5.87947 16.7088C5.98123 16.6227 6.01254 16.924 6.21213 16.9592C6.41173 16.9945 6.44479 16.8465 6.54723 16.744C6.64967 16.6416 7.38135 16.9489 8.58864 17.4611C9.79593 17.9733 9.96421 18.5659 9.96421 18.8439C9.96421 19.122 10.1691 19.1732 10.4105 19.3268C10.652 19.4805 10.8422 19.1805 10.9813 19.3268C11.1203 19.4732 11.2666 19.5829 11.5373 19.5829C11.8081 19.5829 12.7519 19.9122 12.9056 20.139C13.0593 20.3658 12.2032 21.5292 12.2032 22.0194C12.2032 22.5096 12.0715 23.2706 11.7349 23.5193C11.3983 23.7681 10.6813 23.8852 10.6374 24.3973C10.5935 24.9095 10.1764 25.4729 10.0301 25.6924C9.88373 25.9119 9.32764 25.9192 9.27643 26.1241C9.22521 26.329 9.40081 26.1314 8.70571 27.0533C8.01061 27.9752 8.91058 29.6288 8.98375 29.9361C9.05692 30.2434 8.69108 29.6946 8.15694 29.3215C7.62281 28.9483 7.52769 28.5679 7.51306 28.3484C7.49849 28.1298 7.20829 27.244 7.06855 26.8174L7.06673 26.8119C6.92771 26.3875 6.90576 26.2046 6.92039 25.8168C6.93502 25.429 6.96429 24.9754 6.96429 24.0388C6.96429 23.1023 6.7082 22.6925 6.36431 22.4877C6.02041 22.2828 5.83749 22.1584 5.75701 21.8292C5.67652 21.4999 5.15051 20.8414 4.86515 20.5195C4.5798 20.1975 4.54232 19.9854 4.54964 19.4C4.55695 18.8147 5.09109 18.6318 5.23755 18.0321Z" fill="#6FDCAE" stroke="black" stroke-width="0.19"/>
<path d="M27.8141 22.4451C27.8511 22.2504 28.3905 21.8963 28.6556 21.7436C29.2056 21.519 28.33 23.7267 28.2177 23.9325C28.1055 24.1383 27.9923 23.998 27.6462 23.8296C27.3001 23.6612 27.7678 22.6884 27.8141 22.4451Z" fill="#6FDCAE" stroke="black" stroke-width="0.19"/>
<path d="M12.422 3.25949C13.5409 2.80089 9.85227 3.25973 10.1281 3.91178C10.2224 4.1347 11.3031 3.7181 12.422 3.25949Z" fill="#6FDCAE"/>
<path d="M13.0408 5.40972C13.4861 4.54809 12.589 4.05031 12.0847 3.90913C11.6039 3.70477 13.7552 3.42713 14.5544 3.52868C15.3536 3.63023 15.5125 3.36532 16.6694 3.25935C17.8262 3.15338 17.6032 3.31615 17.7968 3.60659C17.9904 3.89702 17.2885 4.00594 16.986 4.35688C16.6834 4.70783 16.7318 5.03457 16.4414 5.09508C16.151 5.15559 15.0376 5.78487 14.3599 5.95429C13.6822 6.12372 13.6096 6.68039 13.2707 6.68039C12.9319 6.68039 12.4841 6.48676 13.0408 5.40972Z" fill="#6FDCAE"/>
<path d="M12.422 3.25949C13.5409 2.80089 9.85227 3.25973 10.1281 3.91178C10.2224 4.1347 11.3031 3.7181 12.422 3.25949Z" stroke="black" stroke-width="0.19"/>
<path d="M13.0408 5.40972C13.4861 4.54809 12.589 4.05031 12.0847 3.90913C11.6039 3.70477 13.7552 3.42713 14.5544 3.52868C15.3536 3.63023 15.5125 3.36532 16.6694 3.25935C17.8262 3.15338 17.6032 3.31615 17.7968 3.60659C17.9904 3.89702 17.2885 4.00594 16.986 4.35688C16.6834 4.70783 16.7318 5.03457 16.4414 5.09508C16.151 5.15559 15.0376 5.78487 14.3599 5.95429C13.6822 6.12372 13.6096 6.68039 13.2707 6.68039C12.9319 6.68039 12.4841 6.48676 13.0408 5.40972Z" stroke="black" stroke-width="0.19"/>
<path d="M16.9713 6.18937C16.486 6.04696 17.8749 5.7416 17.8845 5.889C17.8964 6.07326 17.4566 6.33179 16.9713 6.18937Z" fill="#6FDCAE" stroke="black" stroke-width="0.19"/>
<path d="M18.6594 8.31356C18.8086 7.96863 19.2832 7.71957 19.2166 8.18137C19.1501 8.64317 19.4143 9.12988 19.6007 8.56648C19.7872 8.00309 19.4252 7.23665 19.2595 7.28221C19.0938 7.32778 19.2056 7.709 18.7582 7.77528C18.3108 7.84156 18.2864 8.17711 18.274 8.40081C18.2615 8.62451 18.4728 8.74472 18.6594 8.31356Z" fill="#6FDCAE" stroke="black" stroke-width="0.19"/>
<path d="M8.9469 4.53688C9.06918 4.41971 8.92871 4.22259 8.84319 4.13867C9.0578 4.22868 9.74165 4.20618 9.60706 4.34076C9.47247 4.47535 9.46635 4.59158 9.63765 4.75675C9.80894 4.92193 10.6217 4.92908 10.7876 5.27343C11.0615 5.84177 10.5512 5.91666 10.3493 6.07571C10.1474 6.23477 9.61929 6.37789 9.60706 6.19437C9.59482 6.01084 10.0047 5.86402 10.1087 5.58873C10.2127 5.31345 9.9007 5.20333 9.39906 5.08098C8.89741 4.95863 8.50041 4.92193 8.45147 4.75675C8.40253 4.59158 8.79406 4.68334 8.9469 4.53688Z" fill="#6FDCAE" stroke="black" stroke-width="0.19"/>
<path d="M6.60729 5.59843C5.88231 5.8694 5.08403 5.94966 4.42217 5.98251C3.74519 6.55145 2.15072 8.8947 1.64853 10.0246C1.14634 11.1545 1.02912 11.7057 0.867703 12.0512C0.706286 12.3968 0.235779 14.5498 0.405402 14.7896C0.97863 15.5999 2.49264 15.8378 2.70629 15.9754C3.0134 16.1732 3.57201 16.5016 3.82248 16.8382C4.1257 17.2457 4.44035 17.2002 4.62399 17.173C5.02482 17.1136 4.4939 17.1039 4.25908 16.9591C4.02426 16.8143 4.04085 16.3511 4.04085 16.1241C4.04085 15.8972 3.95084 15.8619 3.52816 15.8189C3.10549 15.7758 3.18767 15.3414 3.25812 15.1653C3.32857 14.9892 3.23464 14.9305 3.13288 14.9422C3.03113 14.954 3.16028 15.0244 2.80022 15.2436C2.44017 15.4627 2.18185 15.3414 1.92746 15.1301C1.67307 14.9188 1.69655 14.0773 1.78657 13.6703C1.87658 13.2633 2.48711 12.9072 2.77672 12.8093C3.06633 12.7115 3.1133 13.0207 3.3442 13.095C3.57511 13.1694 3.34812 13.0089 3.61816 12.7859C3.8882 12.5628 4.10737 12.7937 4.47133 12.9072C4.83531 13.0207 4.69833 13.2985 4.72572 13.4825C4.75312 13.6664 5.0349 13.5568 4.95271 13.2985C4.87053 13.0402 4.92923 12.7546 5.0349 12.4258C5.14057 12.0971 6.04071 11.8388 6.16203 11.7057C6.28336 11.5727 6.28163 11.2305 6.31727 11.0879C6.35292 10.9454 8.2167 9.7372 8.47892 9.56108C8.74113 9.38497 8.76461 9.44368 8.84289 9.69806C8.92116 9.95244 8.97204 9.84286 9.19903 9.7372C9.42602 9.63153 9.35166 9.61196 9.19903 9.56108C9.0464 9.51021 8.92507 9.28713 8.89376 9.09928C8.86245 8.91143 8.97125 8.71184 9.14737 8.66488C9.32348 8.61791 11.0384 8.29309 10.698 8.10915C10.3575 7.92521 10.3418 7.57299 10.3144 7.3734C10.287 7.17381 10.2401 7.12293 10.0052 7.11902C9.77042 7.1151 9.7352 7.18163 9.29296 6.79419C8.85071 6.40675 8.51128 6.80894 8.32175 6.98883C8.13221 7.16872 7.19524 8.65314 6.91346 8.66488C6.63167 8.67662 6.75548 8.33496 6.74796 8.10915C6.74043 7.88334 6.39618 7.90918 5.96714 7.67585C5.5381 7.44251 5.50046 7.14144 5.62842 6.88552C5.75638 6.62961 6.93813 6.03443 7.44997 5.8694C7.96181 5.70436 8.30052 5.72639 8.51128 5.59843C8.72203 5.47047 8.30805 5.44789 8.02955 5.44036C7.75105 5.43284 7.58284 5.16357 7.58284 4.85913C7.58284 4.44254 7.32239 4.29304 7.29981 4.58659C7.27722 4.88014 7.02381 5.44275 6.60729 5.59843Z" fill="#6FDCAE" stroke="black" stroke-width="0.19"/>
<path d="M25.3694 5.64509C24.8071 5.61027 24.9128 6.05463 24.9956 6.13624C25.3921 6.42349 25.9288 5.93824 26.1571 5.78607C26.3853 5.63389 26.4199 5.77915 26.9318 5.78607C27.4437 5.79299 28.0589 5.45712 28.218 5.48479C28.3771 5.51246 29.9349 7.43121 30.698 8.61074C31.3198 9.57198 31.993 11.4272 32.1358 11.8036C32.2619 12.1361 32.8704 14.3366 32.7047 14.3412C32.539 14.3458 31.9993 13.9432 31.7507 13.8189C31.5021 13.6946 31.1799 13.6946 30.6413 13.6854C30.1027 13.6762 29.3892 13.1745 28.6987 12.9075C28.0082 12.6405 28.1417 13.1054 28.1417 13.2942C28.1417 13.4829 28.2752 13.7683 28.6987 13.9892C29.1222 14.2102 28.9335 14.0675 29.5411 13.9892C30.1488 13.911 30.3927 14.5646 30.3007 14.6705C30.2086 14.7764 28.5192 16.1067 28.1786 16.0607C27.8379 16.0147 27.5939 15.1262 27.3131 14.5646C27.0323 14.0031 26.5536 13.8235 26.4569 13.7223C26.3603 13.621 26.3372 13.3172 26.1025 13.1054C25.8677 12.8937 25.679 13.2021 25.7066 13.3678C25.7342 13.5335 26.5996 15.1078 27.0415 16.0239C27.4835 16.9399 27.6584 16.9399 27.8287 16.9537C27.999 16.9675 28.4502 16.7097 28.731 17.147C29.0118 17.5843 28.1141 18.4083 27.6584 18.6661C27.2027 18.9239 26.8068 20.1529 26.8022 20.5258C26.7976 20.8986 27.0277 21.6674 27.0277 21.8101C27.0277 21.9528 26.6273 22.1829 26.2774 22.4085C25.9276 22.634 25.5363 23.8815 25.4672 24.1347C25.3982 24.3879 24.7123 25.7964 24.5558 25.8056C24.3993 25.8149 23.9619 25.9299 23.497 25.9253C23.0321 25.9207 23.1748 25.6952 22.8894 25.3591C22.604 25.0231 22.3922 24.5812 22.4751 24.3879C22.5579 24.1945 22.429 24.0748 22.1759 23.2831C21.9227 22.4913 21.7063 22.5236 22.0148 21.7456C22.3232 20.9677 21.8674 20.1345 21.6143 19.6282C21.3611 19.1218 21.4854 19.2323 21.5636 18.551C21.6419 17.8697 20.8731 17.9756 20.7028 17.7823C20.5325 17.5889 20.1688 17.4094 19.0088 17.7823C17.8488 18.1551 17.5864 17.658 17.4667 17.5107C17.347 17.3634 17.5588 17.078 17.1353 16.765C16.7118 16.452 16.5605 16.1389 16.5605 15.9456C16.5605 15.7523 16.8547 15.674 16.689 15.2597C16.5233 14.8454 16.6066 14.2885 16.9933 13.9294C17.38 13.5704 17.785 12.8672 18.1698 12.2474C18.607 11.5432 18.6233 12.0265 19.6419 11.8397C20.2866 11.7215 21.0576 11.3682 21.2823 11.701C21.6209 12.2026 22.0997 12.5954 22.5962 12.7439C23.0928 12.8925 23.288 12.3577 23.3941 12.4171C23.5002 12.4766 25.5543 12.7524 25.9532 12.6039C26.3521 12.4553 26.1951 11.1482 25.6689 11.4495C25.1426 11.7509 24.8328 11.4623 24.6546 11.3307C24.4763 11.1992 24.2259 10.6347 24.001 10.6347C23.7761 10.6347 23.4705 11.3986 23.288 10.7875C23.1055 10.1764 22.4562 10.1 22.3161 9.89628C22.1761 9.69258 21.8917 9.73077 21.7347 9.89628C21.5777 10.0618 22.227 10.6347 22.1591 10.7875C22.0912 10.9403 21.5352 10.0957 21.3358 9.93448C21.1363 9.77321 20.992 9.95994 20.8138 9.99814C20.6355 10.0363 20.156 10.1679 19.8292 10.6347C19.5024 11.1015 19.252 11.1694 18.7143 11.301C18.1766 11.4326 18.2298 11.1694 18.2085 10.9063C18.1873 10.6432 18.3748 10.1849 18.7143 10.2358C19.0538 10.2867 19.5167 10.0618 19.4954 9.76048C19.4742 9.45916 19.2628 9.2597 19.3689 9.21726C19.475 9.17483 19.8104 9.10268 20.2815 8.76741C20.7525 8.43215 20.6337 7.63854 21.508 7.99079C22.3822 8.34303 22.7133 8.02049 22.9509 7.93137C23.1886 7.84225 23.3668 7.35421 23.5196 7.34572C23.6724 7.33723 24.292 7.17172 24.3047 6.96377C24.3175 6.75582 24.1435 6.7346 23.7191 6.74733C23.2947 6.76006 23.2777 6.52665 23.3668 6.27626C23.4559 6.02587 23.3671 5.98477 23.1914 5.83254C23.0157 5.68031 22.6996 6.20726 22.5707 6.42975C22.4419 6.65225 22.3131 7.34315 22.1609 7.5188C22.0086 7.69445 21.9375 7.24946 21.5394 7.20262C21.1412 7.15578 20.7311 7.02697 20.8365 6.75764C20.9419 6.48831 21.3521 6.28923 21.7971 5.9028C22.2421 5.51636 22.4421 5.22323 23.5311 5.14126C24.6202 5.05929 25.9316 5.67991 25.3694 5.64509Z" fill="#6FDCAE" stroke="black" stroke-width="0.19"/>
<path fill-rule="evenodd" clip-rule="evenodd" d="M13.6944 33.1392C22.8069 33.1495 30.2241 25.7691 30.2344 16.6813C30.2428 8.74855 24.6917 2.12067 17.2636 0.5C26.0215 0.916804 32.9781 8.16157 32.9688 17.0413C32.9585 26.1292 25.5412 33.5096 16.4288 33.4993C15.2271 33.4979 14.0558 33.3674 12.9277 33.1208C13.1818 33.1327 13.4374 33.1389 13.6944 33.1392Z" fill="#075677" fill-opacity="0.2"/>
</svg>
