<svg width="89" height="89" viewBox="0 0 89 89" fill="none" xmlns="http://www.w3.org/2000/svg">
<path d="M30.1592 40.9725C26.6507 43.6698 23.0366 40.6427 17.787 42.2915C15.7953 42.9921 13.9783 44.1143 12.46 45.5814C10.9417 47.0485 9.75784 48.8259 8.98931 50.7924C6.06773 58.7064 13.1112 67.8866 17.6155 72.0283C28.7017 82.2175 46.5741 82.112 59.3486 76.9284C62.811 75.517 83.0906 67.2799 85.3856 46.9541C86.975 32.8672 79.2061 19.3343 67.8825 12.924C55.6818 6.02565 38.093 6.79068 32.4213 14.6717C30.7983 16.8788 29.8479 19.508 29.6844 22.2427C29.6844 27.6176 33.826 29.6753 33.2193 34.8919C33.1533 35.5118 32.7444 38.9808 30.1592 40.9725Z" fill="#F1CC83" stroke="black" stroke-width="0.494624" stroke-miterlimit="10"/>
<path d="M34.9027 73.2946C38.4249 73.2946 41.2801 70.4393 41.2801 66.9172C41.2801 63.3951 38.4249 60.5398 34.9027 60.5398C31.3806 60.5398 28.5254 63.3951 28.5254 66.9172C28.5254 70.4393 31.3806 73.2946 34.9027 73.2946Z" fill="#3C84C3" stroke="black" stroke-width="0.494624" stroke-miterlimit="10"/>
<path d="M57.6469 66.917C61.169 66.917 64.0242 64.0618 64.0242 60.5397C64.0242 57.0175 61.169 54.1624 57.6469 54.1624C54.1248 54.1624 51.2695 57.0175 51.2695 60.5397C51.2695 64.0618 54.1248 66.917 57.6469 66.917Z" fill="#FF3571" stroke="black" stroke-width="0.494624" stroke-miterlimit="10"/>
<path d="M68.9457 46.387C72.4678 46.387 75.3231 43.5318 75.3231 40.0097C75.3231 36.4876 72.4678 33.6323 68.9457 33.6323C65.4236 33.6323 62.5684 36.4876 62.5684 40.0097C62.5684 43.5318 65.4236 46.387 68.9457 46.387Z" fill="#FF7600" stroke="black" stroke-width="0.494624" stroke-miterlimit="10"/>
<path d="M53.4398 27.6309C56.962 27.6309 59.8172 24.7757 59.8172 21.2536C59.8172 17.7314 56.962 14.8762 53.4398 14.8762C49.9177 14.8762 47.0625 17.7314 47.0625 21.2536C47.0625 24.7757 49.9177 27.6309 53.4398 27.6309Z" fill="#5BA477" stroke="black" stroke-width="0.494624" stroke-miterlimit="10"/>
<path d="M85.2163 46.809C83.1389 65.1233 66.0908 73.5122 61.969 75.5368C54.1394 79.3083 45.4087 80.8072 36.7695 79.8631C40.4297 79.4476 43.5294 78.887 45.9497 78.366C49.0419 77.7727 52.0746 76.9031 55.0113 75.7676C58.3945 74.4025 78.2124 66.3632 80.3822 46.354C81.8792 32.5045 74.2356 19.1431 63.1297 12.7987C59.2953 10.6489 55.1038 9.21003 50.7575 8.55151C56.789 8.70576 62.694 10.3144 67.9704 13.2405C78.8653 19.4794 86.8123 32.7287 85.2163 46.809Z" fill="#B48A61" fill-opacity="0.7"/>
<path d="M4.60366 11.506C4.35305 11.6577 3.46932 12.2644 4.60366 16.749C5.26316 19.4991 6.48324 22.9945 7.69012 26.503C7.69012 26.503 12.089 39.3171 18.0574 45.9516C19.312 47.3248 20.6559 48.6136 22.0804 49.8097L27.8906 46.2814C27.6083 44.3244 27.1896 42.3896 26.6375 40.491C24.7052 33.7971 20.9856 28.62 16.7846 22.5724C16.5142 22.1833 16.3625 21.9723 16.2834 21.8667C14.3415 19.1451 12.1006 16.6498 9.60266 14.4276C7.72309 12.7723 5.6061 10.9125 4.60366 11.506Z" fill="#3A0099" stroke="black" stroke-width="0.494624" stroke-miterlimit="10"/>
<path d="M16.1445 43.716L25.8062 38.229C26.0832 38.9874 26.3338 39.7591 26.5646 40.5505C27.1168 42.4512 27.5355 44.3883 27.8177 46.3474L21.9811 49.8758C20.5556 48.6785 19.2117 47.3873 17.9582 46.0111C17.3116 45.2802 16.7062 44.514 16.1445 43.716Z" fill="#6182BB" stroke="black" stroke-width="0.494624" stroke-miterlimit="10"/>
<path d="M23.3654 47.706C21.0242 49.8494 21.3276 53.1667 21.3869 54.0108C21.8947 59.5045 27.3884 62.3469 27.9292 62.6173C30.0807 63.5073 32.3479 64.0869 34.6626 64.3386C35.0451 64.3715 35.9816 64.4309 36.1135 64.0616C36.2454 63.6923 35.3221 63.0724 34.6956 61.9117C34.2604 60.9909 34.0739 59.9723 34.1548 58.9571C34.1548 56.0487 35.3947 55.343 35.1243 52.7314C35.0521 52.0294 34.8811 51.3412 34.6165 50.687C34.0368 49.2707 33.044 48.0619 31.7674 47.218C29.3998 45.7341 25.7066 45.5693 23.3654 47.706Z" fill="#C69C6D" stroke="black" stroke-width="0.494624" stroke-miterlimit="10"/>
<path d="M36.1351 64.0615C35.9769 64.4308 35.0667 64.3714 34.6842 64.3384C32.3701 64.0834 30.1034 63.5039 27.9508 62.6172C25.849 61.5259 24.0603 59.9166 22.7539 57.9413C23.7695 56.5828 25.2402 55.1121 27.0209 55.1187C28.0167 55.1187 28.4586 55.5869 29.3753 55.7254C30.6481 55.9167 32.5079 55.4287 35.1195 52.5137C35.1195 52.5862 35.1195 52.6587 35.1195 52.7313C35.3899 55.3363 34.1303 56.0288 34.15 58.9504C34.0688 59.9656 34.2553 60.9843 34.6908 61.9049C35.3437 63.0722 36.3198 63.6394 36.1351 64.0615Z" fill="#0071BC" stroke="black" stroke-width="0.494624" stroke-miterlimit="10"/>
</svg>
