<svg width="89" height="88" viewBox="0 0 89 88" fill="none" xmlns="http://www.w3.org/2000/svg">
<path d="M39.6932 31.717C38.8386 30.3893 35.3667 30.954 33.8406 31.1791C29.5103 31.8658 26.7595 34.1168 25.0312 35.5666C21.8645 38.2373 19.3541 41.713 19.8119 42.2128C20.0103 42.4226 20.575 41.9725 22.2766 41.3315C23.6501 40.8126 26.1185 39.9046 28.9456 39.9885C29.4702 39.9909 29.993 40.0471 30.5061 40.1564C31.3912 40.3407 32.3089 40.2928 33.17 40.0174C34.0311 39.7419 34.8063 39.2483 35.4201 38.5845C35.4201 38.5845 40.3189 32.6937 39.6932 31.717Z" fill="#FF3571"/>
<path d="M39.6932 31.717C38.8386 30.3893 35.3667 30.954 33.8406 31.1791C29.5103 31.8658 26.7595 34.1168 25.0312 35.5666C21.8645 38.2373 19.3541 41.713 19.8119 42.2128C20.0103 42.4226 20.575 41.9725 22.2766 41.3315C23.6501 40.8126 26.1185 39.9046 28.9456 39.9885C29.4702 39.9909 29.993 40.0471 30.5061 40.1564C31.3912 40.3407 32.3089 40.2928 33.17 40.0174C34.0311 39.7419 34.8063 39.2483 35.4201 38.5845C35.4201 38.5845 40.3189 32.6937 39.6932 31.717Z" stroke="black" stroke-width="0.443389" stroke-miterlimit="10"/>
<path d="M22.9453 40.874C23.51 40.2236 24.1072 39.6022 24.7346 39.0121C25.8691 37.9654 27.0835 37.0086 28.3668 36.1507C32.472 33.48 38.6679 32.4232 39.1754 32.3354C38.2157 33.0083 37.3772 33.8391 36.6955 34.7925C36.0011 35.7241 35.4471 36.7524 35.0511 37.8447C34.8657 38.4138 34.6094 38.9573 34.2881 39.4623C34.0848 39.7848 33.8551 40.0898 33.6013 40.3742C31.9951 40.3742 30.3278 40.4123 28.6071 40.4886C26.6461 40.5535 24.7576 40.687 22.9453 40.874Z" fill="#FFAD66" stroke="black" stroke-width="0.443389" stroke-miterlimit="10"/>
<path d="M58.6917 49.3473C59.9927 50.2477 59.3289 53.6967 59.0389 55.2151C58.211 59.5188 55.8684 62.1971 54.3652 63.872C51.5991 66.9509 48.0357 69.3507 47.555 68.8738C47.349 68.6715 47.8144 68.1107 48.5126 66.4396C49.0772 65.0852 50.0654 62.6473 50.073 59.8163C50.0884 59.2935 50.0487 58.7705 49.9548 58.2559C49.8015 57.3666 49.88 56.4529 50.1827 55.6028C50.4855 54.7527 51.0022 53.9951 51.6831 53.4029C51.6831 53.4029 57.7531 48.6872 58.6917 49.3473Z" fill="#FF3571"/>
<path d="M58.6917 49.3473C59.9927 50.2477 59.3289 53.6967 59.0389 55.2151C58.211 59.5188 55.8684 62.1971 54.3652 63.872C51.5991 66.9509 48.0357 69.3507 47.555 68.8738C47.349 68.6715 47.8144 68.1107 48.5126 66.4396C49.0772 65.0852 50.0654 62.6473 50.073 59.8163C50.0884 59.2935 50.0487 58.7705 49.9548 58.2559C49.8015 57.3666 49.88 56.4529 50.1827 55.6028C50.4855 54.7527 51.0022 53.9951 51.6831 53.4029C51.6831 53.4029 57.7531 48.6872 58.6917 49.3473Z" stroke="black" stroke-width="0.443389" stroke-miterlimit="10"/>
<path d="M58.7889 50.8539C58.6532 51.4976 58.4431 52.3586 58.1357 53.3498C57.6531 54.8214 57.055 56.2526 56.347 57.63C54.0552 61.9324 49.1401 65.8966 48.7529 66.2078C49.2641 65.1538 49.5935 64.0211 49.7273 62.8574C49.8801 61.7087 49.8671 60.5441 49.6887 59.3991C49.4879 58.4397 49.4947 57.4484 49.7088 56.4919C51.1102 55.7119 52.5508 54.869 54.0156 53.9677C55.6828 52.9239 57.2739 51.8859 58.7889 50.8539Z" fill="#FFAD66" stroke="black" stroke-width="0.443389" stroke-miterlimit="10"/>
<path d="M82.4687 10.6877C82.5039 10.2541 82.4444 9.81798 82.2942 9.40966C82.144 9.00134 81.9068 8.63059 81.599 8.32314C81.2912 8.01568 80.9201 7.77888 80.5116 7.62918C80.1031 7.47948 79.6669 7.42044 79.2333 7.45618C79.2333 7.45618 70.3362 7.97124 62.1563 11.2943C44.7549 18.3716 36.7429 32.6331 32.8437 39.821C30.2226 44.6511 25.8427 59.4238 25.8427 59.4238C25.3086 61.236 26.3997 62.5218 28.273 62.2852C28.273 62.2852 43.2669 60.3776 54.335 53.9565C60.0884 50.6182 72.4651 43.1861 78.8404 27.2497C81.9651 19.3941 82.4687 10.6877 82.4687 10.6877Z" fill="#FFE666"/>
<path d="M80.9865 15.5934C81.8373 13.9071 82.2836 14.0673 81.9746 15.9177C81.9746 15.9177 80.8835 22.4723 78.2166 28.4165C75.2155 34.9774 70.9545 40.8846 65.6758 45.8026C63.1731 48.1207 60.4746 50.218 57.6104 52.0711C46.2486 59.446 28.8357 62.2654 28.8357 62.2654C26.9701 62.5669 25.7835 61.4108 26.1917 59.6902L26.6686 58.0305L27.096 56.535C27.6034 55.0088 29.5492 53.601 31.4263 53.3912C39.7334 52.3114 47.7487 49.6154 55.0198 45.4554C67.5796 38.0195 74.1724 27.0812 78.5828 19.7635C80.3684 16.8143 80.9865 15.5934 80.9865 15.5934Z" fill="#FFAD66"/>
<path d="M82.4687 10.6877C82.5039 10.2541 82.4444 9.81798 82.2942 9.40966C82.144 9.00134 81.9068 8.63059 81.599 8.32314C81.2912 8.01568 80.9201 7.77888 80.5116 7.62918C80.1031 7.47948 79.6669 7.42044 79.2333 7.45618C79.2333 7.45618 70.3362 7.97124 62.1563 11.2943C44.7549 18.3716 36.7429 32.6331 32.8437 39.821C30.2226 44.6511 25.8427 59.4238 25.8427 59.4238C25.3086 61.236 26.3997 62.5218 28.273 62.2852C28.273 62.2852 43.2669 60.3776 54.335 53.9565C60.0884 50.6182 72.4651 43.1861 78.8404 27.2497C81.9651 19.3941 82.4687 10.6877 82.4687 10.6877Z" stroke="black" stroke-width="0.443389" stroke-miterlimit="10"/>
<path d="M32.7793 55.1658C31.3905 53.9068 26.0835 49.565 19.7426 51.3773C14.3516 52.9224 10.7195 58.2027 10.4791 62.659C10.3227 65.5929 11.7229 66.5582 11.1201 70.1559C10.6318 73.0517 8.91868 75.3371 7.83897 76.8784L6.62192 78.6182C5.45064 79.7971 6.03438 80.8692 7.91912 80.9951C7.91912 80.9951 14.6073 81.4453 17.9876 81.3995C28.7657 81.2431 31.3982 79.6178 32.7411 78.5533C34.8836 76.8054 36.4628 74.4643 37.2813 71.8232C39.1355 66.1232 37.3996 59.355 32.7793 55.1658Z" fill="#FF782A"/>
<path d="M32.7793 55.1658C31.3905 53.9068 26.0835 49.565 19.7426 51.3773C14.3516 52.9224 10.7195 58.2027 10.4791 62.659C10.3227 65.5929 11.7229 66.5582 11.1201 70.1559C10.6318 73.0517 8.91868 75.3371 7.83897 76.8784L6.62192 78.6182C5.45064 79.7971 6.03438 80.8692 7.91912 80.9951C7.91912 80.9951 14.6073 81.4453 17.9876 81.3995C28.7657 81.2431 31.3982 79.6178 32.7411 78.5533C34.8836 76.8054 36.4628 74.4643 37.2813 71.8232C39.1355 66.1232 37.3996 59.355 32.7793 55.1658Z" fill="#FF3571" stroke="black" stroke-width="0.443389" stroke-miterlimit="10"/>
<path d="M59.2458 12.7404L56.8574 13.885C65.3062 18.0393 72.0075 25.0556 75.7696 33.6862C76.113 33.2436 76.6395 32.5416 77.227 31.6145C77.9596 30.4699 80.9889 25.5406 82.0457 16.0444C82.5531 11.4661 82.8088 9.17696 81.6909 8.03238C79.5162 5.8119 74.6785 7.26934 69.7148 8.63138C66.0828 9.60619 62.5712 10.9844 59.2458 12.7404V12.7404Z" fill="#FF3571" stroke="black" stroke-width="0.443389" stroke-miterlimit="10"/>
<path d="M32.2196 55.8411C29.5832 53.2925 26.2563 52.9606 24.2457 53.5252C20.8348 54.4829 19.9459 58.3821 19.4766 60.4309C18.7784 63.506 19.5415 64.7994 18.5991 67.4014C17.7521 69.7363 16.8632 70.4764 16.8632 70.4764C15.8979 71.2815 16.1344 71.9072 17.3935 71.8652C17.3935 71.8652 25.8443 71.5829 28.5684 70.671C31.7923 69.5875 34.1081 68.7634 34.9742 66.0317C35.8021 63.4182 35.3671 58.8819 32.2196 55.8411Z" fill="#FFE666"/>
<path d="M32.2196 55.8411C29.5832 53.2925 26.2563 52.9606 24.2457 53.5252C20.8348 54.4829 19.9459 58.3821 19.4766 60.4309C18.7784 63.506 19.5415 64.7994 18.5991 67.4014C17.7521 69.7363 16.8632 70.4764 16.8632 70.4764C15.8979 71.2815 16.1344 71.9072 17.3935 71.8652C17.3935 71.8652 25.8443 71.5829 28.5684 70.671C31.7923 69.5875 34.1081 68.7634 34.9742 66.0317C35.8021 63.4182 35.3671 58.8819 32.2196 55.8411Z" stroke="black" stroke-width="0.443389" stroke-miterlimit="10"/>
<path d="M28.5027 49.3667C28.8356 49.2922 29.1818 49.301 29.5105 49.3921C29.8393 49.4833 30.1405 49.6541 30.3875 49.8894L38.4949 58.5653C38.9523 59.1143 39.1732 59.8223 39.1091 60.534L38.6627 63.5137C38.5712 64.1356 38.1362 64.2767 37.6937 63.8303L25.4086 51.2934C24.9698 50.8432 25.1033 50.3358 25.71 50.1488L28.5027 49.3667Z" fill="#EE452B"/>
<path d="M28.5027 49.3667C28.8356 49.2922 29.1818 49.301 29.5105 49.3921C29.8393 49.4833 30.1405 49.6541 30.3875 49.8894L38.4949 58.5653C38.9523 59.1143 39.1732 59.8223 39.1091 60.534L38.6627 63.5137C38.5712 64.1356 38.1362 64.2767 37.6937 63.8303L25.4086 51.2934C24.9698 50.8432 25.1033 50.3358 25.71 50.1488L28.5027 49.3667Z" stroke="black" stroke-width="0.443389" stroke-miterlimit="10"/>
<path d="M56.9961 42.1218C61.6549 42.1218 65.4316 38.3451 65.4316 33.6863C65.4316 29.0274 61.6549 25.2507 56.9961 25.2507C52.3373 25.2507 48.5605 29.0274 48.5605 33.6863C48.5605 38.3451 52.3373 42.1218 56.9961 42.1218Z" fill="#FF3571" stroke="black" stroke-width="0.443389" stroke-miterlimit="10"/>
<path d="M56.9956 40.3398C60.6704 40.3398 63.6494 37.3608 63.6494 33.686C63.6494 30.0112 60.6704 27.0322 56.9956 27.0322C53.3208 27.0322 50.3418 30.0112 50.3418 33.686C50.3418 37.3608 53.3208 40.3398 56.9956 40.3398Z" fill="#3C84C3" stroke="black" stroke-width="0.443389" stroke-miterlimit="10"/>
</svg>
