<svg width="72" height="72" viewBox="0 0 72 72" fill="none" xmlns="http://www.w3.org/2000/svg">
<g clip-path="url(#clip0_6161_184163)">
<path d="M30.3309 5.55665C31.3161 -0.267505 39.6839 -0.267505 40.6691 5.55665V5.55665C41.3752 9.73056 46.4816 11.3897 49.5061 8.42798V8.42798C53.7266 4.29525 60.4962 9.21368 57.8699 14.5046V14.5046C55.9878 18.2964 59.1437 22.6402 63.3315 22.0219V22.0219C69.1751 21.1591 71.7609 29.1173 66.5262 31.8541V31.8541C62.7748 33.8154 62.7748 39.1846 66.5262 41.1459V41.1459C71.7609 43.8827 69.1751 51.8409 63.3315 50.9781V50.9781C59.1437 50.3598 55.9878 54.7036 57.8699 58.4954V58.4954C60.4962 63.7863 53.7266 68.7048 49.5061 64.572V64.572C46.4816 61.6103 41.3752 63.2694 40.6691 67.4434V67.4434C39.6839 73.2675 31.3161 73.2675 30.3309 67.4434V67.4434C29.6248 63.2694 24.5184 61.6103 21.4939 64.572V64.572C17.2734 68.7048 10.5038 63.7863 13.1301 58.4954V58.4954C15.0122 54.7036 11.8563 50.3598 7.66847 50.9781V50.9781C1.82491 51.8409 -0.760858 43.8827 4.47379 41.1459V41.1459C8.22522 39.1846 8.22522 33.8154 4.47379 31.8541V31.8541C-0.760859 29.1173 1.82491 21.1591 7.66847 22.0219V22.0219C11.8563 22.6402 15.0122 18.2964 13.1301 14.5046V14.5046C10.5038 9.21368 17.2734 4.29525 21.4939 8.42798V8.42798C24.5184 11.3897 29.6248 9.73056 30.3309 5.55665V5.55665Z" fill="#FFA800"/>
<circle cx="21.294" cy="29.6377" r="2.29396" fill="#141414"/>
<circle cx="35.749" cy="25.294" r="2.29396" fill="#141414"/>
<circle cx="50.0596" cy="29.6377" r="2.29396" fill="#141414"/>
<path fill-rule="evenodd" clip-rule="evenodd" d="M36.9218 42.811H34.5477H25.514C25.0568 42.811 24.8283 42.811 24.6591 42.6847C24.49 42.5583 24.4252 42.3391 24.2955 41.9008L21.9994 34.1368C21.5387 32.5793 21.3084 31.8005 21.6907 31.5395C22.073 31.2786 22.7144 31.7767 23.9971 32.773L28.7501 36.4644C29.3292 36.9141 29.6187 37.139 29.9156 37.0676C30.2125 36.9963 30.3683 36.6644 30.6797 36.0007L34.599 27.6495C35.0967 26.5889 35.3456 26.0586 35.7492 26.0586C36.1528 26.0586 36.4017 26.5889 36.8994 27.6495L40.811 35.9843C41.1224 36.6479 41.2782 36.9798 41.5751 37.0511C41.872 37.1225 42.1615 36.8976 42.7405 36.4479L47.4723 32.773C48.7551 31.7767 49.3964 31.2786 49.7787 31.5395C50.161 31.8005 49.9307 32.5793 49.4701 34.1368L47.1739 41.9008C47.0443 42.3391 46.9794 42.5583 46.8103 42.6847C46.6412 42.811 46.4126 42.811 45.9555 42.811H36.9218Z" fill="#141414"/>
<rect x="24.5586" y="44.9062" width="22.3518" height="3.54676" rx="0.635294" fill="#141414"/>
</g>
<defs>
<clipPath id="clip0_6161_184163">
<rect width="72" height="72" fill="white"/>
</clipPath>
</defs>
</svg>
