<svg width="72" height="72" viewBox="0 0 72 72" fill="none" xmlns="http://www.w3.org/2000/svg">
<g clip-path="url(#clip0_6161_184174)">
<rect x="3.37109" y="3.375" width="65.2552" height="65.2552" rx="14.055" fill="#9254F9"/>
<path d="M72.5408 71.1416H7.16473C6.705 71.1416 6.30401 70.8294 6.19139 70.3836L1.36328 51.2745L21.372 35.2099C21.6892 34.9552 22.1287 34.9171 22.485 35.1134L39.6731 44.5857C40.0507 44.7937 40.519 44.7375 40.8366 44.446L67.1411 20.3008C67.7516 19.7404 68.7399 20.1193 68.8193 20.9443L73.5402 70.0416C73.5969 70.6313 73.1333 71.1416 72.5408 71.1416Z" fill="url(#paint0_linear_6161_184174)"/>
<path d="M1.2001 46.9203C0.299311 47.567 0.0933474 48.8215 0.740069 49.7223C1.38679 50.6231 2.6413 50.8291 3.54209 50.1824L1.2001 46.9203ZM72.3306 21.0543C73.2235 20.3968 73.4143 19.1399 72.7568 18.2469C72.0993 17.354 70.8424 17.1632 69.9495 17.8207L72.3306 21.0543ZM38.4245 42.8427L39.3318 41.0515L38.4245 42.8427ZM39.4734 42.7555L40.664 44.3723L39.4734 42.7555ZM21.4524 34.852L22.6234 36.483L21.4524 34.852ZM22.4915 34.7719L21.5842 36.5631L22.4915 34.7719ZM3.54209 50.1824L22.6234 36.483L20.2814 33.2209L1.2001 46.9203L3.54209 50.1824ZM21.5842 36.5631L37.5172 44.6339L39.3318 41.0515L23.3988 32.9807L21.5842 36.5631ZM40.664 44.3723L72.3306 21.0543L69.9495 17.8207L38.2829 41.1387L40.664 44.3723ZM37.5172 44.6339C38.5314 45.1476 39.7485 45.0465 40.664 44.3723L38.2829 41.1387C38.588 40.914 38.9937 40.8803 39.3318 41.0515L37.5172 44.6339ZM22.6234 36.483C22.3191 36.7015 21.9184 36.7323 21.5842 36.5631L23.3988 32.9807C22.3963 32.4729 21.1943 32.5655 20.2814 33.2209L22.6234 36.483Z" fill="#141414"/>
</g>
<defs>
<linearGradient id="paint0_linear_6161_184174" x1="34.9948" y1="41.1295" x2="34.9948" y2="67.1259" gradientUnits="userSpaceOnUse">
<stop stop-color="white" stop-opacity="0.3"/>
<stop offset="1" stop-color="white" stop-opacity="0"/>
</linearGradient>
<clipPath id="clip0_6161_184174">
<rect width="65.2552" height="65.2552" fill="white" transform="translate(3.37109 3.375)"/>
</clipPath>
</defs>
</svg>
