<svg width="72" height="72" viewBox="0 0 72 72" fill="none" xmlns="http://www.w3.org/2000/svg">
<rect x="1.81641" y="1.81641" width="68.3661" height="68.3661" rx="34.183" fill="#B0B8C9"/>
<g clip-path="url(#clip0_6161_184179)">
<path d="M32.131 37.2983C32.8903 36.4858 33.4123 35.4864 33.5688 34.8948C33.6701 34.5154 33.7435 34.1148 33.7901 33.8145C34.1133 33.6537 34.3617 33.3832 34.4953 33.0428C34.6856 32.5498 34.7885 31.4928 34.7912 31.447C34.875 30.608 34.5848 30.1251 34.5597 30.0971C34.8938 26.6981 33.8343 26.028 33.1272 25.9075C32.8756 25.8638 32.4948 25.7686 32.3271 25.5736C31.9303 25.1264 31.7537 24.6295 31.0702 24.6688C30.8194 24.6833 30.4759 24.6023 30.2837 24.4365C30.0195 24.2106 29.6594 23.9492 29.3936 23.9492C29.1296 23.9492 28.7982 24.2018 28.5581 24.4222C28.3687 24.5966 28.0337 24.683 27.7819 24.6685C27.0989 24.6287 26.9223 25.1261 26.5255 25.5734C26.3572 25.7686 25.977 25.863 25.7254 25.9072C25.0183 26.0277 23.9577 26.6979 24.2938 30.0988C24.2646 30.1298 23.9803 30.6146 24.0617 31.4457C24.0644 31.4921 24.167 32.5493 24.357 33.0424C24.4945 33.3828 24.7396 33.6532 25.0622 33.814C25.1107 34.1144 25.1825 34.519 25.2838 34.8943C25.4451 35.4997 25.9751 36.5201 26.7436 37.3369H26.7259C26.619 42.0654 16.9374 39.4486 19.0015 47.9408C19.6598 50.3446 28.1259 50.7839 29.4285 50.6903C30.7276 50.7836 39.1923 50.3446 39.8494 47.9408C41.9148 39.4572 32.2588 42.0114 32.1305 37.2989L32.131 37.2983Z" fill="#141414"/>
<path d="M45.286 33.6028C51.1267 32.4365 49.627 22.3017 44.4487 20.3507C44.0245 20.2378 43.2871 20.1417 42.5494 20.4813C41.8131 20.1418 41.0754 20.2378 40.6502 20.3507C35.4694 22.3031 33.9705 32.4453 39.8217 33.6049C39.5923 36.2698 35.9603 36.2652 33.668 37.7594C33.9196 38.3104 34.646 38.6991 36.2202 39.3586C38.4723 40.3019 41.7201 41.6666 41.5612 46.0533C42.0129 46.0654 42.3613 46.0643 42.5523 46.0506C43.8535 46.1423 52.3366 45.7154 52.9958 43.3703C55.0328 35.2206 45.6932 37.909 45.2858 33.6034L45.286 33.6028Z" fill="#141414"/>
</g>
<defs>
<clipPath id="clip0_6161_184179">
<rect width="34.7089" height="30.5018" fill="white" transform="translate(18.6445 20.2188)"/>
</clipPath>
</defs>
</svg>
