<svg width="44" height="44" viewBox="0 0 44 44" fill="none" xmlns="http://www.w3.org/2000/svg">
<mask id="path-1-inside-1_341_3260" fill="white">
<path fill-rule="evenodd" clip-rule="evenodd" d="M24.5846 6.52781C24.092 3.61573 19.9081 3.61573 19.4155 6.52781C19.0625 8.61476 16.5093 9.44434 14.997 7.96347C12.8868 5.89711 9.50196 8.35632 10.8151 11.0018C11.7562 12.8977 10.1782 15.0696 8.0843 14.7604C5.16252 14.329 3.86963 18.3081 6.48696 19.6765C8.36267 20.6572 8.36267 23.3418 6.48696 24.3224C3.86963 25.6908 5.16252 29.6699 8.0843 29.2386C10.1782 28.9294 11.7562 31.1013 10.8151 32.9972C9.50196 35.6426 12.8868 38.1019 14.997 36.0355C16.5093 34.5546 19.0625 35.3842 19.4155 37.4712C19.9081 40.3832 24.092 40.3832 24.5846 37.4712C24.9377 35.3842 27.4908 34.5546 29.0031 36.0355C31.1134 38.1019 34.4982 35.6426 33.185 32.9972C32.244 31.1013 33.8219 28.9294 35.9158 29.2386C38.8376 29.6699 40.1305 25.6908 37.5132 24.3224C35.6375 23.3418 35.6375 20.6572 37.5132 19.6765C40.1305 18.3081 38.8376 14.329 35.9158 14.7604C33.8219 15.0696 32.244 12.8977 33.185 11.0018C34.4982 8.35632 31.1134 5.89711 29.0031 7.96347C27.4908 9.44434 24.9377 8.61476 24.5846 6.52781ZM18.5198 27.7894C18.7116 27.962 18.9277 28.0906 19.1555 28.1759C19.8945 28.546 20.8172 28.4306 21.4439 27.8225L29.4019 20.1014C30.1946 19.3323 30.2138 18.0661 29.4446 17.2733C28.6755 16.4806 27.4093 16.4614 26.6165 17.2306L19.9516 23.6971L17.3285 21.3376C16.5073 20.5989 15.2427 20.6657 14.504 21.4869C13.7653 22.3081 13.8322 23.5727 14.6534 24.3114L18.5198 27.7894Z"/>
</mask>
<path fill-rule="evenodd" clip-rule="evenodd" d="M24.5846 6.52781C24.092 3.61573 19.9081 3.61573 19.4155 6.52781C19.0625 8.61476 16.5093 9.44434 14.997 7.96347C12.8868 5.89711 9.50196 8.35632 10.8151 11.0018C11.7562 12.8977 10.1782 15.0696 8.0843 14.7604C5.16252 14.329 3.86963 18.3081 6.48696 19.6765C8.36267 20.6572 8.36267 23.3418 6.48696 24.3224C3.86963 25.6908 5.16252 29.6699 8.0843 29.2386C10.1782 28.9294 11.7562 31.1013 10.8151 32.9972C9.50196 35.6426 12.8868 38.1019 14.997 36.0355C16.5093 34.5546 19.0625 35.3842 19.4155 37.4712C19.9081 40.3832 24.092 40.3832 24.5846 37.4712C24.9377 35.3842 27.4908 34.5546 29.0031 36.0355C31.1134 38.1019 34.4982 35.6426 33.185 32.9972C32.244 31.1013 33.8219 28.9294 35.9158 29.2386C38.8376 29.6699 40.1305 25.6908 37.5132 24.3224C35.6375 23.3418 35.6375 20.6572 37.5132 19.6765C40.1305 18.3081 38.8376 14.329 35.9158 14.7604C33.8219 15.0696 32.244 12.8977 33.185 11.0018C34.4982 8.35632 31.1134 5.89711 29.0031 7.96347C27.4908 9.44434 24.9377 8.61476 24.5846 6.52781ZM18.5198 27.7894C18.7116 27.962 18.9277 28.0906 19.1555 28.1759C19.8945 28.546 20.8172 28.4306 21.4439 27.8225L29.4019 20.1014C30.1946 19.3323 30.2138 18.0661 29.4446 17.2733C28.6755 16.4806 27.4093 16.4614 26.6165 17.2306L19.9516 23.6971L17.3285 21.3376C16.5073 20.5989 15.2427 20.6657 14.504 21.4869C13.7653 22.3081 13.8322 23.5727 14.6534 24.3114L18.5198 27.7894Z" fill="#5269A0"/>
<path d="M19.4155 6.52781L19.9085 6.61121V6.61121L19.4155 6.52781ZM24.5846 6.52781L25.0776 6.44441V6.44441L24.5846 6.52781ZM14.997 7.96347L15.3468 7.60623V7.60623L14.997 7.96347ZM10.8151 11.0018L10.3672 11.2241L10.8151 11.0018ZM8.0843 14.7604L8.15733 14.2658L8.0843 14.7604ZM6.48696 19.6765L6.2553 20.1196L6.48696 19.6765ZM6.48696 24.3224L6.2553 23.8793H6.2553L6.48696 24.3224ZM8.0843 29.2386L8.15733 29.7332H8.15733L8.0843 29.2386ZM10.8151 32.9972L10.3672 32.7749L10.8151 32.9972ZM14.997 36.0355L15.3468 36.3927L14.997 36.0355ZM19.4155 37.4712L19.9085 37.3878L19.4155 37.4712ZM24.5846 37.4712L25.0776 37.5546L24.5846 37.4712ZM29.0031 36.0355L28.6533 36.3927H28.6533L29.0031 36.0355ZM33.185 32.9972L33.6329 32.7749L33.185 32.9972ZM35.9158 29.2386L35.9889 28.7439L35.9158 29.2386ZM37.5132 24.3224L37.2815 24.7655L37.5132 24.3224ZM37.5132 19.6765L37.2815 19.2334L37.5132 19.6765ZM35.9158 14.7604L35.8428 14.2658L35.9158 14.7604ZM33.185 11.0018L32.7372 10.7795L33.185 11.0018ZM29.0031 7.96347L28.6533 7.60623L29.0031 7.96347ZM19.1555 28.1759L19.3794 27.7288L19.3557 27.7169L19.3308 27.7076L19.1555 28.1759ZM18.5198 27.7894L18.8542 27.4177L18.8542 27.4177L18.5198 27.7894ZM21.4439 27.8225L21.7921 28.1814L21.4439 27.8225ZM29.4019 20.1014L29.0537 19.7426L29.4019 20.1014ZM26.6165 17.2306L26.2683 16.8717L26.6165 17.2306ZM19.9516 23.6971L19.6172 24.0689L19.9645 24.3813L20.2997 24.056L19.9516 23.6971ZM17.3285 21.3376L16.9941 21.7093L17.3285 21.3376ZM14.6534 24.3114L14.319 24.6831L14.6534 24.3114ZM19.9085 6.61121C20.3072 4.2546 23.693 4.2546 24.0916 6.61121L25.0776 6.44441C24.491 2.97686 19.5091 2.97686 18.9225 6.44441L19.9085 6.61121ZM14.6472 8.32072C16.4479 10.0841 19.4881 9.09624 19.9085 6.61121L18.9225 6.44441C18.6368 8.13329 16.5706 8.80463 15.3468 7.60623L14.6472 8.32072ZM11.263 10.7795C10.2003 8.63863 12.9395 6.64851 14.6472 8.32072L15.3468 7.60623C12.8341 5.14571 8.80362 8.07401 10.3672 11.2241L11.263 10.7795ZM8.01127 15.2551C10.5046 15.6232 12.3835 13.037 11.263 10.7795L10.3672 11.2241C11.1288 12.7584 9.85183 14.516 8.15733 14.2658L8.01127 15.2551ZM6.71862 19.2334C4.60054 18.1261 5.64681 14.906 8.01127 15.2551L8.15733 14.2658C4.67823 13.7521 3.13873 18.4902 6.2553 20.1196L6.71862 19.2334ZM6.71862 24.7655C8.95212 23.5978 8.95212 20.4012 6.71862 19.2334L6.2553 20.1196C7.77323 20.9132 7.77323 23.0857 6.2553 23.8793L6.71862 24.7655ZM8.01127 28.7439C5.64681 29.093 4.60054 25.8729 6.71862 24.7655L6.2553 23.8793C3.13873 25.5087 4.67823 30.2468 8.15733 29.7332L8.01127 28.7439ZM11.263 33.2195C12.3835 30.9619 10.5046 28.3758 8.01127 28.7439L8.15733 29.7332C9.85183 29.483 11.1288 31.2406 10.3672 32.7749L11.263 33.2195ZM14.6472 35.6782C12.9395 37.3505 10.2003 35.3603 11.263 33.2195L10.3672 32.7749C8.80362 35.925 12.8341 38.8533 15.3468 36.3927L14.6472 35.6782ZM19.9085 37.3878C19.4881 34.9027 16.4479 33.9149 14.6472 35.6782L15.3468 36.3927C16.5706 35.1943 18.6368 35.8657 18.9225 37.5546L19.9085 37.3878ZM24.0916 37.3878C23.693 39.7444 20.3072 39.7444 19.9085 37.3878L18.9225 37.5546C19.5091 41.0221 24.491 41.0221 25.0776 37.5546L24.0916 37.3878ZM29.353 35.6782C27.5522 33.9149 24.512 34.9027 24.0916 37.3878L25.0776 37.5546C25.3633 35.8657 27.4295 35.1943 28.6533 36.3927L29.353 35.6782ZM32.7372 33.2195C33.7998 35.3603 31.0607 37.3505 29.353 35.6782L28.6533 36.3927C31.166 38.8533 35.1965 35.925 33.6329 32.7749L32.7372 33.2195ZM35.9889 28.7439C33.4955 28.3758 31.6166 30.9619 32.7372 33.2195L33.6329 32.7749C32.8713 31.2406 34.1483 29.483 35.8428 29.7332L35.9889 28.7439ZM37.2815 24.7655C39.3996 25.8729 38.3533 29.093 35.9889 28.7439L35.8428 29.7332C39.3219 30.2468 40.8614 25.5087 37.7448 23.8793L37.2815 24.7655ZM37.2815 19.2334C35.048 20.4012 35.048 23.5978 37.2815 24.7655L37.7448 23.8793C36.2269 23.0857 36.2269 20.9132 37.7448 20.1196L37.2815 19.2334ZM35.9889 15.2551C38.3533 14.906 39.3996 18.1261 37.2815 19.2334L37.7448 20.1196C40.8614 18.4902 39.3219 13.7521 35.8428 14.2658L35.9889 15.2551ZM32.7372 10.7795C31.6166 13.037 33.4955 15.6232 35.9889 15.2551L35.8428 14.2658C34.1483 14.516 32.8713 12.7584 33.6329 11.2241L32.7372 10.7795ZM29.353 8.32072C31.0607 6.64851 33.7998 8.63863 32.7372 10.7795L33.6329 11.2241C35.1965 8.07401 31.166 5.14571 28.6533 7.60623L29.353 8.32072ZM24.0916 6.61121C24.512 9.09624 27.5522 10.0841 29.353 8.32072L28.6533 7.60623C27.4295 8.80462 25.3633 8.13328 25.0776 6.44441L24.0916 6.61121ZM19.3308 27.7076C19.1606 27.6439 18.9987 27.5477 18.8542 27.4177L18.1854 28.1612C18.4245 28.3763 18.6947 28.5373 18.9802 28.6442L19.3308 27.7076ZM21.0957 27.4636C20.6263 27.9192 19.9343 28.0067 19.3794 27.7288L18.9316 28.623C19.8548 29.0853 21.0081 28.942 21.7921 28.1814L21.0957 27.4636ZM29.0537 19.7426L21.0957 27.4636L21.7921 28.1814L29.7501 20.4603L29.0537 19.7426ZM29.0858 17.6215C29.6626 18.2161 29.6483 19.1657 29.0537 19.7426L29.7501 20.4603C30.741 19.4988 30.7649 17.9161 29.8035 16.9252L29.0858 17.6215ZM26.9647 17.5894C27.5593 17.0126 28.5089 17.0269 29.0858 17.6215L29.8035 16.9252C28.842 15.9342 27.2593 15.9103 26.2683 16.8717L26.9647 17.5894ZM20.2997 24.056L26.9647 17.5894L26.2683 16.8717L19.6034 23.3383L20.2997 24.056ZM16.9941 21.7093L19.6172 24.0689L20.2859 23.3254L17.6629 20.9658L16.9941 21.7093ZM14.8758 21.8213C15.4298 21.2054 16.3782 21.1553 16.9941 21.7093L17.6629 20.9658C16.6364 20.0424 15.0557 20.126 14.1323 21.1525L14.8758 21.8213ZM14.9878 23.9397C14.3719 23.3856 14.3217 22.4372 14.8758 21.8213L14.1323 21.1525C13.2089 22.179 13.2925 23.7598 14.319 24.6831L14.9878 23.9397ZM18.8542 27.4177L14.9878 23.9397L14.319 24.6831L18.1854 28.1612L18.8542 27.4177Z" fill="#2F4478" mask="url(#path-1-inside-1_341_3260)"/>
</svg>
