<svg width="142" height="123" viewBox="0 0 142 123" fill="none" xmlns="http://www.w3.org/2000/svg">
<g clip-path="url(#clip0_678_18750)">
<path d="M64.692 16.4859L109.905 90.0807C113.491 95.9177 109.413 103.448 102.565 103.635L16.224 105.993C9.37602 106.18 4.89358 98.8836 8.15559 92.8596L49.2841 16.9067C52.5461 10.8827 61.1061 10.6489 64.692 16.4859Z" fill="#FFDB24" stroke="black" stroke-width="2.16971"/>
<path d="M58.8652 46.2618C53.7655 46.4007 56.0745 62.3944 59.6067 74.114C59.6127 74.1336 59.6404 74.1329 59.6449 74.1129C62.2608 62.6124 64.8335 46.0992 58.8652 46.2618Z" fill="black" stroke="black" stroke-width="1.13017" stroke-linecap="round"/>
<circle cx="59.9253" cy="84.9238" r="4.29758" transform="rotate(-1.56443 59.9253 84.9238)" fill="black"/>
<mask id="path-4-inside-1_678_18750" fill="white">
<path fill-rule="evenodd" clip-rule="evenodd" d="M111.15 49.8808C110.255 53.8425 104.61 53.8425 103.715 49.8808C103.135 47.3133 100.189 46.0929 97.9633 47.4983C94.5292 49.6668 90.5378 45.6754 92.7063 42.2413C94.1117 40.0157 92.8913 37.0693 90.3238 36.4893C86.3621 35.5945 86.3621 29.9498 90.3238 29.0549C92.8913 28.4749 94.1117 25.5285 92.7063 23.3029C90.5378 19.8688 94.5292 15.8774 97.9633 18.0459C100.189 19.4514 103.135 18.2309 103.715 15.6634C104.61 11.7018 110.255 11.7018 111.15 15.6634C111.73 18.2309 114.676 19.4514 116.902 18.046C120.336 15.8774 124.327 19.8688 122.159 23.3029C120.753 25.5285 121.974 28.4749 124.541 29.0549C128.503 29.9498 128.503 35.5945 124.541 36.4893C121.974 37.0693 120.753 40.0157 122.159 42.2413C124.327 45.6754 120.336 49.6668 116.902 47.4983C114.676 46.0929 111.73 47.3133 111.15 49.8808ZM107.432 25.1291C111.653 25.1291 115.075 28.551 115.075 32.7721C115.075 36.9932 111.653 40.415 107.432 40.415C103.211 40.415 99.7891 36.9932 99.7891 32.7721C99.7891 28.551 103.211 25.1291 107.432 25.1291Z"/>
</mask>
<path fill-rule="evenodd" clip-rule="evenodd" d="M111.15 49.8808C110.255 53.8425 104.61 53.8425 103.715 49.8808C103.135 47.3133 100.189 46.0929 97.9633 47.4983C94.5292 49.6668 90.5378 45.6754 92.7063 42.2413C94.1117 40.0157 92.8913 37.0693 90.3238 36.4893C86.3621 35.5945 86.3621 29.9498 90.3238 29.0549C92.8913 28.4749 94.1117 25.5285 92.7063 23.3029C90.5378 19.8688 94.5292 15.8774 97.9633 18.0459C100.189 19.4514 103.135 18.2309 103.715 15.6634C104.61 11.7018 110.255 11.7018 111.15 15.6634C111.73 18.2309 114.676 19.4514 116.902 18.046C120.336 15.8774 124.327 19.8688 122.159 23.3029C120.753 25.5285 121.974 28.4749 124.541 29.0549C128.503 29.9498 128.503 35.5945 124.541 36.4893C121.974 37.0693 120.753 40.0157 122.159 42.2413C124.327 45.6754 120.336 49.6668 116.902 47.4983C114.676 46.0929 111.73 47.3133 111.15 49.8808ZM107.432 25.1291C111.653 25.1291 115.075 28.551 115.075 32.7721C115.075 36.9932 111.653 40.415 107.432 40.415C103.211 40.415 99.7891 36.9932 99.7891 32.7721C99.7891 28.551 103.211 25.1291 107.432 25.1291Z" fill="#FFDB24"/>
<path d="M103.715 49.8808L105.581 49.4595L105.581 49.4595L103.715 49.8808ZM111.15 49.8808L109.284 49.4595L109.284 49.4595L111.15 49.8808ZM97.9633 47.4983L96.9422 45.8813L97.9633 47.4983ZM92.7063 42.2413L94.3233 43.2624L92.7063 42.2413ZM90.3238 36.4893L89.9024 38.3547L89.9024 38.3547L90.3238 36.4893ZM90.3238 29.0549L89.9024 27.1895L89.9024 27.1895L90.3238 29.0549ZM92.7063 23.3029L94.3233 22.2818L94.3233 22.2818L92.7063 23.3029ZM97.9633 18.0459L96.9422 19.6629L96.9422 19.6629L97.9633 18.0459ZM103.715 15.6634L105.581 16.0848L105.581 16.0848L103.715 15.6634ZM111.15 15.6634L109.284 16.0848L109.284 16.0848L111.15 15.6634ZM116.902 18.046L117.923 19.6629L117.923 19.6629L116.902 18.046ZM122.159 23.3029L123.776 24.324L123.776 24.324L122.159 23.3029ZM124.541 29.0549L124.963 27.1895L124.963 27.1895L124.541 29.0549ZM124.541 36.4893L124.963 38.3547L124.963 38.3547L124.541 36.4893ZM122.159 42.2413L120.542 43.2624L120.542 43.2624L122.159 42.2413ZM116.902 47.4983L117.923 45.8813L117.923 45.8813L116.902 47.4983ZM105.581 49.4595C106.026 51.4331 108.839 51.4331 109.284 49.4595L113.015 50.3022C111.671 56.2518 103.194 56.2518 101.85 50.3022L105.581 49.4595ZM96.9422 45.8813C100.285 43.7706 104.71 45.6035 105.581 49.4595L101.85 50.3022C101.561 49.0231 100.093 48.4151 98.9843 49.1153L96.9422 45.8813ZM94.3233 43.2624C93.243 44.9732 95.2314 46.9616 96.9422 45.8813L98.9843 49.1153C93.827 52.372 87.8326 46.3776 91.0893 41.2203L94.3233 43.2624ZM90.7451 34.624C94.6011 35.495 96.434 39.9199 94.3233 43.2624L91.0893 41.2203C91.7895 40.1115 91.1815 38.6437 89.9024 38.3547L90.7451 34.624ZM90.7451 30.9203C88.7715 31.3661 88.7715 34.1782 90.7451 34.624L89.9024 38.3547C83.9528 37.0108 83.9528 28.5334 89.9024 27.1895L90.7451 30.9203ZM94.3233 22.2818C96.434 25.6243 94.6011 30.0493 90.7451 30.9203L89.9024 27.1895C91.1815 26.9006 91.7895 25.4327 91.0893 24.324L94.3233 22.2818ZM96.9422 19.6629C95.2314 18.5826 93.243 20.5711 94.3233 22.2818L91.0893 24.324C87.8326 19.1666 93.827 13.1723 98.9843 16.429L96.9422 19.6629ZM105.581 16.0848C104.71 19.9407 100.285 21.7736 96.9422 19.6629L98.9843 16.429C100.093 17.1291 101.561 16.5211 101.85 15.242L105.581 16.0848ZM109.284 16.0848C108.839 14.1112 106.026 14.1112 105.581 16.0848L101.85 15.242C103.194 9.2924 111.671 9.29239 113.015 15.242L109.284 16.0848ZM117.923 19.6629C114.58 21.7736 110.155 19.9407 109.284 16.0848L113.015 15.242C113.304 16.5211 114.772 17.1291 115.881 16.429L117.923 19.6629ZM120.542 22.2818C121.622 20.571 119.634 18.5826 117.923 19.6629L115.881 16.429C121.038 13.1723 127.032 19.1666 123.776 24.324L120.542 22.2818ZM124.12 30.9203C120.264 30.0493 118.431 25.6243 120.542 22.2818L123.776 24.324C123.075 25.4327 123.683 26.9006 124.963 27.1895L124.12 30.9203ZM124.12 34.624C126.093 34.1782 126.093 31.3661 124.12 30.9203L124.963 27.1895C130.912 28.5334 130.912 37.0108 124.963 38.3547L124.12 34.624ZM120.542 43.2624C118.431 39.9199 120.264 35.495 124.12 34.624L124.963 38.3547C123.683 38.6437 123.075 40.1115 123.776 41.2203L120.542 43.2624ZM117.923 45.8813C119.634 46.9616 121.622 44.9732 120.542 43.2624L123.776 41.2203C127.032 46.3776 121.038 52.372 115.881 49.1153L117.923 45.8813ZM109.284 49.4595C110.155 45.6035 114.58 43.7706 117.923 45.8813L115.881 49.1153C114.772 48.4151 113.304 49.0231 113.015 50.3022L109.284 49.4595ZM113.163 32.7721C113.163 29.6072 110.597 27.0415 107.432 27.0415V23.2168C112.709 23.2168 116.987 27.4948 116.987 32.7721H113.163ZM107.432 38.5027C110.597 38.5027 113.163 35.937 113.163 32.7721H116.987C116.987 38.0494 112.709 42.3274 107.432 42.3274V38.5027ZM101.701 32.7721C101.701 35.937 104.267 38.5027 107.432 38.5027V42.3274C102.155 42.3274 97.8767 38.0494 97.8767 32.7721H101.701ZM107.432 27.0415C104.267 27.0415 101.701 29.6072 101.701 32.7721H97.8767C97.8767 27.4948 102.155 23.2168 107.432 23.2168V27.0415Z" fill="black" mask="url(#path-4-inside-1_678_18750)"/>
<path d="M97.3403 100.081L63.1342 118.421C60.015 120.094 56.1329 118.732 54.7419 115.478C53.3618 112.249 55.0221 108.529 58.3469 107.4L95.0985 94.9192C96.4951 94.445 98.0214 95.1257 98.6017 96.4817C99.1775 97.8269 98.6299 99.3891 97.3403 100.081Z" fill="#FF3571"/>
<path d="M97.3403 100.081L63.1342 118.421C60.015 120.094 56.1329 118.732 54.7419 115.478C53.3618 112.249 55.0221 108.529 58.3469 107.4L95.0985 94.9192C96.4951 94.445 98.0214 95.1257 98.6017 96.4817C99.1775 97.8269 98.6299 99.3891 97.3403 100.081Z" stroke="black" stroke-width="1.81306"/>
<path d="M97.3403 100.081L63.1342 118.421C60.015 120.094 56.1329 118.732 54.7419 115.478C53.3618 112.249 55.0221 108.529 58.3469 107.4L95.0985 94.9192C96.4951 94.445 98.0214 95.1257 98.6017 96.4817C99.1775 97.8269 98.6299 99.3891 97.3403 100.081Z" stroke="black" stroke-width="1.81306"/>
<path d="M97.3403 100.081L63.1342 118.421C60.015 120.094 56.1329 118.732 54.7419 115.478C53.3618 112.249 55.0221 108.529 58.3469 107.4L95.0985 94.9192C96.4951 94.445 98.0214 95.1257 98.6017 96.4817C99.1775 97.8269 98.6299 99.3891 97.3403 100.081Z" stroke="black" stroke-width="1.81306"/>
<circle cx="110.489" cy="90.6133" r="24.2483" transform="rotate(94.781 110.489 90.6133)" fill="#FFDB24"/>
<circle cx="110.489" cy="90.6133" r="24.2483" transform="rotate(94.781 110.489 90.6133)" stroke="black" stroke-width="1.81306"/>
<circle cx="110.489" cy="90.6133" r="24.2483" transform="rotate(94.781 110.489 90.6133)" stroke="black" stroke-width="1.81306"/>
<circle cx="110.489" cy="90.6133" r="24.2483" transform="rotate(94.781 110.489 90.6133)" stroke="black" stroke-width="1.81306"/>
<circle cx="110.489" cy="90.613" r="20.519" transform="rotate(94.781 110.489 90.613)" fill="#CDF9FF"/>
<circle cx="110.489" cy="90.613" r="20.519" transform="rotate(94.781 110.489 90.613)" stroke="black" stroke-width="1.81306"/>
<circle cx="110.489" cy="90.613" r="20.519" transform="rotate(94.781 110.489 90.613)" stroke="black" stroke-width="1.81306"/>
<circle cx="110.489" cy="90.613" r="20.519" transform="rotate(94.781 110.489 90.613)" stroke="black" stroke-width="1.81306"/>
<path d="M126.133 95.1112C127.506 94.7711 122.064 105.775 118.01 105.22C110.685 104.217 117.607 102.196 126.133 95.1112Z" fill="white"/>
<path d="M126.133 95.1112C127.506 94.7711 122.064 105.775 118.01 105.22C110.685 104.217 117.607 102.196 126.133 95.1112Z" stroke="black" stroke-width="1.81306" stroke-linecap="round" stroke-linejoin="round"/>
<path d="M126.133 95.1112C127.506 94.7711 122.064 105.775 118.01 105.22C110.685 104.217 117.607 102.196 126.133 95.1112Z" stroke="black" stroke-width="1.81306" stroke-linecap="round" stroke-linejoin="round"/>
<path d="M126.133 95.1112C127.506 94.7711 122.064 105.775 118.01 105.22C110.685 104.217 117.607 102.196 126.133 95.1112Z" stroke="black" stroke-width="1.81306" stroke-linecap="round" stroke-linejoin="round"/>
</g>
<defs>
<clipPath id="clip0_678_18750">
<rect width="141.031" height="122.227" fill="white"/>
</clipPath>
</defs>
</svg>
